<svg  viewBox="0 0 122 122" fill="none" xmlns="http://www.w3.org/2000/svg">
<g clip-path="url(#clip0)">
<path id="path646" d="M63.2026 43.091C55.4056 38.0252 51.8552 41.1413 48.6682 42.5683C45.4815 43.9962 42.0105 44.5547 42.0105 44.5547C42.0105 44.5547 38.5831 45.3374 35.0945 45.2067C31.605 45.0774 27.1449 43.5198 21.8143 51.1368C15.4252 60.267 22.2928 69.6351 24.8102 72.4936C27.3303 75.352 35.5482 82.2146 41.589 85.7429C46.5677 88.6513 50.3811 87.6126 50.3811 87.6126C50.3811 87.6126 53.6481 87.4133 57.8334 82.5845C62.4146 77.2998 67.1611 67.6083 68.4251 64.0149C69.6895 60.4201 72.5475 49.162 63.2026 43.091Z" fill="#EC1546"/>
<path id="path648" d="M35.3494 75.0662C34.5846 75.0662 33.3788 74.0119 31.2062 71.5958C31.205 71.3578 31.1836 71.1176 31.1383 70.8854C30.9361 69.8437 30.2959 69.5398 29.7386 69.5398C29.6341 69.5398 29.5324 69.5505 29.437 69.5689C29.434 69.5694 29.4312 69.5703 29.428 69.5707C28.4335 68.4163 27.6455 67.2925 27.0472 66.1753C27.4612 65.4641 27.6702 64.1961 27.4519 63.0713C27.1895 61.7211 26.3586 61.326 25.6351 61.326C25.6197 61.326 25.6041 61.3264 25.5887 61.3269C25.4374 59.4083 25.7437 57.4106 26.4242 55.2203C27.5719 51.529 30.1752 50.9471 31.7029 50.9471C32.4064 50.9471 32.8817 51.0706 32.8817 51.0706C38.38 52.8693 30.831 56.7492 31.6769 64.051C32.0858 67.5852 36.9632 73.694 35.9182 74.8058C35.7571 74.9768 35.5719 75.0662 35.3494 75.0662ZM29.9814 54.1333C29.989 54.1813 29.9977 54.2303 30.0074 54.2801C30.3052 55.8112 31.5573 57.2683 32.3505 57.2683C32.3889 57.2683 32.4262 57.2651 32.4622 57.258C33.2465 57.1039 33.8062 55.2082 33.4942 53.6026C33.2315 52.2497 32.399 51.8559 31.6752 51.8559C31.5398 51.8559 31.4079 51.8698 31.2844 51.8936C31.2695 51.8963 31.2546 51.8995 31.2399 51.9026C31.2229 51.9057 31.2058 51.9089 31.1894 51.912C30.4511 52.0557 29.684 52.6147 29.9551 54.0112C29.963 54.052 29.9718 54.0924 29.9814 54.1333Z" fill="#F03D7E"/>
<path id="path650" d="M48.669 42.5683C45.4823 43.9962 42.0113 44.5547 42.0113 44.5547C42.0113 44.5547 38.5839 45.3374 35.0953 45.2067C33.7011 45.1551 32.1513 44.8776 30.4537 45.0459C30.4537 45.0459 38.1044 46.0347 40.2239 49.0237C40.2239 49.0237 45.1141 43.8233 51.8435 43.2239C58.5724 42.624 68.9342 44.6189 65.651 59.9895C63.2587 71.1869 54.0863 78.3002 51.8771 83.669C49.1256 90.3593 29.4618 76.4673 25.2676 72.9866C28.2047 76.0767 35.8699 82.4032 41.5899 85.7429C46.5685 88.6513 50.3819 87.6126 50.3819 87.6126C50.3819 87.6126 53.6489 87.4133 57.8342 82.5845C62.4154 77.2998 67.1619 67.6083 68.4259 64.0149C69.6903 60.4201 72.5483 49.162 63.2035 43.091C55.4064 38.0252 51.856 41.1413 48.669 42.5683Z" fill="#D31841"/>
<path id="path652" d="M48.7084 85.4664C42.225 85.4668 28.6658 75.8082 25.2666 72.987C26.5587 74.3466 28.7658 76.3322 31.3198 78.4147C28.4365 76.0646 25.9943 73.837 24.8101 72.494C23.051 70.4968 19.1683 65.3211 19.168 59.2697C19.1678 56.6601 19.8894 53.8879 21.8141 51.1372C23.3027 49.0103 24.723 47.599 26.0738 46.6718C26.4104 46.582 26.7345 46.4864 27.0411 46.3899C27.9175 46.1137 28.6518 45.8259 29.1311 45.6247C26.7925 46.8083 26.5728 48.8944 26.7033 50.2033C25.6692 50.9029 24.6841 51.7237 23.8259 52.6603C17.9926 59.0232 23.6421 67.5051 25.5573 69.8251C27.4732 72.146 35.3531 78.0609 39.911 80.9561C40.5342 81.3522 41.132 81.6602 41.696 81.8991C41.8411 82.0067 41.9834 82.0683 42.1063 82.0683C42.1107 82.0683 42.1149 82.0683 42.1193 82.0683C43.4149 82.5545 44.5069 82.6767 45.278 82.6767C46.0597 82.6767 46.5119 82.551 46.5119 82.551C46.5119 82.551 47.2518 82.5136 48.4309 81.841C48.7623 82.8774 49.593 83.7786 50.1403 83.7786C50.1699 83.7786 50.1991 83.776 50.227 83.7705C50.8304 83.6525 51.2624 82.1909 51.0222 80.9547C50.9508 80.5883 50.8255 80.3135 50.6688 80.1111C51.1043 79.6857 51.5614 79.1861 52.0333 78.5997C52.6494 77.8337 53.2304 76.9778 53.784 76.0717C54.1769 76.6968 54.7023 77.1431 55.0871 77.1431C55.1167 77.1431 55.1459 77.1404 55.1737 77.135C55.7776 77.0183 56.2087 75.5545 55.9685 74.3184C55.8639 73.7809 55.642 73.4396 55.3753 73.2358C57.139 69.8767 58.6841 66.3803 60.376 64.3696C63.5671 60.5782 62.6794 51.95 55.6214 46.9799C53.4576 45.4555 51.9058 44.9301 50.6903 44.9301C48.5975 44.9301 47.5024 46.4886 46.0045 47.1918C43.6352 48.3026 41.1014 54.7545 41.1014 54.7545C41.1014 54.7545 40.7571 54.0244 40.2036 53.02C40.6386 51.0645 42.0116 49.1486 43.5847 48.2604C44.8019 47.5734 45.2576 46.2538 45.4217 45.209C46.9308 44.412 48.7066 43.712 50.667 43.3774C54.81 44.0348 56.7102 46.8609 56.7188 46.8734C56.7709 46.5439 56.7947 46.2345 56.7947 45.944C56.7942 44.7379 56.382 43.8579 55.8675 43.2288C61.4199 43.778 67.2014 46.8604 66.1525 56.8819C65.4525 58.039 64.9132 59.2374 64.4992 60.3784C64.4382 60.3806 64.3785 60.3878 64.3223 60.3986C64.3138 60.4004 64.3048 60.4021 64.2963 60.4039C64.2878 60.4057 64.2792 60.4071 64.2702 60.4089C64.272 60.4089 64.2734 60.4084 64.2747 60.4084C64.2729 60.4089 64.2711 60.4093 64.2693 60.4098C63.8527 60.4897 63.4198 60.8054 63.5725 61.5929C63.577 61.6172 63.5824 61.6414 63.5882 61.6657C63.5922 61.6913 63.5967 61.7177 63.6021 61.7442C63.6493 61.989 63.74 62.2301 63.8558 62.4496C63.5469 63.6292 63.374 64.6502 63.2829 65.3624C63.2258 65.8114 63.1751 66.3686 63.1342 67.0098C62.4603 68.3496 61.7131 69.6172 60.9314 70.821C61.1056 70.4066 61.1806 69.795 61.0733 69.245C60.9251 68.483 60.4554 68.2612 60.0473 68.2612C59.971 68.2612 59.8969 68.2688 59.8273 68.2823C59.8192 68.2841 59.8107 68.2854 59.8021 68.2877C59.7923 68.289 59.7828 68.2908 59.7729 68.2926C59.3567 68.3739 58.9248 68.6895 59.0774 69.4771C59.0824 69.5018 59.0878 69.5265 59.0936 69.5512C59.0976 69.5759 59.1021 69.6015 59.1071 69.6271C59.2745 70.491 59.9804 71.3136 60.429 71.3136C60.4505 71.3136 60.4716 71.3118 60.4923 71.3077C60.556 71.2956 60.6175 71.2624 60.675 71.2116C57.2419 76.3914 53.2371 80.3615 51.8762 83.6695C51.3544 84.938 50.2247 85.4664 48.7084 85.4664ZM61.6673 52.016C61.675 52.064 61.6835 52.1129 61.6934 52.1628C61.9902 53.693 63.2429 55.1492 64.0363 55.1492C64.0745 55.1492 64.1122 55.1456 64.1481 55.1384C64.9316 54.9866 65.492 53.0886 65.1799 51.4839C64.9173 50.1324 64.0857 49.7377 63.3623 49.7377C63.2267 49.7377 63.0943 49.7516 62.9708 49.7758C62.96 49.7781 62.9493 49.7803 62.9385 49.7826C62.9165 49.7862 62.8949 49.7898 62.8738 49.7938C62.1365 49.9379 61.3692 50.4965 61.6404 51.892C61.6485 51.9333 61.6574 51.9747 61.6673 52.016ZM58.8781 45.7428C58.8821 45.7689 58.8871 45.7949 58.892 45.8214C59.0595 46.6853 59.7653 47.5074 60.2134 47.5074C60.235 47.5074 60.2561 47.5052 60.2763 47.5016C60.7181 47.4154 61.0333 46.345 60.8582 45.4397C60.7096 44.6769 60.2404 44.4546 59.8327 44.4546C59.7559 44.4546 59.6818 44.4622 59.6118 44.4757C59.6023 44.478 59.5929 44.4798 59.5835 44.482C59.5749 44.4834 59.5668 44.4847 59.5583 44.4865C59.1421 44.5678 58.7092 44.883 58.8624 45.6696C58.8673 45.6939 58.8722 45.7186 58.8781 45.7428ZM37.3317 48.7705C36.5606 47.9192 35.7615 47.3135 35.0288 47.2735C34.937 47.2686 34.8423 47.2659 34.7441 47.2659C33.4048 47.2659 31.4944 47.7306 29.5164 48.6295C30.331 47.9582 31.2818 47.3539 32.2822 47.0782C33.4718 46.7504 34.6071 46.4536 35.5298 46.2174C36.1406 46.4199 36.7526 46.6516 37.332 46.9161C37.2357 47.5142 37.2465 48.141 37.3317 48.7705Z" fill="#C31E25"/>
<path id="path654" d="M48.5872 87.7929C47.0018 87.7929 44.494 87.4395 41.5899 85.7431C38.3876 83.8725 34.5735 81.0653 31.3208 78.4144C28.7667 76.3319 26.5597 74.3464 25.2676 72.9868C28.6667 75.8079 42.226 85.4665 48.7094 85.4662C50.2257 85.4662 51.3554 84.9377 51.8772 83.6693C53.2381 80.3613 57.2428 76.3912 60.676 71.2114C60.7743 71.1256 60.8614 70.9896 60.9324 70.8208C61.7141 69.617 62.4612 68.3494 63.1352 67.0096C63.0661 68.0926 63.0239 69.4163 63.0239 70.8657C63.0239 72.1337 63.0562 73.4978 63.1303 74.8821C61.49 77.7059 59.6491 80.4911 57.8342 82.5848C53.649 87.4136 50.3819 87.6128 50.3819 87.6128C50.3819 87.6128 49.7201 87.7929 48.5872 87.7929ZM66.1535 56.8817C67.2024 46.8602 61.4209 43.7777 55.8684 43.2286C55.0135 42.1833 53.8753 41.8322 53.8753 41.8322C55.8069 41.8232 57.1925 41.3575 58.1862 40.6979C59.6419 41.1025 61.2961 41.8519 63.2035 43.0912C67.2782 45.7386 69.0325 49.3719 69.6109 52.9263C68.1596 54.0497 67.0304 55.4332 66.1535 56.8817ZM37.333 46.9159C36.7535 46.6514 36.1416 46.4197 35.5308 46.2172C36.8401 45.8827 37.7215 45.6712 37.7215 45.6712C37.7197 45.6748 37.718 45.6784 37.7162 45.682C37.7161 45.6824 37.7159 45.6824 37.7159 45.6829C37.7034 45.708 37.6913 45.7336 37.6796 45.7592L37.6794 45.7597C37.678 45.7628 37.6766 45.7659 37.6752 45.7686C37.6748 45.7695 37.6743 45.7704 37.674 45.7713C37.6729 45.7736 37.6721 45.7758 37.6712 45.7776C37.5058 46.14 37.3963 46.5216 37.333 46.9159ZM45.4226 45.2087C45.4931 44.7597 45.5093 44.3614 45.5093 44.0857C45.5093 43.9093 45.5025 43.7831 45.4989 43.7265C45.661 43.678 45.8267 43.6277 45.9942 43.5748C47.0503 43.3417 48.0228 43.2416 48.9141 43.2416C48.9146 43.2416 48.9146 43.2416 48.915 43.2416C48.9155 43.2416 48.9159 43.2416 48.9164 43.2416C49.5396 43.2416 50.1229 43.2905 50.668 43.3772C48.7076 43.7117 46.9317 44.4117 45.4226 45.2087Z" fill="#AA1C22"/>
<path id="path656" d="M46.481 53.4998C46.7217 54.735 46.2906 56.1993 45.6876 56.316C45.0843 56.4336 44.0361 55.2581 43.7962 54.0215C43.5557 52.785 44.1771 52.3009 44.7801 52.1846C45.3827 52.0675 46.2408 52.2637 46.481 53.4998Z" fill="#AB1935"/>
<path id="path658" d="M46.2869 53.3231C46.4961 54.398 46.0709 55.6795 45.5015 55.7899C44.9353 55.8995 43.9652 54.8901 43.7559 53.8147C43.5469 52.7393 44.1378 52.3087 44.7058 52.1978C45.2734 52.0874 46.0776 52.2468 46.2869 53.3231Z" fill="#F9DD06"/>
<path id="path660" d="M44.7087 52.1978C45.2305 52.1722 45.8146 52.3545 45.956 53.0855C46.1248 53.9529 45.6556 55.0099 45.0869 55.1204C44.8073 55.1756 44.4395 55.0099 44.1182 54.7257C44.5116 55.3875 45.1028 55.8675 45.5016 55.7898C46.071 55.6794 46.4962 54.3979 46.2869 53.323C46.0786 52.2489 45.2771 52.0882 44.7087 52.1978Z" fill="#F6A90D"/>
<path id="path662" d="M44.2479 54.0546C44.2474 54.0546 44.2468 54.0546 44.2463 54.0546C44.0685 54.0533 43.9266 53.7708 43.9297 53.4233C43.9327 53.0749 44.078 52.7956 44.2561 52.7956C44.2567 52.7956 44.2572 52.7956 44.2579 52.7956C44.4363 52.7978 44.5787 53.0794 44.574 53.4278C44.571 53.7749 44.4264 54.0546 44.2479 54.0546Z" fill="#FBF582"/>
<path id="path664" d="M37.7896 62.6915C38.0299 63.9268 37.5977 65.3901 36.9958 65.5064C36.3926 65.6227 35.345 64.449 35.1045 63.2137C34.8647 61.9767 35.486 61.4922 36.0876 61.375C36.6908 61.2574 37.5495 61.455 37.7896 62.6915Z" fill="#AB1935"/>
<path id="path666" d="M37.5947 62.5131C37.8043 63.5876 37.3782 64.87 36.8101 64.98C36.2419 65.0909 35.2735 64.0802 35.0646 63.0048C34.8554 61.9294 35.4457 61.4988 36.0139 61.3879C36.5828 61.2779 37.3856 61.4373 37.5947 62.5131Z" fill="#F9DD06"/>
<path id="path668" d="M36.016 61.3875C36.5369 61.3624 37.1208 61.5451 37.2629 62.2766C37.4314 63.1432 36.9624 64.201 36.3947 64.3115C36.1145 64.3654 35.746 64.2006 35.4258 63.9159C35.8181 64.5782 36.4102 65.0578 36.8095 64.9801C37.3775 64.8701 37.8036 63.5877 37.594 62.5132C37.3849 61.4392 36.5848 61.2784 36.016 61.3875Z" fill="#F6A90D"/>
<path id="path670" d="M35.5512 63.2458C35.5503 63.2458 35.5495 63.2458 35.5486 63.2458C35.3705 63.2449 35.2285 62.9607 35.2325 62.6127C35.2352 62.2678 35.38 61.9863 35.5573 61.9863C35.5582 61.9863 35.5589 61.9863 35.5598 61.9863C35.7371 61.9872 35.8806 62.271 35.8766 62.6189C35.8737 62.9647 35.7284 63.2458 35.5512 63.2458Z" fill="#FBF582"/>
<path id="path672" d="M31.1371 70.8861C31.3778 72.1227 30.9459 73.5851 30.3433 73.7023C29.7408 73.82 28.6929 72.6444 28.4524 71.4079C28.2121 70.1708 28.8332 69.6864 29.4358 69.5696C30.0388 69.452 30.8969 69.6491 31.1371 70.8861Z" fill="#AB1935"/>
<path id="path674" d="M30.9403 70.7083C31.149 71.7824 30.7244 73.0647 30.156 73.1752C29.588 73.2857 28.6195 72.274 28.4102 71.1996C28.2011 70.1246 28.7917 69.6927 29.3598 69.5827C29.9284 69.4713 30.7314 69.6334 30.9403 70.7083Z" fill="#F9DD06"/>
<path id="path676" d="M29.3653 69.5823C29.887 69.5581 30.4705 69.7404 30.6126 70.4709C30.7806 71.3384 30.3127 72.3958 29.7443 72.505C29.4639 72.5602 29.0966 72.3949 28.7764 72.1103C29.1682 72.773 29.761 73.2526 30.1592 73.1753C30.7276 73.0649 31.1523 71.7825 30.9435 70.7085C30.7346 69.6353 29.9349 69.4732 29.3653 69.5823Z" fill="#F6A90D"/>
<path id="path678" d="M28.9015 71.4409C28.9008 71.4409 28.9001 71.4409 28.8994 71.4409C28.721 71.4405 28.5786 71.1567 28.5821 70.8096C28.5842 70.4616 28.7317 70.181 28.9087 70.181C28.9088 70.181 28.9092 70.181 28.9094 70.181C29.0879 70.1833 29.2302 70.467 29.2266 70.815C29.2237 71.1603 29.0786 71.4409 28.9015 71.4409Z" fill="#FBF582"/>
<path id="path680" d="M48.4953 75.078C48.7351 76.3142 48.3045 77.7771 47.7019 77.8938C47.0994 78.0114 46.0509 76.8368 45.8107 75.6002C45.5705 74.3637 46.1924 73.8796 46.794 73.7633C47.3966 73.6453 48.2551 73.8415 48.4953 75.078Z" fill="#AB1935"/>
<path id="path682" d="M48.2996 74.9007C48.5089 75.977 48.0827 77.2576 47.5147 77.3676C46.9467 77.4781 45.9778 76.4687 45.7685 75.3928C45.5597 74.3179 46.1502 73.8873 46.7182 73.7764C47.2871 73.6664 48.0908 73.8271 48.2996 74.9007Z" fill="#F9DD06"/>
<path id="path684" d="M46.7233 73.7761C47.2441 73.7514 47.8296 73.9341 47.9715 74.6642C48.1399 75.5313 47.6707 76.5891 47.1022 76.6996C46.822 76.7544 46.4548 76.5887 46.1328 76.304C46.5252 76.9663 47.1184 77.445 47.5171 77.3677C48.0851 77.2577 48.5112 75.9771 48.302 74.9009C48.0932 73.8286 47.2917 73.667 46.7233 73.7761Z" fill="#F6A90D"/>
<path id="path686" d="M46.2617 75.6352C46.2613 75.6352 46.2608 75.6352 46.2604 75.6352C46.0817 75.6343 45.9384 75.3501 45.9425 75.003C45.9447 74.655 46.0915 74.3757 46.2684 74.3757C46.2689 74.3757 46.2698 74.3757 46.2702 74.3757C46.4481 74.3766 46.5904 74.6591 46.5872 75.0079C46.5837 75.3537 46.4386 75.6352 46.2617 75.6352Z" fill="#FBF582"/>
<path id="path688" d="M55.9706 74.3185C56.2108 75.5546 55.7797 77.0184 55.1758 77.1352C54.5737 77.2524 53.5257 76.0764 53.2855 74.8407C53.0448 73.6046 53.6667 73.1201 54.2688 73.0038C54.8714 72.8857 55.7304 73.0828 55.9706 74.3185Z" fill="#AB1935"/>
<path id="path690" d="M55.7734 74.1421C55.9826 75.2165 55.5574 76.4989 54.9894 76.6089C54.4209 76.7194 53.4524 75.7087 53.2432 74.6337C53.0344 73.5588 53.6244 73.1277 54.1919 73.0173C54.7608 72.9068 55.5641 73.0676 55.7734 74.1421Z" fill="#F9DD06"/>
<path id="path692" d="M54.1926 73.0168C54.7144 72.9921 55.2981 73.1753 55.4404 73.9045C55.6088 74.772 55.1396 75.8294 54.572 75.9394C54.2914 75.9946 53.9237 75.8289 53.6035 75.5447C53.9955 76.207 54.5877 76.687 54.9869 76.6089C55.5549 76.4989 55.9801 75.2165 55.7709 74.142C55.5626 73.0693 54.7611 72.9072 54.1926 73.0168Z" fill="#F6A90D"/>
<path id="path694" d="M53.7315 74.8746C53.7311 74.8746 53.7306 74.8746 53.7302 74.8746C53.5519 74.8729 53.4096 74.5895 53.4132 74.242C53.4167 73.894 53.5618 73.6152 53.7391 73.6152C53.7396 73.6152 53.74 73.6152 53.7409 73.6152C53.9183 73.617 54.062 73.8989 54.0579 74.2465C54.0543 74.5936 53.9089 74.8746 53.7315 74.8746Z" fill="#FBF582"/>
<path id="path696" d="M58.3731 56.1427C58.6133 57.3788 58.1818 58.8426 57.5784 58.9593C56.9753 59.0765 55.9282 57.9014 55.688 56.6649C55.4469 55.4265 56.0683 54.9438 56.6714 54.8271C57.2739 54.7099 58.1324 54.9052 58.3731 56.1427Z" fill="#AB1935"/>
<path id="path698" d="M58.1827 55.9653C58.3919 57.0407 57.9663 58.3226 57.3974 58.4331C56.8303 58.5435 55.8613 57.5319 55.6525 56.4565C55.4433 55.3812 56.0333 54.9515 56.6022 54.8406C57.1702 54.7305 57.9739 54.8904 58.1827 55.9653Z" fill="#F9DD06"/>
<path id="path700" d="M56.6022 54.8407C57.1235 54.8146 57.7077 54.9974 57.8501 55.7306C58.018 56.5954 57.5492 57.6537 56.9803 57.7642C56.7006 57.8185 56.3333 57.6528 56.0127 57.3682C56.4051 58.0309 56.9965 58.5104 57.3952 58.4332C57.9641 58.3228 58.3898 57.0408 58.1805 55.9654C57.9722 54.8923 57.1707 54.732 56.6022 54.8407Z" fill="#F6A90D"/>
<path id="path702" d="M56.141 56.6979C56.1401 56.6979 56.1392 56.6979 56.1383 56.6979C55.9587 56.6974 55.8172 56.4132 55.8204 56.0657C55.8231 55.7181 55.9699 55.438 56.1477 55.438H56.1481C56.3264 55.4402 56.4683 55.7235 56.4651 56.0715C56.4611 56.4168 56.3174 56.6979 56.141 56.6979Z" fill="#FBF582"/>
<path id="path704" d="M53.4249 47.6456C53.6652 48.8822 53.2332 50.3446 52.6302 50.4614C52.029 50.579 50.9805 49.4044 50.7394 48.1674C50.4992 46.9308 51.1211 46.4472 51.7236 46.3296C52.3262 46.2119 53.1843 46.4086 53.4249 47.6456Z" fill="#AB1935"/>
<path id="path706" d="M53.2329 47.4688C53.4421 48.5442 53.0169 49.8266 52.4485 49.9371C51.8805 50.0475 50.9115 49.0368 50.7023 47.9619C50.493 46.8869 51.0844 46.4554 51.6515 46.3454C52.2199 46.2345 53.0241 46.3944 53.2329 47.4688Z" fill="#F9DD06"/>
<path id="path708" d="M51.6521 46.3449C52.1738 46.3198 52.7575 46.5016 52.8999 47.2326C53.0682 48.1001 52.5995 49.158 52.031 49.2675C51.7508 49.3214 51.3826 49.1571 51.0625 48.8711C51.4549 49.5347 52.0472 50.0151 52.4459 49.937C53.0143 49.8266 53.4396 48.5442 53.2303 47.4688C53.022 46.3961 52.2209 46.2349 51.6521 46.3449Z" fill="#F6A90D"/>
<path id="path710" d="M51.1894 48.2C51.189 48.2 51.1881 48.2 51.1876 48.2C51.0098 48.1991 50.8675 47.9158 50.8702 47.5673C50.8737 47.2207 51.0197 46.9405 51.1966 46.9405C51.197 46.9405 51.1975 46.9405 51.1984 46.9405C51.3766 46.9419 51.5194 47.2252 51.5158 47.5732C51.5122 47.9203 51.3672 48.2 51.1894 48.2Z" fill="#FBF582"/>
<path id="path712" d="M51.0223 80.9542C51.2625 82.1903 50.8306 83.6519 50.2271 83.77C49.6254 83.8871 48.5774 82.7133 48.3372 81.4763C48.0965 80.2403 48.7189 79.7553 49.3205 79.6381C49.9236 79.5214 50.7816 79.7176 51.0223 80.9542Z" fill="#AB1935"/>
<path id="path714" d="M50.8252 80.7791C51.034 81.8541 50.6092 83.1346 50.0403 83.2446C49.4723 83.3554 48.5038 82.3451 48.295 81.2703C48.0858 80.1936 48.6771 79.7639 49.2442 79.6539C49.8131 79.5425 50.616 79.7023 50.8252 80.7791Z" fill="#F9DD06"/>
<path id="path716" d="M49.2478 79.653C49.7696 79.6274 50.3533 79.8102 50.4956 80.5416C50.6649 81.4095 50.1952 82.4666 49.6273 82.5756C49.3471 82.6313 48.9789 82.4666 48.6592 82.1808C49.0507 82.8436 49.6434 83.3227 50.0417 83.2446C50.6106 83.1346 51.0353 81.8541 50.8266 80.7791C50.6178 79.7046 49.8172 79.5434 49.2478 79.653Z" fill="#F6A90D"/>
<path id="path718" d="M48.7836 81.5094C48.7827 81.5094 48.7818 81.5094 48.7809 81.5094C48.6017 81.5094 48.4594 81.2239 48.463 80.8771C48.4665 80.5297 48.6134 80.2494 48.7903 80.2494C48.7907 80.2494 48.7907 80.2494 48.7907 80.2494C48.969 80.2526 49.1109 80.5346 49.1082 80.8826C49.1055 81.2288 48.96 81.5094 48.7836 81.5094Z" fill="#FBF582"/>
<path id="path720" d="M50.5212 66.2436C50.6972 67.1492 50.3811 68.2197 49.9401 68.3059C49.4988 68.3916 48.7305 67.5309 48.5545 66.6257C48.378 65.72 48.8347 65.3658 49.2747 65.28C49.7156 65.1938 50.3451 65.337 50.5212 66.2436Z" fill="#AB1935"/>
<path id="path722" d="M50.378 66.1149C50.5307 66.9011 50.2191 67.8396 49.8033 67.9209C49.3884 68.0012 48.6776 67.2604 48.5245 66.4746C48.3718 65.6875 48.8047 65.3714 49.2214 65.2905C49.6367 65.2093 50.2254 65.3269 50.378 66.1149Z" fill="#F9DD06"/>
<path id="path724" d="M49.222 65.2898C49.6032 65.2718 50.0307 65.4056 50.1353 65.9417C50.2579 66.5757 49.9153 67.3494 49.499 67.4302C49.2934 67.4702 49.0253 67.3503 48.79 67.1415C49.0779 67.6255 49.5107 67.9771 49.8026 67.921C50.2183 67.8397 50.53 66.9013 50.3773 66.115C50.2246 65.3279 49.6387 65.2098 49.222 65.2898Z" fill="#F6A90D"/>
<path id="path726" d="M48.8861 66.6515C48.8857 66.6515 48.8852 66.6515 48.8843 66.6515C48.7528 66.651 48.6486 66.4436 48.6504 66.1876C48.6527 65.9344 48.7604 65.7292 48.8902 65.7292C48.8906 65.7292 48.8911 65.7292 48.8915 65.7292C49.0226 65.7301 49.1259 65.9371 49.1237 66.1921C49.1214 66.4449 49.0146 66.6515 48.8861 66.6515Z" fill="#FBF582"/>
<path id="path728" d="M42.7523 80.0008C42.9284 80.9041 42.6114 81.976 42.1712 82.0623C41.7289 82.148 40.9617 81.2867 40.7859 80.3815C40.6097 79.4772 41.065 79.1225 41.5058 79.0377C41.9478 78.951 42.5762 79.0938 42.7523 80.0008Z" fill="#AB1935"/>
<path id="path730" d="M42.6048 79.8699C42.7579 80.6566 42.4466 81.5955 42.0302 81.6772C41.6143 81.758 40.905 81.0166 40.7522 80.23C40.5991 79.4434 41.0317 79.1273 41.4475 79.0465C41.8632 78.9656 42.4518 79.0824 42.6048 79.8699Z" fill="#F9DD06"/>
<path id="path732" d="M41.4536 79.0461C41.8349 79.0277 42.2623 79.1615 42.3664 79.6964C42.4903 80.332 42.1467 81.1062 41.7306 81.1874C41.5257 81.2265 41.2557 81.1053 41.0225 80.8978C41.3083 81.3819 41.7428 81.7339 42.0343 81.6773C42.4507 81.5955 42.762 80.6567 42.6089 79.87C42.456 79.0834 41.8694 78.9657 41.4536 79.0461Z" fill="#F6A90D"/>
<path id="path734" d="M41.1116 80.4069C41.1114 80.4069 41.111 80.4069 41.1107 80.4069C40.9793 80.4064 40.8762 80.1986 40.878 79.9435C40.8802 79.6898 40.9886 79.4842 41.1177 79.4838C41.2491 79.4869 41.3535 79.6934 41.3513 79.9481C41.3482 80.2026 41.241 80.4069 41.1116 80.4069Z" fill="#FBF582"/>
<path id="path736" d="M61.0735 69.2452C61.25 70.1508 60.933 71.2226 60.4925 71.3079C60.0502 71.3937 59.2828 70.533 59.1073 69.6273C58.9308 68.723 59.3866 68.3687 59.8275 68.2825C60.2684 68.1972 60.8975 68.3409 61.0735 69.2452Z" fill="#AB1935"/>
<path id="path738" d="M60.9323 69.1155C61.0854 69.9018 60.7734 70.842 60.3576 70.9219C59.9413 71.0027 59.2324 70.2628 59.0792 69.4765C58.9266 68.689 59.3585 68.3733 59.7748 68.2921C60.1905 68.2117 60.7796 68.328 60.9323 69.1155Z" fill="#F9DD06"/>
<path id="path740" d="M59.7747 68.2924C60.155 68.2731 60.5834 68.4078 60.6876 68.9435C60.811 69.578 60.4675 70.353 60.0518 70.4329C59.8466 70.4733 59.5767 70.3521 59.3428 70.1437C59.6292 70.6291 60.0639 70.9802 60.3553 70.9227C60.7711 70.8428 61.0831 69.9026 60.93 69.1164C60.7774 68.3297 60.191 68.2125 59.7747 68.2924Z" fill="#F6A90D"/>
<path id="path742" d="M59.437 69.6535C59.4366 69.6535 59.4361 69.6535 59.4357 69.6535C59.3046 69.6526 59.1999 69.4447 59.2022 69.1893C59.2044 68.9365 59.3113 68.7308 59.4411 68.7308C59.4415 68.7308 59.442 68.7308 59.4424 68.7308C59.5731 68.7322 59.6777 68.9392 59.6754 69.1937C59.6723 69.4465 59.5659 69.6535 59.437 69.6535Z" fill="#FBF582"/>
<path id="path744" d="M65.5699 61.3612C65.7459 62.2664 65.4289 63.3368 64.9885 63.423C64.5466 63.5084 63.7793 62.6494 63.6033 61.7433C63.4272 60.8376 63.8821 60.4838 64.3235 60.3976C64.7653 60.3123 65.3939 60.4546 65.5699 61.3612Z" fill="#AB1935"/>
<path id="path746" d="M65.4264 61.232C65.5795 62.0191 65.2679 62.9571 64.8517 63.0379C64.4363 63.1187 63.726 62.3792 63.5733 61.5921C63.4207 60.8045 63.8535 60.4889 64.2702 60.4089C64.6855 60.3272 65.2733 60.4435 65.4264 61.232Z" fill="#F9DD06"/>
<path id="path748" d="M64.2708 60.408C64.652 60.39 65.0804 60.5234 65.1846 61.0577C65.308 61.6935 64.9645 62.4685 64.5488 62.5488C64.3431 62.5884 64.0737 62.4671 63.8389 62.2583C64.1258 62.7428 64.56 63.0953 64.8514 63.0378C65.2676 62.957 65.5792 62.019 65.4261 61.2319C65.2735 60.4457 64.6875 60.3271 64.2708 60.408Z" fill="#F6A90D"/>
<path id="path750" d="M63.9326 61.7695H63.9322C63.8006 61.7682 63.6965 61.5603 63.6983 61.307C63.701 61.0511 63.8078 60.8468 63.9385 60.8459C64.0691 60.8477 64.1733 61.0556 64.172 61.3106C64.1715 61.3272 64.1711 61.3434 64.1697 61.3596C64.1361 61.4673 64.1037 61.5742 64.0723 61.6801C64.0328 61.7363 63.9847 61.7695 63.9326 61.7695Z" fill="#FBF582"/>
<path id="path752" d="M51.6353 57.3916C51.8108 58.2969 51.4956 59.3668 51.0543 59.454C50.612 59.5393 49.8455 58.6785 49.6695 57.7742C49.494 56.8685 49.9484 56.5138 50.3893 56.4285C50.8311 56.3423 51.4593 56.486 51.6353 57.3916Z" fill="#AB1935"/>
<path id="path754" d="M51.4917 57.264C51.6448 58.0515 51.3332 58.99 50.9178 59.0717C50.5021 59.152 49.7931 58.4112 49.64 57.6241C49.4868 56.8378 49.9188 56.5217 50.3346 56.4405C50.7504 56.3596 51.3381 56.4768 51.4917 57.264Z" fill="#F9DD06"/>
<path id="path756" d="M50.3362 56.4392C50.717 56.4199 51.1454 56.5546 51.2491 57.0899C51.373 57.7248 51.03 58.4984 50.6133 58.5801C50.4081 58.6192 50.1391 58.4984 49.9043 58.2901C50.1912 58.7759 50.6254 59.1266 50.9177 59.0709C51.3331 58.9892 51.6447 58.0508 51.4916 57.2632C51.3384 56.4779 50.7525 56.3598 50.3362 56.4392Z" fill="#F6A90D"/>
<path id="path758" d="M49.9996 57.8004C49.9992 57.8004 49.9987 57.8004 49.9983 57.8004C49.8676 57.7995 49.7634 57.5916 49.7657 57.3366C49.7679 57.082 49.8752 56.8777 50.005 56.8777H50.0054C50.1365 56.8786 50.2398 57.0856 50.238 57.3406C50.2358 57.5943 50.1294 57.8004 49.9996 57.8004Z" fill="#FBF582"/>
<path id="path760" d="M60.8585 45.44C61.0337 46.3452 60.7184 47.4156 60.2766 47.5018C59.8352 47.5867 59.0679 46.7273 58.8923 45.8216C58.7163 44.916 59.1712 44.5617 59.6121 44.476C60.0535 44.3902 60.6821 44.5339 60.8585 45.44Z" fill="#AB1935"/>
<path id="path762" d="M60.7176 45.3097C60.8702 46.0973 60.5591 47.0366 60.1433 47.1165C59.7271 47.1982 59.0172 46.4574 58.8645 45.6702C58.7114 44.8836 59.1442 44.5684 59.5605 44.4871C59.9758 44.4058 60.5645 44.523 60.7176 45.3097Z" fill="#F9DD06"/>
<path id="path764" d="M59.5594 44.4862C59.9406 44.4674 60.3685 44.6025 60.4727 45.1378C60.5957 45.7722 60.2532 46.5463 59.8369 46.6276C59.6313 46.6671 59.3628 46.5463 59.1279 46.3375C59.4148 46.8215 59.8486 47.174 60.1409 47.1166C60.5567 47.0366 60.8678 46.0973 60.7152 45.3097C60.563 44.524 59.9757 44.4068 59.5594 44.4862Z" fill="#F6A90D"/>
<path id="path766" d="M59.2193 45.8454C59.2189 45.8454 59.2184 45.8454 59.2175 45.8454C59.0864 45.845 58.9836 45.6375 58.9854 45.383C58.9872 45.1275 59.0945 44.9223 59.226 44.9223C59.3554 44.9245 59.4595 45.1324 59.4577 45.3866C59.455 45.6393 59.3486 45.8454 59.2193 45.8454Z" fill="#FBF582"/>
<path id="path768" d="M44.9126 60.2124C45.2248 61.8181 44.6654 63.7151 43.8812 63.8678C43.0999 64.02 41.7391 62.4961 41.4272 60.8909C41.115 59.2852 41.9224 58.657 42.7037 58.5053C43.4874 58.353 44.601 58.6072 44.9126 60.2124Z" fill="#AB1935"/>
<path id="path770" d="M44.6609 59.9822C44.932 61.3782 44.3801 63.0427 43.6418 63.1864C42.9054 63.3301 41.6465 62.0167 41.3752 60.6216C41.1037 59.2252 41.8716 58.6671 42.6086 58.5234C43.3452 58.3802 44.3893 58.5863 44.6609 59.9822Z" fill="#F9DD06"/>
<path id="path772" d="M42.6105 58.5226C43.2884 58.488 44.0466 58.7269 44.2311 59.6747C44.4498 60.8008 43.8402 62.1748 43.1021 62.3181C42.7383 62.3886 42.2609 62.1744 41.8447 61.803C42.3549 62.6647 43.1225 63.2875 43.6408 63.1864C44.379 63.0428 44.931 61.3783 44.6598 59.9827C44.3894 58.589 43.3482 58.3807 42.6105 58.5226Z" fill="#F6A90D"/>
<path id="path774" d="M42.011 60.9333C42.0099 60.9333 42.0091 60.9333 42.008 60.9333C41.7754 60.9324 41.5911 60.5646 41.5958 60.1129C41.5998 59.6612 41.7895 59.2984 42.0188 59.2984C42.0194 59.2984 42.0199 59.2984 42.0204 59.2984C42.2535 59.2993 42.4379 59.6675 42.4344 60.1197C42.4274 60.5691 42.24 60.9333 42.011 60.9333Z" fill="#FBF582"/>
<path id="path776" d="M58.1217 63.3331C58.4338 64.9392 57.8743 66.8359 57.0904 66.9885C56.3086 67.1407 54.9477 65.6168 54.6352 64.0107C54.3231 62.405 55.13 61.776 55.9131 61.6242C56.6948 61.4729 57.8097 61.7279 58.1217 63.3331Z" fill="#AB1935"/>
<path id="path778" d="M57.8687 63.1038C58.1399 64.4984 57.588 66.1624 56.8494 66.3061C56.113 66.4502 54.854 65.1369 54.5833 63.7423C54.3116 62.3463 55.0794 61.7873 55.8171 61.6436C56.5526 61.4999 57.5975 61.7069 57.8687 63.1038Z" fill="#F9DD06"/>
<path id="path780" d="M55.8182 61.6433C56.4953 61.6096 57.2537 61.849 57.4378 62.7959C57.6569 63.9216 57.0476 65.2956 56.309 65.4384C55.9457 65.5093 55.4675 65.296 55.0518 64.9238C55.5614 65.7854 56.3296 66.4069 56.8474 66.3063C57.586 66.1626 58.1378 64.4986 57.8666 63.1039C57.5954 61.7098 56.5555 61.501 55.8182 61.6433Z" fill="#F6A90D"/>
<path id="path782" d="M55.2176 64.0549C55.2167 64.0549 55.2162 64.0549 55.2158 64.0549C54.9823 64.054 54.7982 63.6858 54.8018 63.2346C54.8063 62.7811 54.9971 62.4183 55.2279 62.4183C55.2279 62.4183 55.2279 62.4183 55.2284 62.4183C55.4605 62.4196 55.6451 62.7896 55.6415 63.2404C55.6338 63.6908 55.4466 64.0549 55.2176 64.0549Z" fill="#FBF582"/>
<path id="path784" d="M65.1795 51.4838C65.4916 53.0885 64.9312 54.9865 64.1477 55.1383C63.3664 55.29 62.0046 53.767 61.693 52.1627C61.3804 50.5552 62.1873 49.9275 62.9704 49.7757C63.7526 49.6231 64.8675 49.8785 65.1795 51.4838Z" fill="#AB1935"/>
<path id="path786" d="M64.9251 51.2527C65.1963 52.6482 64.644 54.3136 63.9049 54.4569C63.169 54.6001 61.9104 53.2867 61.6388 51.8912C61.3676 50.4957 62.1349 49.9371 62.8722 49.793C63.6095 49.6506 64.6534 49.8567 64.9251 51.2527Z" fill="#F9DD06"/>
<path id="path788" d="M62.8779 49.7926C63.5554 49.7589 64.3138 49.9973 64.4984 50.9456C64.717 52.0713 64.1077 53.4448 63.3695 53.5885C63.0058 53.6595 62.5281 53.4457 62.1123 53.0731C62.621 53.9356 63.3902 54.5575 63.9066 54.4569C64.6456 54.3141 65.1979 52.6483 64.9267 51.2528C64.6555 49.8595 63.6156 49.6507 62.8779 49.7926Z" fill="#F6A90D"/>
<path id="path790" d="M62.2757 52.2046C62.2743 52.2046 62.2734 52.2046 62.2725 52.2046C62.0404 52.2028 61.8554 51.8364 61.8594 51.3838C61.8644 50.9321 62.0539 50.5698 62.2829 50.5698C62.2838 50.5698 62.2842 50.5698 62.2851 50.5698C62.5181 50.5711 62.7031 50.9384 62.6995 51.3914C62.6919 51.84 62.5051 52.2046 62.2757 52.2046Z" fill="#FBF582"/>
<path id="path792" d="M33.492 53.603C33.804 55.2086 33.2444 57.1044 32.46 57.2584C31.6786 57.4097 30.3174 55.8857 30.0052 54.2805C29.6933 52.6749 30.5007 52.0467 31.2822 51.894C32.0652 51.7423 33.1802 51.9969 33.492 53.603Z" fill="#AB1935"/>
<path id="path794" d="M33.2394 53.3722C33.5107 54.7668 32.9584 56.4313 32.2198 56.575C31.4834 56.7182 30.2249 55.4058 29.9532 54.0107C29.6821 52.6143 30.4492 52.0553 31.1875 51.9116C31.9234 51.7683 32.9679 51.9753 33.2394 53.3722Z" fill="#F9DD06"/>
<path id="path796" d="M30.7656 52.0377C31.4431 52.0036 32.2014 52.2425 32.3859 53.1912C32.6039 54.3169 31.9948 55.6891 31.2565 55.8328C30.8931 55.9037 30.416 55.6909 30 55.3191C30.509 56.1803 31.2777 56.8022 31.7953 56.7016C32.5339 56.5579 33.0862 54.8934 32.8149 53.4988C32.5437 52.1042 31.5042 51.8963 30.7656 52.0377Z" fill="#F6A90D"/>
<path id="path798" d="M30.5889 54.3228C30.5881 54.3228 30.5875 54.3228 30.5867 54.3228C30.3547 54.321 30.1702 53.9537 30.1739 53.5011C30.1777 53.0494 30.3682 52.687 30.5985 52.687C30.5989 52.687 30.599 52.687 30.5994 52.687C30.832 52.6893 31.0172 53.0561 31.0128 53.5087C31.0063 53.9591 30.819 54.3228 30.5889 54.3228Z" fill="#FBF582"/>
<path id="path800" d="M27.4512 63.0722C27.7629 64.6783 27.2037 66.5758 26.4206 66.729C25.638 66.8798 24.276 65.3559 23.9642 63.7516C23.6523 62.1455 24.4597 61.5173 25.2421 61.3655C26.0251 61.2124 27.1393 61.4679 27.4512 63.0722Z" fill="#AB1935"/>
<path id="path802" d="M27.2 62.8422C27.4717 64.2368 26.9195 65.9013 26.1809 66.0446C25.4438 66.1882 24.1858 64.8758 23.9141 63.4807C23.643 62.0852 24.411 61.5266 25.1486 61.3825C25.8854 61.2392 26.929 61.4453 27.2 62.8422Z" fill="#F9DD06"/>
<path id="path804" d="M25.1457 61.3826C25.824 61.348 26.5826 61.5864 26.7668 62.5339C26.9855 63.6604 26.3765 65.034 25.6381 65.1772C25.2742 65.2477 24.7964 65.0348 24.3809 64.6626C24.8895 65.5243 25.6579 66.1453 26.1757 66.0447C26.9143 65.9014 27.4664 64.237 27.1947 62.8423C26.9246 61.4482 25.884 61.2403 25.1457 61.3826Z" fill="#F6A90D"/>
<path id="path806" d="M24.5478 63.7924C24.547 63.7924 24.5461 63.7924 24.5454 63.7924C24.313 63.7906 24.129 63.4242 24.1329 62.9716C24.1378 62.5194 24.3276 62.1566 24.5577 62.1566C24.558 62.1566 24.5582 62.1566 24.5586 62.1566C24.7915 62.1593 24.9757 62.5266 24.9704 62.9801C24.9646 63.4282 24.7785 63.7924 24.5478 63.7924Z" fill="#FBF582"/>
<path id="path808" d="M40.264 72.2865C40.5761 73.8922 40.0165 75.7897 39.2325 75.9414C38.4508 76.0937 37.0899 74.5697 36.7777 72.964C36.4658 71.3588 37.2723 70.7302 38.054 70.578C38.8377 70.4253 39.9523 70.6813 40.264 72.2865Z" fill="#AB1935"/>
<path id="path810" d="M40.0134 72.0565C40.2845 73.452 39.7315 75.1156 38.9938 75.2602C38.2573 75.4025 36.9988 74.0901 36.7277 72.6959C36.4565 71.2986 37.2228 70.74 37.9611 70.5972C38.6979 70.4535 39.7419 70.6596 40.0134 72.0565Z" fill="#F9DD06"/>
<path id="path812" d="M37.9616 70.5968C38.6393 70.5631 39.397 70.8011 39.581 71.7494C39.7999 72.8755 39.1909 74.2482 38.4527 74.391C38.0889 74.4614 37.6122 74.2495 37.1953 73.8773C37.705 74.738 38.4734 75.3604 38.9914 75.2602C39.729 75.1157 40.2821 73.4521 40.0109 72.0565C39.7403 70.6624 38.6999 70.4536 37.9616 70.5968Z" fill="#F6A90D"/>
<path id="path814" d="M37.3624 73.0078C37.3615 73.0078 37.3605 73.0078 37.3596 73.0078C37.1275 73.0065 36.942 72.6392 36.9464 72.1875C36.9504 71.7344 37.1409 71.3725 37.3703 71.3725C37.3706 71.3725 37.3708 71.3725 37.3712 71.3725C37.6032 71.3752 37.7895 71.743 37.7851 72.1942C37.7783 72.6432 37.5918 73.0078 37.3624 73.0078Z" fill="#FBF582"/>
<path id="path832" d="M41.7345 58.4507C41.7345 58.4507 39.323 55.1276 38.8845 51.8889C38.7993 51.2593 38.7886 50.6325 38.8849 50.0344C38.9482 49.6402 39.0576 49.2586 39.223 48.8962C38.9098 49.5836 38.7986 50.342 38.8231 51.1202C38.8301 51.0874 39.122 49.7372 40.016 48.4131C40.9203 47.0696 40.7235 46.0593 40.7235 46.0593C40.7235 46.0593 39.9965 47.7171 37.5704 48.4212C35.1423 49.127 30.2547 48.5612 28.495 54.4972C28.495 54.4972 28.3257 54.0203 28.2561 53.3217C28.1256 52.0128 28.3454 49.9267 30.6839 48.7431C30.2046 48.9442 29.4704 49.2321 28.5939 49.5082C29.2502 49.3012 29.8261 49.0879 30.2751 48.9092C30.2791 48.907 32.4345 47.7862 32.5752 46.7122C32.5752 46.7122 29.9445 49.5589 24.9822 49.5594C24.5174 49.5594 24.0327 49.5342 23.5275 49.4799C19.6356 49.0569 18.5527 46.5241 18.5527 46.5241C18.5527 46.5241 20.2721 47.7687 22.4859 47.7687C23.6206 47.7687 24.8852 47.4419 26.1147 46.4522C28.5811 44.4676 31.1124 43.9243 33.058 43.9243C33.9745 43.9243 34.7606 44.0446 35.3493 44.1919C35.544 44.2404 35.7479 44.2638 35.9565 44.2638C37.7155 44.2638 39.7846 42.6154 39.0924 40.6658C38.3183 38.4854 37.0988 35.8093 37.0988 35.8093C37.0988 35.8093 37.6478 36.9081 39.0799 36.9081C39.5366 36.9081 40.0833 36.7962 40.7307 36.5012C40.7307 36.5012 39.882 41.5423 43.6033 42.1018C44.039 42.1669 44.4443 42.1947 44.8271 42.1947C45.8907 42.1947 46.779 41.981 47.6583 41.7677C48.537 41.5544 49.4072 41.3411 50.4337 41.3411C51.1664 41.3411 51.9787 41.4498 52.9315 41.7448C56.2322 42.765 57.6129 44.5139 54.512 44.5139C54.349 44.5139 54.1735 44.5089 53.9853 44.499C53.9853 44.499 53.8996 44.4919 53.7258 44.4919C52.9189 44.4919 50.2047 44.645 45.2671 46.3723C45.2671 46.3723 46.2143 47.3238 45.3973 49.1144C44.5805 50.9042 39.7945 52.0694 41.7345 58.4507ZM32.6587 44.8156C33.5029 44.8156 34.4795 44.8686 35.0706 45.0751C35.3138 45.16 35.6595 45.208 36.0566 45.208C37.6336 45.208 40.0244 44.4496 40.0591 42.2252C40.1017 39.5406 38.6709 38.9439 38.6709 38.9439C38.6709 38.9439 40.1233 40.594 39.4814 42.1507C38.9277 43.4937 37.6118 44.6257 36.1475 44.6257C35.9129 44.6257 35.675 44.5965 35.4354 44.535C34.6742 44.3387 34.0199 44.2584 33.4529 44.2584C32.3805 44.2584 31.6202 44.5448 31.0386 44.8735C31.0386 44.8735 31.7761 44.8156 32.6587 44.8156ZM58.2716 49.9918C58.2631 49.9792 56.3628 47.1531 52.2198 46.4958C51.6747 46.4091 51.0915 46.3602 50.4682 46.3602C55.8321 46.3606 58.2617 49.9774 58.2716 49.9918ZM39.2258 48.8899C39.2262 48.889 39.2267 48.8881 39.2271 48.8872C39.2267 48.8881 39.2262 48.889 39.2258 48.8899ZM39.2313 48.8782L39.2315 48.8778L39.2313 48.8782ZM39.2677 48.8015C39.2677 48.801 39.2679 48.801 39.2681 48.8006C39.2679 48.801 39.2677 48.801 39.2677 48.8015ZM50.466 46.3602C50.4664 46.3602 50.4664 46.3602 50.4669 46.3602C50.4664 46.3602 50.4664 46.3602 50.466 46.3602ZM57.621 41.8319C57.6214 41.8319 57.6223 41.8319 57.6228 41.8319C57.6223 41.8319 57.6214 41.8319 57.621 41.8319ZM57.6196 41.8319C56.6242 41.8319 55.5843 41.6541 54.6225 41.2774C55.5843 41.6541 56.6246 41.8319 57.6196 41.8319ZM44.0299 41.7673H44.0301H44.0299ZM44.0286 41.7673C41.6203 41.7659 41.4425 37.08 41.7591 35.8628C41.4425 37.08 41.6207 41.765 44.0286 41.7673ZM44.4279 41.7273C44.4565 41.7219 44.4854 41.7161 44.5143 41.7102C44.4854 41.7161 44.4565 41.7219 44.4279 41.7273ZM44.5464 41.7039C44.5487 41.7035 44.5512 41.703 44.5535 41.7026C44.5512 41.703 44.5487 41.7035 44.5464 41.7039ZM44.8124 41.6505C44.8134 41.6505 44.8144 41.6501 44.8155 41.6501C44.8144 41.6501 44.8134 41.6505 44.8124 41.6505ZM44.8925 41.6343C44.8935 41.6339 44.8946 41.6339 44.8956 41.6334C44.8946 41.6339 44.8935 41.6339 44.8925 41.6343ZM54.5946 41.2666C54.5852 41.2626 54.5758 41.259 54.5664 41.2554C54.5758 41.259 54.5852 41.2626 54.5946 41.2666ZM54.556 41.2513C53.5395 40.8549 52.4156 40.7071 51.2657 40.7071C52.4156 40.7071 53.539 40.8549 54.556 41.2513ZM51.2616 40.7071C51.2625 40.7071 51.2639 40.7071 51.2648 40.7071C51.2639 40.7071 51.2625 40.7071 51.2616 40.7071ZM62.2534 39.3228C62.2543 39.3188 62.2552 39.3143 62.2561 39.3103C62.2552 39.3143 62.2543 39.3188 62.2534 39.3228ZM41.7668 35.834C42.0769 34.7227 41.7245 34.1188 40.2203 34.1183C41.7247 34.1188 42.0769 34.7227 41.7668 35.834ZM37.0988 35.8093C37.0988 35.8093 37.7362 34.2858 39.6892 34.1395C39.6994 34.139 39.7097 34.1381 39.7199 34.1372C39.7097 34.1381 39.6994 34.139 39.6892 34.1395C37.7362 34.2858 37.0988 35.8093 37.0988 35.8093ZM39.7324 34.1368C39.7329 34.1363 39.7332 34.1363 39.7339 34.1363C39.7332 34.1363 39.7329 34.1363 39.7324 34.1368ZM40.2186 34.1183C40.2186 34.1183 40.2187 34.1183 40.2189 34.1183C40.2187 34.1183 40.2186 34.1183 40.2186 34.1183Z" fill="url(#paint0_linear)"/>
<path id="path850" d="M45.4941 43.6927C45.6621 43.65 45.8282 43.6105 45.9921 43.5746C45.8282 43.6105 45.6621 43.65 45.4941 43.6927Z" fill="url(#paint1_linear)"/>
<path id="path868" d="M45.9951 43.574C47.0516 43.341 48.0233 43.2409 48.915 43.2409C48.0238 43.2409 47.0512 43.341 45.9951 43.574ZM48.9173 43.2409C48.9168 43.2409 48.9164 43.2409 48.9159 43.2409C48.9164 43.2409 48.9168 43.2409 48.9173 43.2409Z" fill="url(#paint2_linear)"/>
<path id="path886" d="M56.068 38.7136C56.0676 38.7136 56.0671 38.7136 56.0667 38.7136C56.0671 38.7136 56.0676 38.7136 56.068 38.7136ZM56.0698 38.7136C58.3306 38.7131 60.3579 37.7958 60.7005 36.2045C60.3574 37.7958 58.3306 38.7131 56.0698 38.7136ZM42.477 38.6489C42.4766 38.6489 42.4762 38.6489 42.4757 38.6489C42.4762 38.6489 42.4766 38.6489 42.477 38.6489ZM42.4771 38.6489C42.6036 38.6489 42.7362 38.6359 42.8749 38.6089C42.736 38.6359 42.6038 38.6489 42.4771 38.6489ZM42.9614 38.5919C42.9721 38.5901 42.9826 38.5878 42.9935 38.5856C42.9826 38.5878 42.9721 38.5901 42.9614 38.5919ZM43.0005 38.5842C43.0856 38.5672 43.1719 38.5501 43.2594 38.5322C43.1719 38.5501 43.0856 38.5672 43.0005 38.5842ZM43.2626 38.5317C43.288 38.5263 43.3138 38.5209 43.3396 38.516C43.3138 38.5209 43.288 38.5263 43.2626 38.5317ZM43.3427 38.5151C45.1728 38.1397 47.4888 37.5892 49.7087 37.5888C47.4892 37.5892 45.1726 38.1397 43.3427 38.5151ZM53.0695 38.159C53.0601 38.1554 53.0507 38.1518 53.0417 38.1483C53.0507 38.1518 53.0601 38.1554 53.0695 38.159ZM53.0134 38.137C53.0103 38.1357 53.0062 38.1343 53.0031 38.133C53.0062 38.1343 53.0103 38.1357 53.0134 38.137ZM49.7127 37.5888C49.7123 37.5888 49.7123 37.5888 49.7118 37.5888C49.7123 37.5888 49.7123 37.5888 49.7127 37.5888ZM40.2061 32.7444C40.2086 32.7345 40.2112 32.7251 40.2138 32.7157C40.2112 32.7251 40.2086 32.7345 40.2061 32.7444ZM38.167 31.0189C38.171 31.0189 38.1752 31.0184 38.1794 31.0184C38.1752 31.0184 38.171 31.0189 38.167 31.0189ZM38.181 31.018C38.3543 31.0058 38.5155 31 38.6656 31C38.5157 31 38.3541 31.0058 38.181 31.018ZM38.6674 31C38.6668 31 38.6665 31 38.666 31C38.6665 31 38.6668 31 38.6674 31Z" fill="url(#paint3_linear)"/>
<path id="path916" d="M35.5303 46.2173C36.8396 45.8828 37.721 45.6713 37.721 45.6713C37.721 45.6713 36.8396 45.8828 35.5303 46.2173ZM37.6706 45.7777C37.6715 45.7759 37.6724 45.7737 37.6734 45.7714C37.6726 45.7732 37.6713 45.7759 37.6706 45.7777ZM37.6747 45.7688C37.6761 45.7661 37.6774 45.7629 37.6789 45.7598C37.6774 45.7629 37.6761 45.7661 37.6747 45.7688ZM37.6791 45.7593C37.6908 45.7337 37.7029 45.7081 37.7153 45.683C37.7029 45.7081 37.6908 45.7337 37.6791 45.7593ZM37.7157 45.6821C37.7175 45.6785 37.7192 45.6749 37.721 45.6713C37.719 45.6754 37.7175 45.6785 37.7157 45.6821Z" fill="url(#paint4_linear)"/>
<path id="path946" d="M22.303 47.2292C19.8945 47.2292 17.6675 46.3537 17 43.4059C17.6675 46.3537 19.8942 47.2288 22.3032 47.2288C23.5771 47.2288 24.9022 46.9841 26.0744 46.6715C26.074 46.6715 26.074 46.6715 26.0738 46.672C24.9019 46.9845 23.5771 47.2292 22.303 47.2292Z" fill="url(#paint5_linear)"/>
<path id="path964" d="M26.0742 46.6714C26.0744 46.671 26.0744 46.671 26.0748 46.671C26.4112 46.5812 26.7351 46.486 27.0415 46.3894C26.7349 46.486 26.4108 46.5816 26.0742 46.6714Z" fill="url(#paint6_linear)"/>
<path id="path994" d="M36.0571 45.2073C35.66 45.2073 35.3143 45.1592 35.071 45.0744C34.48 44.8678 33.5034 44.8148 32.6592 44.8148C31.7766 44.8148 31.0391 44.8728 31.0391 44.8728C31.6207 44.5441 32.381 44.2576 33.4534 44.2576C34.0204 44.2576 34.6747 44.338 35.4359 44.5342C35.6755 44.5957 35.9134 44.6249 36.148 44.6249C37.6123 44.6249 38.9281 43.493 39.4819 42.15C40.1238 40.5932 38.6714 38.9431 38.6714 38.9431C38.6714 38.9431 40.1022 39.5399 40.0596 42.2245C40.0249 44.4489 37.6341 45.2073 36.0571 45.2073Z" fill="url(#paint7_linear)"/>
<path id="path1012" d="M41.0284 35.5143C41.0284 35.5143 40.6212 34.8063 38.7523 35.2228C36.8836 35.6396 36.732 36.6225 37.5385 36.9691C38.3471 37.3146 41.698 37.1092 41.0284 35.5143Z" fill="url(#paint8_linear)"/>
<path id="path1014" d="M75.5765 50.433C83.1428 49.3181 84.4718 52.9309 86.1422 55.087C87.7819 57.2046 89.8896 58.7321 89.8896 58.7321C89.8896 58.7321 91.8491 60.3818 94.1265 61.3503C96.3572 62.3022 99.6125 62.5002 100.267 69.3943C101.033 77.45 93.7996 82.4475 91.2573 83.9212C88.6701 85.42 80.8016 88.6321 75.2972 89.9388C70.5893 91.0578 68.1296 89.3528 68.1296 89.3528C68.1296 89.3528 65.7094 88.4122 64.3355 83.4915C62.7963 77.9812 62.8605 68.6934 63.2843 65.3622C63.7122 62.0153 65.9506 51.8497 75.5765 50.433Z" fill="#EC1546"/>
<path id="path1016" d="M83.7378 83.3464C83.4379 83.3464 83.2699 83.2198 83.2003 82.9742C82.8901 81.883 88.2881 78.5627 89.7838 76.0706C92.7665 71.1019 89.5197 66.253 93.1859 66.253C93.2869 66.253 93.3929 66.2566 93.5047 66.2642C93.5047 66.2642 96.9078 66.729 96.1153 71.0579C95.796 72.8032 95.3102 74.3168 94.5639 75.6616C94.4337 75.6041 94.2855 75.5677 94.1248 75.5677C93.731 75.5677 93.264 75.786 92.8119 76.446C92.2888 77.2053 91.9866 78.1765 92.0041 78.7957C91.2408 79.462 90.3531 80.087 89.3195 80.6846C89.3181 80.6834 89.3168 80.6825 89.3154 80.6816C89.1834 80.593 89.0119 80.5285 88.8179 80.5285C88.4991 80.5285 88.1202 80.7026 87.7556 81.232C87.6451 81.3914 87.5477 81.5629 87.4637 81.7371C85.4917 82.8292 84.3444 83.3464 83.7378 83.3464ZM93.537 67.0792C93.1446 67.0792 92.6857 67.2943 92.2394 67.9346C91.4855 69.018 91.1847 70.5631 91.6341 70.8895C91.7064 70.942 91.8039 70.9667 91.9188 70.9667C92.5133 70.9667 93.5869 70.304 94.211 69.4015C94.2321 69.3709 94.2523 69.3409 94.2716 69.3112C94.2941 69.2816 94.3156 69.2515 94.3367 69.2214C94.9815 68.2893 94.6946 67.6701 94.2819 67.3585C94.273 67.3522 94.264 67.3455 94.255 67.3392C94.246 67.332 94.237 67.3248 94.2281 67.3176C94.0471 67.182 93.8078 67.0792 93.537 67.0792Z" fill="#F03D7E"/>
<path id="path1018" d="M86.1422 55.087C87.7819 57.2046 89.8896 58.7321 89.8896 58.7321C89.8896 58.7321 91.8491 60.3818 94.1265 61.3503C95.0249 61.732 96.0882 61.9955 97.0819 62.6188C97.0819 62.6188 91.9155 61.04 89.4846 62.5936C89.4846 62.5936 88.09 57.1956 83.7152 54.5177C79.1609 51.7293 70.6162 49.5341 67.1032 63.0125C64.5541 72.7889 68.8916 81.0533 68.5072 85.8717C68.0313 91.8175 86.9023 85.7446 90.8006 84.1727C87.8574 85.7486 80.5165 88.6995 75.2972 89.9388C70.5893 91.0578 68.1296 89.3528 68.1296 89.3528C68.1296 89.3528 65.7094 88.4122 64.3355 83.4915C62.7963 77.9812 62.8605 68.6934 63.2843 65.3622C63.7122 62.0153 65.9506 51.8497 75.5765 50.433C83.1428 49.3181 84.4718 52.9309 86.1422 55.087Z" fill="#D31841"/>
<path id="path1020" d="M72.223 90.3194C72.2226 90.3194 72.2221 90.3194 72.2217 90.3194C72.2221 90.3194 72.2226 90.3194 72.223 90.3194ZM72.2244 90.3194C73.0977 90.3189 74.108 90.2178 75.2512 89.9493C74.1075 90.2178 73.0977 90.3194 72.2244 90.3194Z" fill="#BE193C"/>
<path id="path1022" d="M75.6113 50.4275C76.5713 50.2874 77.4307 50.2236 78.2026 50.2236C77.4312 50.2236 76.5709 50.2874 75.6113 50.4275ZM78.2044 50.2236C78.2044 50.2236 78.2039 50.2236 78.2035 50.2236C78.2039 50.2236 78.2044 50.2236 78.2044 50.2236Z" fill="#D31841"/>
<path id="path1024" d="M75.2952 89.9391C80.5145 88.6998 87.8554 85.7489 90.7987 84.173C88.132 85.2478 78.4594 88.4295 72.7659 88.4295C70.1365 88.4295 68.3548 87.7502 68.5052 85.872C68.7414 82.9112 67.195 78.6492 66.5583 73.5349C66.5839 73.6099 66.6234 73.667 66.6773 73.7015C66.7263 73.733 66.7905 73.7473 66.8664 73.7473C67.2705 73.7473 67.9947 73.3293 68.4065 72.7644C68.4226 72.742 68.4379 72.72 68.4527 72.698C68.4644 72.6832 68.4761 72.6679 68.4873 72.6522C68.9107 72.0707 68.7019 71.6913 68.4127 71.5032C68.4042 71.4978 68.3957 71.4924 68.3872 71.487C68.3831 71.4843 68.3791 71.4816 68.375 71.4789C68.252 71.3985 68.0917 71.3384 67.9117 71.3384C67.6418 71.3384 67.3279 71.4735 67.0334 71.8781C66.7186 72.3073 66.5345 72.8511 66.5229 73.2399C66.2606 70.9899 66.1816 68.5779 66.5121 66.0427C66.9288 66.0176 67.6144 65.6243 68.0109 65.0877C68.0252 65.0679 68.0392 65.0486 68.0522 65.0293C68.0666 65.0114 68.0809 64.993 68.0944 64.975C68.521 64.3935 68.3086 64.0011 68.0158 63.8008C68.0113 63.7981 68.0068 63.795 68.0024 63.7923C67.9943 63.7865 67.9862 63.7806 67.9781 63.7752C67.8488 63.6872 67.6777 63.6194 67.486 63.6194C67.3032 63.6194 67.1016 63.6809 66.8996 63.8453C66.9611 63.5691 67.0284 63.2912 67.1012 63.0128C69.2353 54.8242 73.227 52.4206 77.0526 52.4206C78.3736 52.4206 79.6744 52.7071 80.8728 53.1408C80.1602 53.501 79.4176 54.1826 78.9636 55.4613C78.9636 55.4618 78.9632 55.4618 78.9632 55.4622C78.96 55.4717 78.9569 55.4806 78.9533 55.4905C78.951 55.4973 78.9483 55.5044 78.9461 55.5112C78.9434 55.5197 78.9403 55.5278 78.9376 55.5363C78.929 55.561 78.921 55.5857 78.9129 55.6109C78.912 55.6127 78.9115 55.6149 78.9106 55.6171C78.9061 55.6311 78.9017 55.645 78.8972 55.6594C78.8972 55.6594 78.8972 55.6589 78.8976 55.6589C78.9254 55.6414 80.369 54.7389 82.4583 54.7384C82.4587 54.7384 82.4592 54.7384 82.4596 54.7384C82.4605 54.7384 82.4614 54.7384 82.4623 54.7384C83.0784 54.7384 83.751 54.8175 84.4591 55.0204C85.6876 55.9265 86.6475 57.0414 87.3839 58.1339C87.2497 58.5568 87.1406 59.0557 87.1401 59.5617C87.1401 60.0529 87.2429 60.5513 87.5245 60.9932C88.0125 61.7587 88.277 62.8332 88.2779 63.9346C88.2784 64.4824 88.2137 65.0365 88.079 65.5627C87.3547 66.1456 86.8644 66.5883 86.8644 66.5883C86.8644 66.5883 87.4733 61.008 86.278 59.4306C85.2623 58.0903 85.274 55.8363 81.9693 55.8363C81.3299 55.8363 80.5661 55.9207 79.647 56.1124C72.5437 57.5959 68.4967 64.1641 69.4774 68.1962C69.9901 70.3061 69.8141 73.5376 69.859 76.6946C69.5784 76.7822 69.2789 76.9914 68.9915 77.3897C68.3301 78.3034 68.0948 79.5849 68.5106 79.8395C68.5721 79.8772 68.6521 79.8951 68.7459 79.8951C69.0598 79.8951 69.5281 79.6941 69.974 79.3721C70.0445 80.2347 70.1545 81.0631 70.3251 81.829C70.4553 82.4127 70.6075 82.9233 70.771 83.3688C70.5765 83.4883 70.3781 83.6728 70.185 83.943C69.5344 84.8572 69.3009 86.117 69.7095 86.3591C69.7661 86.3924 69.8388 86.408 69.9237 86.408C70.3866 86.408 71.211 85.9366 71.7781 85.2864C72.3937 86.1015 72.9213 86.3107 72.9213 86.3107C72.9213 86.3107 73.8718 87.0067 75.7774 87.0067C75.9341 87.0067 76.0976 87.0016 76.2673 86.9918C76.3001 87.0044 76.3387 87.0102 76.3823 87.0102C76.4541 87.0102 76.5394 86.9935 76.6323 86.9618C77.1186 86.9123 77.653 86.8179 78.2349 86.6636C82.4197 85.5526 89.6833 83.0392 91.6958 81.8088C93.6809 80.5942 99.9284 75.9425 98.5549 69.9298C98.3497 69.0314 98.0273 68.1755 97.6326 67.3875C98.1503 66.4877 98.7147 64.9319 97.6887 63.4138C97.7565 63.4986 97.8351 63.5961 97.9249 63.7029C98.2374 64.077 98.6761 64.5655 99.1992 65.0477C99.703 66.0881 100.084 67.4841 100.265 69.3946C100.303 69.7956 100.321 70.1894 100.322 70.5751C100.322 77.396 94.6166 81.8295 91.8547 83.5596C91.6347 83.6975 91.4336 83.8182 91.2553 83.9215C88.6681 85.4202 80.7996 88.6324 75.2952 89.9391ZM72.2805 55.4753C71.8266 55.4753 71.3084 55.7011 70.8159 56.3634C69.9452 57.5349 69.6341 59.2425 70.1796 59.6286C70.277 59.6973 70.4095 59.7301 70.5662 59.7301C71.2819 59.7301 72.5046 59.0525 73.2082 58.0993C73.2338 58.0643 73.2585 58.0297 73.2818 57.9956C73.3061 57.9655 73.3294 57.9349 73.3519 57.9044C74.0936 56.8982 73.7344 56.1955 73.2329 55.8277C73.2113 55.8102 73.1893 55.7932 73.1673 55.7765C72.9356 55.6068 72.6267 55.4753 72.2805 55.4753ZM77.2066 52.6249C76.961 52.6249 76.6813 52.7489 76.4137 53.1103C75.9386 53.756 75.7635 54.7052 76.0576 54.9257C76.1124 54.9665 76.1883 54.9858 76.2781 54.9858C76.6701 54.9858 77.3315 54.6203 77.714 54.0972C77.7279 54.0788 77.741 54.0604 77.7531 54.0425C77.7674 54.0245 77.7814 54.007 77.7948 53.9886C78.2052 53.4305 78.0086 53.0358 77.7342 52.8256C77.7266 52.8198 77.719 52.8144 77.7113 52.8086C77.7073 52.8054 77.7032 52.8023 77.6992 52.7996C77.5712 52.7013 77.3993 52.6249 77.2066 52.6249ZM96.4396 65.4662C95.4513 64.1564 94.3301 63.2203 93.4523 62.8732C93.3284 62.8242 93.1887 62.8018 93.0352 62.8018C92.5929 62.8018 92.0397 62.9908 91.4475 63.2849C91.5624 63.1031 91.6688 62.9181 91.7649 62.7299C91.7645 62.7322 91.764 62.734 91.7636 62.7344C91.901 62.4673 92.0159 62.1943 92.1035 61.9172C92.2341 61.9123 92.3657 61.91 92.4968 61.91C92.8318 61.91 93.1676 61.9253 93.4972 61.9518C94.0006 62.3999 94.6153 62.9544 95.2493 63.544C95.7791 64.0361 96.1634 64.7482 96.4396 65.4662Z" fill="#C31E25"/>
<path id="path1026" d="M72.2229 90.3194C72.2224 90.3194 72.222 90.3194 72.2215 90.3194C69.5607 90.3189 68.1683 89.3788 68.1306 89.3531C68.1301 89.3526 68.1297 89.3526 68.1297 89.3526C68.1297 89.3526 65.7095 88.412 64.3355 83.4913C63.6607 81.0747 63.2938 77.9307 63.1308 74.8819C63.0567 73.4976 63.0244 72.1335 63.0244 70.8655C63.0244 68.5576 63.1308 66.569 63.2844 65.362C63.7123 62.0151 65.9506 51.8495 75.5765 50.4328C75.5882 50.431 75.5994 50.4297 75.6111 50.4279C76.5706 50.2878 77.4309 50.224 78.2023 50.224C78.2028 50.224 78.2028 50.224 78.2032 50.224C78.2037 50.224 78.2041 50.224 78.2041 50.224C78.9279 50.224 79.575 50.2802 80.1564 50.3816C80.6212 51.237 81.4366 52.0794 82.8087 52.7623C82.8087 52.7623 82.8087 52.7623 82.8083 52.7623C82.8052 52.7619 82.7019 52.7484 82.529 52.7484H82.5286C82.5164 52.7484 82.5039 52.7484 82.4909 52.7488C82.133 52.7529 81.516 52.8162 80.8749 53.1404C79.6764 52.7066 78.3757 52.4202 77.0547 52.4202C73.2291 52.4202 69.2374 54.8237 67.1032 63.0123C67.0305 63.2907 66.9631 63.5687 66.9016 63.8448C66.8078 63.9207 66.7139 64.019 66.6219 64.1434C66.1253 64.8147 65.9502 65.7805 66.2649 65.9915C66.3184 66.027 66.3893 66.0436 66.4728 66.0436C66.4863 66.0436 66.5002 66.0432 66.5141 66.0423C66.1837 68.5774 66.2627 70.9895 66.5249 73.2395C66.5218 73.3535 66.533 73.4541 66.5604 73.5345C67.1971 78.6487 68.7435 82.9107 68.5073 85.8715C68.3569 87.7497 70.1385 88.429 72.768 88.429C78.4614 88.429 88.134 85.2473 90.8007 84.1725C87.8574 85.7484 80.5165 88.6993 75.2972 89.9386C75.2887 89.9409 75.2802 89.9426 75.2721 89.9449C75.2654 89.9463 75.2582 89.9481 75.251 89.9493C74.1078 90.2178 73.0975 90.3189 72.2242 90.3194C72.2238 90.3194 72.2233 90.3194 72.2229 90.3194ZM93.4993 61.9513C93.1697 61.9248 92.8338 61.9096 92.4989 61.9096C92.3678 61.9096 92.2362 61.9118 92.1055 61.9167C92.2119 61.5795 92.2771 61.236 92.2901 60.889C92.2901 60.889 92.7817 61.3119 93.4993 61.9513ZM87.386 58.1334C86.6496 57.0409 85.6896 55.926 84.4611 55.0199C85.4494 55.3028 86.5086 55.8277 87.5849 56.7185C87.6805 56.8142 87.7748 56.9076 87.8682 56.9983C87.8089 57.1047 87.5728 57.5452 87.386 58.1334Z" fill="#AA1C22"/>
<path id="path1028" d="M83.6667 64.0344C83.0502 64.8943 82.8158 66.134 83.1885 66.4025C83.5603 66.6714 84.7035 66.0967 85.3128 65.2387C85.9207 64.3851 85.6756 63.8328 85.3069 63.5616C84.9401 63.2891 84.28 63.1719 83.6667 64.0344Z" fill="#AB1935"/>
<path id="path1030" d="M83.8631 63.9601C83.3287 64.7091 83.155 65.8065 83.5061 66.0606C83.8559 66.313 84.8841 65.8411 85.4144 65.0966C85.942 64.3512 85.6977 63.8501 85.3524 63.5933C85.0058 63.3374 84.3978 63.2116 83.8631 63.9601Z" fill="#F9DD06"/>
<path id="path1032" d="M85.3497 63.5935C85.0062 63.4139 84.5388 63.3735 84.1751 63.8822C83.745 64.4848 83.6839 65.4255 84.035 65.6796C84.2066 65.8053 84.5177 65.791 84.8388 65.672C84.3309 66.0532 83.7526 66.2391 83.5061 66.0613C83.155 65.8071 83.3287 64.7097 83.8631 63.9608C84.3969 63.2127 85.0036 63.3371 85.3497 63.5935Z" fill="#F6A90D"/>
<path id="path1034" d="M85.0447 65.1406C85.0276 65.1406 85.0115 65.1375 84.9962 65.1307C84.8741 65.0791 84.8772 64.8214 85.0002 64.5609C85.1075 64.3306 85.2732 64.1708 85.3945 64.1708C85.4115 64.1708 85.4281 64.1739 85.4429 64.1806C85.5646 64.2345 85.5624 64.4896 85.4398 64.7513C85.332 64.9803 85.1659 65.1406 85.0447 65.1406Z" fill="#FBF582"/>
<path id="path1036" d="M86.2536 73.4377C85.6547 74.294 85.4216 75.5036 85.7835 75.7488C86.1454 75.9962 87.2522 75.4012 87.8463 74.5499C88.4358 73.7008 88.2005 73.1746 87.8467 72.9222C87.4893 72.6739 86.8517 72.5846 86.2536 73.4377Z" fill="#AB1935"/>
<path id="path1038" d="M86.4441 73.361C85.9228 74.105 85.7521 75.1759 86.0925 75.4076C86.4306 75.6411 87.4269 75.1485 87.9429 74.4077C88.4565 73.6699 88.2226 73.1931 87.8867 72.9565C87.5527 72.7198 86.964 72.6197 86.4441 73.361Z" fill="#F9DD06"/>
<path id="path1040" d="M87.8863 72.9559C87.5518 72.7938 87.1001 72.7718 86.7489 73.2761C86.3291 73.8751 86.2658 74.7888 86.6044 75.0236C86.7696 75.1377 87.0722 75.1116 87.3829 74.9864C86.8913 75.373 86.33 75.5728 86.0925 75.408C85.7521 75.1763 85.9228 74.1054 86.4441 73.3614C86.9631 72.6201 87.5504 72.7202 87.8863 72.9559Z" fill="#F6A90D"/>
<path id="path1042" d="M87.5801 74.4635C87.5657 74.4635 87.5518 74.4613 87.5387 74.4559C87.4202 74.4097 87.4224 74.1623 87.5428 73.9036C87.6492 73.6742 87.814 73.513 87.9325 73.513C87.9473 73.513 87.9613 73.5152 87.9743 73.5206C88.0919 73.5682 88.0892 73.8143 87.9693 74.0716C87.8616 74.3015 87.6972 74.4635 87.5801 74.4635Z" fill="#FBF582"/>
<path id="path1044" d="M87.7555 81.2312C87.1668 82.0826 86.9374 83.2679 87.2903 83.4979C87.6423 83.7273 88.7289 83.1135 89.3108 82.2648C89.8918 81.4203 89.6606 80.9125 89.3153 80.6808C88.966 80.4469 88.3419 80.3798 87.7555 81.2312Z" fill="#AB1935"/>
<path id="path1046" d="M87.9393 81.148C87.4292 81.8889 87.2581 82.9386 87.5922 83.1574C87.9217 83.3729 88.8992 82.8627 89.4057 82.125C89.9118 81.3878 89.681 80.9299 89.3536 80.7094C89.0259 80.4889 88.4489 80.4104 87.9393 81.148Z" fill="#F9DD06"/>
<path id="path1048" d="M89.3523 80.7073C89.025 80.5622 88.5849 80.5528 88.2379 81.0544C87.8261 81.6525 87.7633 82.5437 88.0946 82.762C88.2576 82.8697 88.5522 82.8352 88.8584 82.7037C88.3744 83.0956 87.8243 83.307 87.5922 83.1567C87.2581 82.9379 87.4292 81.8882 87.9393 81.1473C88.4475 80.4097 89.0223 80.4882 89.3523 80.7073Z" fill="#F6A90D"/>
<path id="path1050" d="M89.0476 82.1897C89.0345 82.1897 89.022 82.1874 89.0103 82.1833C88.8944 82.1407 88.8989 81.8992 89.0161 81.6459C89.1225 81.4142 89.2882 81.2504 89.4045 81.2504C89.4166 81.2504 89.4283 81.2522 89.4395 81.2557C89.5545 81.3002 89.5513 81.5417 89.4328 81.7982C89.3273 82.0271 89.1639 82.1897 89.0476 82.1897Z" fill="#FBF582"/>
<path id="path1052" d="M74.2727 79.9966C73.6324 80.8955 73.3985 82.1464 73.7959 82.3916C74.1905 82.6359 75.3885 81.9921 76.0194 81.1003C76.6493 80.209 76.3853 79.6747 75.9938 79.4259C75.6036 79.1772 74.9103 79.1008 74.2727 79.9966Z" fill="#AB1935"/>
<path id="path1054" d="M74.479 79.9127C73.924 80.6936 73.7534 81.8014 74.1274 82.0329C74.4978 82.2634 75.575 81.7286 76.1242 80.9526C76.6711 80.1786 76.4084 79.6919 76.042 79.4592C75.6734 79.2222 75.0331 79.1341 74.479 79.9127Z" fill="#F9DD06"/>
<path id="path1056" d="M76.0411 79.455C75.6756 79.2969 75.1848 79.2844 74.8077 79.8142C74.3609 80.445 74.3079 81.3862 74.6788 81.6182C74.8611 81.731 75.1898 81.6968 75.5261 81.5595C74.9958 81.9717 74.3883 82.193 74.1274 82.0304C73.7534 81.7989 73.924 80.6911 74.479 79.9103C75.0313 79.1344 75.6725 79.2206 76.0411 79.455Z" fill="#F6A90D"/>
<path id="path1058" d="M75.7241 81.018C75.7097 81.018 75.6958 81.0157 75.6828 81.0111C75.5553 80.9662 75.5548 80.7112 75.6823 80.4423C75.7955 80.1997 75.9746 80.0287 76.1022 80.0287C76.1165 80.0287 76.13 80.031 76.143 80.0354C76.2728 80.0794 76.2746 80.3358 76.148 80.6047C76.0339 80.8459 75.8534 81.018 75.7241 81.018Z" fill="#FBF582"/>
<path id="path1060" d="M68.9908 77.3893C68.3294 78.303 68.0941 79.5845 68.5099 79.8391C68.9239 80.0938 70.1685 79.4449 70.8209 78.5356C71.4747 77.6268 71.1923 77.0763 70.7846 76.8191C70.3755 76.5577 69.6513 76.4738 68.9908 77.3893Z" fill="#AB1935"/>
<path id="path1062" d="M69.2082 77.3005C68.6357 78.0966 68.4642 79.2316 68.8535 79.4723C69.2445 79.7112 70.3635 79.1746 70.9319 78.3826C71.4977 77.595 71.2202 77.0926 70.8354 76.8492C70.4501 76.6045 69.7816 76.5066 69.2082 77.3005Z" fill="#F9DD06"/>
<path id="path1064" d="M70.834 76.849C70.4519 76.6855 69.9401 76.6662 69.5526 77.2046C69.0896 77.8467 69.0394 78.8111 69.4268 79.0532C69.6199 79.1735 69.9589 79.1412 70.3118 79.002C69.76 79.4195 69.1287 79.64 68.8535 79.4721C68.4642 79.2314 68.6357 78.0963 69.2082 77.3002C69.7798 76.5091 70.4479 76.6042 70.834 76.849Z" fill="#F6A90D"/>
<path id="path1066" d="M70.5198 78.4485C70.5036 78.4485 70.4879 78.4458 70.4735 78.4409C70.3379 78.3933 70.3357 78.1315 70.4668 77.8563C70.5835 77.6107 70.7699 77.4378 70.9046 77.4378C70.9198 77.4378 70.9347 77.4401 70.9486 77.4445C71.081 77.493 71.0846 77.7539 70.9531 78.0296C70.8372 78.2752 70.6531 78.4485 70.5198 78.4485Z" fill="#FBF582"/>
<path id="path1068" d="M74.1616 62.3297C73.5097 63.2224 73.2717 64.5097 73.6767 64.7908C74.0804 65.0741 75.3044 64.4818 75.9474 63.595C76.5912 62.71 76.3187 62.1344 75.9245 61.8497C75.5239 61.5619 74.8127 61.4375 74.1616 62.3297Z" fill="#AB1935"/>
<path id="path1070" d="M74.3746 62.2516C73.8088 63.0279 73.6351 64.1706 74.0154 64.4369C74.3966 64.7014 75.4944 64.2196 76.0557 63.4459C76.6147 62.6772 76.3458 62.1528 75.9717 61.8834C75.5955 61.6149 74.9394 61.4784 74.3746 62.2516Z" fill="#F9DD06"/>
<path id="path1072" d="M75.9695 61.8839C75.5968 61.6931 75.0944 61.6491 74.7096 62.1744C74.2556 62.799 74.2004 63.7787 74.5798 64.0445C74.7652 64.1761 75.1002 64.1622 75.4446 64.0423C74.9044 64.4352 74.2807 64.6242 74.0154 64.4374C73.6351 64.1712 73.8088 63.0284 74.3746 62.2521C74.9403 61.4807 75.5932 61.6145 75.9695 61.8839Z" fill="#F6A90D"/>
<path id="path1074" d="M75.6626 63.4887C75.6437 63.4887 75.6258 63.4851 75.6087 63.4779C75.4762 63.4236 75.4758 63.1569 75.6056 62.8857C75.7196 62.6473 75.8956 62.4825 76.0249 62.4825C76.0433 62.4825 76.0609 62.4861 76.077 62.4928C76.2099 62.5498 76.2099 62.8134 76.082 63.0873C75.9684 63.3239 75.7932 63.4887 75.6626 63.4887Z" fill="#FBF582"/>
<path id="path1076" d="M80.965 57.363C80.3351 58.2314 80.0966 59.4954 80.4819 59.7832C80.8671 60.0674 82.0395 59.5084 82.6623 58.6449C83.2864 57.7833 83.0309 57.2094 82.652 56.9203C82.273 56.6307 81.5941 56.4955 80.965 57.363Z" fill="#AB1935"/>
<path id="path1078" d="M81.1673 57.29C80.62 58.0448 80.4467 59.1696 80.8081 59.4381C81.17 59.7071 82.2252 59.2504 82.7667 58.4992C83.3055 57.7489 83.0532 57.2272 82.6976 56.9564C82.3415 56.6839 81.7151 56.5375 81.1673 57.29Z" fill="#F9DD06"/>
<path id="path1080" d="M82.6967 56.9551C82.3402 56.7625 81.8611 56.7077 81.4902 57.22C81.0479 57.8271 80.9877 58.792 81.3496 59.0618C81.527 59.1952 81.8476 59.188 82.1772 59.0744C81.6568 59.4538 81.0614 59.6285 80.8081 59.4386C80.4467 59.1701 80.62 58.0453 81.1673 57.2905C81.7147 56.5389 82.337 56.683 82.6967 56.9551Z" fill="#F6A90D"/>
<path id="path1082" d="M82.3919 58.5329C82.3735 58.5329 82.356 58.5293 82.3398 58.5222C82.2132 58.466 82.2145 58.2034 82.338 57.9375C82.4489 57.7054 82.6168 57.5487 82.7426 57.5487C82.7614 57.5487 82.7794 57.5523 82.796 57.5595C82.9204 57.6165 82.9181 57.876 82.7938 58.1463C82.6846 58.3749 82.5158 58.5329 82.3919 58.5329Z" fill="#FBF582"/>
<path id="path1084" d="M70.1853 83.9421C69.5347 84.8563 69.3012 86.1161 69.7098 86.3581C70.1166 86.5976 71.3419 85.9316 71.9854 85.0237C72.6279 84.1185 72.3522 83.5832 71.9494 83.3408C71.5494 83.0953 70.8354 83.0311 70.1853 83.9421Z" fill="#AB1935"/>
<path id="path1086" d="M70.398 83.8522C69.8327 84.6465 69.6639 85.7613 70.0482 85.9878C70.4299 86.2149 71.5318 85.6614 72.0926 84.8728C72.6498 84.0866 72.3777 83.6003 71.9996 83.3686C71.622 83.1386 70.9647 83.0611 70.398 83.8522Z" fill="#F9DD06"/>
<path id="path1088" d="M71.9987 83.3693C71.622 83.2171 71.1191 83.2125 70.7357 83.7488C70.2795 84.3881 70.2292 85.3364 70.6104 85.565C70.8003 85.6786 71.1353 85.6395 71.4797 85.4945C70.9377 85.9161 70.3167 86.1475 70.0482 85.9871C69.6639 85.7607 69.8327 84.6459 70.398 83.8515C70.9629 83.0614 71.6193 83.138 71.9987 83.3693Z" fill="#F6A90D"/>
<path id="path1090" d="M71.683 84.946C71.6686 84.946 71.6542 84.9442 71.6412 84.9398C71.5083 84.8958 71.506 84.6411 71.6363 84.3668C71.7521 84.1207 71.9362 83.9461 72.0687 83.9461C72.083 83.9461 72.0969 83.948 72.1095 83.952C72.2397 83.9964 72.2438 84.2509 72.1145 84.5235C71.9991 84.7701 71.8159 84.946 71.683 84.946Z" fill="#FBF582"/>
<path id="path1092" d="M76.109 72.5915C75.6411 73.2421 75.4705 74.1631 75.7578 74.3539C76.0452 74.5425 76.9194 74.0926 77.3819 73.4437C77.8453 72.7963 77.6518 72.3926 77.3667 72.2022C77.082 72.0109 76.5746 71.9387 76.109 72.5915Z" fill="#AB1935"/>
<path id="path1094" d="M76.2601 72.53C75.8542 73.0962 75.7298 73.9125 76.0005 74.0913C76.2695 74.2704 77.0571 73.8973 77.4589 73.3338C77.8612 72.7712 77.6695 72.4048 77.4023 72.2247C77.1329 72.042 76.666 71.9656 76.2601 72.53Z" fill="#F9DD06"/>
<path id="path1096" d="M77.4014 72.2238C77.1338 72.099 76.7755 72.0815 76.5016 72.464C76.1734 72.922 76.1316 73.6184 76.4024 73.7971C76.5358 73.886 76.7751 73.8685 77.0211 73.7738C76.6354 74.067 76.1914 74.2183 76.0005 74.0912C75.7298 73.9125 75.8542 73.0962 76.2601 72.53C76.6655 71.9656 77.1311 72.042 77.4014 72.2238Z" fill="#F6A90D"/>
<path id="path1098" d="M77.1703 73.376C77.1586 73.376 77.1474 73.3742 77.1366 73.3701C77.0423 73.3333 77.0419 73.1447 77.1344 72.9485C77.2174 72.7734 77.3463 72.6517 77.4406 72.6517C77.4527 72.6517 77.4644 72.6535 77.4752 72.6575C77.5663 72.6948 77.5686 72.8825 77.4747 73.0792C77.3921 73.2538 77.2637 73.376 77.1703 73.376Z" fill="#FBF582"/>
<path id="path1100" d="M76.581 85.2528C76.1225 85.9038 75.9532 86.8054 76.2352 86.9765C76.5176 87.1458 77.378 86.668 77.8315 86.0196C78.2859 85.3694 78.0955 84.9896 77.8171 84.8167C77.5365 84.6434 77.0398 84.5994 76.581 85.2528Z" fill="#AB1935"/>
<path id="path1102" d="M76.73 85.1867C76.3322 85.754 76.2078 86.551 76.4745 86.7113C76.7403 86.8725 77.5122 86.4747 77.9073 85.9097C78.3024 85.3462 78.1143 85.0005 77.8516 84.8388C77.5871 84.675 77.1283 84.6202 76.73 85.1867Z" fill="#F9DD06"/>
<path id="path1104" d="M77.8494 84.8379C77.588 84.7283 77.2356 84.7283 76.9666 85.1131C76.6442 85.5699 76.6052 86.2469 76.8692 86.4086C77.0003 86.4889 77.236 86.4588 77.4771 86.3556C77.0968 86.6582 76.6604 86.8262 76.4745 86.7108C76.2078 86.5505 76.3322 85.7535 76.73 85.1863C77.1274 84.6198 77.5844 84.6745 77.8494 84.8379Z" fill="#F6A90D"/>
<path id="path1106" d="M77.6201 85.9626C77.6107 85.9626 77.6017 85.9612 77.5932 85.9586C77.4998 85.9271 77.5012 85.7447 77.5914 85.549C77.6736 85.3729 77.8038 85.2473 77.8963 85.2473C77.9066 85.2473 77.916 85.2491 77.9255 85.2522C78.0166 85.2805 78.0166 85.4641 77.9259 85.6595C77.8424 85.8359 77.7122 85.9626 77.6201 85.9626Z" fill="#FBF582"/>
<path id="path1108" d="M67.0334 71.8776C66.5409 72.5502 66.3675 73.503 66.6774 73.701C66.9881 73.8986 67.9175 73.4343 68.4065 72.7639C68.8919 72.094 68.6817 71.6764 68.3751 71.4784C68.0684 71.2777 67.5246 71.2036 67.0334 71.8776Z" fill="#AB1935"/>
<path id="path1110" d="M67.1954 71.8172C66.7675 72.4019 66.6436 73.246 66.9346 73.4337C67.2264 73.6187 68.0634 73.2357 68.4877 72.6524C68.9111 72.0709 68.7023 71.6915 68.4132 71.5034C68.1244 71.3144 67.622 71.2335 67.1954 71.8172Z" fill="#F9DD06"/>
<path id="path1112" d="M68.4127 71.5015C68.1253 71.373 67.7423 71.3515 67.4527 71.7489C67.1052 72.2194 67.0706 72.9432 67.3629 73.1273C67.5053 73.2207 67.7603 73.2023 68.023 73.1058C67.6135 73.4084 67.1389 73.562 66.9346 73.4327C66.6436 73.245 66.7675 72.4008 67.1954 71.8162C67.622 71.2325 68.1226 71.3142 68.4127 71.5015Z" fill="#F6A90D"/>
<path id="path1114" d="M68.1815 72.693C68.1689 72.693 68.1564 72.6907 68.1451 72.6862C68.0459 72.6481 68.0441 72.4523 68.1397 72.2502C68.226 72.0684 68.3642 71.9422 68.4635 71.9422C68.4761 71.9422 68.4877 71.944 68.4985 71.9481C68.6 71.9862 68.6027 72.182 68.5061 72.3854C68.419 72.5663 68.2825 72.693 68.1815 72.693Z" fill="#FBF582"/>
<path id="path1116" d="M66.6183 64.144C66.1217 64.8153 65.9465 65.7811 66.2613 65.9921C66.5756 66.2014 67.5158 65.7551 68.0093 65.0878C68.5005 64.4175 68.2872 63.9864 67.9765 63.7754C67.6658 63.5639 67.1167 63.4709 66.6183 64.144Z" fill="#AB1935"/>
<path id="path1118" d="M66.7871 64.087C66.3552 64.6712 66.2281 65.5288 66.524 65.7277C66.8194 65.9253 67.6645 65.558 68.0969 64.9765C68.5234 64.395 68.3111 64.0026 68.0183 63.8024C67.7264 63.6043 67.2177 63.5038 66.7871 64.087Z" fill="#F9DD06"/>
<path id="path1120" d="M68.0179 63.7999C67.7278 63.6598 67.3407 63.6279 67.0449 64.0249C66.6973 64.495 66.6596 65.2282 66.9555 65.4285C67.101 65.5255 67.361 65.5151 67.6254 65.4231C67.2105 65.7199 66.7323 65.8645 66.524 65.7257C66.2281 65.5268 66.3552 64.6692 66.7871 64.085C67.2182 63.5027 67.7251 63.6006 68.0179 63.7999Z" fill="#F6A90D"/>
<path id="path1122" d="M67.7876 65.0079C67.7732 65.0079 67.7598 65.0053 67.7476 64.9999C67.6435 64.959 67.6417 64.7592 67.7409 64.5544C67.8271 64.3744 67.9623 64.2505 68.0642 64.2505C68.0781 64.2505 68.0916 64.2527 68.1042 64.2577C68.2043 64.3008 68.2083 64.4997 68.1113 64.7044C68.0242 64.8836 67.8873 65.0079 67.7876 65.0079Z" fill="#FBF582"/>
<path id="path1124" d="M78.6128 65.4231C78.1508 66.0679 77.9766 66.9884 78.2608 67.1882C78.5455 67.3875 79.4116 66.9569 79.8709 66.3175C80.3307 65.6759 80.1399 65.2664 79.8597 65.0644C79.5791 64.8645 79.0775 64.7806 78.6128 65.4231Z" fill="#AB1935"/>
<path id="path1126" d="M78.7647 65.3678C78.3628 65.9273 78.2362 66.7449 78.5029 66.933C78.7705 67.1194 79.5505 66.7656 79.9497 66.2097C80.3493 65.6534 80.1593 65.2802 79.8962 65.0912C79.6304 64.9013 79.1684 64.8097 78.7647 65.3678Z" fill="#F9DD06"/>
<path id="path1128" d="M79.8935 65.0898C79.6313 64.9573 79.2761 64.9281 79.004 65.3085C78.679 65.7588 78.6354 66.4588 78.9035 66.6465C79.035 66.7403 79.2721 66.7282 79.5141 66.6407C79.132 66.9258 78.6911 67.0654 78.5029 66.9325C78.2362 66.7444 78.3628 65.9267 78.7647 65.3673C79.1684 64.8092 79.6295 64.9007 79.8935 65.0898Z" fill="#F6A90D"/>
<path id="path1130" d="M79.6657 66.2432C79.6532 66.2432 79.641 66.2409 79.6298 66.2364C79.5378 66.1978 79.5369 66.0074 79.6307 65.8112C79.7124 65.6388 79.8373 65.5207 79.9311 65.5207C79.9441 65.5207 79.9562 65.5229 79.9679 65.5274C80.0591 65.5652 80.0595 65.756 79.9679 65.9522C79.8848 66.1246 79.7582 66.2432 79.6657 66.2432Z" fill="#FBF582"/>
<path id="path1132" d="M76.4121 53.1095C75.9371 53.7552 75.762 54.7044 76.0561 54.9248C76.3497 55.1449 77.2419 54.7399 77.7125 54.0964C78.1862 53.453 77.9873 53.0188 77.6977 52.7988C77.4067 52.5756 76.8899 52.4638 76.4121 53.1095Z" fill="#AB1935"/>
<path id="path1134" d="M76.5674 53.0596C76.1521 53.6208 76.0232 54.4636 76.3003 54.6711C76.576 54.8794 77.3802 54.5485 77.7919 53.9886C78.2023 53.4305 78.0056 53.0358 77.7313 52.8256C77.4574 52.615 76.9801 52.4983 76.5674 53.0596Z" fill="#F9DD06"/>
<path id="path1136" d="M77.7299 52.826C77.4587 52.6752 77.0932 52.6303 76.8122 53.0106C76.4785 53.4614 76.4363 54.1861 76.7111 54.3953C76.8476 54.4973 77.0919 54.4955 77.3424 54.4151C76.9473 54.6921 76.4943 54.8174 76.3003 54.6715C76.0232 54.464 76.1521 53.6213 76.5674 53.06C76.9796 52.5005 77.456 52.6155 77.7299 52.826Z" fill="#F6A90D"/>
<path id="path1138" d="M77.5067 54.0116C77.4919 54.0116 77.4775 54.0089 77.4649 54.0031C77.3688 53.9582 77.3688 53.7602 77.4627 53.5608C77.5449 53.3888 77.6719 53.2726 77.7667 53.2726C77.7815 53.2726 77.7958 53.2752 77.8089 53.2815C77.9059 53.3269 77.9068 53.5249 77.8102 53.7229C77.7294 53.8949 77.6019 54.0116 77.5067 54.0116Z" fill="#FBF582"/>
<path id="path1140" d="M82.3046 69.5818C81.5045 70.7092 81.1996 72.3113 81.6886 72.6458C82.1749 72.9785 83.6589 72.2067 84.4478 71.0882C85.2353 69.9719 84.9165 69.2706 84.4392 68.9298C83.9597 68.5894 83.1039 68.4583 82.3046 69.5818Z" fill="#AB1935"/>
<path id="path1142" d="M82.5634 69.4798C81.8679 70.4609 81.6439 71.8793 82.101 72.1967C82.5594 72.5101 83.8921 71.8721 84.5791 70.9004C85.2625 69.9297 84.945 69.293 84.4964 68.971C84.0461 68.6504 83.2563 68.5027 82.5634 69.4798Z" fill="#F9DD06"/>
<path id="path1144" d="M84.4937 68.9713C84.0452 68.7504 83.4386 68.7091 82.9703 69.3723C82.4099 70.1621 82.3318 71.3731 82.7875 71.691C83.0125 71.8459 83.4166 71.8194 83.8333 71.6577C83.1746 72.1615 82.4234 72.4188 82.101 72.197C81.6439 71.8795 81.8679 70.4611 82.5634 69.48C83.2554 68.5052 84.0416 68.6512 84.4937 68.9713Z" fill="#F6A90D"/>
<path id="path1146" d="M84.0989 70.9663C84.0783 70.9663 84.058 70.9627 84.0396 70.9551C83.8825 70.8913 83.8865 70.5644 84.0441 70.2232C84.1847 69.9214 84.4024 69.7122 84.5596 69.7122C84.5807 69.7122 84.6005 69.7158 84.6193 69.7239C84.7769 69.7867 84.7765 70.1145 84.6175 70.4558C84.4756 70.7561 84.2574 70.9663 84.0989 70.9663Z" fill="#FBF582"/>
<path id="path1148" d="M71.595 68.0686C70.7391 69.2428 70.4329 70.9104 70.9668 71.2656C71.4975 71.6149 73.0996 70.8184 73.9401 69.6536C74.7807 68.4929 74.4228 67.7574 73.9015 67.4009C73.3793 67.0408 72.4472 66.8985 71.595 68.0686Z" fill="#AB1935"/>
<path id="path1150" d="M71.8752 67.9638C71.1325 68.9817 70.9093 70.4653 71.4118 70.798C71.9093 71.1285 73.3511 70.4702 74.083 69.4568C74.8126 68.4492 74.457 67.7811 73.9662 67.4461C73.4732 67.1076 72.6156 66.9446 71.8752 67.9638Z" fill="#F9DD06"/>
<path id="path1152" d="M73.9653 67.4429C73.4741 67.2076 72.8168 67.1636 72.3152 67.8519C71.718 68.6718 71.6493 69.9398 72.1495 70.273C72.3933 70.4369 72.8329 70.4104 73.2828 70.242C72.5738 70.7682 71.7616 71.0296 71.4118 70.7965C70.9093 70.4642 71.1325 68.9807 71.8752 67.9628C72.6129 66.9471 73.4692 67.1052 73.9653 67.4429Z" fill="#F6A90D"/>
<path id="path1154" d="M73.5555 69.5255C73.533 69.5255 73.5119 69.5219 73.4917 69.5143C73.3198 69.4451 73.3184 69.1025 73.4845 68.7478C73.635 68.4344 73.8676 68.2166 74.0391 68.2166C74.062 68.2166 74.084 68.2207 74.1042 68.2288C74.2753 68.297 74.2775 68.6392 74.1105 68.9943C73.9591 69.3082 73.727 69.526 73.5555 69.5255Z" fill="#FBF582"/>
<path id="path1156" d="M70.8155 56.3631C69.9449 57.5346 69.6337 59.2422 70.1792 59.6283C70.7212 60.0131 72.3502 59.261 73.2078 58.099C74.0618 56.9414 73.6972 56.1678 73.167 55.7762C72.6317 55.3834 71.6839 55.1957 70.8155 56.3631Z" fill="#AB1935"/>
<path id="path1158" d="M71.1023 56.27C70.3462 57.2856 70.1203 58.8029 70.6322 59.1666C71.1405 59.5303 72.6096 58.9151 73.3527 57.9048C74.0959 56.8973 73.7344 56.1937 73.2315 55.8268C72.7309 55.4559 71.8553 55.2543 71.1023 56.27Z" fill="#F9DD06"/>
<path id="path1160" d="M73.2293 55.8249C72.7304 55.5605 72.0609 55.4868 71.55 56.1747C70.9442 56.9933 70.8733 58.2949 71.3829 58.66C71.6335 58.8405 72.0789 58.832 72.5387 58.6784C71.8185 59.188 70.9896 59.4229 70.6322 59.1665C70.1203 58.8028 70.3462 57.2856 71.1023 56.2699C71.8544 55.256 72.7277 55.4558 73.2293 55.8249Z" fill="#F6A90D"/>
<path id="path1162" d="M72.8285 57.9508C72.8021 57.9508 72.7769 57.9459 72.7536 57.9356C72.5784 57.8592 72.5753 57.5054 72.7464 57.148C72.8941 56.8382 73.1267 56.6254 73.3 56.6254C73.3274 56.6254 73.353 56.6303 73.3763 56.6411C73.5497 56.7188 73.5519 57.069 73.3817 57.4286C73.2327 57.7389 73.0019 57.9508 72.8285 57.9508Z" fill="#FBF582"/>
<path id="path1164" d="M92.2389 67.934C91.485 69.0174 91.1841 70.5625 91.6336 70.8889C92.0808 71.2136 93.4655 70.4781 94.2105 69.4009C94.954 68.3269 94.6653 67.6488 94.2275 67.317C93.7848 66.9843 92.9932 66.851 92.2389 67.934Z" fill="#AB1935"/>
<path id="path1166" d="M92.4809 67.8369C91.8244 68.7807 91.6008 70.1511 92.022 70.46C92.4418 70.7649 93.6878 70.1564 94.3358 69.2225C94.9805 68.2904 94.6936 67.6712 94.281 67.3596C93.8665 67.0484 93.1355 66.8998 92.4809 67.8369Z" fill="#F9DD06"/>
<path id="path1168" d="M94.2792 67.358C93.8643 67.1402 93.3021 67.0989 92.8594 67.7351C92.3309 68.4935 92.2456 69.6663 92.6641 69.9744C92.8693 70.127 93.2456 70.1028 93.6335 69.9474C93.0179 70.4332 92.3166 70.6744 92.022 70.4593C91.6008 70.1504 91.8244 68.78 92.4809 67.8362C93.1329 66.9004 93.8625 67.0446 94.2792 67.358Z" fill="#F6A90D"/>
<path id="path1170" d="M93.8877 69.2835C93.868 69.2835 93.8491 69.2799 93.8321 69.2723C93.6861 69.2108 93.6933 68.892 93.8428 68.5647C93.978 68.2746 94.1832 68.0734 94.3287 68.0734C94.348 68.0734 94.3664 68.077 94.383 68.0842C94.5289 68.1484 94.5249 68.4645 94.3713 68.7928C94.238 69.0824 94.0341 69.2835 93.8877 69.2835Z" fill="#FBF582"/>
<path id="path1172" d="M92.8125 76.4471C92.0649 77.5324 91.769 79.0491 92.2108 79.3549C92.6499 79.6566 94.0172 78.8911 94.7513 77.8157C95.4841 76.743 95.1985 76.0865 94.767 75.7785C94.3355 75.4696 93.5533 75.3654 92.8125 76.4471Z" fill="#AB1935"/>
<path id="path1174" d="M93.0466 76.3432C92.3996 77.2857 92.1787 78.6305 92.5945 78.9174C93.0066 79.2043 94.2338 78.5667 94.8741 77.6323C95.5108 76.6997 95.2266 76.1061 94.8202 75.8152C94.4112 75.5233 93.6927 75.4034 93.0466 76.3432Z" fill="#F9DD06"/>
<path id="path1176" d="M94.8189 75.8135C94.4107 75.6169 93.8584 75.5926 93.4206 76.2307C92.9002 76.989 92.8136 78.1376 93.2262 78.4241C93.4301 78.5646 93.8005 78.5296 94.184 78.3662C93.5751 78.8605 92.8841 79.12 92.5945 78.9175C92.1787 78.6306 92.3996 77.2858 93.0466 76.3434C93.6918 75.4049 94.4098 75.5226 94.8189 75.8135Z" fill="#F6A90D"/>
<path id="path1178" d="M94.4232 77.7095C94.4057 77.7095 94.3891 77.7068 94.3738 77.7005C94.2297 77.6452 94.2387 77.3336 94.3864 77.009C94.5197 76.7185 94.724 76.5133 94.8695 76.5133C94.8875 76.5133 94.9046 76.5164 94.9203 76.5227C95.0617 76.5793 95.055 76.8873 94.9072 77.2151C94.773 77.5056 94.5682 77.7099 94.4232 77.7095Z" fill="#FBF582"/>
<path id="path1180" d="M81.1369 79.9914C80.3395 81.1278 80.0395 82.7074 80.5263 83.0168C81.0112 83.3236 82.4889 82.5082 83.2751 81.3807C84.0568 80.2563 83.7371 79.5819 83.263 79.2685C82.7839 78.9529 81.9317 78.8581 81.1369 79.9914Z" fill="#AB1935"/>
<path id="path1182" d="M81.3921 79.883C80.7015 80.8691 80.4806 82.2705 80.939 82.5614C81.3916 82.8505 82.7229 82.1747 83.4041 81.1951C84.0861 80.2171 83.7673 79.6033 83.3197 79.3088C82.8702 79.0111 82.0831 78.8979 81.3921 79.883Z" fill="#F9DD06"/>
<path id="path1184" d="M83.3174 79.3044C82.8693 79.1046 82.2672 79.0911 81.7984 79.7578C81.2421 80.5527 81.1662 81.7452 81.6206 82.0366C81.8442 82.1807 82.247 82.1376 82.6637 81.962C82.0068 82.4838 81.2574 82.763 80.939 82.5588C80.4806 82.2679 80.7015 80.8665 81.3921 79.8804C82.0827 78.8967 82.868 79.008 83.3174 79.3044Z" fill="#F6A90D"/>
<path id="path1186" d="M82.9173 81.2768C82.8994 81.2768 82.8819 81.2742 82.8657 81.2684C82.7072 81.2144 82.7099 80.8929 82.8675 80.5508C83.0112 80.245 83.2321 80.0294 83.3897 80.0294C83.4076 80.0294 83.4247 80.0322 83.4409 80.0385C83.5967 80.0955 83.5967 80.4165 83.4391 80.755C83.2954 81.0609 83.0758 81.2768 82.9173 81.2768Z" fill="#FBF582"/>
<path id="path1204" d="M95.3438 68.7519C96.2701 64.0081 93.0489 62.9713 91.7566 61.7311C90.4487 60.4685 90.5591 59.0294 90.5591 59.0294C90.5591 59.0294 90.0782 59.7088 90.1927 60.9728C90.3032 62.1833 90.0383 63.2358 90.0167 63.3193C89.9206 63.5074 89.8142 63.6924 89.6993 63.8743C88.2701 66.1332 85.5244 67.879 85.5244 67.879C89.0536 63.7292 86.3173 61.402 86.4116 59.8107C86.5082 58.2145 87.4762 57.8126 87.4762 57.8126C84.1908 54.2591 82.2318 53.5039 82.2318 53.5039C79.9319 52.5291 80.75 51.6894 82.7517 51.6894C83.1217 51.6894 83.533 51.7182 83.9721 51.7802C87.2145 52.239 87.4349 54.3759 90.0841 55.1931C90.3225 55.2667 90.5488 55.2999 90.7639 55.2999C92.8877 55.2995 93.8859 52.0451 93.8859 52.0451C94.457 52.8448 95.0263 53.063 95.4781 53.063C96.0236 53.063 96.4512 53.063 96.4512 53.063C96.4512 53.063 95.4191 54.0709 94.1812 55.4023C93.6137 56.5373 93.8859 58.4747 95.3106 59.0294C96.6051 59.2652 98.2714 60.5736 99.4684 63.7081C100.213 65.6564 101.767 66.0143 102.809 66.0143C103.413 66.0143 103.846 65.8935 103.846 65.8935C103.846 65.8935 102.948 66.8032 101.387 66.8032C100.97 66.8032 100.506 66.7381 99.9987 66.5737C96.2495 65.3582 95.4727 61.996 95.4727 61.996C95.1943 62.811 96.1385 64.2465 96.1417 64.2501C96.1529 64.264 96.165 64.2779 96.1767 64.2923C96.0869 64.1854 96.0083 64.088 95.9405 64.0031C96.9665 65.5212 96.4021 67.0771 95.8844 67.9769C95.6074 68.4582 95.3438 68.7519 95.3438 68.7519ZM77.215 56.0516C77.6689 54.7728 78.412 54.0903 79.1246 53.7302C79.7658 53.406 80.3827 53.3427 80.7406 53.3387C79.9849 53.3472 78.0775 53.6211 77.215 56.0516Z" fill="url(#paint9_linear)"/>
<path id="path1222" d="M87.8793 56.9726C87.8725 56.9667 87.8663 56.9609 87.8595 56.9551C87.8663 56.9609 87.8725 56.9667 87.8793 56.9726ZM87.855 56.951C87.7639 56.8706 87.6732 56.793 87.582 56.718V56.7175C87.6732 56.793 87.7639 56.8706 87.855 56.951Z" fill="url(#paint10_linear)"/>
<path id="path1240" d="M84.4587 55.0198C83.7506 54.8168 83.078 54.7378 82.4619 54.7378C83.078 54.7378 83.7506 54.8168 84.4587 55.0198Z" fill="url(#paint11_linear)"/>
<path id="path1258" d="M87.5837 56.7194C86.5074 55.8285 85.4482 55.3036 84.46 55.0207C85.4482 55.3036 86.5074 55.8285 87.5837 56.7189V56.7194Z" fill="url(#paint12_linear)"/>
<path id="path1276" d="M92.1582 54.3349C92.16 54.3349 92.1618 54.3349 92.1636 54.3349C92.1618 54.3349 92.16 54.3349 92.1582 54.3349ZM92.1577 54.3349C91.9117 54.3349 91.6656 54.2505 91.4268 54.057C91.6656 54.2505 91.9117 54.3349 92.1577 54.3349Z" fill="url(#paint13_linear)"/>
<path id="path1294" d="M82.8077 52.7624C82.8045 52.762 82.7013 52.7485 82.5284 52.7485C82.7013 52.7485 82.8045 52.762 82.8077 52.7624ZM82.4902 52.7489C82.5033 52.7485 82.5158 52.7485 82.5279 52.7485C82.5158 52.7485 82.5033 52.7485 82.4902 52.7489Z" fill="url(#paint14_linear)"/>
<path id="path1312" d="M95.2012 50.662C95.2021 50.6597 95.2025 50.657 95.203 50.6548C95.2025 50.657 95.2021 50.6597 95.2012 50.662ZM95.2034 50.6535C95.2034 50.6526 95.2039 50.6521 95.2039 50.6512C95.2039 50.6521 95.2034 50.6526 95.2034 50.6535ZM95.207 50.6373C95.207 50.6368 95.207 50.6364 95.2075 50.6355C95.207 50.6364 95.207 50.6368 95.207 50.6373ZM97.1081 50.0908C97.0933 50.081 97.078 50.0715 97.0632 50.0621C97.078 50.0715 97.0933 50.081 97.1081 50.0908ZM97.0592 50.0594C96.6263 49.786 96.286 49.6567 96.0188 49.6562C96.286 49.6567 96.6263 49.7855 97.0592 50.0594ZM96.0161 49.6562C96.0166 49.6562 96.017 49.6562 96.0175 49.6562C96.017 49.6562 96.0166 49.6562 96.0161 49.6562Z" fill="url(#paint15_linear)"/>
<path id="path1342" d="M91.7646 62.7338C91.7651 62.7333 91.7655 62.7315 91.766 62.7293C91.9016 62.463 92.0161 62.1918 92.1032 61.9166C92.1037 61.9166 92.1041 61.9166 92.1046 61.9166C92.017 62.1936 91.902 62.4666 91.7646 62.7338Z" fill="url(#paint16_linear)"/>
<path id="path1360" d="M93.4996 61.9508C92.7821 61.3114 92.2904 60.8884 92.2904 60.8884C92.2774 61.2355 92.2123 61.579 92.1058 61.9162C92.1054 61.9162 92.1049 61.9162 92.1045 61.9162C92.2118 61.5781 92.2774 61.2342 92.2904 60.8884C92.2904 60.8884 92.7821 61.3114 93.4996 61.9508Z" fill="url(#paint17_linear)"/>
<path id="path1390" d="M102.899 66.9009C101.553 66.9009 100.216 65.9859 99.1984 65.047C99.197 65.0443 99.1957 65.0411 99.1943 65.0384C100.214 65.9764 101.556 66.8942 102.905 66.8942C103.808 66.8942 104.715 66.4825 105.529 65.39C104.711 66.4874 103.803 66.9009 102.899 66.9009Z" fill="url(#paint18_linear)"/>
<path id="path1408" d="M99.1981 65.0472C98.675 64.565 98.2363 64.0764 97.9238 63.7024C98.2345 64.0728 98.6719 64.5587 99.1941 65.0387C99.1954 65.0414 99.1968 65.0445 99.1981 65.0472Z" fill="url(#paint19_linear)"/>
<path id="path1456" d="M94.0895 51.8709C94.0895 51.8709 94.4746 51.4669 95.492 52.0271C96.4988 52.582 96.3932 53.2469 95.8556 53.3567C95.313 53.4641 93.367 52.8288 94.0895 51.8709Z" fill="url(#paint20_linear)"/>
</g>
<defs>
<linearGradient id="paint0_linear" x1="19.3142" y1="50.4413" x2="62.7777" y2="41.993" gradientUnits="userSpaceOnUse">
<stop stop-color="#247E3A"/>
<stop offset="0.503067" stop-color="#50BE38"/>
<stop offset="1" stop-color="#95D221"/>
</linearGradient>
<linearGradient id="paint1_linear" x1="37.6382" y1="43.4588" x2="61.2239" y2="38.8743" gradientUnits="userSpaceOnUse">
<stop stop-color="#62B881"/>
<stop offset="0.503067" stop-color="#95D77E"/>
<stop offset="1" stop-color="#C2E470"/>
</linearGradient>
<linearGradient id="paint2_linear" x1="37.6412" y1="43.4582" x2="61.2269" y2="38.8737" gradientUnits="userSpaceOnUse">
<stop stop-color="#371417"/>
<stop offset="0.503067" stop-color="#611119"/>
<stop offset="1" stop-color="#83171C"/>
</linearGradient>
<linearGradient id="paint3_linear" x1="37.6392" y1="43.4592" x2="61.2249" y2="38.8747" gradientUnits="userSpaceOnUse">
<stop stop-color="#62B881"/>
<stop offset="0.503067" stop-color="#95D77E"/>
<stop offset="1" stop-color="#C2E470"/>
</linearGradient>
<linearGradient id="paint4_linear" x1="26.375" y1="48.4588" x2="39.7389" y2="45.8612" gradientUnits="userSpaceOnUse">
<stop stop-color="#371417"/>
<stop offset="0.503067" stop-color="#381417"/>
<stop offset="1" stop-color="#6E1418"/>
</linearGradient>
<linearGradient id="paint5_linear" x1="17.4755" y1="45.8521" x2="30.9522" y2="43.2326" gradientUnits="userSpaceOnUse">
<stop stop-color="#609E76"/>
<stop offset="0.503067" stop-color="#6BCA89"/>
<stop offset="1" stop-color="#A4DB7A"/>
</linearGradient>
<linearGradient id="paint6_linear" x1="17.4759" y1="45.8515" x2="30.9526" y2="43.232" gradientUnits="userSpaceOnUse">
<stop stop-color="#431418"/>
<stop offset="0.503067" stop-color="#431419"/>
<stop offset="1" stop-color="#7F161B"/>
</linearGradient>
<linearGradient id="paint7_linear" x1="19.3147" y1="50.4405" x2="62.7782" y2="41.9922" gradientUnits="userSpaceOnUse">
<stop stop-color="#247E3A"/>
<stop offset="0.503067" stop-color="#50BE38"/>
<stop offset="1" stop-color="#95D221"/>
</linearGradient>
<linearGradient id="paint8_linear" x1="37.7651" y1="37.0883" x2="41.6613" y2="34.018" gradientUnits="userSpaceOnUse">
<stop stop-color="#1C5429"/>
<stop offset="0.503067" stop-color="#2FAA48"/>
<stop offset="1" stop-color="#68C530"/>
</linearGradient>
<linearGradient id="paint9_linear" x1="102.348" y1="67.9499" x2="76.4587" y2="49.0908" gradientUnits="userSpaceOnUse">
<stop stop-color="#247E3A"/>
<stop offset="0.503067" stop-color="#50BE38"/>
<stop offset="1" stop-color="#95D221"/>
</linearGradient>
<linearGradient id="paint10_linear" x1="93.0972" y1="59.3474" x2="78.2064" y2="48.5001" gradientUnits="userSpaceOnUse">
<stop stop-color="#62B881"/>
<stop offset="0.503067" stop-color="#95D77E"/>
<stop offset="1" stop-color="#C2E470"/>
</linearGradient>
<linearGradient id="paint11_linear" x1="93.0977" y1="59.3477" x2="78.2068" y2="48.5004" gradientUnits="userSpaceOnUse">
<stop stop-color="#431419"/>
<stop offset="0.503067" stop-color="#711418"/>
<stop offset="1" stop-color="#961A1F"/>
</linearGradient>
<linearGradient id="paint12_linear" x1="93.0989" y1="59.3488" x2="78.2079" y2="48.5015" gradientUnits="userSpaceOnUse">
<stop stop-color="#371417"/>
<stop offset="0.503067" stop-color="#611119"/>
<stop offset="1" stop-color="#83171C"/>
</linearGradient>
<linearGradient id="paint13_linear" x1="93.098" y1="59.3476" x2="78.2071" y2="48.5003" gradientUnits="userSpaceOnUse">
<stop stop-color="#62B881"/>
<stop offset="0.503067" stop-color="#95D77E"/>
<stop offset="1" stop-color="#C2E470"/>
</linearGradient>
<linearGradient id="paint14_linear" x1="93.0994" y1="59.3493" x2="78.2065" y2="48.5028" gradientUnits="userSpaceOnUse">
<stop stop-color="#371417"/>
<stop offset="0.503067" stop-color="#611119"/>
<stop offset="1" stop-color="#83171C"/>
</linearGradient>
<linearGradient id="paint15_linear" x1="93.0985" y1="59.3486" x2="78.2074" y2="48.5013" gradientUnits="userSpaceOnUse">
<stop stop-color="#62B881"/>
<stop offset="0.503067" stop-color="#95D77E"/>
<stop offset="1" stop-color="#C2E470"/>
</linearGradient>
<linearGradient id="paint16_linear" x1="98.5776" y1="66.1247" x2="90.8243" y2="60.4769" gradientUnits="userSpaceOnUse">
<stop stop-color="#431418"/>
<stop offset="0.503067" stop-color="#431419"/>
<stop offset="1" stop-color="#7F161B"/>
</linearGradient>
<linearGradient id="paint17_linear" x1="98.5788" y1="66.1243" x2="90.8256" y2="60.4766" gradientUnits="userSpaceOnUse">
<stop stop-color="#371417"/>
<stop offset="0.503067" stop-color="#381417"/>
<stop offset="1" stop-color="#6E1418"/>
</linearGradient>
<linearGradient id="paint18_linear" x1="104.525" y1="66.7707" x2="97.1997" y2="61.4346" gradientUnits="userSpaceOnUse">
<stop stop-color="#609E76"/>
<stop offset="0.503067" stop-color="#6BCA89"/>
<stop offset="1" stop-color="#A4DB7A"/>
</linearGradient>
<linearGradient id="paint19_linear" x1="104.525" y1="66.771" x2="97.1994" y2="61.4348" gradientUnits="userSpaceOnUse">
<stop stop-color="#431418"/>
<stop offset="0.503067" stop-color="#431419"/>
<stop offset="1" stop-color="#7F161B"/>
</linearGradient>
<linearGradient id="paint20_linear" x1="95.7643" y1="53.3321" x2="93.921" y2="50.8992" gradientUnits="userSpaceOnUse">
<stop stop-color="#1C5429"/>
<stop offset="0.503067" stop-color="#2FAA48"/>
<stop offset="1" stop-color="#68C530"/>
</linearGradient>
</defs>
</svg>
