<svg  viewBox="0 0 122 122" fill="none" xmlns="http://www.w3.org/2000/svg">
<g id="Blueberry">
<path id="Vector" d="M68.4124 25.4988C65.5837 43.0161 59.9616 56.8261 59.9616 56.8261L63.7542 55.9334C64.1843 53.0932 69.0673 44.903 72.2351 25.7277C70.971 25.7221 69.6854 25.6203 68.4124 25.4988Z" fill="#42831F"/>
<path id="Vector_2" d="M59.8082 51.8242C62.0928 47.6292 58.4685 44.578 55.4503 42.1331C53.8887 40.8633 51.7332 39.877 50.4729 38.2204C49.4318 36.8688 48.0381 33.4738 48.0381 33.4738C50.0076 37.8691 47.1276 40.7482 47.7545 45.3911C48.1428 48.2012 55.6516 54.7173 58.4009 55.4202C60.3264 55.9019 58.5638 50.9218 60.0703 52.0186C59.9329 52.2343 59.9615 51.7564 59.8082 51.8242Z" fill="#58AC22"/>
<path id="Vector_3" d="M62.7142 53.2346C66.1795 58.2239 71.3596 54.3289 72.99 49.6898C74.2422 46.0777 71.5149 41.8338 75.4236 39.1136C72.4225 41.4471 69.3202 41.1257 66.1088 42.6639C61.2695 44.9845 60.6997 51.2908 64.1331 55.0748L62.7142 53.2346Z" fill="#58AC22"/>
<path id="Vector_4" d="M67.5747 56.4652C68.609 55.36 71.4253 49.4641 80.5035 53.6448C83.1278 54.8469 88.389 57.5347 91.3114 56.3637C90.9367 58.1645 89.4568 58.9309 87.7611 59.2569C85.2043 59.7237 74.5973 60.412 72.5059 60.3208C70.2718 60.1938 68.0258 56.4493 67.5747 56.4652Z" fill="#58AC22"/>
<path id="Vector_5" d="M60.9407 53.5104C60.9407 53.5104 68.3023 55.1929 71.4611 59.4083C74.652 63.6166 79.2889 67.588 74.3432 77.0887C69.3976 86.5894 53.1589 93.9167 49.2991 92.2312C45.4392 90.5457 28.1251 76.5752 39.0904 64.7611C50.029 52.9025 47.7974 48.6159 60.9407 53.5104Z" fill="#122E67"/>
<path id="Vector_6" d="M35.8034 68.1522C33.5852 69.3857 32.1602 72.4468 35.2497 74.9096C35.8665 75.4125 36.5315 75.7531 37.1609 75.9333C36.5546 76.2363 36.0161 76.6927 35.7129 77.2988C34.3877 79.9 36.4234 83.1524 38.9978 84.1299C39.4917 84.3065 40.0034 84.4118 40.4741 84.4083C40.1656 84.763 39.9355 85.1677 39.7785 85.6741C39.0186 88.1666 41.4518 91.617 44.0335 92.0203C44.4543 92.0953 44.8412 92.0936 45.1889 92.0669C44.7873 94.4292 45.6588 97.2162 48.8164 97.4074C50.8311 97.5326 52.5216 95.7427 52.7912 93.8475C53.3474 94.2291 54.0819 94.5038 55.0073 94.6519C57.4267 95.0071 58.8141 93.5203 59.3225 91.6394C59.8538 92.0602 60.492 92.3563 61.3265 92.4741C64.3093 92.9399 66.064 91.4389 66.7971 89.5081C70.3983 92.0761 73.6369 87.5514 72.2858 84.6521C75.5718 84.8149 77.5659 79.994 75.4623 77.8007C77.6109 77.5425 79.3603 75.487 79.8135 73.4331C80.1846 71.7678 78.5286 69.3909 77.2752 68.9788C77.1326 68.9431 76.9899 68.9074 76.8473 68.8718C78.4735 68.3086 79.8199 66.713 80.0287 64.9996C80.3037 62.7496 78.4247 61.1125 77.2819 60.4402C76.6026 60.0353 75.7807 59.8979 74.7037 60.2044C74.3382 60.3024 74.0066 60.4771 73.6945 60.6643C74.3704 59.6891 74.7129 58.5017 74.6168 57.3106C74.5118 56.0037 73.0643 54.3382 71.9144 53.9368C70.8874 53.5587 69.6661 53.7457 68.0791 54.6369C67.7474 54.8116 67.4425 55.0309 67.1768 55.2751C67.3391 55.0202 67.4943 54.7331 67.5977 54.4407C67.9509 53.453 68.0812 52.599 67.9939 51.827C67.8497 50.4951 67.0441 48.687 64.7156 48.059C63.9436 47.8432 63.0094 47.8823 61.8825 48.2672C60.2813 48.7912 59.0437 50.0426 58.5781 51.5099C58.2948 50.3099 57.1592 49.0635 56.4675 48.6782C55.1304 47.9648 53.6933 48.0145 51.9405 49.2962C51.0703 49.9273 50.496 50.8294 50.2516 51.7761C49.717 49.6721 47.9769 49.4186 46.6735 49.3881C45.7054 49.3505 44.8745 49.4003 43.7725 50.3523C41.8413 52.044 41.7909 54.8504 43.4863 56.343C41.2594 55.9451 38.7935 56.7452 38.5505 59.8975C38.4844 60.7373 38.5948 61.3863 38.8319 61.923C35.8293 62.0509 33.5162 65.8144 35.8034 68.1522ZM46.9292 67.9043C46.9613 67.8972 46.9738 67.8776 46.9934 67.8901L47.3642 68.0435C47.2662 67.981 47.1681 67.9186 47.0701 67.8562C47.8422 67.4659 48.3433 66.7652 48.6091 65.9148C48.9352 66.7011 49.5806 67.3324 50.4025 67.7729C50.2241 67.8799 50.0583 67.9672 49.8675 68.0938C47.5868 69.7284 46.9249 72.8895 49.5848 74.5552C49.9182 74.7674 50.2373 74.9155 50.5689 75.0439C50.4405 75.3755 50.3317 75.7196 50.2942 76.0815C49.7346 74.623 48.3868 73.4068 46.9106 73.1284C48.0466 71.6469 48.2662 69.2239 46.9292 67.9043ZM49.6553 79.7258C50.0655 78.9949 50.326 78.1962 50.3671 77.3956L50.401 77.4723C50.5631 78.1267 50.8857 78.7454 51.3029 79.259C50.7163 79.2713 50.1653 79.4442 49.6553 79.7258ZM54.0965 80.8444C54.84 80.9319 55.4944 80.7698 56.0489 80.4614C55.9454 81.36 56.2501 82.3532 57.186 83.3072C57.9704 84.1097 58.7335 84.5127 59.4716 84.6519C59.2576 84.9015 59.0311 85.1707 58.8439 85.4649C58.6495 85.7269 58.4943 86.014 58.3713 86.2939C57.6689 85.4058 56.6384 84.8601 55.335 85.1327L56.2586 85.5001C55.9091 85.443 55.5864 85.4305 55.2458 85.4893C55.6116 83.8757 55.2838 82.0963 54.0965 80.8444ZM71.5258 76.149C71.6381 76.2756 71.7558 76.3505 71.861 76.445C70.4934 76.7319 69.1382 77.6053 68.4212 78.7749C68.4016 78.7624 68.382 78.7499 68.3624 78.7374C68.2234 78.5662 68.1039 78.4075 67.9524 78.2559C68.7477 77.4395 69.3184 76.3698 69.3668 75.2982C69.8197 75.0629 70.1995 74.726 70.5722 74.357C70.6755 74.9739 70.966 75.5998 71.5258 76.149ZM63.5262 61.0532C63.4994 61.0086 63.4531 60.9515 63.4263 60.9069L63.5761 60.9747C63.5511 61.0139 63.5386 61.0335 63.5262 61.0532ZM41.8551 66.741C41.921 66.8106 41.9995 66.8605 42.0779 66.9105C41.9887 66.9639 41.9067 67.0495 41.8051 67.1226L41.8176 67.103C41.8532 66.9603 41.8443 66.8444 41.8551 66.741ZM40.4639 69.2726C40.4372 69.2281 40.4301 69.196 40.4033 69.1514C40.4354 69.1443 40.48 69.1175 40.4925 69.0979C40.4871 69.1496 40.4693 69.2209 40.4639 69.2726ZM45.8218 57.3062C46.0804 57.333 46.3514 57.3401 46.6028 57.3348C46.5154 57.4721 46.4476 57.6219 46.3798 57.7716C46.2087 57.6076 46.0251 57.4631 45.8218 57.3062ZM48.196 61.9316C48.5562 62.1884 48.9145 62.3614 49.2782 62.4827C49.0446 62.7198 48.8627 62.9622 48.7076 63.2493C48.6007 62.7678 48.4171 62.3203 48.196 61.9316ZM53.9523 56.6121C54.1912 56.6264 54.4355 56.589 54.6477 56.5587C54.4426 56.9242 54.2696 57.2825 54.175 57.6908C54.1643 57.4911 54.1412 57.311 54.1056 57.1506L54.184 57.2005C54.1501 57.1238 54.1038 57.0668 54.0699 56.9901C54.0414 56.8617 54.0129 56.7333 53.9523 56.6121ZM54.7237 60.7683C55.3511 61.774 56.2942 62.457 57.339 62.7638C57.371 63.3629 57.5902 63.971 58.059 64.4899C56.3883 65.0798 55.0116 66.7663 55.0363 68.5457L55.0167 68.5332C54.8687 68.2461 54.6958 67.9982 54.4855 67.8092C54.5425 67.7629 54.6388 67.7415 54.7083 67.6755C55.7533 66.7699 56.2047 64.9353 55.8768 63.459C55.6631 61.8899 54.5507 61.1266 53.1939 61.007C53.6575 60.3652 53.9768 59.6039 54.1285 58.8462C54.148 59.4649 54.3422 60.1121 54.7237 60.7683ZM57.9197 77.7391C57.9786 77.4734 57.9982 77.1828 57.9858 76.8993C58.2283 77.0812 58.4636 77.231 58.6918 77.3488C58.4297 77.4575 58.1872 77.5787 57.9197 77.7391ZM62.1874 70.6453L62.5422 70.9538C62.5422 70.9538 62.5422 70.9538 62.5297 70.9734C62.3925 70.8861 62.2552 70.7987 62.1179 70.7113C62.15 70.7042 62.1625 70.6845 62.1874 70.6453ZM62.3185 76.5434C62.3755 76.8002 62.4521 77.0694 62.568 77.3636C62.6357 77.517 62.7034 77.6703 62.764 77.7916C62.4485 77.508 62.108 77.2637 61.6337 77.0996C61.8887 76.9588 62.0974 76.7609 62.3185 76.5434ZM63.4895 78.8597L63.4824 78.8276C63.4699 78.8472 63.4699 78.8472 63.4895 78.8597ZM61.8352 77.4758C61.6979 77.3884 61.5285 77.3082 61.3663 77.26C61.4429 77.2262 61.5196 77.1923 61.6088 77.1388L61.8352 77.4758ZM54.859 73.283C55.3085 72.2739 55.4763 71.0579 55.3766 70.0024C55.8489 70.992 56.5638 71.5573 57.4018 71.8427C56.9114 72.44 56.5654 73.1567 56.5171 73.9251C56.1302 73.6237 55.6863 73.3687 55.1408 73.1868L55.8806 73.7128C55.5544 73.5327 55.2031 73.3918 54.859 73.283ZM66.2906 67.3599C64.5985 67.8536 63.0524 69.1567 62.5886 70.7078C62.503 70.6258 62.4371 70.5562 62.339 70.4938C63.6033 69.2869 64.1153 67.5736 62.9121 65.8706C62.9763 65.8564 63.0405 65.8421 63.085 65.8154L64.103 66.6839C63.7678 66.3878 63.4327 66.0918 63.0975 65.7958C63.3846 65.6478 63.6253 65.4428 63.7947 65.22C64.44 66.1544 65.3528 66.9283 66.2906 67.3599ZM62.9237 82.9087C62.9487 82.8695 62.9736 82.8303 62.9986 82.791C63.0057 82.8231 63.0325 82.8677 63.0396 82.8998C63.0075 82.9069 62.9558 82.9016 62.9237 82.9087ZM40.3729 69.8485C40.2785 69.6506 40.1911 69.4848 40.0646 69.294C40.1091 69.2672 40.1733 69.253 40.2179 69.2262L40.4158 69.4349C40.3926 69.5579 40.3765 69.713 40.3729 69.8485ZM40.7091 63.4762C40.8714 63.5244 41.0461 63.553 41.2137 63.5494C41.1709 63.66 41.1156 63.7901 41.0728 63.9006C40.9729 63.7544 40.841 63.6153 40.7091 63.4762ZM50.7165 54.8553C50.4526 54.8803 50.1762 54.9248 49.8874 54.9889C50.0479 54.6502 50.1692 54.2865 50.2263 53.937C50.3618 54.2437 50.5168 54.5629 50.7165 54.8553ZM58.3675 53.1395C58.412 53.4159 58.4565 53.6923 58.5528 53.974C58.3281 54.0239 58.1355 54.0666 57.9109 54.1165C58.0981 53.8224 58.239 53.4711 58.3675 53.1395ZM66.3636 56.1629C65.6877 57.1381 65.4219 58.2916 65.6838 59.3953C65.1525 59.5807 64.6496 59.8944 64.1681 60.3044C64.0291 60.4363 63.89 60.5682 63.7705 60.7126C63.4496 60.1777 63.0735 59.7729 62.7187 59.4644C62.8954 58.6674 62.8206 57.8758 62.5337 57.1144C63.9119 57.3304 65.324 57.0168 66.3636 56.1629ZM72.3232 61.9959C72.0735 62.3881 71.9023 62.8303 71.7828 63.2778C71.7507 62.9818 71.6866 62.693 71.5903 62.4112C71.8649 62.2829 72.1074 62.1617 72.3232 61.9959ZM74.6435 68.957C73.6433 69.2296 72.6875 69.7786 71.9742 70.5096C71.8389 69.2935 71.1704 68.1791 69.6693 67.6368L69.7156 67.6939C69.6764 67.6689 69.6176 67.6315 69.5783 67.6065C70.6214 67.2233 71.3187 66.3444 71.6505 65.2604C71.7253 65.749 71.8322 66.2304 72.08 66.6637C72.8108 67.9832 73.7093 68.693 74.6435 68.957ZM47.871 88.6761C47.8889 88.3017 47.88 87.8827 47.8462 87.5029C48.2562 87.9843 48.8071 88.4177 49.5487 88.7245C50.3225 89.0241 51.0018 89.1259 51.633 89.0867C51.4921 89.438 51.4029 89.7945 51.3458 90.144C50.5043 89.3879 49.4221 88.8368 48.3667 88.3303L49.7019 89.5661C49.0691 88.9152 48.438 88.6512 47.871 88.6761ZM43.2219 82.9057L43.9119 82.904C43.648 82.9289 43.3841 82.9538 43.1398 82.9912C43.3895 82.599 43.5732 82.1373 43.6714 81.5935C43.7178 81.3474 43.7196 81.1281 43.7214 80.9088C45.1048 82.2855 46.5632 82.3321 47.749 81.6815C47.239 82.5693 46.9375 83.5624 46.907 84.5626C46.0621 83.0327 44.7268 82.1 43.2219 82.9057ZM40.1046 75.7679L41.825 76.6151C41.2118 75.9767 40.3596 75.6271 39.4806 75.5361C39.7213 75.3311 39.9549 75.094 40.1546 74.7802C40.7539 73.8389 40.968 72.9831 40.9699 72.1576C41.0768 72.3359 41.2159 72.5071 41.3549 72.6783C42.2124 73.5824 43.0289 74.0746 43.7617 74.2655C43.0448 75.1319 42.6256 76.3532 42.5612 77.5798C41.9587 76.838 41.1012 76.237 40.1046 75.7679ZM38.6411 62.0495L38.8425 62.1227C38.8622 62.1352 38.8693 62.1673 38.8889 62.1797C38.798 62.1494 38.7195 62.0995 38.6411 62.0495Z" fill="#13357B"/>
<path id="Vector_7" d="M56.255 56.1494C55.859 56.9446 56.5079 58.0466 57.6613 58.6155C58.8345 59.1969 60.0879 59.0028 60.4839 58.2076C60.8798 57.4125 60.231 56.3105 59.0775 55.7416C57.9044 55.1601 56.6313 55.3418 56.255 56.1494Z" fill="#E0E0E0"/>
<path id="Vector_8" d="M48.2335 57.4094C48.2727 58.0406 49.0696 58.5203 50.0163 58.4617C50.9631 58.403 51.6996 57.8521 51.6729 57.2013C51.6338 56.5702 50.8369 56.0904 49.8901 56.1491C48.9433 56.2078 48.2069 56.7586 48.2335 57.4094Z" fill="#E0E0E0"/>
<path id="Vector_9" d="M44.1297 51.5176C44.0244 52.3324 44.7054 53.1242 45.6361 53.2206C46.5739 53.3491 47.4191 52.7573 47.5244 51.9425C47.6298 51.1277 46.9488 50.336 46.0181 50.2395C45.0678 50.1306 44.2154 50.6904 44.1297 51.5176Z" fill="#E0E0E0"/>
<path id="Vector_10" d="M61.7661 49.8754C61.6447 50.5422 62.4398 51.2412 63.547 51.45C64.6542 51.6588 65.6456 51.2703 65.7669 50.6034C65.8883 49.9366 65.0932 49.2376 63.986 49.0288C62.8984 48.8325 61.8874 49.2086 61.7661 49.8754Z" fill="#E0E0E0"/>
<path id="Vector_11" d="M69.3805 55.2735C68.8384 55.8654 69.0878 56.9887 69.956 57.7894C70.8242 58.5901 71.9564 58.7596 72.4985 58.1678C73.0406 57.5759 72.7911 56.4526 71.923 55.6519C71.0548 54.8512 69.9226 54.6816 69.3805 55.2735Z" fill="#E0E0E0"/>
<path id="Vector_12" d="M74.7296 62.4534C74.2713 63.0435 74.7009 64.1437 75.6707 64.8713C76.6601 65.6114 77.7976 65.7292 78.2684 65.1195C78.7267 64.5294 78.2972 63.4292 77.3274 62.7016C76.3576 61.974 75.2004 61.8437 74.7296 62.4534Z" fill="#E0E0E0"/>
<path id="Vector_13" d="M52.9204 50.2232C52.84 50.9988 53.5781 51.7442 54.6122 51.8513C55.6338 51.9781 56.5379 51.4237 56.6182 50.6481C56.6986 49.8726 55.9605 49.1272 54.9264 49.02C53.9048 48.8933 53.0132 49.428 52.9204 50.2232Z" fill="#E0E0E0"/>
<path id="Vector_14" d="M60.773 61.7804C60.5447 62.2689 60.8228 62.9144 61.461 63.2105C62.0672 63.5137 62.7733 63.3569 63.0016 62.8684C63.2298 62.3799 62.9518 61.7344 62.3135 61.4383C61.6949 61.1547 61.0209 61.3044 60.773 61.7804Z" fill="#E0E0E0"/>
<path id="Vector_15" d="M66.1089 62.3647C65.647 63.0903 66.1354 64.2279 67.2139 64.9145C68.2925 65.6011 69.5299 65.5621 69.9918 64.8365C70.4537 64.1109 69.9654 62.9733 68.8868 62.2867C67.8278 61.6125 66.5708 61.6391 66.1089 62.3647Z" fill="#E0E0E0"/>
<path id="Vector_16" d="M75.0957 71.1455C74.5661 71.7178 74.8084 72.809 75.6302 73.5526C76.452 74.2962 77.5575 74.4212 78.0675 73.8365C78.5971 73.2642 78.3548 72.173 77.533 71.4294C76.7111 70.6858 75.6253 70.5733 75.0957 71.1455Z" fill="#E0E0E0"/>
<path id="Vector_17" d="M65.2995 69.9528C65.2638 70.7016 66.1034 71.3739 67.1946 71.4347C68.2858 71.4955 69.2094 70.9536 69.2577 70.1852C69.2935 69.4363 68.4538 68.764 67.3626 68.7032C66.2518 68.6299 65.3478 69.1843 65.2995 69.9528Z" fill="#E0E0E0"/>
<path id="Vector_18" d="M57.7149 66.5857C57.4117 67.1918 57.8092 67.996 58.5847 68.3795C59.3602 68.7629 60.2268 68.5705 60.53 67.9643C60.8332 67.3582 60.4357 66.554 59.6602 66.1705C58.8847 65.7871 58.0181 65.9795 57.7149 66.5857Z" fill="#E0E0E0"/>
<path id="Vector_19" d="M51.681 62.9932C51.6096 63.5816 52.1818 64.1112 52.9645 64.2236C53.7472 64.3361 54.4355 63.9475 54.5265 63.3716C54.598 62.7832 54.0257 62.2536 53.243 62.1412C52.4407 62.0162 51.7524 62.4048 51.681 62.9932Z" fill="#E0E0E0"/>
<path id="Vector_20" d="M40.2397 58.107C40.1682 58.6953 40.728 59.2446 41.5107 59.357C42.2934 59.4695 42.9942 59.0613 43.0656 58.4729C43.137 57.8846 42.5772 57.3353 41.7945 57.2229C41.0118 57.1104 40.3235 57.499 40.2397 58.107Z" fill="#E0E0E0"/>
<path id="Vector_21" d="M72.6274 79.5241C72.1423 80.0696 72.2581 80.97 72.9088 81.5496C73.5595 82.1292 74.4634 82.181 74.9485 81.6355C75.4335 81.09 75.3178 80.1896 74.6671 79.61C74.0289 79.0108 73.1124 78.9786 72.6274 79.5241Z" fill="#E0E0E0"/>
<path id="Vector_22" d="M68.7427 85.7581C68.427 86.3838 68.746 87.1381 69.4306 87.4912C70.1081 87.8122 70.9158 87.5824 71.1994 86.9637C71.5151 86.338 71.196 85.5837 70.5114 85.2306C69.8464 84.8899 69.0583 85.1323 68.7427 85.7581Z" fill="#E0E0E0"/>
<path id="Vector_23" d="M63.9088 87.5043C63.3863 87.8055 63.2863 88.5686 63.6607 89.1927C64.035 89.8168 64.7695 90.0915 65.2599 89.7974C65.7823 89.4962 65.8823 88.7331 65.508 88.109C65.1461 87.4653 64.4116 87.1906 63.9088 87.5043Z" fill="#E0E0E0"/>
<path id="Vector_24" d="M55.8946 88.7961C55.3685 89.2329 55.3934 90.103 55.9103 90.7628C56.4469 91.435 57.2956 91.617 57.8216 91.1803C58.3476 90.7435 58.3228 89.8734 57.8059 89.2137C57.2693 88.5414 56.4206 88.3594 55.8946 88.7961Z" fill="#E0E0E0"/>
<path id="Vector_25" d="M51.6174 82.2691C51.0468 82.7326 51.0663 83.6544 51.6421 84.3516C52.2179 85.0488 53.1379 85.2487 53.6889 84.7727C54.2595 84.3092 54.24 83.3874 53.6642 82.6902C53.0884 81.993 52.156 81.8127 51.6174 82.2691Z" fill="#E0E0E0"/>
<path id="Vector_26" d="M60.0127 80.119C59.7095 80.7251 59.9965 81.4865 60.6347 81.7826C61.2926 82.0911 62.0486 81.8559 62.3322 81.2372C62.6354 80.6311 62.3484 79.8697 61.7102 79.5736C61.0719 79.2776 60.3159 79.5128 60.0127 80.119Z" fill="#E0E0E0"/>
<path id="Vector_27" d="M59.1779 73.2489C58.9122 73.7963 59.2045 74.5059 59.8303 74.8216C60.456 75.1373 61.1996 74.9217 61.4653 74.3743C61.7311 73.827 61.4388 73.1173 60.813 72.8017C60.1747 72.5056 59.4437 72.7016 59.1779 73.2489Z" fill="#E0E0E0"/>
<path id="Vector_28" d="M65.0776 75.6267C64.7869 76.2132 65.138 76.9603 65.8422 77.3259C66.5589 77.672 67.3738 77.4742 67.6645 76.8876C67.9552 76.3011 67.6041 75.5539 66.8999 75.1883C66.1832 74.8423 65.3683 75.0401 65.0776 75.6267Z" fill="#E0E0E0"/>
<path id="Vector_29" d="M51.7819 74.9068C51.5161 75.4542 51.853 76.1371 52.4984 76.4653C53.1562 76.7738 53.8944 76.6099 54.1602 76.0626C54.4259 75.5152 54.089 74.8323 53.4437 74.5041C52.7858 74.1956 52.0547 74.3916 51.7819 74.9068Z" fill="#E0E0E0"/>
<path id="Vector_30" d="M49.7782 69.746C49.7531 70.3914 50.3574 70.9139 51.1063 70.9497C51.8676 70.9658 52.5024 70.4881 52.5275 69.8427C52.5525 69.1972 51.9482 68.6747 51.1994 68.639C50.4184 68.6103 49.7907 69.1201 49.7782 69.746Z" fill="#E0E0E0"/>
<path id="Vector_31" d="M42.8356 68.9629C42.52 69.5887 42.7944 70.3697 43.4523 70.6782C44.1101 70.9868 44.8787 70.7319 45.1943 70.1061C45.51 69.4804 45.2356 68.6994 44.5777 68.3908C43.9198 68.0823 43.1513 68.3371 42.8356 68.9629Z" fill="#E0E0E0"/>
<path id="Vector_32" d="M43.7362 62.1792C43.5204 62.6481 43.7646 63.2169 44.3119 63.4826C44.8397 63.7359 45.4619 63.5809 45.6778 63.112C45.8936 62.6431 45.6494 62.0743 45.1021 61.8086C44.5743 61.5553 43.9717 61.7228 43.7362 62.1792Z" fill="#E0E0E0"/>
<path id="Vector_33" d="M36.5924 63.7491C36.3141 64.3161 36.5155 64.9954 37.0628 65.2612C37.6102 65.5269 38.2628 65.281 38.541 64.714C38.8192 64.1471 38.6179 63.4677 38.0705 63.202C37.5232 62.9362 36.851 63.1697 36.5924 63.7491Z" fill="#E0E0E0"/>
<path id="Vector_34" d="M35.0844 69.9267C34.9542 70.4776 35.366 71.0428 35.9811 71.1588C36.5837 71.2944 37.1828 70.9593 37.3131 70.4084C37.4433 69.8575 37.0315 69.2922 36.4164 69.1762C35.8138 69.0406 35.2147 69.3758 35.0844 69.9267Z" fill="#E0E0E0"/>
<path id="Vector_35" d="M44.2746 75.06C44.0088 75.6073 44.3849 76.3152 45.1212 76.6737C45.8575 77.0322 46.6474 76.8736 46.9132 76.3263C47.1789 75.7789 46.8028 75.071 46.0665 74.7126C45.3302 74.3541 44.5403 74.5126 44.2746 75.06Z" fill="#E0E0E0"/>
<path id="Vector_36" d="M39.3968 77.4394C39.1508 76.7868 38.37 76.455 37.6407 76.7349C36.9239 76.9951 36.5333 77.7385 36.7668 78.4107C37.0127 79.0633 37.7936 79.3951 38.5229 79.1153C39.2397 78.8551 39.6303 78.1116 39.3968 77.4394Z" fill="#E0E0E0"/>
<path id="Vector_37" d="M41.0295 85.4792C41.0615 86.0782 41.7229 86.5544 42.5217 86.5117C43.3204 86.4691 43.9481 85.9592 43.9286 85.3405C43.8966 84.7415 43.2352 84.2653 42.4364 84.308C41.6376 84.3506 40.9975 84.8801 41.0295 85.4792Z" fill="#E0E0E0"/>
<path id="Vector_38" d="M49.3281 91.753C48.8342 92.1826 48.9178 93.0901 49.5132 93.7998C50.1086 94.5096 50.9965 94.7165 51.5101 94.2994C52.004 93.8698 51.9204 92.9622 51.325 92.2525C50.6975 91.5499 49.8221 91.3233 49.3281 91.753Z" fill="#E0E0E0"/>
</g>
</svg>
