<svg  viewBox="0 0 122 122" fill="none" xmlns="http://www.w3.org/2000/svg">
<g id="Grapefruit">
<path id="path78" d="M90.9561 53.967C91.4982 64.753 83.1935 73.9361 72.4075 74.4782C61.6215 75.0203 52.4383 66.7156 51.8963 55.9296C51.3545 45.1436 59.659 35.9605 70.4449 35.4185C81.2309 34.8764 90.414 43.181 90.9561 53.967Z" fill="#F89E11"/>
<path id="path80" d="M99.6223 77.2694C97.25 73.7702 89.4904 65.948 77.2052 65.7895L71.8757 76.1724C78.9915 76.6745 88.4185 77.8913 96.5682 80.7828C100.465 82.1652 103.429 82.9963 105.687 83.47C105.201 83.1046 101.821 80.5109 99.6223 77.2694Z" fill="#78B12B"/>
<path id="path82" d="M71.8765 76.1721L66.7136 86.231C66.7136 86.231 75.7004 89.8437 89.1258 86.9719C102.551 84.1008 105.753 83.5182 105.753 83.5182C105.753 83.5182 105.727 83.4991 105.688 83.4697C103.43 82.996 100.466 82.1649 96.569 80.7825C88.4193 77.891 78.9923 76.6742 71.8765 76.1721Z" fill="#89C526"/>
<path id="path84" d="M80.4352 76.7583L83.5494 68.5718L81.6574 77.2337L80.4352 76.7583Z" fill="#709B2C"/>
<path id="path86" d="M86.4531 78.0662L89.9526 72.5346L87.92 78.3711L86.4531 78.0662Z" fill="#709B2C"/>
<path id="path88" d="M93.9619 79.9284L96.609 76.4822L95.0246 80.2599L93.9619 79.9284Z" fill="#709B2C"/>
<path id="path90" d="M79.8353 76.9764L83.0663 84.6585L81.6582 77.2345L79.8353 76.9764Z" fill="#78B12B"/>
<path id="path92" d="M86.4532 78.0668L89.0096 84.3093L87.92 78.3717L86.4532 78.0668Z" fill="#78B12B"/>
<path id="path94" d="M93.9623 79.9302L95.5286 83.0336L95.025 80.2617L93.9623 79.9302Z" fill="#78B12B"/>
<path id="path96" d="M17.1641 75.0387C17.1641 75.0387 27.7916 88.9728 42.3887 77.7908C56.7109 66.8192 48.8152 49.0419 40.5924 45.0182L17.1641 75.0387Z" fill="#F89E11"/>
<path id="path98" d="M32.4641 62.743C26.2048 70.7109 19.569 75.9435 17.6429 74.4305C15.7169 72.9176 19.2298 65.2317 25.4894 57.2638C31.749 49.2959 38.3845 44.0634 40.3106 45.5763C42.2366 47.0893 38.7236 54.7752 32.4641 62.743Z" fill="#FFF574"/>
<path id="path100" d="M39.3819 46.0916C38.6987 46.1258 37.3133 46.6508 35.0031 48.4721C32.2506 50.6431 29.0876 53.935 26.0968 57.7414C18.9696 66.8143 17.1154 73.0324 18.1197 73.8213C19.1235 74.6096 24.7266 71.3359 31.8538 62.2643C38.9809 53.192 40.8355 46.9739 39.8309 46.1844C39.7496 46.1207 39.6021 46.0806 39.3819 46.0916ZM18.6182 75.4541C18.0549 75.4822 17.5635 75.3538 17.163 75.0392C14.1579 72.6781 20.131 62.8292 24.8788 56.785C27.9432 52.8844 31.1981 49.5006 34.0441 47.2556C37.2419 44.7339 39.5111 43.963 40.7876 44.9665C43.7932 47.3276 37.82 57.1772 33.0718 63.2213C28.9563 68.4599 22.2813 75.2696 18.6182 75.4541Z" fill="#FCF881"/>
<path id="path102" d="M79.8745 65.6556C80.4577 77.2607 71.5229 87.1409 59.9179 87.7242C48.3131 88.3069 38.433 79.3721 37.8499 67.7676C37.2669 56.1626 46.2017 46.2824 57.8065 45.6997C69.4115 45.1164 79.2918 54.0512 79.8745 65.6556Z" fill="#FBC034"/>
<path id="path104" d="M77.9796 65.7513C78.5097 76.3084 70.3819 85.2965 59.825 85.8266C49.2682 86.3573 40.2801 78.2288 39.7495 67.6723C39.2192 57.1151 47.3473 48.1271 57.9041 47.597C68.4609 47.0663 77.4489 55.1947 77.9796 65.7513Z" fill="#FCF881"/>
<path id="path106" d="M58.8633 66.7114L58.8637 66.7114L58.8633 66.7114Z" stroke="#73589A" stroke-width="1.33333" stroke-miterlimit="10"/>
<path id="path108" d="M58.8633 66.7114L58.8637 66.7114L58.8633 66.7114Z" stroke="#73589A" stroke-width="1.33333" stroke-miterlimit="10"/>
<path id="path110" d="M71.3574 76.8778L62.3315 68.7152C61.7565 68.1953 62.097 67.2407 62.8711 67.2014L75.0263 66.5909C75.5308 66.5657 75.965 66.9747 75.941 67.4798C75.7792 70.8352 74.6439 74.0319 72.6527 76.7367C72.3432 77.1563 71.7439 77.2271 71.3574 76.8778ZM60.4513 82.7074L59.8408 70.5528C59.8017 69.7788 60.7181 69.344 61.2924 69.8638L70.3184 78.0265C70.7049 78.3758 70.695 78.9798 70.3084 79.329C67.8164 81.5811 64.7492 83.032 61.4275 83.5289C60.9278 83.6035 60.4765 83.2125 60.4513 82.7074ZM48.7589 80.4119C48.3393 80.103 48.2683 79.503 48.6179 79.1166L50.9999 76.4828L56.78 70.0906C57.2997 69.5163 58.255 69.8567 58.2938 70.6302L58.9044 82.7854C58.9298 83.2899 58.5204 83.7248 58.0155 83.7001C54.6604 83.5389 51.4634 82.403 48.7589 80.4119ZM46.1665 78.0675C43.9143 75.5761 42.4638 72.5089 41.9667 69.1866C41.8922 68.687 42.2832 68.2362 42.7879 68.2104L54.9428 67.5999C55.7166 67.5612 56.151 68.4772 55.6315 69.0516L49.8512 75.4437L47.4692 78.0781C47.1197 78.4646 46.5161 78.4541 46.1665 78.0675ZM46.3788 56.3773L55.4048 64.5393C55.9792 65.0591 55.6388 66.0144 54.865 66.0531L42.7101 66.6635C42.2054 66.6888 41.771 66.2797 41.7955 65.7746C41.9568 62.4193 43.0927 59.2226 45.0838 56.5184C45.393 56.0988 45.9925 56.028 46.3788 56.3773ZM57.2847 50.5471L57.8953 62.7023C57.9342 63.4757 57.0181 63.9105 56.4433 63.3907L47.4176 55.2286C47.0313 54.8787 47.0414 54.2753 47.4282 53.9255C49.9192 51.6739 52.9865 50.2231 56.3086 49.7262C56.8084 49.6516 57.2594 50.0426 57.2847 50.5471ZM68.9776 52.8432C69.3971 53.1521 69.468 53.7514 69.1187 54.1385L66.7363 56.7723L60.956 63.1639C60.4363 63.7388 59.4811 63.3983 59.4423 62.6243L58.8317 50.4697C58.8064 49.9652 59.2157 49.5303 59.7204 49.555C63.0754 49.7161 66.2728 50.852 68.9776 52.8432ZM71.5698 55.1875C73.822 57.679 75.2728 60.7455 75.7697 64.0679C75.8444 64.5675 75.4534 65.0188 74.9483 65.0441L62.7937 65.6546C62.0196 65.6938 61.5848 64.7772 62.1047 64.2029L67.885 57.8113L70.2673 55.1769C70.6166 54.7904 71.22 54.801 71.5698 55.1875Z" fill="#D02C24"/>
<path id="path112" d="M71.0996 77.0811L62.0736 68.919C61.4993 68.3992 61.8398 67.444 62.6132 67.4053L74.7684 66.7948C75.2735 66.769 75.7077 67.1786 75.6837 67.6831C75.5219 71.0385 74.386 74.2358 72.3949 76.9406C72.086 77.3602 71.4867 77.431 71.0996 77.0811ZM60.194 82.9113L59.583 70.7561C59.5441 69.9826 60.4602 69.5479 61.0352 70.0677L70.0611 78.2297C70.4476 78.5797 70.4371 79.183 70.0505 79.5329C67.5591 81.785 64.4919 83.2352 61.1696 83.7328C60.67 83.8074 60.2192 83.4158 60.194 82.9113ZM48.5014 80.6151C48.0815 80.3062 48.011 79.7069 48.3604 79.3204L50.7424 76.686L56.5224 70.2945C57.0423 69.7195 57.9971 70.06 58.036 70.8341L58.6469 82.9893C58.6722 83.4938 58.2626 83.928 57.7579 83.904C54.4026 83.7422 51.2059 82.6063 48.5014 80.6151ZM45.909 78.2714C43.6567 75.78 42.2062 72.7128 41.7091 69.3905C41.6344 68.8902 42.0256 68.4395 42.5304 68.4143L54.6852 67.8038C55.4591 67.7645 55.8935 68.6805 55.3739 69.2554L49.5938 75.6476L47.2116 78.2814C46.8622 78.6679 46.2585 78.658 45.909 78.2714ZM46.1215 56.5812L55.1472 64.7432C55.7218 65.2624 55.3813 66.2177 54.6075 66.257L42.4526 66.8674C41.9481 66.8927 41.5135 66.483 41.5377 65.9785C41.6993 62.6232 42.8352 59.4265 44.8263 56.7216C45.1352 56.3021 45.7349 56.2312 46.1215 56.5812ZM57.0271 50.751L57.6378 62.9056C57.6766 63.6796 56.7605 64.1138 56.1858 63.5945L47.1601 55.4319C46.7737 55.0826 46.7839 54.4792 47.1704 54.1294C49.6617 51.8772 52.7289 50.427 56.0511 49.9295C56.5508 49.8548 57.0018 50.2464 57.0271 50.751ZM68.7197 53.0471C69.1399 53.356 69.2101 53.9553 68.8608 54.3418L66.4785 56.9762L60.6982 63.3678C60.1788 63.9421 59.2236 63.6016 59.1848 62.8282L58.5741 50.673C58.5488 50.1684 58.9582 49.7342 59.4628 49.7583C62.8182 49.92 66.0155 51.056 68.7197 53.0471ZM71.312 55.3908C73.5648 57.8823 75.015 60.9494 75.5119 64.2718C75.5865 64.7714 75.1955 65.2221 74.691 65.2474L62.5358 65.8584C61.7618 65.8971 61.3276 64.9811 61.8474 64.4062L67.6277 58.0146L70.0095 55.3808C70.3594 54.9937 70.9628 55.0043 71.312 55.3908Z" fill="#EC3A2E"/>
<path id="path114" d="M82.4224 47.2588C81.4658 47.307 81.5392 48.7934 82.497 48.7452C83.4537 48.6971 83.3809 47.2107 82.4224 47.2588Z" fill="#F18314"/>
<path id="path116" d="M85.0115 47.7079C84.0549 47.7555 84.1277 49.2424 85.0861 49.1943C86.0427 49.1461 85.9694 47.6598 85.0115 47.7079Z" fill="#F18314"/>
<path id="path118" d="M83.4459 49.4409C82.4893 49.4891 82.5626 50.9761 83.5205 50.9279C84.4771 50.8798 84.4037 49.3928 83.4459 49.4409Z" fill="#F18314"/>
<path id="path120" d="M31.5563 76.2063C31.3543 75.2704 29.8991 75.583 30.1014 76.5208C30.3036 77.4567 31.7589 77.1441 31.5563 76.2063Z" fill="#F18314"/>
<path id="path122" d="M31.528 78.8331C31.3258 77.8972 29.8708 78.2097 30.0731 79.1475C30.2751 80.0834 31.7304 79.7709 31.528 78.8331Z" fill="#F18314"/>
<path id="path124" d="M29.5661 77.5666C29.3639 76.6307 27.9086 76.9433 28.1113 77.8811C28.3132 78.817 29.7685 78.5044 29.5661 77.5666Z" fill="#F18314"/>
<path id="path126" d="M37.7059 54.2918C37.6834 54.3325 37.6488 54.3679 37.6078 54.3897L33.8935 56.3955L30.4555 58.252L30.4557 58.2514L30.4555 58.2514L39.4253 46.5777C39.5587 46.6021 39.662 46.6441 39.7389 46.704C40.4288 47.2465 40.3031 49.5587 37.7059 54.2918ZM32.4125 61.8224L29.7128 59.8708C29.5706 59.7674 29.5848 59.5515 29.7393 59.468L36.2131 55.9721C36.4268 55.8568 36.6615 56.0969 36.5342 56.3037C35.4432 58.0786 34.158 59.9349 32.7436 61.7736C32.665 61.8763 32.5174 61.8984 32.4125 61.8224ZM29.5819 65.5978C29.4345 65.7634 29.1587 65.6516 29.1638 65.43L29.2272 62.6887L29.2682 60.9102C29.2726 60.7182 29.4903 60.6104 29.6457 60.7228L31.9488 62.3877C32.0596 62.4681 32.0813 62.6258 31.9963 62.732C31.2134 63.7147 30.4053 64.6734 29.5819 65.5978ZM28.2137 58.7864L26.6214 57.6356C26.5107 57.5552 26.4882 57.3982 26.5735 57.2907C27.1152 56.611 27.6729 55.9379 28.2415 55.2774C28.3876 55.1074 28.6692 55.2175 28.6642 55.4416L28.5912 58.599C28.5868 58.7911 28.3688 58.8988 28.2137 58.7864ZM28.4162 66.1845L28.3998 66.8894C23.9155 71.6547 20.5349 73.7123 19.1859 73.4726C19.0151 73.4423 18.9479 73.2293 19.0537 73.0916L28.0985 61.3194C28.2386 61.137 28.5304 61.24 28.525 61.4702L28.4162 66.1845ZM22.1821 63.5485L26.8116 61.0487C27.0378 60.9264 27.27 61.1996 27.1137 61.4032L18.9319 72.0518C18.7858 72.2421 18.4812 72.1258 18.503 71.8868C18.6494 70.2872 19.7162 67.4835 22.0903 63.6354C22.1127 63.5997 22.145 63.5685 22.1821 63.5485ZM25.9687 58.0642L26.3552 58.3433L27.7282 59.3364C27.8702 59.4392 27.8562 59.6556 27.7018 59.7385L23.7774 61.8579C23.5588 61.9761 23.324 61.7218 23.4633 61.5166C24.241 60.3687 25.0788 59.2136 25.9687 58.0642ZM29.4902 53.8655C32.5974 50.4539 35.5985 47.9425 37.6315 46.9814C37.8539 46.8768 38.0646 47.1508 37.9148 47.3459L29.7663 57.9503C29.6262 58.1328 29.3344 58.0298 29.3398 57.7996L29.427 54.0235C29.4282 53.9656 29.4514 53.9089 29.4902 53.8655Z" fill="#D02C24"/>
<path id="path128" d="M37.5144 54.4714C37.4923 54.5121 37.4574 54.5475 37.4164 54.5693L33.7024 56.5751L30.2641 58.4316L30.2643 58.431L39.2341 46.7573C39.3673 46.7817 39.4706 46.8238 39.5478 46.8836C40.2377 47.4261 40.1117 49.7383 37.5144 54.4714ZM32.2214 62.002L29.5214 60.0504C29.3792 59.947 29.3934 59.7311 29.5479 59.6476L36.0219 56.1517C36.2354 56.0364 36.4701 56.2765 36.3431 56.4833C35.2521 58.2583 33.9665 60.1145 32.5525 61.9533C32.4738 62.056 32.326 62.078 32.2214 62.002ZM29.3907 65.7774C29.243 65.943 28.9675 65.8313 28.9724 65.6096L29.036 62.8683L29.0771 61.0899C29.0815 60.8978 29.2991 60.79 29.4546 60.9024L31.7576 62.5673C31.8682 62.6478 31.8899 62.8054 31.8049 62.9116C31.0222 63.8944 30.2142 64.853 29.3907 65.7774ZM28.0223 58.9661L26.43 57.8153C26.3193 57.7348 26.297 57.5778 26.3823 57.4703C26.9241 56.7906 27.4815 56.1175 28.0501 55.457C28.1962 55.287 28.4781 55.3971 28.4728 55.6212L28.3998 58.7786C28.3954 58.9707 28.1777 59.0784 28.0223 58.9661ZM28.225 66.3641L28.2086 67.069C23.7244 71.8344 20.3437 73.8919 18.9947 73.6522C18.8237 73.6219 18.7565 73.4089 18.8623 73.2712L27.9071 61.499C28.0474 61.3166 28.3393 61.4196 28.3339 61.6498L28.225 66.3641ZM21.9909 63.7281L26.6205 61.2283C26.8464 61.106 27.0788 61.3793 26.9222 61.5828L18.7405 72.2314C18.5943 72.4217 18.2898 72.3055 18.3116 72.0664C18.4582 70.4668 19.5248 67.6631 21.8992 63.8151C21.9213 63.7793 21.9536 63.7481 21.9909 63.7281ZM25.7776 58.2439L26.1638 58.523L27.5368 59.516C27.679 59.6188 27.6648 59.8353 27.5104 59.9182L23.586 62.0375C23.3674 62.1557 23.1326 61.9014 23.2719 61.6956C24.0498 60.5483 24.8877 59.3932 25.7776 58.2439ZM29.2991 54.0451C32.406 50.6335 35.4073 48.1221 37.4403 47.161C37.6625 47.0564 37.8734 47.3304 37.7236 47.5255L29.5752 58.13C29.4351 58.3124 29.1432 58.2094 29.1484 57.9792L29.2356 54.2031C29.2368 54.1452 29.2599 54.0885 29.2991 54.0451Z" fill="#EC3A2E"/>
</g>
</svg>
