<svg  viewBox="0 0 122 122" fill="none" xmlns="http://www.w3.org/2000/svg">
<g id="Grape">
<path id="Vector" d="M59.7766 31.1258C64.6726 26.5471 71.0872 24.0538 76.6859 20.3591C77.6379 19.7244 78.9299 19.9511 79.6326 20.8804C79.6326 20.9031 79.6552 20.9031 79.6552 20.9258C80.5846 22.1498 79.9726 23.9178 78.4992 24.3258C72.8779 25.9124 67.2792 27.7938 62.7006 31.3978C57.3059 35.6364 53.6566 42.8898 55.6966 49.4631C56.3766 51.6618 57.6686 53.6791 57.9859 55.9458C58.4166 59.0058 56.3312 62.2924 53.5659 59.6178C51.5939 57.7138 51.6619 52.0924 51.7299 49.5764C51.9339 42.7084 54.7446 35.8404 59.7766 31.1258Z" fill="#AC7F63"/>
<path id="Vector_2" d="M58.008 55.923C57.6906 53.6564 56.3986 51.639 55.7186 49.4404C53.656 42.8897 57.3053 35.6137 62.7226 31.375C67.3013 27.7937 72.8773 25.8897 78.5213 24.303C79.8133 23.9404 80.4253 22.5577 79.972 21.4017C79.9266 21.4244 79.8813 21.4697 79.8586 21.4924C78.7253 22.331 77.388 22.807 76.0733 23.2604C75.4613 23.4644 74.8493 23.6684 74.2373 23.895C73.4213 24.2124 72.628 24.5297 71.7893 24.779C71.5853 24.847 71.3813 24.915 71.1546 24.9604C70.9506 25.1417 70.7693 25.3004 70.5653 25.4817C69.8173 26.1164 69.0013 26.7057 68.1626 27.227C67.324 27.771 66.44 28.2924 65.5333 28.723C64.9666 29.0177 64.3773 29.267 63.7653 29.471C63.2893 29.811 62.768 30.151 62.292 30.491C61.612 30.967 61.0453 31.5564 60.524 32.191C59.4133 33.551 58.484 35.0697 57.5546 36.543C56.716 37.8804 55.7413 39.1497 54.9933 40.5324C54.6533 41.1444 54.3133 41.8017 54.1546 42.5044C54.0866 42.799 54.0413 43.0937 54.0186 43.3884C53.8146 45.2924 53.7693 47.219 53.3613 49.0777C53.18 49.9164 52.7266 51.5484 51.752 51.775C51.7973 54.5177 52.1146 58.1444 53.6106 59.595C56.3533 62.2697 58.4386 58.983 58.008 55.923Z" fill="#9B745A"/>
<path id="Vector_3" d="M65.0357 27.2046C65.149 27.114 65.285 27.0233 65.421 26.9326C65.1943 27.0686 64.9903 27.2046 64.7637 27.3406C64.809 27.3406 64.8317 27.3633 64.877 27.3633C64.8997 27.2953 64.9677 27.25 65.0357 27.2046Z" fill="#9B745A"/>
<path id="Vector_4" d="M49.8854 74.5843C53.5715 72.9845 55.2628 68.6995 53.6631 65.0134C52.0634 61.3273 47.7783 59.636 44.0922 61.2357C40.4061 62.8354 38.7148 67.1205 40.3145 70.8066C41.9143 74.4927 46.1993 76.184 49.8854 74.5843Z" fill="#651F55"/>
<path id="Vector_5" d="M53.7242 65.1255C53.5202 66.0549 53.2708 66.9615 52.8175 67.8002C51.7975 69.7269 49.8482 71.0642 47.7628 71.5628C45.5642 72.0615 43.1842 71.7895 41.0988 70.9509C40.8042 70.8375 40.5095 70.7015 40.2148 70.5428C40.5095 71.3135 40.9402 72.0388 41.5295 72.6962C44.1815 75.7335 48.7828 76.0282 51.7975 73.3988C54.2002 71.2908 54.8802 67.9362 53.7242 65.1255Z" fill="#47173A"/>
<path id="Vector_6" d="M50.0757 62.3374C50.0757 62.2014 50.053 62.0881 50.0077 61.9521C49.7357 61.6801 49.373 61.4534 48.9877 61.3854C48.693 61.3401 48.3757 61.3854 48.1717 61.5667C47.9904 61.7254 47.9224 61.9521 47.9677 62.2014C48.0357 62.5868 48.2624 62.9268 48.5117 63.2214C48.6024 63.3348 48.7157 63.4481 48.8517 63.5161C48.9424 63.5614 49.0557 63.6294 49.1464 63.6294C49.2597 63.6521 49.305 63.6521 49.4184 63.6068C49.441 63.6068 49.441 63.6068 49.4864 63.5841C49.509 63.5841 49.5317 63.5614 49.5544 63.5614C49.577 63.5388 49.5997 63.5387 49.5997 63.5387C49.6224 63.5161 49.645 63.5161 49.6677 63.4934C49.8264 63.3574 49.9397 63.1761 50.0077 62.9948C50.0304 62.8134 50.0757 62.5868 50.0757 62.3374Z" fill="#95207E"/>
<path id="Vector_7" d="M49.905 85.5719C50.1737 81.5623 47.1411 78.094 43.1316 77.8253C39.122 77.5566 35.6537 80.5892 35.385 84.5987C35.1163 88.6083 38.1488 92.0766 42.1584 92.3453C46.168 92.614 49.6363 89.5814 49.905 85.5719Z" fill="#651F55"/>
<path id="Vector_8" d="M49.3726 82.307C49.1686 83.2363 48.9193 84.143 48.4659 84.9817C47.4459 86.9083 45.5193 88.2457 43.4113 88.7443C41.2126 89.243 38.8326 88.971 36.7473 88.1323C36.4526 88.019 36.1579 87.883 35.8633 87.7243C36.1579 88.495 36.5886 89.2203 37.1779 89.8777C39.8299 92.915 44.4313 93.2097 47.4459 90.5803C49.8486 88.4497 50.5286 85.095 49.3726 82.307Z" fill="#47173A"/>
<path id="Vector_9" d="M45.7232 79.5194C45.7232 79.3834 45.7005 79.27 45.6552 79.134C45.3832 78.862 45.0205 78.6354 44.6352 78.5674C44.3405 78.522 44.0232 78.5674 43.8192 78.7487C43.6378 78.9074 43.5698 79.134 43.6152 79.3834C43.6832 79.7687 43.9098 80.1087 44.1592 80.4034C44.2498 80.5167 44.3632 80.63 44.4992 80.698C44.5898 80.7434 44.7032 80.8114 44.7938 80.8114C44.9072 80.834 44.9525 80.834 45.0658 80.7887C45.0885 80.7887 45.0885 80.7887 45.1338 80.766C45.1565 80.766 45.1792 80.7434 45.2018 80.7434C45.2245 80.7207 45.2472 80.7207 45.2472 80.7207C45.2698 80.698 45.2925 80.698 45.3152 80.6754C45.4738 80.5394 45.5872 80.358 45.6552 80.1767C45.7005 79.9727 45.7232 79.746 45.7232 79.5194Z" fill="#95207E"/>
<path id="Vector_10" d="M73.9984 68.5277C76.5151 65.395 76.0157 60.8151 72.883 58.2984C69.7502 55.7817 65.1704 56.2811 62.6536 59.4138C60.1369 62.5466 60.6363 67.1264 63.769 69.6431C66.9018 72.1599 71.4816 71.6605 73.9984 68.5277Z" fill="#651F55"/>
<path id="Vector_11" d="M75.0542 61.1814C74.8502 62.1107 74.6009 63.0173 74.1476 63.856C73.1276 65.7827 71.1782 67.12 69.0929 67.6187C66.8942 68.1173 64.5143 67.8453 62.4289 67.0067C62.1343 66.8933 61.8396 66.7573 61.5449 66.5987C61.8396 67.3693 62.2703 68.0947 62.8596 68.752C65.5116 71.7893 70.1129 72.084 73.1276 69.4547C75.5302 67.3467 76.2102 63.992 75.0542 61.1814Z" fill="#47173A"/>
<path id="Vector_12" d="M71.4038 58.3932C71.4038 58.2572 71.3812 58.1439 71.3358 58.0079C71.0638 57.7359 70.7012 57.5092 70.3158 57.4412C70.0212 57.3959 69.7038 57.4412 69.4998 57.6226C69.3185 57.7812 69.2505 58.0079 69.2958 58.2572C69.3638 58.6426 69.5905 58.9826 69.8398 59.2772C69.9305 59.3906 70.0438 59.5039 70.1798 59.5719C70.2705 59.6172 70.3838 59.6852 70.4745 59.6852C70.5878 59.7079 70.6332 59.7079 70.7465 59.6625C70.7692 59.6625 70.7692 59.6625 70.8145 59.6399C70.8372 59.6399 70.8598 59.6172 70.8825 59.6172C70.9052 59.5946 70.9278 59.5945 70.9278 59.5945C70.9505 59.5719 70.9732 59.5719 70.9958 59.5492C71.1545 59.4132 71.2678 59.2319 71.3358 59.0506C71.3585 58.8466 71.4038 58.6425 71.4038 58.3932Z" fill="#95207E"/>
<path id="Vector_13" d="M41.3476 76.0282C38.3102 78.6802 33.7316 78.3628 31.0796 75.3255C28.4276 72.2882 28.7449 67.7095 31.7822 65.0575C34.8196 62.4055 39.3982 62.7228 42.0502 65.7602C44.7022 68.7748 44.3849 73.3762 41.3476 76.0282Z" fill="#651F55"/>
<path id="Vector_14" d="M43.2974 67.7551C43.0934 68.6845 42.8441 69.5911 42.3908 70.4298C41.3708 72.3565 39.4441 73.6938 37.3361 74.1925C35.1374 74.6911 32.7574 74.4191 30.6721 73.5805C30.3774 73.4671 30.0828 73.3311 29.7881 73.1725C30.0828 73.9431 30.5134 74.6684 31.1028 75.3258C33.7548 78.3631 38.3561 78.6578 41.3708 76.0285C43.7734 73.9205 44.4534 70.5658 43.2974 67.7551Z" fill="#47173A"/>
<path id="Vector_15" d="M39.648 64.967C39.648 64.831 39.6253 64.7177 39.58 64.5817C39.308 64.3097 38.9453 64.083 38.56 64.015C38.2653 63.9697 37.948 64.015 37.744 64.1963C37.5626 64.355 37.4946 64.5817 37.54 64.831C37.608 65.2163 37.8346 65.5563 38.084 65.851C38.1746 65.9643 38.288 66.0777 38.424 66.1457C38.5146 66.191 38.628 66.259 38.7186 66.259C38.832 66.2817 38.8773 66.2817 38.9906 66.2363C39.0133 66.2363 39.0133 66.2363 39.0586 66.2137C39.0813 66.2137 39.104 66.191 39.1266 66.191C39.1493 66.1683 39.172 66.1683 39.172 66.1683C39.1946 66.1457 39.2173 66.1457 39.24 66.123C39.3986 65.987 39.512 65.8057 39.58 65.6243C39.6026 65.4203 39.648 65.2163 39.648 64.967Z" fill="#95207E"/>
<path id="Vector_16" d="M46.6816 85.4983C50.6739 85.0427 53.5409 81.4368 53.0852 77.4445C52.6296 73.4522 49.0237 70.5852 45.0314 71.0409C41.0391 71.4966 38.1721 75.1024 38.6278 79.0947C39.0835 83.087 42.6893 85.954 46.6816 85.4983Z" fill="#651F55"/>
<path id="Vector_17" d="M52.5914 75.4845C52.3874 76.4138 52.138 77.3204 51.6847 78.1591C50.6647 80.0858 48.738 81.4231 46.63 81.9218C44.4314 82.4204 42.0514 82.1484 39.966 81.3098C39.6714 81.1964 39.3767 81.0604 39.082 80.9018C39.3767 81.6724 39.8074 82.3978 40.3967 83.0551C43.0487 86.0924 47.65 86.3871 50.6647 83.7578C53.0674 81.6498 53.7474 78.2951 52.5914 75.4845Z" fill="#47173A"/>
<path id="Vector_18" d="M48.9419 72.6963C48.9419 72.5603 48.9193 72.447 48.8739 72.311C48.6019 72.039 48.2392 71.8123 47.8539 71.7443C47.5592 71.699 47.2419 71.7443 47.0379 71.9256C46.8566 72.0843 46.7886 72.311 46.8339 72.5603C46.9019 72.9457 47.1286 73.2857 47.3779 73.5803C47.4686 73.6937 47.5819 73.807 47.7179 73.875C47.8086 73.9203 47.9219 73.9883 48.0126 73.9883C48.1259 74.011 48.1713 74.011 48.2846 73.9657C48.3073 73.9657 48.3072 73.9657 48.3526 73.943C48.3752 73.943 48.3979 73.9203 48.4206 73.9203C48.4432 73.8977 48.4659 73.8977 48.4659 73.8977C48.4886 73.875 48.5112 73.875 48.5339 73.8523C48.6926 73.7163 48.8059 73.535 48.8739 73.3537C48.8966 73.1497 48.9419 72.9457 48.9419 72.6963Z" fill="#95207E"/>
<path id="Vector_19" d="M65.4388 61.7272C68.9951 59.8558 70.361 55.4558 68.4896 51.8995C66.6182 48.3432 62.2182 46.9773 58.6619 48.8487C55.1056 50.72 53.7397 55.12 55.6111 58.6764C57.4825 62.2327 61.8825 63.5986 65.4388 61.7272Z" fill="#651F55"/>
<path id="Vector_20" d="M68.776 52.4998C68.572 53.4292 68.3226 54.3358 67.8693 55.1745C66.8493 57.1012 64.9226 58.4385 62.8146 58.9372C60.6159 59.4359 58.2359 59.1638 56.1506 58.3252C55.8559 58.2118 55.5613 58.0759 55.2666 57.9172C55.5613 58.6879 55.9919 59.4132 56.5813 60.0705C59.2333 63.1079 63.8346 63.4025 66.8493 60.7732C69.252 58.6425 69.932 55.3105 68.776 52.4998Z" fill="#47173A"/>
<path id="Vector_21" d="M65.1255 49.7119C65.1255 49.5759 65.1028 49.4626 65.0575 49.3266C64.7855 49.0546 64.4228 48.8279 64.0375 48.7599C63.7428 48.7146 63.4255 48.7599 63.2215 48.9412C63.0402 49.0999 62.9722 49.3266 63.0175 49.5759C63.0855 49.9612 63.3122 50.3012 63.5615 50.5959C63.6522 50.7092 63.7655 50.8226 63.9015 50.8906C63.9922 50.9359 64.1055 51.0039 64.1962 51.0039C64.3095 51.0266 64.3548 51.0266 64.4682 50.9812C64.4908 50.9812 64.4908 50.9812 64.5362 50.9586C64.5588 50.9586 64.5815 50.9359 64.6042 50.9359C64.6268 50.9132 64.6495 50.9132 64.6495 50.9132C64.6722 50.8906 64.6948 50.8906 64.7175 50.8679C64.8762 50.7319 64.9895 50.5506 65.0575 50.3692C65.0802 50.1652 65.1255 49.9612 65.1255 49.7119Z" fill="#95207E"/>
<path id="Vector_22" d="M52.6366 48.443C49.5993 51.095 45.0206 50.7776 42.3686 47.7403C39.7166 44.703 40.034 40.1243 43.0713 37.4723C46.1086 34.8203 50.6873 35.1376 53.3393 38.175C55.9686 41.1896 55.674 45.791 52.6366 48.443Z" fill="#651F55"/>
<path id="Vector_23" d="M54.563 40.1699C54.359 41.0992 54.1097 42.0059 53.6564 42.8445C52.6364 44.7712 50.687 46.1085 48.6017 46.6072C46.403 47.1059 44.023 46.8339 41.9377 45.9952C41.643 45.8819 41.3484 45.7459 41.0537 45.5872C41.3484 46.3579 41.779 47.0832 42.3684 47.7405C45.0204 50.7779 49.6217 51.0725 52.6364 48.4432C55.039 46.3352 55.7417 42.9805 54.563 40.1699Z" fill="#47173A"/>
<path id="Vector_24" d="M50.9136 37.3818C50.9136 37.2458 50.8909 37.1324 50.8456 36.9964C50.5736 36.7244 50.2109 36.4978 49.8256 36.4298C49.5309 36.3844 49.2136 36.4298 49.0096 36.6111C48.8283 36.7698 48.7603 36.9964 48.8056 37.2458C48.8736 37.6311 49.1003 37.9711 49.3496 38.2658C49.4403 38.3791 49.5536 38.4924 49.6896 38.5604C49.7803 38.6058 49.8936 38.6738 49.9843 38.6738C50.0976 38.6964 50.1429 38.6964 50.2563 38.6511C50.2789 38.6511 50.2789 38.6511 50.3243 38.6284C50.3469 38.6284 50.3696 38.6058 50.3923 38.6058C50.4149 38.5831 50.4376 38.5831 50.4376 38.5831C50.4603 38.5604 50.4829 38.5604 50.5056 38.5378C50.6643 38.4018 50.7776 38.2204 50.8456 38.0391C50.8909 37.8351 50.9363 37.6311 50.9136 37.3818Z" fill="#95207E"/>
<path id="Vector_25" d="M42.8222 48.2615C39.7848 50.9135 35.2062 50.5962 32.5542 47.5589C29.9022 44.5215 30.2195 39.9429 33.2568 37.2909C36.2942 34.6389 40.8728 34.9562 43.5248 37.9935C46.1542 41.0309 45.8595 45.6322 42.8222 48.2615Z" fill="#651F55"/>
<path id="Vector_26" d="M44.7711 40.0107C44.5671 40.94 44.3177 41.8466 43.8644 42.6853C42.8444 44.612 40.9177 45.9493 38.8097 46.448C36.6111 46.9466 34.2311 46.6746 32.1457 45.836C31.8511 45.7226 31.5564 45.5866 31.2617 45.428C31.5564 46.1986 31.9871 46.924 32.5764 47.5813C35.2284 50.6186 39.8297 50.9133 42.8444 48.284C45.2471 46.1533 45.9271 42.7987 44.7711 40.0107Z" fill="#47173A"/>
<path id="Vector_27" d="M41.1216 37.2227C41.1216 37.0867 41.0989 36.9733 41.0536 36.8373C40.7816 36.5653 40.4189 36.3387 40.0336 36.2707C39.7389 36.2253 39.4216 36.2707 39.2176 36.452C39.0363 36.6107 38.9683 36.8373 39.0136 37.0867C39.0816 37.472 39.3083 37.812 39.5576 38.1067C39.6483 38.22 39.7616 38.3333 39.8976 38.4013C39.9883 38.4467 40.1016 38.5147 40.1923 38.5147C40.3056 38.5373 40.3509 38.5373 40.4643 38.492C40.4869 38.492 40.4869 38.492 40.5323 38.4693C40.5549 38.4693 40.5776 38.4467 40.6003 38.4467C40.6229 38.424 40.6456 38.424 40.6456 38.424C40.6683 38.4013 40.6909 38.4013 40.7136 38.3787C40.8723 38.2427 40.9856 38.0613 41.0536 37.88C41.0763 37.676 41.1216 37.4493 41.1216 37.2227Z" fill="#95207E"/>
<path id="Vector_28" d="M53.8824 58.8469C57.9009 58.8469 61.1584 55.5894 61.1584 51.5709C61.1584 47.5525 57.9009 44.2949 53.8824 44.2949C49.864 44.2949 46.6064 47.5525 46.6064 51.5709C46.6064 55.5894 49.864 58.8469 53.8824 58.8469Z" fill="#651F55"/>
<path id="Vector_29" d="M60.6148 48.7828C60.4108 49.7122 60.1615 50.6188 59.7081 51.4575C58.6881 53.3842 56.7615 54.7215 54.6535 55.2202C52.4548 55.7188 50.0748 55.4468 47.9895 54.6082C47.6948 54.4948 47.4001 54.3588 47.1055 54.2002C47.4001 54.9708 47.8308 55.6962 48.4201 56.3535C51.0721 59.3908 55.6735 59.6855 58.6881 57.0562C61.0908 54.9482 61.7708 51.5935 60.6148 48.7828Z" fill="#47173A"/>
<path id="Vector_30" d="M56.9653 45.9947C56.9653 45.8587 56.9427 45.7454 56.8974 45.6094C56.6253 45.3374 56.2627 45.1107 55.8774 45.0427C55.5827 44.9974 55.2653 45.0427 55.0613 45.2241C54.88 45.3827 54.812 45.6094 54.8574 45.8587C54.9254 46.2441 55.152 46.5841 55.4013 46.8787C55.492 46.9921 55.6053 47.1054 55.7413 47.1734C55.832 47.2187 55.9453 47.2867 56.036 47.2867C56.1493 47.3094 56.1947 47.3094 56.308 47.2641C56.3307 47.2641 56.3307 47.2641 56.376 47.2414C56.3987 47.2414 56.4214 47.2187 56.444 47.2187C56.4667 47.1961 56.4893 47.1961 56.4893 47.1961C56.512 47.1734 56.5347 47.1734 56.5574 47.1507C56.716 47.0147 56.8293 46.8334 56.8974 46.6521C56.92 46.4481 56.9653 46.2441 56.9653 45.9947Z" fill="#95207E"/>
<path id="Vector_31" d="M55.9579 63.1429C58.5185 60.0459 58.0836 55.4595 54.9866 52.899C51.8896 50.3384 47.3033 50.7733 44.7427 53.8703C42.1822 56.9673 42.6171 61.5537 45.7141 64.1142C48.8111 66.6747 53.3974 66.2399 55.9579 63.1429Z" fill="#651F55"/>
<path id="Vector_32" d="M57.0787 55.7184C56.8747 56.6477 56.6253 57.5544 56.172 58.393C55.152 60.3197 53.2253 61.657 51.1173 62.1557C48.9187 62.6544 46.5387 62.3824 44.4533 61.5437C44.1587 61.4304 43.864 61.2944 43.5693 61.1357C43.864 61.9064 44.2947 62.6317 44.884 63.289C47.536 66.3264 52.1373 66.621 55.152 63.9917C57.5547 61.8837 58.2347 58.529 57.0787 55.7184Z" fill="#47173A"/>
<path id="Vector_33" d="M53.4302 52.9309C53.4302 52.7949 53.4075 52.6816 53.3622 52.5456C53.0902 52.2736 52.7275 52.0469 52.3422 51.9789C52.0475 51.9336 51.7302 51.9789 51.5262 52.1603C51.3449 52.3189 51.2769 52.5456 51.3222 52.7949C51.3902 53.1803 51.6169 53.5203 51.8662 53.8149C51.9569 53.9283 52.0702 54.0416 52.2062 54.1096C52.2969 54.1549 52.4102 54.2229 52.5009 54.2229C52.6142 54.2456 52.6595 54.2456 52.7729 54.2003C52.7955 54.2003 52.7955 54.2003 52.8409 54.1776C52.8635 54.1776 52.8862 54.1549 52.9089 54.1549C52.9315 54.1323 52.9542 54.1323 52.9542 54.1323C52.9769 54.1096 52.9995 54.1096 53.0222 54.0869C53.1809 53.9509 53.2942 53.7696 53.3622 53.5883C53.3849 53.3843 53.4302 53.1803 53.4302 52.9309Z" fill="#95207E"/>
<path id="Vector_34" d="M65.4667 71.6309C62.4294 74.2829 57.8507 73.9655 55.1987 70.9282C52.5467 67.8909 52.864 63.3122 55.9014 60.6602C58.9387 58.0082 63.5174 58.3255 66.1694 61.3629C68.7987 64.3775 68.504 68.9789 65.4667 71.6309Z" fill="#651F55"/>
<path id="Vector_35" d="M67.4156 63.3578C67.2116 64.2871 66.9623 65.1938 66.5089 66.0325C65.4889 67.9591 63.5396 69.2965 61.4543 69.7951C59.2556 70.2938 56.8756 70.0218 54.7903 69.1831C54.4956 69.0698 54.2009 68.9338 53.9062 68.7751C54.2009 69.5458 54.6316 70.2711 55.2209 70.9285C57.8729 73.9658 62.4743 74.2605 65.4889 71.6311C67.8916 69.5231 68.5716 66.1685 67.4156 63.3578Z" fill="#47173A"/>
<path id="Vector_36" d="M63.7661 60.5697C63.7661 60.4337 63.7435 60.3203 63.6981 60.1843C63.4261 59.9123 63.0635 59.6857 62.6781 59.6177C62.3835 59.5723 62.0661 59.6177 61.8621 59.799C61.6808 59.9577 61.6128 60.1843 61.6581 60.4337C61.7261 60.819 61.9528 61.159 62.2021 61.4537C62.2928 61.567 62.4061 61.6803 62.5421 61.7483C62.6328 61.7937 62.7461 61.8617 62.8368 61.8617C62.9501 61.8843 62.9955 61.8843 63.1088 61.839C63.1315 61.839 63.1315 61.839 63.1768 61.8163C63.1995 61.8163 63.2221 61.7937 63.2448 61.7937C63.2675 61.771 63.2901 61.771 63.2901 61.771C63.3128 61.7483 63.3355 61.7483 63.3581 61.7257C63.5168 61.5897 63.6301 61.4083 63.6981 61.227C63.7208 61.023 63.7661 60.819 63.7661 60.5697Z" fill="#95207E"/>
<path id="Vector_37" d="M46.3134 56.0813C43.276 58.7333 38.6974 58.416 36.0454 55.3786C33.3934 52.3413 33.7107 47.7626 36.748 45.1106C39.7854 42.4586 44.364 42.776 47.016 45.8133C49.6454 48.828 49.328 53.4293 46.3134 56.0813Z" fill="#651F55"/>
<path id="Vector_38" d="M48.2398 47.8082C48.0358 48.7375 47.7865 49.6442 47.3331 50.4829C46.3131 52.4095 44.3865 53.7469 42.2785 54.2455C40.0798 54.7442 37.6998 54.4722 35.6145 53.6335C35.3198 53.5202 35.0251 53.3842 34.7305 53.2255C35.0251 53.9962 35.4558 54.7215 36.0451 55.3789C38.6971 58.4162 43.2985 58.7109 46.3131 56.0815C48.7158 53.9735 49.3958 50.6189 48.2398 47.8082Z" fill="#47173A"/>
<path id="Vector_39" d="M44.5903 45.0201C44.5903 44.8841 44.5677 44.7708 44.5223 44.6348C44.2503 44.3628 43.8877 44.1361 43.5023 44.0681C43.2077 44.0228 42.8903 44.0681 42.6863 44.2494C42.505 44.4081 42.437 44.6348 42.4824 44.8841C42.5504 45.2694 42.777 45.6094 43.0263 45.9041C43.117 46.0174 43.2303 46.1308 43.3663 46.1988C43.457 46.2441 43.5703 46.3121 43.661 46.3121C43.7743 46.3348 43.8197 46.3348 43.933 46.2894C43.9557 46.2894 43.9557 46.2894 44.001 46.2668C44.0237 46.2668 44.0463 46.2441 44.069 46.2441C44.0917 46.2214 44.1143 46.2214 44.1143 46.2214C44.137 46.1988 44.1597 46.1988 44.1823 46.1761C44.341 46.0401 44.4543 45.8588 44.5223 45.6774C44.5677 45.4734 44.5903 45.2694 44.5903 45.0201Z" fill="#95207E"/>
<path id="Vector_40" d="M42.8222 64.5136C39.7848 67.1656 35.2062 66.8483 32.5542 63.811C29.9022 60.7736 30.2195 56.195 33.2568 53.543C36.2942 50.891 40.8728 51.2083 43.5248 54.2456C46.1542 57.283 45.8368 61.8843 42.8222 64.5136Z" fill="#651F55"/>
<path id="Vector_41" d="M44.7486 56.2627C44.5446 57.1921 44.2953 58.0987 43.8419 58.9374C42.8219 60.8641 40.8953 62.2014 38.7873 62.7001C36.5886 63.1987 34.2086 62.9267 32.1233 62.0881C31.8286 61.9747 31.5339 61.8387 31.2393 61.6801C31.5339 62.4507 31.9646 63.1761 32.5539 63.8334C35.2059 66.8707 39.8073 67.1654 42.8219 64.5361C45.2246 62.4054 45.9273 59.0507 44.7486 56.2627Z" fill="#47173A"/>
<path id="Vector_42" d="M41.0991 53.4748C41.0991 53.3388 41.0765 53.2254 41.0311 53.0894C40.7591 52.8174 40.3965 52.5908 40.0111 52.5228C39.7165 52.4774 39.3991 52.5228 39.1951 52.7041C39.0138 52.8628 38.9458 53.0894 38.9911 53.3388C39.0591 53.7241 39.2858 54.0641 39.5351 54.3588C39.6258 54.4721 39.7391 54.5854 39.8751 54.6534C39.9658 54.6988 40.0791 54.7668 40.1698 54.7668C40.2831 54.7894 40.3285 54.7894 40.4418 54.7441C40.4645 54.7441 40.4645 54.7441 40.5098 54.7214C40.5325 54.7214 40.5551 54.6988 40.5778 54.6988C40.6005 54.6761 40.6231 54.6761 40.6231 54.6761C40.6458 54.6534 40.6685 54.6534 40.6911 54.6308C40.8498 54.4948 40.9631 54.3134 41.0311 54.1321C41.0765 53.9281 41.1218 53.7014 41.0991 53.4748Z" fill="#95207E"/>
<path id="Vector_43" d="M64.5138 78.7481C61.9071 81.8081 57.3285 82.1934 54.2458 79.6094C51.1858 77.0028 50.8005 72.4241 53.3845 69.3414C55.9911 66.2814 60.5698 65.8961 63.6525 68.4801C66.7351 71.0868 67.1205 75.6881 64.5138 78.7481Z" fill="#651F55"/>
<path id="Vector_44" d="M65.1938 70.2932C65.1258 71.2452 65.0125 72.1746 64.6952 73.0812C63.9698 75.1439 62.2698 76.7532 60.2525 77.5466C58.1672 78.3852 55.7645 78.4532 53.5885 77.9546C53.2712 77.8866 52.9538 77.7959 52.6592 77.6826C53.0672 78.4079 53.6112 79.0652 54.2685 79.6092C57.3285 82.2159 61.9298 81.8306 64.5365 78.7479C66.5765 76.2999 66.7578 72.8772 65.1938 70.2932Z" fill="#47173A"/>
<path id="Vector_45" d="M61.1593 68.0719C61.1366 67.9359 61.0913 67.8225 61.046 67.7092C60.7286 67.4825 60.3433 67.3012 59.9353 67.3012C59.6406 67.3012 59.3233 67.3919 59.142 67.5959C58.9833 67.7772 58.938 68.0039 59.0286 68.2532C59.142 68.6159 59.4366 68.9332 59.7313 69.1599C59.8446 69.2505 59.9806 69.3412 60.1166 69.4092C60.2073 69.4545 60.3433 69.4772 60.4113 69.4999C60.5246 69.4999 60.57 69.4999 60.6833 69.4545C60.706 69.4319 60.706 69.4545 60.7513 69.4319C60.774 69.4092 60.7966 69.4092 60.7966 69.3865C60.8193 69.3639 60.842 69.3412 60.842 69.3639C60.8646 69.3412 60.8873 69.3185 60.8873 69.3185C61.0233 69.1599 61.114 68.9785 61.1593 68.7745C61.2046 68.5252 61.2046 68.3212 61.1593 68.0719Z" fill="#95207E"/>
<path id="Vector_46" d="M32.441 88.4267C36.4595 88.4267 39.717 85.1692 39.717 81.1507C39.717 77.1323 36.4595 73.8748 32.441 73.8748C28.4226 73.8748 25.165 77.1323 25.165 81.1507C25.165 85.1692 28.4226 88.4267 32.441 88.4267Z" fill="#651F55"/>
<path id="Vector_47" d="M39.1734 78.3626C38.9694 79.292 38.7201 80.1986 38.2667 81.0373C37.2467 82.964 35.3201 84.3013 33.2121 84.8C31.0134 85.2986 28.6334 85.0266 26.5481 84.188C26.2534 84.0746 25.9587 83.9386 25.6641 83.78C25.9587 84.5506 26.3894 85.276 26.9787 85.9333C29.6307 88.9706 34.2321 89.2653 37.2467 86.636C39.6494 84.5053 40.3294 81.1733 39.1734 78.3626Z" fill="#47173A"/>
<path id="Vector_48" d="M35.5239 75.5745C35.5239 75.4385 35.5013 75.3252 35.4559 75.1892C35.1839 74.9172 34.8213 74.6905 34.4359 74.6225C34.1413 74.5772 33.8239 74.6225 33.6199 74.8038C33.4386 74.9625 33.3706 75.1892 33.4159 75.4385C33.4839 75.8238 33.7106 76.1638 33.9599 76.4585C34.0506 76.5718 34.1639 76.6852 34.2999 76.7532C34.3906 76.7985 34.5039 76.8665 34.5946 76.8665C34.7079 76.8892 34.7533 76.8892 34.8666 76.8438C34.8893 76.8438 34.8893 76.8438 34.9346 76.8212C34.9573 76.8212 34.9799 76.7985 35.0026 76.7985C35.0253 76.7758 35.0479 76.7758 35.0479 76.7758C35.0706 76.7532 35.0933 76.7532 35.1159 76.7305C35.2746 76.5945 35.3879 76.4132 35.4559 76.2318C35.5013 76.0278 35.5239 75.8238 35.5239 75.5745Z" fill="#95207E"/>
<path id="Vector_49" d="M36.0673 99.6696C33.03 102.322 28.4513 102.004 25.7993 98.967C23.1473 95.9297 23.4646 91.351 26.502 88.699C29.5393 86.047 34.118 86.3643 36.77 89.4017C39.3993 92.439 39.1046 97.0176 36.0673 99.6696Z" fill="#651F55"/>
<path id="Vector_50" d="M37.9937 91.4189C37.7897 92.3482 37.5404 93.2549 37.087 94.0936C36.067 96.0202 34.1404 97.3575 32.0324 97.8562C29.8337 98.3549 27.4537 98.0829 25.3684 97.2442C25.0737 97.1309 24.779 96.9949 24.4844 96.8362C24.779 97.6069 25.2097 98.3322 25.799 98.9895C28.451 102.027 33.0524 102.322 36.067 99.6922C38.4697 97.5616 39.1724 94.2069 37.9937 91.4189Z" fill="#47173A"/>
<path id="Vector_51" d="M34.3443 88.6308C34.3443 88.4948 34.3216 88.3814 34.2763 88.2454C34.0043 87.9734 33.6416 87.7468 33.2563 87.6788C32.9616 87.6334 32.6443 87.6788 32.4403 87.8601C32.2589 88.0188 32.1909 88.2454 32.2363 88.4948C32.3043 88.8801 32.5309 89.2201 32.7803 89.5147C32.8709 89.6281 32.9843 89.7414 33.1203 89.8094C33.2109 89.8547 33.3243 89.9227 33.4149 89.9227C33.5283 89.9454 33.5736 89.9454 33.6869 89.9001C33.7096 89.9001 33.7096 89.9001 33.7549 89.8774C33.7776 89.8774 33.8003 89.8547 33.8229 89.8547C33.8456 89.8321 33.8683 89.8321 33.8683 89.8321C33.8909 89.8094 33.9136 89.8094 33.9363 89.7867C34.0949 89.6507 34.2083 89.4694 34.2763 89.2881C34.3216 89.0841 34.3669 88.8574 34.3443 88.6308Z" fill="#95207E"/>
<path id="Vector_52" d="M39.9667 93.0734C36.9294 95.7254 32.3507 95.4081 29.6987 92.3708C27.0467 89.3334 27.364 84.7548 30.4014 82.1028C33.4387 79.4508 38.0174 79.7681 40.6694 82.8054C43.2987 85.8428 43.004 90.4214 39.9667 93.0734Z" fill="#651F55"/>
<path id="Vector_53" d="M41.9156 84.8004C41.7116 85.7297 41.4623 86.6364 41.0089 87.475C39.9889 89.4017 38.0396 90.739 35.9543 91.2377C33.7556 91.7364 31.3756 91.4644 29.2903 90.6257C28.9956 90.5124 28.7009 90.3764 28.4062 90.2177C28.7009 90.9884 29.1316 91.7137 29.7209 92.371C32.3729 95.4084 36.9743 95.703 39.9889 93.0737C42.3916 90.9657 43.0716 87.611 41.9156 84.8004Z" fill="#47173A"/>
<path id="Vector_54" d="M38.2661 82.0122C38.2661 81.8762 38.2435 81.7629 38.1981 81.6269C37.9261 81.3549 37.5635 81.1282 37.1781 81.0602C36.8835 81.0149 36.5661 81.0602 36.3621 81.2415C36.1808 81.4002 36.1128 81.6269 36.1581 81.8762C36.2261 82.2615 36.4528 82.6015 36.7021 82.8962C36.7928 83.0095 36.9061 83.1229 37.0421 83.1909C37.1328 83.2362 37.2461 83.3042 37.3368 83.3042C37.4501 83.3269 37.4955 83.3269 37.6088 83.2815C37.6315 83.2815 37.6315 83.2815 37.6768 83.2589C37.6995 83.2589 37.7221 83.2362 37.7448 83.2362C37.7675 83.2135 37.7901 83.2135 37.7901 83.2135C37.8128 83.1909 37.8355 83.1909 37.8581 83.1682C38.0168 83.0322 38.1301 82.8509 38.1981 82.6695C38.2208 82.4882 38.2661 82.2615 38.2661 82.0122Z" fill="#95207E"/>
<path id="Vector_55" d="M83.2369 26.3203C86.6823 26.751 90.037 27.9977 92.9383 29.9243C93.2103 30.1057 93.0969 30.559 92.7569 30.5817C92.4849 30.5817 92.1903 30.627 91.9183 30.695C94.321 32.735 96.1569 35.455 97.177 38.4243C97.3583 38.923 96.7916 39.3537 96.361 39.0817L95.5676 38.583C95.0236 40.691 94.0263 42.6857 92.621 44.3403C92.417 44.5897 92.145 44.771 91.8276 44.8163C90.853 44.9977 90.3996 43.955 90.1503 43.139C89.1303 39.943 87.4983 36.883 85.005 34.6163C85.0503 35.0017 85.0503 35.387 85.0276 35.7723C84.937 36.9283 83.373 37.223 82.8743 36.1803C82.217 34.775 81.6729 33.3243 81.2423 31.851C80.8116 32.123 80.3809 32.4177 79.8823 32.5537C79.3836 32.6897 78.8169 32.6443 78.4316 32.327C77.9783 31.9643 77.8423 31.3297 77.8196 30.763C77.7743 29.879 77.8649 28.9497 77.6836 28.0883C77.5023 27.2043 76.9356 26.3203 76.0743 26.1163C75.8023 26.0483 73.7169 25.595 74.7369 25.119C75.1676 24.915 76.9583 25.731 77.4796 25.8217C79.3836 26.0937 81.3103 26.071 83.2369 26.3203Z" fill="#8C8B3A"/>
<path id="Vector_56" d="M75.5534 25.8897C75.5987 25.9123 75.6441 25.935 75.6894 25.9577C75.8481 26.003 75.9841 26.0257 76.0521 26.0483C76.4374 26.139 76.7547 26.3657 77.0267 26.6603C77.3441 26.819 77.6614 27.0003 77.9561 27.2043C78.4547 27.5443 78.9534 27.975 79.2254 28.5417C79.4974 29.0857 79.4521 29.675 79.2707 30.2417C79.1347 30.627 78.9761 31.0123 78.7267 31.3523C78.5454 31.579 78.3641 31.8283 78.2054 32.055C78.2734 32.1457 78.3414 32.2137 78.4321 32.3043C78.5227 32.3723 78.6134 32.4177 78.7041 32.463C78.9761 31.7603 79.2027 31.0123 79.5201 30.3323C79.7921 29.7883 80.1547 29.1763 80.7667 28.995C81.0841 28.9043 81.4467 28.9723 81.7187 29.131C82.3081 29.4483 82.6027 30.0377 82.7614 30.6723C82.8521 30.967 82.8974 31.2843 82.9427 31.579C83.0107 31.8963 83.0787 32.2137 83.1694 32.531C83.3281 33.1657 83.4641 33.8003 83.4414 34.4577C83.4187 35.0017 83.3281 35.523 83.2601 36.067C83.2374 36.2483 83.2147 36.4297 83.1921 36.611C83.3281 36.7243 83.5094 36.7923 83.6681 36.815C83.7587 36.6337 83.8494 36.4523 83.8947 36.2483C84.0534 35.7497 84.1441 35.2283 84.1441 34.707C84.1441 34.4123 84.0761 34.1403 83.9854 33.8683C83.7814 33.143 83.5094 32.4403 83.3961 31.6923C83.3054 31.1483 83.3281 30.4457 83.9627 30.2417C84.5521 30.0603 85.2094 30.4683 85.6854 30.7857C86.1841 31.1257 86.6601 31.5337 87.0681 31.987C87.7707 32.7577 88.3827 33.5737 88.9267 34.435C90.0147 36.203 90.7627 38.1977 91.0801 40.2603C91.2387 41.303 91.2841 42.3457 91.2387 43.3883C91.2161 43.6377 91.2161 43.9097 91.1707 44.159C91.1481 44.3177 91.1027 44.499 91.0801 44.6577C91.0801 44.6803 91.0801 44.703 91.0574 44.7257C91.2614 44.839 91.4881 44.8843 91.7827 44.839C91.8054 44.839 91.8507 44.8163 91.8734 44.8163C92.0321 44.499 92.1227 44.159 92.2134 43.819C92.4854 42.8443 92.3947 41.8243 92.3267 40.827C92.2587 39.7163 92.2814 38.6057 92.0321 37.5177C91.8961 36.951 91.7147 36.3843 91.4201 35.863C91.1254 35.3417 90.7174 34.8657 90.2867 34.435C89.8561 34.0043 89.4027 33.5963 88.9267 33.211C88.5867 32.9163 88.2241 32.6443 87.9067 32.3497C87.7254 32.1683 87.4534 31.851 87.7027 31.6017C87.8387 31.4883 88.0201 31.4657 88.2014 31.443C88.3827 31.4203 88.5414 31.4203 88.7227 31.4657C89.5387 31.6017 90.3094 32.055 90.9894 32.5083C91.3067 32.7123 91.6014 32.939 91.9187 33.1657C92.3947 33.5057 92.8934 33.7777 93.3694 34.095C93.8681 34.435 94.3667 34.8203 94.7747 35.2737C95.1827 35.727 95.5227 36.2483 95.7947 36.7697C96.0441 37.2683 96.2707 37.8123 96.3841 38.3563C96.4294 38.6057 96.4521 38.855 96.4974 39.1043C96.4974 39.127 96.4974 39.127 96.4974 39.1497C96.6561 39.195 96.8147 39.1497 96.9507 39.059C96.9734 38.7643 96.9281 38.447 96.8601 38.175C96.7241 37.631 96.4747 37.1323 96.2254 36.6337C95.9534 36.135 95.6587 35.659 95.3414 35.2057C95.1147 34.8883 94.8881 34.5483 94.6161 34.2537C94.0041 33.5963 93.2334 33.0523 92.4627 32.599C91.6694 32.1457 90.8307 31.7603 89.9694 31.443C88.5414 30.899 87.0681 30.4683 85.6401 29.9697C85.1414 29.7883 84.5521 29.5843 84.1667 29.1763C84.0081 29.0177 83.9174 28.8137 83.9401 28.587C83.9854 28.315 84.1667 28.1337 84.4387 28.043C84.7561 27.9297 85.1187 27.907 85.4587 27.8843C85.7761 27.8617 86.0934 27.8617 86.4107 27.8843C87.3854 27.9297 88.3601 28.1337 89.3121 28.4283C89.7654 28.5643 90.1961 28.7457 90.6267 28.927C91.0574 29.131 91.4654 29.3803 91.9187 29.5843C92.2587 29.743 92.6441 29.9243 93.0294 29.9923C93.0067 29.9697 92.9841 29.947 92.9614 29.9243C91.4881 28.9497 89.8787 28.1337 88.2241 27.5217C88.0654 27.499 87.9067 27.4763 87.7481 27.431C86.7734 27.2723 85.7987 27.295 84.8014 27.3177C83.8041 27.363 82.8294 27.3403 81.8547 27.2497C81.3787 27.2043 80.9027 27.1363 80.4494 27.023C80.0187 26.9323 79.5427 26.819 79.1347 26.6377C78.8174 26.5017 78.5001 26.3203 78.1827 26.139C77.9334 26.003 77.6614 25.8217 77.3667 25.731C77.3441 25.731 77.3214 25.7083 77.2987 25.6857C76.6187 25.4817 75.1454 24.847 74.7601 25.0283C74.0574 25.3683 74.8054 25.6857 75.4401 25.867C75.4401 25.867 75.5081 25.8443 75.5534 25.8897Z" fill="#67692D"/>
<path id="Vector_57" opacity="0.64" d="M90.9887 29.3575C90.966 29.3802 90.966 29.4029 90.9887 29.4482C91.0567 29.6749 91.1473 29.9469 91.306 30.1055C91.5327 30.3322 91.646 30.4909 91.918 30.6495C92.0994 30.6269 92.5527 30.5589 92.7567 30.5362C93.0967 30.5135 93.21 30.0829 92.938 29.8789C92.6887 29.7202 92.4167 29.5389 92.1674 29.3802C91.986 29.3349 91.8047 29.3122 91.646 29.2895C91.4873 29.2669 91.306 29.2442 91.1474 29.2669C91.102 29.2669 91.102 29.2669 91.0567 29.2895C91.0113 29.3349 90.9887 29.3575 90.9887 29.3575Z" fill="#5B5C28"/>
<path id="Vector_58" opacity="0.64" d="M97.1766 38.3785C97.1313 38.2652 97.1086 38.1745 97.0633 38.0612C96.8593 37.9025 96.6326 37.7665 96.3833 37.6532C96.27 37.6079 96.134 37.5625 95.998 37.5625C95.8846 37.5625 95.794 37.5852 95.726 37.6532C95.4766 37.9025 95.454 38.1972 95.5673 38.5372L96.3606 39.0359C96.814 39.3305 97.358 38.8772 97.1766 38.3785Z" fill="#5B5C28"/>
<path id="Vector_59" opacity="0.64" d="M84.9134 36.1349C84.3694 36.2709 83.7121 36.1349 83.3494 35.7495C82.8734 35.2055 82.8508 34.3895 82.6468 33.7095C82.5108 33.1882 82.3748 32.6669 82.1708 32.1909C82.0801 31.9869 81.9894 31.7602 81.8081 31.6242C81.6494 31.4882 81.4454 31.6015 81.3094 31.7375C81.2867 31.7602 81.2641 31.7829 81.2188 31.8282C81.6494 33.3015 82.1934 34.7295 82.8508 36.1349C83.1908 36.8829 84.0521 36.9509 84.5961 36.5655C84.7321 36.4295 84.8228 36.2935 84.9134 36.1349Z" fill="#5B5C28"/>
<path id="Vector_60" opacity="0.64" d="M92.6658 44.2495C92.5072 44.1815 92.3485 44.1135 92.1672 44.0682C91.8498 43.9548 91.5552 43.8188 91.2832 43.5922C90.8072 43.1842 90.5352 42.5948 90.3085 42.0055C90.0592 41.3482 89.8098 40.6908 89.5378 40.0335C88.9938 38.6962 88.3365 37.3815 87.4752 36.2028C87.0445 35.6135 86.5458 35.0695 86.0018 34.5935C85.8432 34.4575 85.7298 34.3895 85.5712 34.2762C85.5032 34.2308 85.3898 34.1855 85.3218 34.1175L85.0272 33.9135C85.0045 34.0722 85.0045 34.1628 84.9818 34.3215C84.9592 34.4575 84.9592 34.4348 84.9818 34.5482C87.1805 36.7468 89.1752 40.1015 90.1272 43.0708C90.3992 43.9095 90.8525 44.9295 91.8045 44.7482C92.1218 44.6802 92.3938 44.5215 92.5978 44.2722C92.6432 44.2948 92.6432 44.2722 92.6658 44.2495Z" fill="#5B5C28"/>
<path id="Vector_61" opacity="0.64" d="M79.6551 32.3722C79.2017 32.3268 78.8164 32.0548 78.6124 31.6242C78.4311 31.2162 78.4084 30.7855 78.3404 30.3548C78.2951 30.0148 78.2497 29.6975 78.1817 29.3575C78.0684 28.5868 77.9551 27.8162 77.6377 27.0908C77.5017 26.7735 77.3204 26.4562 77.0711 26.2068C76.7991 25.9348 76.4137 25.8215 76.0511 25.7308C75.5977 25.6175 75.099 25.5722 74.623 25.5722C75.031 25.8215 75.8697 26.0028 76.0284 26.0482C76.8897 26.2522 77.4564 27.1362 77.6377 28.0202C77.8191 28.9042 77.7057 29.8108 77.7737 30.6948C77.8191 31.2842 77.9324 31.8962 78.3857 32.2588C78.7937 32.5762 79.3604 32.6215 79.8364 32.4855C79.9724 32.4402 80.1084 32.3948 80.2217 32.3495C80.0631 32.3722 79.8591 32.3948 79.6551 32.3722Z" fill="#5B5C28"/>
</g>
</svg>
