<svg  viewBox="0 0 122 122" fill="none" xmlns="http://www.w3.org/2000/svg">
<g id="Lemon">
<path id="path548" d="M78.1359 40.0161C69.7621 45.7983 66.5858 51.7377 65.3906 55.5658L65.644 56.8538L69.5284 54.7026C75.4088 51.8989 82.1158 41.79 78.1359 40.0161Z" fill="#89C526"/>
<path id="path550" d="M78.1372 40.0175C77.2015 39.6008 75.6797 39.6407 73.414 40.3481C61.5069 44.0637 65.2225 54.7039 65.2225 54.7039L65.3919 55.5671C66.5871 51.739 69.7634 45.7996 78.1372 40.0175Z" fill="#78B12B"/>
<path id="path552" d="M71.4049 45.7397H76.4594L70.0742 47.2486L71.4049 45.7397Z" fill="#65A730"/>
<path id="path554" d="M68.2082 49.7646L73.2695 48.9428L67.3457 51.1617L68.2082 49.7646Z" fill="#65A730"/>
<path id="path556" d="M70.0742 47.2486L71.4049 41.8953V45.7397L70.0742 47.2486Z" fill="#709B2C"/>
<path id="path558" d="M67.3457 51.1617V46.4948L68.2082 49.7646L67.3457 51.1617Z" fill="#709B2C"/>
<path id="path560" d="M59.1098 37.9792C56.8509 33.7229 55.6015 29.6393 54.9598 27.0287C54.0512 26.8146 53.7985 27.8682 53.7985 27.8682C52.2788 39.1839 53.9679 41.3798 57.7676 48.0509C59.3402 50.8112 59.849 53.3134 59.914 55.3087C60.7495 49.4487 61.2231 41.9611 59.1098 37.9792Z" fill="#78B12B"/>
<path id="path562" d="M57.0932 28.8808C56.1412 27.6307 55.4549 27.1442 54.9609 27.0277C55.6026 29.6382 56.852 33.7218 59.1109 37.9781C61.2242 41.9601 60.7506 49.4476 59.9151 55.3077C60.008 58.1344 59.2017 59.9346 59.2017 59.9346V61.5614C61.2255 58.4366 61.1049 53.0325 61.1049 53.0325C70.6894 39.6056 59.7959 32.4277 57.0932 28.8808Z" fill="#89C526"/>
<path id="path564" d="M58.4795 36.7499L59.1042 32.7721L59.4701 38.7636L58.4795 36.7499Z" fill="#78B12B"/>
<path id="path566" d="M60.4326 42.8446L61.5526 36.5691L60.6223 46.111L60.4326 42.8446Z" fill="#78B12B"/>
<path id="path568" d="M58.4862 36.7499L54.9609 33.64L59.4768 38.7636L58.4862 36.7499Z" fill="#709B2C"/>
<path id="path570" d="M60.4632 43.3855L56.9277 38.7646L60.5478 44.811L60.4632 43.3855Z" fill="#709B2C"/>
<path id="path572" d="M15.1308 75.021C15.0867 75.0637 15.0434 75.1037 15 75.1464C15 75.1464 23.9788 84.7533 40.5055 80.7151L39.7859 75.4425C30.3518 74.7974 20.4698 74.8943 15.1308 75.021Z" fill="#78B12B"/>
<path id="path574" d="M39.786 75.4423L39.1051 70.4528C39.1051 70.4528 28.2644 62.2464 15.1309 75.0208C20.4699 74.8941 30.3519 74.7972 39.786 75.4423Z" fill="#89C526"/>
<path id="path576" d="M23.8264 74.9293L22.5566 71.65L24.6746 74.9327L23.8264 74.9293Z" fill="#65A730"/>
<path id="path578" d="M28.3179 74.9283L25.0996 70.4077L29.503 74.998L28.3179 74.9283Z" fill="#65A730"/>
<path id="path580" d="M32.9742 74.9983L28.8242 70.4079L34.7527 75.3371L32.9742 74.9983Z" fill="#65A730"/>
<path id="path582" d="M23.8283 74.9314L21.627 77.6368L24.6766 74.9347L23.8283 74.9314Z" fill="#709B2C"/>
<path id="path584" d="M28.3179 74.9278L25.0996 78.3169L29.503 74.9976L28.3179 74.9278Z" fill="#709B2C"/>
<path id="path586" d="M32.9742 74.9977L28.8242 78.9051L34.7527 75.3365L32.9742 74.9977Z" fill="#709B2C"/>
<path id="path588" d="M27.7866 94.0992C27.7859 94.1487 27.7839 94.1968 27.7832 94.2469C27.7832 94.2469 38.5419 94.625 45.7889 82.73L42.3233 80.0896C36.4808 85.1692 30.8084 90.9385 27.7866 94.0992Z" fill="#78B12B"/>
<path id="path590" d="M42.3238 80.0886L39.0438 77.5898C39.0438 77.5898 28.0154 79.0994 27.7871 94.0981C30.809 90.9374 36.4814 85.1681 42.3238 80.0886Z" fill="#89C526"/>
<path id="path592" d="M32.7768 89.0178L30.1445 87.8504L33.2701 88.5293L32.7768 89.0178Z" fill="#65A730"/>
<path id="path594" d="M35.3767 86.4209L30.8975 85.6607L36.1037 85.7759L35.3767 86.4209Z" fill="#65A730"/>
<path id="path596" d="M38.1185 83.7679L33.0586 83.5057L39.3448 82.9359L38.1185 83.7679Z" fill="#65A730"/>
<path id="path598" d="M32.7764 89.0167L33.0643 91.8577L33.2696 88.5282L32.7764 89.0167Z" fill="#709B2C"/>
<path id="path600" d="M35.377 86.4208L35.4705 90.2463L36.104 85.7758L35.377 86.4208Z" fill="#709B2C"/>
<path id="path602" d="M38.1177 83.7684L37.9707 88.4327L39.3441 82.9364L38.1177 83.7684Z" fill="#709B2C"/>
<path id="path604" d="M67.6535 91.3466C72.9831 93.8569 78.7374 95.8055 84.6267 95.6578C90.5165 95.5094 96.5779 92.9768 99.847 88.0761C100.785 86.6695 101.583 85.0054 103.12 84.3035C104.181 83.8197 105.584 83.7872 106.191 82.7912C106.906 81.615 105.923 80.1922 105.261 78.9855C104.192 77.0382 103.945 74.7617 103.303 72.6355C101.436 66.4536 96.0927 61.6593 89.9752 59.5914C83.8583 57.5236 77.0856 57.966 70.9274 59.9092C70.9274 59.9092 64.007 60.6904 59.4688 71.4722C54.9299 82.2546 67.6535 91.3466 67.6535 91.3466Z" fill="#EFDA0E"/>
<path id="path606" d="M89.1409 82.0023C88.1713 81.6073 87.5555 83.1128 88.5264 83.5084C89.4953 83.9035 90.1111 82.3979 89.1409 82.0023Z" fill="#FCF21B"/>
<path id="path608" d="M90.5882 84.3142C89.6186 83.9192 89.0027 85.4247 89.9736 85.8204C90.9425 86.2154 91.5584 84.7099 90.5882 84.3142Z" fill="#FCF21B"/>
<path id="path610" d="M87.9168 84.3969C86.9479 84.0019 86.332 85.5074 87.3023 85.9031C88.2718 86.2981 88.8877 84.7933 87.9168 84.3969Z" fill="#FCF21B"/>
<path id="path612" d="M77.7772 72.6535C77.7772 85.2823 67.5395 95.5206 54.9101 95.5206C42.2807 95.5206 32.043 85.2823 32.043 72.6535C32.043 60.0241 42.2807 49.7858 54.9101 49.7858C67.5395 49.7858 77.7772 60.0241 77.7772 72.6535Z" fill="#FCF21B"/>
<path id="path614" d="M75.9597 72.6537C75.9597 84.2776 66.5364 93.7009 54.9125 93.7009C43.2885 93.7009 33.8652 84.2776 33.8652 72.6537C33.8652 61.029 43.2885 51.6064 54.9125 51.6064C66.5364 51.6064 75.9597 61.029 75.9597 72.6537Z" fill="#FFF9BF"/>
<path id="path616" d="M68.3512 85.6112L57.5776 74.8376C57.1195 74.3796 57.4441 73.5963 58.0918 73.5963H73.3277C73.7519 73.5963 74.0818 73.9588 74.0534 74.3823C73.7763 78.5383 72.1624 82.4335 69.4203 85.5685C69.1405 85.8883 68.6513 85.9114 68.3512 85.6112ZM67.5944 87.3945C64.4594 90.1372 60.5642 91.7504 56.4081 92.0275C55.9847 92.056 55.6222 91.726 55.6222 91.3019V76.066C55.6222 75.4182 56.4054 75.0937 56.8634 75.5517L67.6371 86.3253C67.9372 86.6255 67.9142 87.1147 67.5944 87.3945ZM42.6404 87.3945C42.3206 87.1147 42.2976 86.6255 42.5977 86.3253L53.3714 75.5517C53.8294 75.0937 54.6126 75.4182 54.6126 76.066V91.3019C54.6126 91.726 54.2501 92.056 53.8267 92.0275C49.6706 91.7504 45.7747 90.1372 42.6404 87.3945ZM36.907 73.5963H52.143C52.7907 73.5963 53.1153 74.3796 52.6572 74.8376L45.0383 82.4566L41.8836 85.6112C41.5835 85.9114 41.0943 85.8883 40.8144 85.5685C38.0717 82.4335 36.4585 78.5383 36.1814 74.3823C36.1529 73.9588 36.4822 73.5963 36.907 73.5963ZM40.8144 60.6139C41.0943 60.2948 41.5835 60.2717 41.8836 60.5719L45.0383 63.7259L52.6572 71.3455C53.1153 71.8035 52.7907 72.5868 52.143 72.5868H36.907C36.4822 72.5868 36.1529 72.2243 36.1814 71.8008C36.4585 67.6448 38.0717 63.7489 40.8144 60.6139ZM42.6404 58.7886C45.7747 56.0459 49.6706 54.4327 53.8267 54.1556C54.2501 54.1271 54.6126 54.4564 54.6126 54.8812V70.1171C54.6126 70.7649 53.8294 71.0894 53.3714 70.6314L42.5977 59.8577C42.2976 59.5576 42.3206 59.0684 42.6404 58.7886ZM67.5944 58.7886C67.9142 59.0684 67.9372 59.5576 67.6371 59.8577L56.8634 70.6314C56.4054 71.0894 55.6222 70.7649 55.6222 70.1171V54.8812C55.6222 54.4564 55.9847 54.1271 56.4081 54.1556C60.5642 54.4327 64.4594 56.0459 67.5944 58.7886ZM73.3277 72.5868H58.0918C57.4441 72.5868 57.1195 71.8035 57.5776 71.3455L68.3512 60.5719C68.6513 60.2717 69.1405 60.2948 69.4203 60.6139C72.1624 63.7496 73.7763 67.6448 74.0534 71.8008C74.0818 72.2243 73.7519 72.5868 73.3277 72.5868Z" fill="#F5E50D"/>
<path id="path618" d="M68.1442 85.1732L57.3705 74.3996C56.9125 73.9415 57.237 73.1583 57.8848 73.1583H73.1207C73.5448 73.1583 73.8748 73.5201 73.8464 73.9442C73.5692 78.0996 71.9553 81.9955 69.2133 85.1305C68.9335 85.4503 68.4443 85.4733 68.1442 85.1732ZM67.3874 86.9558C64.2524 89.6985 60.3571 91.3124 56.2011 91.5895C55.7776 91.6173 55.4151 91.288 55.4151 90.8632V75.6273C55.4151 74.9795 56.1984 74.6557 56.6564 75.1137L67.43 85.8873C67.7302 86.1875 67.7072 86.6767 67.3874 86.9558ZM42.4334 86.9558C42.1136 86.6767 42.0906 86.1875 42.3907 85.8873L53.1643 75.1137C53.6224 74.6557 54.4056 74.9795 54.4056 75.6273V90.8632C54.4056 91.288 54.0431 91.6173 53.6196 91.5895C49.4636 91.3124 45.5677 89.6985 42.4334 86.9558ZM36.7 73.1583H51.9359C52.5837 73.1583 52.9082 73.9415 52.4502 74.3996L44.8312 82.0185L41.6766 85.1732C41.3764 85.4733 40.8872 85.4503 40.6074 85.1305C37.8647 81.9955 36.2515 78.1003 35.9744 73.9442C35.9459 73.5201 36.2752 73.1583 36.7 73.1583ZM40.6074 60.1759C40.8872 59.8561 41.3764 59.833 41.6766 60.1339L44.8312 63.2878L52.4502 70.9075C52.9082 71.3648 52.5837 72.1481 51.9359 72.1481H36.7C36.2752 72.1481 35.9459 71.7863 35.9744 71.3621C36.2515 67.2067 37.8647 63.3109 40.6074 60.1759ZM42.4334 58.3506C45.5677 55.6079 49.4636 53.9947 53.6196 53.7169C54.0431 53.6891 54.4056 54.0183 54.4056 54.4432V69.6791C54.4056 70.3268 53.6224 70.6507 53.1643 70.1934L42.3907 59.419C42.0906 59.1189 42.1136 58.6297 42.4334 58.3506ZM67.3874 58.3506C67.7072 58.6297 67.7302 59.1189 67.43 59.419L56.6564 70.1934C56.1984 70.6507 55.4151 70.3268 55.4151 69.6791V54.4432C55.4151 54.0183 55.7776 53.6891 56.2011 53.7169C60.3571 53.9947 64.2524 55.6079 67.3874 58.3506ZM73.1207 72.1481H57.8848C57.237 72.1481 56.9125 71.3648 57.3705 70.9075L68.1442 60.1339C68.4443 59.8337 68.9335 59.8568 69.2133 60.1759C71.9553 63.3109 73.5692 67.2067 73.8464 71.3621C73.8748 71.7863 73.5448 72.1481 73.1207 72.1481Z" fill="#FCF21B"/>
</g>
</svg>
