<svg  viewBox="0 0 122 122" fill="none" xmlns="http://www.w3.org/2000/svg">
<g id="Mango">
<path id="path26" d="M72.0459 33.4165C72.5429 32.8996 74.9475 28.8058 75.1461 26.302C75.9808 25.7255 77.67 26.0237 78.1668 26.779C77.5706 29.3424 74.7487 32.6413 72.841 34.0124C72.2447 34.112 72.0459 33.4165 72.0459 33.4165Z" fill="#79CA2C"/>
<path id="path28" d="M73.5889 30.8431C72.938 32.1347 72.2802 33.1728 72.0459 33.4165C72.0459 33.4165 72.2447 34.112 72.841 34.0124C74.0131 33.1702 75.5297 31.5996 76.6638 29.9193C75.3921 31.0973 74.1235 31.48 73.5889 30.8431Z" fill="#60B732"/>
<path id="path30" d="M73.3159 33.5263C66.1315 28.5785 51.9658 28.7816 44.4174 37.5998C36.7228 46.5889 37.9972 52.1592 31.5839 61.333C26.7993 68.1769 26.3098 72.9358 33.166 77.0671C40.0222 81.1984 54.7017 82.2531 65.9529 73.9026C77.2042 65.5521 80.841 58.2676 81.1783 48.7088C81.3816 42.9476 78.994 37.4368 73.3159 33.5263Z" fill="#F89E17"/>
<path id="path32" d="M73.3162 33.5263C73.1647 33.4217 73.0053 33.323 72.8476 33.2231C79.1362 44.5192 73.4965 66.5468 56.0328 72.1601C40.163 77.2613 30.7408 73.0724 28.3172 67.6399C27.316 71.3359 28.6382 74.3386 33.1663 77.0671C40.0225 81.1984 54.702 82.2531 65.9532 73.9026C77.2045 65.5521 80.8413 58.2676 81.1786 48.7088C81.3819 42.9476 78.9943 37.4368 73.3162 33.5263Z" fill="#F47217"/>
<path id="path34" d="M74.6149 32.3479C73.8025 35.5273 76.052 48.8157 94.6583 53.9609C94.4787 43.7303 92.3821 32.4521 74.6149 32.3479Z" fill="#79CA2C"/>
<path id="path36" d="M74.624 32.3479H74.6149C73.8044 35.5197 76.0426 48.751 94.5252 53.9228C86.2391 39.9503 78.3928 34.2105 74.624 32.3479Z" fill="#5BA833"/>
<path id="path38" d="M53.5981 41.9906C50.1508 45.1541 46.4122 46.6906 45.2483 45.4221C44.0844 44.1537 45.9357 40.5607 49.3832 37.3971C52.8308 34.2336 56.5691 32.6971 57.7332 33.9657C58.8971 35.234 57.0459 38.827 53.5981 41.9906Z" fill="#FFD769"/>
<path id="path40" d="M43.7032 49.7577C43.1632 50.9101 42.1758 51.5868 41.4978 51.2692C40.8198 50.9516 40.7082 49.7596 41.2483 48.6072C41.7883 47.4548 42.7755 46.778 43.4535 47.0957C44.1315 47.4133 44.2433 48.6053 43.7032 49.7577Z" fill="#FABE17"/>
<path id="path42" d="M74.6143 32.3475C79.3578 34.5224 87.327 42.9591 92.911 51.5888C89.3999 44.5242 81.5725 35.2729 74.6143 32.3475Z" fill="#468432"/>
<path id="path44" d="M78.2725 38.7996C78.2948 38.1727 78.3603 37.554 78.4412 36.9382C78.5193 36.3217 78.6232 35.7102 78.732 35.0994L78.7632 34.923L78.9425 34.917C79.5624 34.8963 80.1825 34.8812 80.8036 34.892C81.4247 34.9002 82.0465 34.9242 82.6698 34.9924C82.0537 35.11 81.436 35.183 80.8173 35.2404C80.1991 35.3004 79.5797 35.3345 78.9601 35.3631L79.1706 35.1808C79.0532 35.7899 78.9308 36.398 78.7826 37.0016C78.6371 37.6054 78.4765 38.2066 78.2725 38.7996Z" fill="#468432"/>
<path id="path46" d="M81.9932 44.2889C82.0796 43.3564 82.2092 42.4323 82.354 41.5111C82.4961 40.5895 82.6637 39.6728 82.8366 38.7572L82.8707 38.5754L83.0558 38.5764C83.8672 38.5802 84.6789 38.5896 85.4904 38.6251C86.3019 38.6578 87.1136 38.7065 87.9251 38.7994C87.1136 38.8923 86.3019 38.9411 85.4904 38.9737C84.6789 39.0093 83.8672 39.0186 83.0558 39.0225L83.2747 38.8419C83.0932 39.7559 82.9069 40.6689 82.6949 41.5772C82.4856 42.4856 82.2609 43.3915 81.9932 44.2889Z" fill="#468432"/>
<path id="path48" d="M86.4189 47.1219C86.4612 46.4639 86.5467 45.8147 86.6475 45.1684C86.7452 44.5219 86.8689 43.8804 86.9973 43.2401L87.0331 43.061L87.2158 43.0622C87.742 43.0663 88.2685 43.0756 88.7948 43.1111C89.321 43.1438 89.8473 43.1925 90.3736 43.2854C89.8473 43.3784 89.321 43.4271 88.7948 43.4597C88.2685 43.4953 87.742 43.5046 87.2158 43.5087L87.4342 43.3308C87.2972 43.9692 87.155 44.6068 86.9875 45.239C86.8223 45.8718 86.6422 46.5013 86.4189 47.1219Z" fill="#468432"/>
<path id="path50" d="M90.2864 50.3095C90.254 49.9068 90.2653 49.511 90.2919 49.1175C90.3157 48.7237 90.3654 48.3336 90.4202 47.9444L90.4478 47.7464L90.6473 47.7548C90.9767 47.7685 91.306 47.7879 91.6345 47.8333C91.9631 47.8758 92.2913 47.9341 92.6181 48.0369C92.2856 48.1199 91.9545 48.1586 91.6242 48.1816C91.2933 48.2071 90.9637 48.2068 90.6341 48.2008L90.8614 48.0114C90.7978 48.3994 90.7296 48.7864 90.6353 49.1698C90.5436 49.5532 90.437 49.9347 90.2864 50.3095Z" fill="#468432"/>
<path id="path52" d="M32.7255 73.1945C31.9598 76.1175 33.5746 85.5464 42.2322 87.8428C50.2456 89.9682 62.838 86.0477 70.4337 80.3804C78.2399 74.5555 82.6507 67.1291 81.1082 61.3989C78.8764 61.9996 32.7255 73.1945 32.7255 73.1945Z" fill="#EEF047"/>
<path id="path54" d="M80.3584 61.5924C81.3391 67.2845 77.2013 73.8872 70.1134 79.2803C62.7451 84.8862 50.8573 88.2725 42.6655 86.5399C35.0547 84.9299 33.0049 76.916 33.1461 73.0922C32.8757 73.158 32.7255 73.1945 32.7255 73.1945C31.9598 76.1175 33.5746 85.5464 42.2322 87.8428C50.2456 89.9682 62.838 86.0477 70.4337 80.3804C78.2399 74.5555 82.6507 67.1291 81.1082 61.3989C81.0177 61.4234 80.5872 61.5348 80.3584 61.5924Z" fill="#F89E17"/>
<path id="path56" d="M42.9485 84.4401C52.8076 85.8734 61.0527 82.6964 68.5391 77.6708C75.3639 73.0893 79.2261 66.5563 78.4295 62.0672C69.3703 64.3 40.7443 71.2479 34.1113 72.8574C34.2998 76.6896 36.4768 83.4992 42.9485 84.4401Z" fill="#EEEE24"/>
<path id="path66" d="M77.3076 62.3438H81.1057V61.399H77.3076V62.3438Z" fill="#F8CF8C"/>
<path id="path68" d="M42.2144 87.8382C42.2122 87.8375 42.2103 87.837 42.2082 87.8365C42.2103 87.837 42.2122 87.8375 42.2144 87.8382ZM42.1993 87.8341C42.1971 87.8334 42.1949 87.8329 42.1928 87.8322C42.1947 87.8329 42.1971 87.8334 42.1993 87.8341ZM42.182 87.8296C42.1803 87.8291 42.1786 87.8286 42.1767 87.8281C42.1784 87.8284 42.1805 87.8291 42.182 87.8296ZM42.1633 87.8243C42.1621 87.8241 42.1606 87.8238 42.1594 87.8233C42.1611 87.8238 42.1618 87.8241 42.1633 87.8243ZM42.146 87.8197C42.1455 87.8195 42.145 87.8195 42.1445 87.8193C42.145 87.8195 42.1455 87.8195 42.146 87.8197Z" fill="#DA9A65"/>
<path id="path70" d="M73.2412 63.3409C74.7789 62.9649 76.1536 62.6281 77.3101 62.3438V62.3441C76.1536 62.6281 74.7787 62.9649 73.2412 63.3409Z" fill="#F06219"/>
<path id="path72" d="M47.3505 86.9945C45.7016 86.9945 44.125 86.8485 42.6646 86.5395C41.5237 86.2982 40.5079 85.9129 39.6055 85.4195L41.5295 84.1224C41.9779 84.2607 42.4507 84.3678 42.9491 84.4403C44.56 84.6743 46.1294 84.7855 47.6578 84.7855C55.4839 84.786 62.2765 81.8755 68.5397 77.6709C75.3645 73.0895 79.2267 66.5564 78.4301 62.0674C76.7951 62.4705 74.5216 63.0272 71.856 63.6783L71.8562 63.6781C72.3304 63.5624 72.7923 63.4495 73.2403 63.3401C74.7778 62.9641 76.1527 62.6273 77.3092 62.3433C79.1967 61.8794 80.502 61.556 80.9846 61.4307C80.8146 61.4751 80.5291 61.5486 80.3575 61.592C81.3382 67.2841 77.2004 73.8868 70.1125 79.28C64.0579 83.8864 54.9502 86.9945 47.3505 86.9945ZM81.1048 61.3993C81.1051 61.3993 81.1051 61.3993 81.1051 61.399L81.1048 61.3993ZM81.1058 61.399C81.1063 61.3988 81.1068 61.3988 81.1072 61.3985C81.1068 61.3988 81.1063 61.3988 81.1058 61.399Z" fill="#F5D330"/>
<path id="path74" d="M47.183 88.429C45.4127 88.429 43.7396 88.243 42.2302 87.8428C42.2254 87.8413 42.2206 87.8401 42.2158 87.8389C42.2136 87.8382 42.2117 87.8377 42.2095 87.8372C42.2066 87.8363 42.2035 87.8356 42.2006 87.8348C42.1985 87.8341 42.1961 87.8336 42.1942 87.8329C42.1906 87.832 42.187 87.8312 42.1834 87.8303C42.1819 87.8298 42.1798 87.8291 42.1781 87.8288C42.1738 87.8276 42.1692 87.8264 42.1646 87.825C42.1632 87.8248 42.1625 87.8245 42.1608 87.824C42.1562 87.8228 42.1519 87.8216 42.1473 87.8204C42.1469 87.8202 42.1464 87.8202 42.1459 87.82C40.7467 87.4394 39.5367 86.8685 38.4883 86.1723L39.6044 85.4199C40.5069 85.9132 41.5227 86.2986 42.6635 86.5399C44.1239 86.8488 45.7005 86.9948 47.3494 86.9948C54.9492 86.9948 64.0569 83.8867 70.1114 79.2803C77.1993 73.8871 81.3371 67.2844 80.3564 61.5924C80.5281 61.5489 80.8135 61.4754 80.9835 61.431C80.9873 61.4301 80.9914 61.4291 80.995 61.4282C81.0373 61.4171 81.0726 61.408 81.1011 61.4003C81.1021 61.4001 81.103 61.3998 81.1038 61.3996L81.104 61.3993C81.1042 61.3993 81.1045 61.3993 81.1047 61.3993C81.1052 61.3991 81.1057 61.3991 81.1062 61.3989C81.3117 62.1628 81.4116 62.9567 81.4118 63.773C81.4125 69.0805 77.1974 75.3319 70.4317 80.3803C64.2667 84.9803 54.8114 88.429 47.183 88.429Z" fill="#F68518"/>
<path id="path76" d="M47.6556 84.7845C46.1273 84.7845 44.5579 84.6733 42.9469 84.4392C42.4485 84.3667 41.9758 84.2597 41.5273 84.1214L71.8541 63.6771C74.5194 63.0262 76.793 62.4695 78.428 62.0664C79.2245 66.5554 75.3624 73.0885 68.5376 77.6699C62.2744 81.8745 55.4818 84.785 47.6556 84.7845Z" fill="#F6CE17"/>
<path id="path78" d="M45.5391 86.0041C45.9544 88.9972 51.0662 97.0831 59.9415 95.8792C68.1571 94.7647 78.2784 86.3093 83.1158 78.16C88.0871 69.7841 89.3079 61.2334 85.6832 56.5345C83.8533 57.9464 45.5391 86.0041 45.5391 86.0041Z" fill="#EEF047"/>
<path id="path80" d="M85.0652 57.0012C88.1565 61.8804 86.8711 69.5656 82.3972 77.2669C77.7468 85.2726 68.0706 92.9641 59.8414 94.5095C52.196 95.9456 47.2261 89.3331 45.8881 85.7485C45.6637 85.9129 45.5391 86.0041 45.5391 86.0041C45.9544 88.9972 51.0662 97.0831 59.9415 95.8792C68.1568 94.7647 78.2784 86.3093 83.1158 78.16C88.0871 69.7841 89.3079 61.2334 85.6832 56.5345C85.609 56.5919 85.2542 56.8601 85.0652 57.0012Z" fill="#F89E17"/>
<path id="path82" d="M59.2988 92.4628C68.9526 90.0003 75.3455 83.9011 80.3281 76.3861C84.8704 69.5354 85.928 62.0199 83.4686 58.1808C75.9615 63.7211 52.1979 81.1284 46.6914 85.1612C48.3369 88.6273 52.9621 94.079 59.2988 92.4628Z" fill="#EEEE24"/>
</g>
</svg>
