<svg  viewBox="0 0 122 122" fill="none" xmlns="http://www.w3.org/2000/svg">
<g id="Peach">
<path id="path11164" d="M62.1602 40.6255C61.3372 42.7799 60.9313 45.1409 61.2499 47.4419C61.3713 48.3194 61.8177 49.3911 61.6495 50.2842C61.4387 51.4015 60.7295 52.2113 60.8855 53.4419C61.0916 55.0641 63.3242 56.2295 64.4938 54.6979C65.045 53.9761 65.6005 53.2582 66.1581 52.5416C67.4895 51.6601 68.9561 50.9116 70.1967 50.0777C72.3409 48.6373 74.3701 46.7318 75.312 44.2699C76.0945 42.2242 75.9833 40.1063 75.6594 37.9786C75.3512 35.9539 74.9099 33.9239 75.5148 31.9134C75.9877 30.3414 74.0875 29.6014 72.9323 30.1558C68.3522 32.3519 64.0243 35.7473 62.1602 40.6255" fill="#2B612C"/>
<path id="path11174" d="M61.6883 49.8506C61.6883 49.8304 61.6878 49.8109 61.6875 49.7907C61.9995 49.2943 62.3235 48.7972 62.6479 48.2903C62.8263 48.0115 63.0047 47.7333 63.1833 47.4545C63.1581 47.575 63.137 47.6955 63.121 47.8154C63.0951 48.0089 63.2936 48.1607 63.4775 48.1607C63.5353 48.1607 63.5916 48.1457 63.6388 48.1125C64.5123 47.5021 64.9187 46.6779 65.5019 45.7835C66.3264 44.519 67.1675 43.2669 68.0004 42.0082C69.5026 39.7378 70.8348 37.4792 71.8507 34.9508C71.8993 34.8303 71.7876 34.7385 71.6787 34.7385C71.6367 34.7385 71.5949 34.7528 71.5631 34.7834C71.3657 34.9769 71.1728 35.1724 70.9839 35.3697C71.3308 34.8375 71.6766 34.3046 72.0197 33.7697C72.7462 32.6355 73.5771 31.2792 74.5528 30.1078C75.134 30.3209 75.5893 30.7795 75.5903 31.4342C75.5905 31.5841 75.5671 31.7437 75.5162 31.913C75.2964 32.6433 75.2147 33.3762 75.2147 34.1105C75.2144 35.3978 75.4646 36.689 75.6608 37.9782C75.805 38.9261 75.9071 39.8714 75.9069 40.8095C75.9066 41.9776 75.7476 43.1346 75.3134 44.2695C74.8727 45.4213 74.1937 46.4519 73.3763 47.3698C72.7981 47.2441 72.2406 47.1613 71.7224 47.1268C71.5382 47.1151 71.3601 47.1092 71.1875 47.1092C68.5653 47.1092 67.2171 48.4467 64.8566 49.3144C63.8168 49.6969 62.7589 49.848 61.6883 49.8506" fill="#2B5324"/>
<path id="path11176" d="M60.904 52.407C61.9708 49.7653 62.5258 47.5393 61.711 44.6923C61.1038 42.5698 59.427 39.5092 56.8946 39.4995C56.1729 39.4975 55.8197 40.1477 55.9159 40.7848C56.1773 42.5151 57.8413 44.1451 58.5847 45.7327C59.4168 47.5093 60.1421 50.1347 59.7756 52.0956C59.6354 52.8468 60.624 53.0995 60.904 52.407" fill="#351514"/>
<path id="path11178" d="M46.2977 48.5094C44.4596 49.1935 42.8798 50.4482 41.5335 51.8749C37.085 56.5883 35.0217 63.3473 35.678 69.7949C36.3343 76.2438 39.5993 82.3175 44.3402 86.737C46.0261 88.3084 47.9136 89.6953 50.0345 90.5983C53.232 91.9591 56.7859 92.1578 60.2564 92.3382C65.1247 92.5917 70.2336 92.7989 74.6213 90.6752C78.8865 88.6113 81.9358 84.5136 83.4923 80.0386C85.0487 75.5637 86.2666 69.5304 85.9482 64.8027C85.5843 59.402 84.7331 55.3173 81.0546 51.3453C79.0198 49.1492 74.7148 47.3238 71.7238 47.1264C68.7401 46.9309 67.3737 48.3889 64.858 49.314C61.9332 50.3896 58.8675 49.6365 55.7656 48.8827C52.6101 48.116 49.4171 47.3498 46.2977 48.5094" fill="#F57C1B"/>
<path id="path11188" d="M72.1212 78.121C70.8083 77.5333 69.8148 76.7158 69.4822 75.8727C69.154 75.0408 68.1887 74.5568 67.2794 74.5568C66.9016 74.5568 66.5333 74.6408 66.2244 74.8174C62.9556 76.6929 58.4365 77.8675 54.0193 77.8675C50.7418 77.8682 47.5204 77.2206 44.9061 75.7333C44.2487 74.3307 43.7031 72.8949 43.2771 71.4734C41.8243 66.6264 41.598 61.2121 43.3665 56.4081C43.6698 55.5834 44.064 54.7762 44.5457 54.0257C44.0337 56.4381 44.2869 59.0257 45.5176 61.431C46.277 62.9163 47.244 64.1711 48.3634 65.2115C48.3861 65.5926 48.4263 65.973 48.4813 66.3509C48.2721 68.9138 48.5655 71.4629 50.2181 73.6115C51.6305 75.4486 53.7864 76.6278 56.0179 76.6278C56.8878 76.6278 57.769 76.4486 58.6223 76.0597C61.4727 74.7594 62.8032 71.8981 63.0675 68.9353C64.1685 68.7522 65.2535 68.4857 66.3033 68.1405C66.4954 68.0773 66.7 68.048 66.9087 68.048C67.9528 68.048 69.0998 68.7919 69.2812 69.8317C69.6662 72.0376 71.3504 73.5314 73.3462 74.332C72.9828 75.6141 72.5566 76.8799 72.1212 78.121Z" fill="#F46C17"/>
<path id="path11190" d="M53.074 84.6773C52.5498 84.6773 52.0294 84.6642 51.5146 84.6369C48.7321 82.3105 46.4932 79.1189 44.9062 75.7339C47.5205 77.2212 50.742 77.8688 54.0195 77.8681C58.4367 77.8681 62.9557 76.6935 66.2245 74.8179C66.5335 74.6414 66.9017 74.5573 67.2796 74.5573C68.1889 74.5573 69.1541 75.0414 69.4824 75.8733C69.815 76.7163 70.8085 77.5339 72.1214 78.1215C71.8954 78.7658 71.6669 79.403 71.4435 80.0323C71.2717 80.5163 71.2164 81.016 71.2574 81.5072C71.2035 81.4343 71.1558 81.36 71.1149 81.2844C70.7836 80.674 70.0479 80.3528 69.3338 80.3528C68.9032 80.3528 68.4808 80.4701 68.1593 80.7098C65.0025 83.0708 58.8227 84.6773 53.074 84.6773" fill="#F35F19"/>
<path id="path11192" d="M65.2558 91.4581C65.0568 91.1792 64.8135 90.944 64.5257 90.7525C63.9857 90.2835 63.4152 89.989 62.7845 89.6808C61.3592 88.9831 59.9005 88.4118 58.3897 87.9303C55.9619 87.159 53.636 86.3805 51.6337 84.7336C51.5943 84.701 51.5551 84.6684 51.5156 84.6359C52.0305 84.6632 52.5509 84.6763 53.0751 84.6763C58.8238 84.6763 65.0036 83.0697 68.1604 80.7088C68.4818 80.4691 68.9043 80.3518 69.3349 80.3518C70.049 80.3518 70.7847 80.673 71.116 81.2834C71.1569 81.359 71.2045 81.4332 71.2585 81.5062C71.4066 83.2841 72.8113 84.9609 74.5082 85.4274C74.7156 85.4847 74.9212 85.5258 75.1243 85.5525C73.7559 87.4626 72.1886 89.2378 70.0115 90.2385C68.4625 90.9506 66.8631 91.217 65.2558 91.4581" fill="#F2551A"/>
<path id="path11194" d="M82.3957 73.8036C82.7304 72.1514 82.9584 70.4869 83.0337 68.8113C85.5615 65.0178 82.4627 58.9155 79.7814 56.0549C79.4784 55.7311 79.1483 55.4087 78.7958 55.1012C78.3773 54.6223 77.9303 54.1689 77.4568 53.7461C76.4124 52.8132 74.0452 51.0979 72.0712 50.793C71.1986 50.4191 70.2952 50.1181 69.3933 49.8855C68.4062 49.6308 67.4152 49.52 66.4065 49.52C66.1873 49.52 65.967 49.5252 65.7458 49.5357C65.2555 49.5578 64.7997 49.6093 64.3643 49.6093C64.2241 49.6093 64.0859 49.6041 63.9492 49.5904C64.2538 49.5168 64.5572 49.4249 64.8587 49.3142C67.2193 48.4464 68.5675 47.1089 71.1897 47.1089C71.3622 47.1089 71.5403 47.1148 71.7246 47.1265C74.7155 47.3239 79.0206 49.1493 81.0554 51.3455C84.7339 55.3175 85.5851 59.4022 85.949 64.8029C85.9834 65.311 85.9997 65.8335 85.9999 66.3683C86.0007 68.0139 85.8475 69.769 85.5833 71.5293C85.4596 71.6185 85.3377 71.7195 85.2187 71.8316C84.3748 72.6296 83.421 73.2915 82.3957 73.8036" fill="#F78D1D"/>
<path id="path11196" d="M81.7598 76.4954C81.9979 75.6029 82.2122 74.7052 82.3944 73.8042C83.4197 73.2921 84.3735 72.6302 85.2174 71.8322C85.3365 71.7201 85.4584 71.6192 85.5821 71.5299C85.4718 72.2641 85.3423 73.0003 85.1971 73.7293C85.0207 73.6967 84.8443 73.6798 84.6703 73.6798C83.7992 73.6798 82.9897 74.1039 82.5581 75.1065C82.3334 75.629 82.0644 76.0902 81.7598 76.4954" fill="#F6841C"/>
<path id="path11198" d="M79.8438 82.5162C79.8633 82.466 79.8819 82.4152 79.9 82.3644C80.5822 80.4315 81.2283 78.4738 81.7561 76.4953C82.0608 76.0901 82.3298 75.6288 82.5545 75.1064C82.986 74.1037 83.7956 73.6796 84.6666 73.6796C84.8407 73.6796 85.0171 73.6966 85.1934 73.7292C84.918 75.1077 84.5852 76.4627 84.216 77.7435C83.4207 77.8126 82.7209 78.2679 82.4412 79.2223C81.9752 80.8119 81.0171 81.8693 79.8438 82.5162" fill="#F57B1C"/>
<path id="path11200" d="M65.8827 92.4815C65.7854 92.2835 65.661 92.0977 65.5101 91.9311C65.4813 91.8631 65.4503 91.7896 65.4162 91.7095C65.3663 91.6222 65.3129 91.5382 65.2559 91.4587C66.8632 91.2176 68.4626 90.9512 70.0116 90.2391C72.1887 89.2385 73.756 87.4632 75.1244 85.5531C75.3089 85.5766 75.4914 85.5883 75.671 85.5883C77.5547 85.5883 79.1533 84.3127 79.8486 82.516C81.0219 81.8691 81.9801 80.8117 82.4461 79.2221C82.7257 78.2677 83.4255 77.8124 84.2208 77.7433C83.9905 78.542 83.7462 79.3107 83.493 80.0391C81.9365 84.514 78.8871 88.6118 74.622 90.6756C71.9088 91.989 68.9199 92.4105 65.8827 92.4815" fill="#F4741A"/>
<path id="path11202" d="M44.5449 54.026C45.0144 51.8136 46.128 49.7491 47.7206 48.1087C48.4033 47.9739 49.0889 47.9165 49.776 47.9165C50.8881 47.9165 52.0047 48.067 53.1201 48.284C53.1178 48.2879 53.1153 48.2918 53.113 48.295C52.897 48.5035 52.6654 48.6931 52.4183 48.8631C51.8958 49.185 51.2158 49.3439 50.6377 49.5348C49.4683 49.9205 48.4901 50.4012 47.4477 51.0631C46.2723 51.8104 45.3007 52.8488 44.5449 54.026" fill="#F36118"/>
<path id="path11204" d="M44.9055 75.7338C43.629 75.0074 42.4979 74.0804 41.5754 72.9305C39.3988 70.2171 37.2477 66.0399 36.1875 61.9989C37.0721 58.2301 38.8774 54.6887 41.5323 51.8757C42.8786 50.449 44.4584 49.1942 46.2964 48.5102C46.7698 48.3343 47.2444 48.2027 47.7208 48.1089C46.1282 49.7493 45.0147 51.8138 44.5452 54.0262C44.0634 54.7767 43.6692 55.5838 43.3659 56.4086C41.5975 61.2125 41.8237 66.6269 43.2766 71.4738C43.7026 72.8953 44.2482 74.3312 44.9055 75.7338" fill="#F2571A"/>
<path id="path11206" d="M51.515 84.6368C47.693 84.4336 44.2135 83.457 42.1501 81.442C40.5268 79.8576 38.5386 77.5827 36.8295 75.1312C36.2554 73.4016 35.863 71.6133 35.6779 69.7957C35.5986 69.0152 35.5588 68.2295 35.5586 67.4439C35.5578 65.6132 35.7703 63.7807 36.1887 61.9989C37.2489 66.04 39.3999 70.2172 41.5766 72.9306C42.4991 74.0804 43.6302 75.0074 44.9067 75.7338C46.4936 79.1189 48.7325 82.3104 51.515 84.6368" fill="#F14C1C"/>
<path id="path11208" d="M61.1154 92.3831C60.8286 92.3687 60.542 92.3544 60.257 92.3394C56.7865 92.159 53.2326 91.9602 50.0351 90.5994C47.9142 89.6965 46.0267 88.3095 44.3408 86.7382C40.9361 83.5642 38.2929 79.5381 36.8301 75.1316C38.5392 77.5831 40.5274 79.858 42.1507 81.4424C44.2141 83.4573 47.6936 84.4339 51.5156 84.6372C51.5551 84.6697 51.5942 84.7023 51.6337 84.7349C53.6359 86.3818 55.9619 87.1603 58.3897 87.9316C59.9005 88.4131 61.3592 88.9844 62.7845 89.6821C63.4152 89.9903 63.9856 90.2847 64.5256 90.7538C64.8135 90.9453 65.0568 91.1805 65.2557 91.4593C64.1088 91.6307 62.9583 91.7897 61.8191 92.088C61.5579 92.1564 61.3233 92.2567 61.1154 92.3831" fill="#F0451D"/>
<path id="path11210" d="M64.8756 92.4934C63.6209 92.4934 62.3621 92.4437 61.1152 92.3826C61.3231 92.2562 61.5578 92.1559 61.8189 92.0874C62.9582 91.7892 64.1087 91.6302 65.2556 91.4588C65.3126 91.5383 65.3661 91.6224 65.4159 91.7097C65.45 91.7897 65.4811 91.8633 65.5099 91.9312C65.6607 92.0979 65.7852 92.2837 65.8824 92.4817C65.547 92.4895 65.2116 92.4934 64.8756 92.4934" fill="#F25C19"/>
<path id="path11214" d="M59.5597 69.2267C55.417 69.2267 51.3458 67.983 48.3617 65.211C48.3521 65.0501 48.3455 64.8898 48.3424 64.7289C48.277 61.4305 49.4647 57.8142 52.4953 56.108C53.5971 55.4872 54.6113 55.2142 55.5386 55.2142C60.5725 55.2142 63.0509 63.2677 63.1147 67.6058C63.1211 68.0475 63.1053 68.4925 63.0659 68.9348C61.907 69.127 60.7303 69.2267 59.5597 69.2267Z" fill="#F6811B"/>
<path id="path11216" d="M56.0178 76.6271C53.7862 76.6271 51.6303 75.4479 50.2179 73.6108C48.5654 71.4623 48.2719 68.9131 48.4811 66.3502C48.4261 65.9723 48.386 65.5919 48.3633 65.2108C51.3473 67.9828 55.4185 69.2264 59.5612 69.2264C60.7318 69.2264 61.9085 69.1267 63.0674 68.9346C62.803 71.8974 61.4726 74.7587 58.6222 76.059C57.7689 76.448 56.8876 76.6271 56.0178 76.6271Z" fill="#F47418"/>
<path id="path11218" d="M77.1717 75.0412C76.7449 75.0412 76.3166 75.0171 75.8886 74.9689C75.0338 74.8725 74.1629 74.6601 73.3448 74.3324C74.1579 71.462 74.6549 68.5109 74.2317 65.5753C73.8973 63.2548 72.929 61.3551 71.6469 59.432C70.3903 57.5479 68.4473 54.9147 69.209 52.5225C69.6228 51.2228 70.4728 50.7466 71.4879 50.7466C71.6764 50.7466 71.8704 50.7629 72.0683 50.7935C73.3203 51.3303 74.5088 52.0189 75.5394 52.8769C75.7458 53.0482 75.9451 53.2267 76.1379 53.4105C75.7183 53.2417 75.2865 53.116 74.8475 53.0463C74.7243 53.0267 74.5994 53.0176 74.4741 53.0176C73.3443 53.0176 72.2134 53.7987 72.575 55.0802C72.6256 55.2606 72.7272 55.432 72.8618 55.574C73.2087 56.2202 73.5507 57.2984 73.8423 57.972C74.3171 59.0691 74.6777 60.159 74.988 61.316C75.6405 63.7486 75.3097 66.8841 76.6591 69.0145C77.4129 70.204 78.5245 70.7519 79.6521 70.7519C80.1689 70.7519 80.6888 70.6366 81.1797 70.4158C81.1179 71.7878 80.9677 73.15 80.6906 74.494C79.5584 74.8529 78.371 75.0412 77.1717 75.0412" fill="#F6811B"/>
<path id="path11220" d="M76.2374 79.0008C74.7726 79.0015 73.3139 78.6562 72.1191 78.1213C72.5545 76.8803 72.9808 75.6145 73.3442 74.3324C74.1623 74.6601 75.0332 74.8725 75.888 74.9689C76.316 75.0171 76.7443 75.0412 77.1711 75.0412C78.3704 75.0412 79.5578 74.8529 80.69 74.494C80.5302 75.2679 80.3286 76.0353 80.0772 76.7949C79.9052 77.3155 79.7067 77.8269 79.4866 78.3298C78.4768 78.8002 77.3553 79.0008 76.2374 79.0008" fill="#F47418"/>
<path id="path11222" d="M76.3003 83.3555C74.1174 83.3562 72.035 82.5614 71.257 81.506C71.2161 81.0148 71.2713 80.5151 71.4431 80.0311C71.6665 79.4017 71.895 78.7646 72.121 78.1203C73.3158 78.6552 74.7745 79.0004 76.2393 78.9998C77.3572 78.9998 78.4787 78.7991 79.4885 78.3288C78.7199 80.0877 77.6906 81.749 76.6263 83.3497C76.5177 83.3536 76.4085 83.3555 76.3003 83.3555" fill="#F36817"/>
<path id="path11224" d="M75.1236 85.5523C74.9206 85.5256 74.7149 85.4846 74.5075 85.4272C72.8107 84.9608 71.406 83.2839 71.2578 81.506C72.0357 82.5614 74.1182 83.3562 76.3011 83.3556C76.4092 83.3556 76.5184 83.3536 76.6271 83.3497C76.3418 83.779 76.0543 84.2038 75.7685 84.6246C75.5575 84.9354 75.343 85.2455 75.1236 85.5523Z" fill="#F35E19"/>
<path id="path11226" d="M80.6895 74.4938C80.9666 73.1498 81.1168 71.7876 81.1786 70.4156C81.8242 70.125 82.4187 69.6514 82.8879 69.0142C82.937 68.9478 82.9844 68.88 83.0297 68.8116C82.9544 70.4872 82.7263 72.1517 82.3917 73.8039C81.843 74.0775 81.2735 74.3081 80.6895 74.4938" fill="#F7911E"/>
<path id="path11228" d="M79.4902 78.3296C79.7104 77.8267 79.9088 77.3153 80.0809 76.7948C80.3323 76.0351 80.5338 75.2677 80.6936 74.4938C81.2777 74.3081 81.8472 74.0775 82.3959 73.8039C82.2136 74.7048 81.9994 75.6026 81.7612 76.4951C81.1328 77.3309 80.3519 77.9283 79.4902 78.3296" fill="#F6891D"/>
<path id="path11230" d="M76.627 83.3508C77.6912 81.7501 78.7206 80.0889 79.4891 78.3299C80.3508 77.9286 81.1317 77.3312 81.7601 76.4953C81.2323 78.4739 80.5861 80.4315 79.9039 82.3644C79.8858 82.4153 79.8672 82.4661 79.8477 82.5162C78.8705 83.0556 77.7436 83.3097 76.627 83.3508" fill="#F6811C"/>
<path id="path11232" d="M75.6677 85.588C75.4881 85.588 75.3056 85.5763 75.1211 85.5528C75.3404 85.246 75.555 84.9359 75.7659 84.6251C76.0517 84.2043 76.3393 83.7795 76.6246 83.3502C77.7412 83.3092 78.8681 83.0551 79.8453 82.5157C79.15 84.3124 77.5514 85.588 75.6677 85.588" fill="#F57B1D"/>
<path id="path11234" d="M78.7949 55.1018C78.0055 54.4132 77.1041 53.7982 76.1399 53.4106C75.9471 53.2269 75.7478 53.0484 75.5414 52.8771C74.5108 52.0191 73.3223 51.3305 72.0703 50.7937C74.0443 51.0985 76.4114 52.8139 77.4559 53.7468C77.9294 54.1696 78.3763 54.623 78.7949 55.1018" fill="#F7911E"/>
<path id="path11236" d="M83.0328 68.8118C83.129 66.6795 82.9774 64.5297 82.4826 62.3674C81.8739 59.7068 80.597 57.1641 78.7949 55.1016C79.1474 55.4091 79.4775 55.7316 79.7805 56.0553C82.4618 58.9159 85.5606 65.0183 83.0328 68.8118Z" fill="#F89D35"/>
<path id="path11238" d="M79.6555 70.7515C78.5279 70.7515 77.4164 70.2036 76.6625 69.014C75.3131 66.8837 75.6439 63.7482 74.9914 61.3156C74.6812 60.1586 74.3206 59.0687 73.8457 57.9716C73.5541 57.298 73.2121 56.2198 72.8652 55.5736C72.7306 55.4316 72.629 55.2602 72.5784 55.0798C72.2168 53.7983 73.3477 53.0172 74.4776 53.0172C74.6028 53.0172 74.7277 53.0263 74.8509 53.0459C75.2899 53.1156 75.7217 53.2413 76.1414 53.41C79.8001 56.9013 81.0213 62.4883 81.1905 67.3476C81.2261 68.373 81.2289 69.3965 81.1831 70.4154C80.6923 70.6362 80.1723 70.7515 79.6555 70.7515" fill="#F79432"/>
<path id="path11240" d="M81.1785 70.416C81.2243 69.3971 81.2215 68.3736 81.1859 67.3482C81.0167 62.4889 79.7954 56.9019 76.1367 53.4106C77.101 53.7983 78.0023 54.4133 78.7917 55.1019C80.5937 57.1644 81.8707 59.7071 82.4794 62.3677C82.9742 64.5299 83.1258 66.6798 83.0296 68.812C82.9843 68.8804 82.937 68.9482 82.8878 69.0146C82.4186 69.6518 81.8241 70.1254 81.1785 70.416" fill="#F8A035"/>
<path id="path11242" d="M63.1836 47.4539C63.6376 45.2949 65.5144 43.0434 66.6329 41.2082C67.9251 39.0864 69.2866 37.145 70.9842 35.3691C69.726 37.3001 68.4506 39.2186 67.2159 41.1652C65.8819 43.2682 64.5286 45.3581 63.1836 47.4539" fill="#317432"/>
<path id="path11244" d="M63.478 48.1608C63.294 48.1608 63.0955 48.009 63.1214 47.8155C63.1375 47.6956 63.1586 47.5751 63.1838 47.4546C64.5287 45.3588 65.882 43.2689 67.2161 41.1659C68.4508 39.2193 69.7262 37.3008 70.9843 35.3698C71.1732 35.1724 71.3661 34.977 71.5636 34.7835C71.5954 34.7529 71.6371 34.7385 71.6791 34.7385C71.788 34.7385 71.8997 34.8304 71.8511 34.9509C70.8352 37.4793 69.503 39.7379 68.0009 42.0083C67.1679 43.2669 66.3269 44.519 65.5024 45.7835C64.9191 46.678 64.5127 47.5021 63.6393 48.1125C63.592 48.1458 63.5358 48.1608 63.478 48.1608" fill="#306D2F"/>
</g>
</svg>
