<svg viewBox="0 0 100 100" fill="none" xmlns="http://www.w3.org/2000/svg">
<g id="Watermelon" clip-path="url(#clip0)">
<path id="path606" d="M15.6199 72.1665C15.6199 72.1665 61.0313 16.7218 68.9724 4.60979C68.9724 4.60979 100.759 37.7668 73.4309 66.8051C44.7448 97.286 15.6199 72.1665 15.6199 72.1665Z" fill="url(#paint0_linear)"/>
<path id="path622" d="M17.7316 69.8245C17.7316 69.8245 61.0329 16.7221 68.974 4.61005C68.974 4.61005 97.6895 36.8967 73.3685 62.8608C50.3812 87.3999 17.7316 69.8245 17.7316 69.8245Z" fill="url(#paint1_linear)"/>
<path id="path624" d="M19.3078 67.8741C19.3078 67.8741 61.0327 16.7224 68.9738 4.61042C68.9738 4.61042 92.8242 37.9725 70.4128 60.1715C48.002 82.3702 19.3078 67.8741 19.3078 67.8741Z" fill="#FE7562"/>
<path id="path626" d="M68.9728 4.61098C68.9728 4.61098 28.0944 61.5566 26.2026 63.3674C24.3106 65.1768 55.3138 71.9685 70.5256 52.1357C85.7383 32.3031 68.9728 4.61098 68.9728 4.61098Z" fill="#FD2A28"/>
<path id="path628" d="M65.0337 23.2589C65.439 23.9283 65.4303 24.679 65.0086 24.9343C64.5903 25.1876 63.9217 24.8469 63.5164 24.1775C63.1108 23.5075 63.1189 22.7571 63.5372 22.5039C63.9588 22.2486 64.6281 22.5889 65.0337 23.2589Z" fill="#7E1427"/>
<path id="path630" d="M69.3856 32.5752C69.7913 33.2451 69.7817 33.9956 69.3612 34.2503C68.9423 34.5038 68.2745 34.1634 67.8689 33.4934C67.4633 32.8235 67.4712 32.074 67.89 31.8204C68.3106 31.5658 68.98 31.9052 69.3856 32.5752Z" fill="#7E1427"/>
<path id="path632" d="M57.3013 35.5096C57.7069 36.1796 57.6989 36.9299 57.2777 37.1849C56.8594 37.4382 56.1902 37.0978 55.7846 36.4279C55.3787 35.7573 55.3876 35.0071 55.8059 34.7539C56.2271 34.4989 56.8954 34.8391 57.3013 35.5096Z" fill="#7E1427"/>
<path id="path634" d="M69.7947 44.2779C70.201 44.9489 70.192 45.6991 69.7709 45.9541C69.352 46.2077 68.6837 45.8675 68.2774 45.1964C67.8722 44.527 67.8802 43.7767 68.2991 43.5231C68.7202 43.2681 69.3894 43.6085 69.7947 44.2779Z" fill="#7E1427"/>
<path id="path636" d="M55.8191 57.3861C56.2251 58.0566 56.2159 58.8077 55.7947 59.0627C55.3759 59.3163 54.7078 58.9752 54.3018 58.3047C53.8962 57.6347 53.9041 56.8852 54.323 56.6316C54.7441 56.3767 55.4135 56.7161 55.8191 57.3861Z" fill="#7E1427"/>
<path id="path638" d="M73.3288 18.1002C73.7354 18.7719 73.7247 19.5216 73.3052 19.7755C72.8847 20.0301 72.2176 19.6908 71.811 19.0192C71.4057 18.3498 71.4136 17.6003 71.8341 17.3456C72.2536 17.0917 72.9235 17.4308 73.3288 18.1002Z" fill="#7E1427"/>
<path id="path640" d="M58.1297 45.3675C58.5356 46.038 58.5264 46.7891 58.1053 47.044C57.6859 47.298 57.0183 46.9566 56.6124 46.2861C56.2061 45.615 56.2134 44.8658 56.6328 44.6119C57.0539 44.3569 57.7234 44.6964 58.1297 45.3675Z" fill="#7E1427"/>
<path id="path642" d="M44.4593 53.9737C44.8649 54.6437 44.8572 55.3946 44.4355 55.6499C44.0161 55.9039 43.3471 55.5626 42.9415 54.8926C42.5359 54.2227 42.544 53.4723 42.9634 53.2184C43.3851 52.9631 44.0537 53.3037 44.4593 53.9737Z" fill="#7E1427"/>
</g>
<defs>
<linearGradient id="paint0_linear" x1="14.9293" y1="71.0259" x2="84.9086" y2="28.6587" gradientUnits="userSpaceOnUse">
<stop stop-color="#76BC1C"/>
<stop offset="0.503067" stop-color="#2FAA48"/>
<stop offset="1" stop-color="#68C530"/>
</linearGradient>
<linearGradient id="paint1_linear" x1="16.4984" y1="67.7875" x2="83.5507" y2="27.1924" gradientUnits="userSpaceOnUse">
<stop stop-color="#80CC2A"/>
<stop offset="1" stop-color="#B4DF5D"/>
</linearGradient>
<clipPath id="clip0">
<rect width="100" height="100" fill="white"/>
</clipPath>
</defs>
</svg>
