<svg viewBox="0 0 55 55" fill="none" xmlns="http://www.w3.org/2000/svg">
<path d="M30.6211 12.1988C33.3747 10.3944 39.3691 7.66859 41.3178 11.2002C43.2665 14.7319 40.6117 21.6235 39.0408 24.6279" stroke="#681F08" stroke-width="1.24794"/>
<path d="M15.1109 40.2839C12.307 40.8136 6.84127 42.5808 7.40902 45.4117C8.11869 48.9502 20.219 52.9245 31.8253 51.7631" stroke="#681F08" stroke-width="1.24794"/>
<path d="M43.2761 32.6428C43.2761 34.7256 42.8658 36.7881 42.0688 38.7123C41.2717 40.6366 40.1034 42.3851 38.6307 43.8578C37.1579 45.3306 35.4095 46.4989 33.4852 47.2959C31.5609 48.093 29.4985 48.5032 27.4157 48.5032C25.3328 48.5032 23.2704 48.093 21.3461 47.2959C19.4219 46.4989 17.6734 45.3306 16.2006 43.8578C14.7279 42.385 13.5596 40.6366 12.7625 38.7123C11.9655 36.7881 11.5552 34.7256 11.5552 32.6428L27.4157 32.6428L43.2761 32.6428Z" fill="url(#paint0_linear)"/>
<path d="M11.5802 32.9616C11.5802 30.8737 11.9914 28.8062 12.7904 26.8773C13.5894 24.9483 14.7606 23.1956 16.2369 21.7192C17.7133 20.2428 19.466 19.0717 21.395 18.2727C23.324 17.4737 25.3914 17.0624 27.4793 17.0624C29.5673 17.0624 31.6347 17.4737 33.5637 18.2727C35.4927 19.0717 37.2454 20.2428 38.7217 21.7192C40.1981 23.1956 41.3692 24.9483 42.1682 26.8773C42.9673 28.8063 43.3785 30.8737 43.3785 32.9616L27.4793 32.9616L11.5802 32.9616Z" fill="url(#paint1_linear)"/>
<path d="M31.7488 34.9074H11.6792C11.1458 28.1336 13.9318 23.8925 15.3987 22.6702L23.0809 30.4404H43.1838C44.0906 37.0542 41.1979 41.4518 39.6088 42.7852L31.7488 34.9074Z" fill="#FDBB13"/>
<rect x="22.2568" y="27.8796" width="22.9023" height="2.70957" rx="1.35479" fill="white"/>
<rect x="9.74023" y="34.7828" width="22.9023" height="2.70957" rx="1.35479" fill="white"/>
<path d="M28.5346 11.7654H26.3535V1.95078H28.5346V11.7654Z" fill="#AD2900"/>
<path d="M29.4063 17.2182H25.4805V11.2203C25.4805 10.9192 25.7246 10.675 26.0257 10.675H28.8611C29.1622 10.675 29.4063 10.9192 29.4063 11.2203V17.2182Z" fill="#FD3D08"/>
<path d="M27.0436 11.2203V17.2182H25.4805V11.2203C25.4805 10.9192 25.7246 10.675 26.0257 10.675H27.5888C27.2877 10.675 27.0436 10.9192 27.0436 11.2203Z" fill="#FE5507"/>
<path d="M23.8998 5.76759V5.49496C23.8998 5.34442 24.0219 5.22233 24.1724 5.22233H30.7155C30.8661 5.22233 30.9882 5.34442 30.9882 5.49496V5.76759C30.9882 6.36989 30.5 6.85811 29.8977 6.85811H24.9903C24.388 6.85811 23.8998 6.36989 23.8998 5.76759ZM26.8987 3.58656H27.9893C29.4949 3.58656 30.7155 2.36594 30.7155 0.860261C30.7155 0.559115 30.4714 0.315002 30.1703 0.315002H24.7177C24.4165 0.315002 24.1724 0.559115 24.1724 0.860261C24.1724 2.36594 25.3931 3.58656 26.8987 3.58656ZM31.9001 15.5963C31.7887 15.2623 31.4762 15.037 31.1242 15.037H23.7638C23.4118 15.037 23.0993 15.2622 22.9879 15.5963C22.8114 16.1259 23.2056 16.6728 23.7638 16.6728H31.1242C31.6824 16.6728 32.0766 16.1258 31.9001 15.5963Z" fill="#FD8E13"/>
<path d="M28.4249 3.55139C28.2828 3.57423 28.1372 3.58656 27.9887 3.58656H26.8982C25.3925 3.58656 24.1719 2.36594 24.1719 0.860261C24.1719 0.559115 24.416 0.315002 24.7171 0.315002H26.6801C26.3789 0.315002 26.1348 0.559115 26.1348 0.860261C26.1348 2.21741 27.1266 3.34255 28.4249 3.55139Z" fill="#FDBB13"/>
<path d="M30.2845 11.0689C30.5324 10.8826 30.8845 10.9325 31.0708 11.1804L31.7841 12.1296C31.9704 12.3775 31.9205 12.7296 31.6726 12.9159L29.1527 14.8097L28.177 13.5113C27.9492 13.2083 28.0103 12.778 28.3133 12.5503L30.2845 11.0689Z" fill="#FD3D08"/>
<rect x="33.5684" y="50.7944" width="4.77748" height="1.31138" rx="0.311986" transform="rotate(-6.20771 33.5684 50.7944)" fill="#A22700"/>
<circle cx="38.8904" cy="50.8751" r="1.28624" transform="rotate(-6.20771 38.8904 50.8751)" fill="#681F08"/>
<circle cx="38.8905" cy="50.8749" r="0.643122" transform="rotate(-6.20771 38.8905 50.8749)" fill="#A42700"/>
<circle cx="33.3269" cy="51.5074" r="1.01062" transform="rotate(-6.20771 33.3269 51.5074)" fill="#681F08"/>
<circle cx="31.9577" cy="51.6564" r="1.01062" transform="rotate(-6.20771 31.9577 51.6564)" fill="#681F08"/>
<circle cx="31.9574" cy="51.6566" r="0.50531" transform="rotate(-6.20771 31.9574 51.6566)" fill="#A42700"/>
<ellipse cx="33.3044" cy="51.5098" rx="0.528279" ry="0.50531" transform="rotate(-6.20771 33.3044 51.5098)" fill="#A42700"/>
<path d="M42.8867 49.8812C43.3304 49.8558 43.4408 50.4871 43.0149 50.6138L40.1762 51.4583C39.9616 51.5221 39.7393 51.3845 39.7007 51.1639L39.5826 50.489C39.544 50.2685 39.7064 50.0636 39.93 50.0507L42.8867 49.8812Z" fill="#681F08"/>
<rect x="43.5615" y="49.6037" width="0.780935" height="1.01062" rx="0.390467" transform="rotate(-9.61052 43.5615 49.6037)" fill="#A42700"/>
<defs>
<linearGradient id="paint0_linear" x1="5.75021" y1="34.8578" x2="47.4905" y2="40.5995" gradientUnits="userSpaceOnUse">
<stop stop-color="#FDD819"/>
<stop offset="0.81912" stop-color="#FC1607"/>
</linearGradient>
<linearGradient id="paint1_linear" x1="33.2988" y1="11.243" x2="21.6598" y2="54.6803" gradientUnits="userSpaceOnUse">
<stop stop-color="#FC2109"/>
<stop offset="1" stop-color="#FFC600"/>
</linearGradient>
</defs>
</svg>
