<svg viewBox="0 0 315 315" fill="none" xmlns="http://www.w3.org/2000/svg">
<path opacity="0.2" d="M221.266 306.885L254.734 287.558C257.307 286.071 257.307 283.66 254.734 282.174L93.2996 184.617C90.7266 183.131 86.543 183.131 83.9699 184.617L50.5013 203.934C47.9282 205.421 47.9282 207.832 50.5013 209.328L211.936 306.885C214.509 308.371 218.683 308.371 221.266 306.885Z" fill="#A8A8A8"/>
<path d="M223.199 130.804C223.199 130.804 224.619 133.425 227.401 133.93C230.175 134.435 229.26 132.348 227.906 131.538C226.544 130.728 225.991 126.497 225.991 126.497L225.61 125.22L221.998 123.199L218.968 124.067L223.199 130.804Z" fill="#FFCEA0"/>
<path d="M221.348 135.93C221.901 135.93 222.463 135.788 222.988 135.492L241.771 124.647C243.343 123.742 243.877 121.741 242.972 120.168C242.066 118.605 240.065 118.062 238.493 118.967L219.709 129.812C218.146 130.718 217.603 132.719 218.509 134.291C219.109 135.34 220.214 135.93 221.348 135.93Z" fill="#4C4749"/>
<path d="M148.961 52.7551C149.066 53.8605 149.275 54.9851 149.552 56.1096C150.39 59.5594 151.153 61.1604 152.201 63.4856C152.239 63.5619 152.277 63.6476 152.315 63.7334C152.382 63.8764 152.458 64.0384 152.554 64.2004C155.394 69.7372 168.402 89.9308 173.986 98.4409C174.158 98.6982 174.329 98.9555 174.482 99.1842C175.292 100.433 175.911 101.347 176.254 101.843C176.321 101.957 176.397 102.062 176.474 102.186C177.426 103.101 181.162 103.225 184.526 102.11C188.024 100.957 191.13 98.479 190.139 94.1144C190.073 93.8094 189.987 93.514 189.891 93.1995C186.68 83.6411 169.374 52.088 163.637 47.0181C163.637 47.0181 163.523 46.9038 163.313 46.7322C162.684 46.17 161.426 45.1217 159.882 44.2926C159.177 44.0544 158.386 43.921 157.509 43.9019C157.119 43.8924 156.699 43.8924 156.251 43.9305C156.251 43.9305 154.155 44.1497 151.153 44.4927C151 44.6357 150.838 44.7977 150.695 44.9692C148.99 46.9514 148.627 49.7532 148.961 52.7551Z" fill="#FD4B06"/>
<path d="M176.255 101.862C176.331 101.976 176.398 102.091 176.484 102.205C183.536 111.754 213.469 124.133 216.347 125.277C217.681 125.801 220.511 123.971 221.969 121.398C223.189 119.273 223.475 116.633 221.245 114.374C221.245 114.374 194.476 95.8295 190.13 94.1332C189.911 94.0379 189.759 93.9998 189.644 94.0093C188.339 94.0951 180.848 94.4953 177.322 96.792C175.54 97.9261 174.759 99.5652 176.255 101.862Z" fill="#FD4B06"/>
<path opacity="0.3" d="M148.965 52.7552C149.765 54.6326 150.213 55.9954 149.556 56.1097C150.394 59.5595 151.157 61.1605 152.205 63.4858C152.243 63.562 152.281 63.6478 152.319 63.7336C152.386 63.8765 152.462 64.0385 152.558 64.2005C155.398 69.7373 168.406 89.9309 173.99 98.441C174.171 98.6983 174.333 98.9557 174.486 99.1844C175.296 100.433 175.915 101.348 176.258 101.843C176.325 101.958 176.401 102.062 176.477 102.186C183.549 111.726 213.472 124.105 216.35 125.258C217.675 125.773 220.505 123.952 221.973 121.379C220.61 120.341 218.685 119.492 216.045 118.911C202.217 115.871 193.174 108.266 184.521 102.101C183.024 101.014 181.547 99.9944 180.032 99.0319C179.117 98.4411 178.212 97.6787 177.316 96.7638C168.453 87.5485 161.668 63.4381 161.668 63.4381C161.668 63.4381 159.467 49.0481 157.485 43.8735C157.094 43.8639 156.675 43.8639 156.227 43.9021C156.227 43.9021 154.13 44.1212 151.128 44.4643C150.976 44.6072 150.814 44.7693 150.671 44.9408C148.993 46.9516 148.631 49.7533 148.965 52.7552Z" fill="#FF8151"/>
<path d="M237.689 121.399C237.689 121.399 231.78 118.683 226.911 118.464C224.843 118.369 221.898 117.044 221.031 116.673C218.477 115.586 215.294 122.314 216.59 123.153C219.725 125.164 220.726 125.335 222.012 125.888C223.489 126.526 227.32 127.699 227.949 128.995C228.588 130.281 241.625 126.85 237.689 121.399Z" fill="#FFCEA0"/>
<path d="M227.948 128.986C227.948 128.986 228.644 132.283 227.682 133.665C224.146 138.754 235.572 134.608 237.64 130.244C237.64 130.244 240.633 122.858 237.688 121.4C234.753 119.933 227.567 128.481 227.567 128.481L227.948 128.986Z" fill="#FFCEA0"/>
<path d="M166.633 213.322L234.98 252.956L191.458 273.417L124.149 235.355L166.633 213.322Z" fill="#85929C"/>
<path d="M168.849 221.611C168.906 221.726 169.011 221.831 169.163 221.916L214.983 247.828C215.469 248.104 216.241 248.104 216.727 247.828C216.879 247.742 216.984 247.637 217.032 247.523C217.155 247.285 217.051 247.008 216.727 246.818L170.898 220.906C170.412 220.63 169.63 220.63 169.154 220.906C168.83 221.106 168.725 221.373 168.849 221.611Z" fill="#505155"/>
<path d="M168.851 221.613C168.908 221.727 169.013 221.832 169.165 221.918L214.984 247.829C215.47 248.105 216.242 248.105 216.728 247.829C216.881 247.743 216.986 247.638 217.033 247.524C216.976 247.419 216.871 247.305 216.728 247.219L170.9 221.308C170.413 221.031 169.632 221.031 169.156 221.308C169.013 221.403 168.908 221.508 168.851 221.613Z" fill="#5F676F"/>
<path d="M161.785 225.794C161.842 225.909 161.947 226.013 162.09 226.099L207.919 252.011C208.395 252.287 209.176 252.287 209.663 252.011C209.815 251.925 209.92 251.82 209.977 251.706C210.101 251.458 209.996 251.191 209.663 251L163.843 225.089C163.357 224.813 162.576 224.813 162.09 225.089C161.766 225.28 161.661 225.556 161.785 225.794Z" fill="#505155"/>
<path d="M161.786 225.793C161.844 225.907 161.948 226.012 162.091 226.097L207.92 252.009C208.397 252.285 209.178 252.285 209.664 252.009C209.816 251.923 209.921 251.818 209.979 251.704C209.921 251.59 209.816 251.485 209.664 251.399L163.845 225.488C163.359 225.211 162.577 225.211 162.091 225.488C161.948 225.573 161.844 225.678 161.786 225.793Z" fill="#5F676F"/>
<path d="M154.7 229.981C154.758 230.096 154.862 230.2 155.005 230.286L200.834 256.198C201.311 256.474 202.092 256.474 202.578 256.198C202.731 256.112 202.835 256.007 202.883 255.893C203.007 255.655 202.902 255.378 202.578 255.188L156.749 229.276C156.273 229 155.491 229 155.005 229.276C154.681 229.467 154.577 229.733 154.7 229.981Z" fill="#505155"/>
<path d="M154.702 229.982C154.759 230.097 154.864 230.201 155.007 230.287L200.836 256.199C201.312 256.475 202.094 256.475 202.58 256.199C202.732 256.113 202.837 256.008 202.885 255.894C202.837 255.779 202.732 255.674 202.58 255.589L156.751 229.677C156.275 229.401 155.493 229.401 155.007 229.677C154.864 229.763 154.759 229.868 154.702 229.982Z" fill="#5F676F"/>
<path d="M147.501 234.152C147.558 234.266 147.654 234.371 147.806 234.457L193.635 260.368C194.111 260.645 194.893 260.645 195.379 260.368C195.531 260.283 195.636 260.178 195.684 260.063C195.808 259.816 195.703 259.549 195.379 259.358L149.55 233.447C149.074 233.17 148.292 233.17 147.806 233.447C147.482 233.637 147.377 233.914 147.501 234.152Z" fill="#505155"/>
<path d="M147.499 234.152C147.556 234.266 147.651 234.371 147.804 234.457L193.633 260.368C194.109 260.644 194.891 260.644 195.377 260.368C195.529 260.282 195.634 260.177 195.682 260.063C195.634 259.949 195.529 259.844 195.377 259.758L149.548 233.847C149.071 233.57 148.29 233.57 147.804 233.847C147.651 233.942 147.556 234.047 147.499 234.152Z" fill="#5F676F"/>
<path d="M140.431 238.336C140.488 238.45 140.593 238.555 140.746 238.641L186.565 264.552C187.051 264.829 187.832 264.829 188.318 264.552C188.471 264.466 188.576 264.362 188.623 264.247C188.747 264.009 188.642 263.733 188.318 263.542L142.49 237.63C142.013 237.354 141.222 237.354 140.746 237.63C140.412 237.821 140.307 238.097 140.431 238.336Z" fill="#505155"/>
<path d="M140.423 238.336C140.48 238.451 140.585 238.555 140.738 238.641L186.557 264.553C187.043 264.829 187.824 264.829 188.31 264.553C188.463 264.467 188.568 264.362 188.615 264.248C188.558 264.133 188.453 264.029 188.31 263.943L142.482 238.031C142.005 237.755 141.214 237.755 140.738 238.031C140.585 238.117 140.48 238.222 140.423 238.336Z" fill="#5F676F"/>
<path d="M61.0334 176.994L64.7977 174.764C64.8263 173.001 65.0645 171.39 65.4267 169.932L63.3968 166.559L73.5365 160.46C77.3675 158.039 82.7614 158.268 88.7461 161.68C100.458 168.35 109.997 184.665 110.074 198.131C110.112 204.697 107.882 209.376 104.242 211.673L94.1018 217.772L92.091 214.446C91.8623 214.703 91.7193 214.875 91.7193 214.875L91.8718 214.389C90.0326 213.941 88.0885 213.179 86.0587 212.025C84.553 211.158 83.0759 210.139 81.6559 208.966L82.0943 210.1C82.0943 210.1 79.5022 211.292 78.8541 211.12C78.2061 210.939 73.5556 207.823 72.8409 207.451C72.1261 207.079 67.0658 200.428 66.5417 199.437C66.008 198.455 63.5398 193.271 62.9013 192.242C62.2628 191.231 59.8994 183.779 59.8994 183.512C59.9089 183.255 61.0334 176.994 61.0334 176.994ZM78.8256 205.602C84.0574 208.585 88.4697 207.137 89.9087 202.534C91.9004 202.848 93.6539 202.429 94.969 201.343C95.4264 198.074 95.8457 194.757 95.6742 194.624C95.3407 194.357 90.9475 181.911 90.9475 181.911L81.2842 172.686C81.2747 172.686 78.4444 173.077 78.4444 173.077C76.7195 173.744 75.4425 175.202 74.7849 177.356C70.2583 176.737 67.0372 180.063 67.1039 185.533C67.1801 192.937 72.3929 201.914 78.8256 205.602Z" fill="#242525"/>
<path d="M63.4074 166.559C67.2384 164.158 72.6227 164.377 78.6169 167.788C90.3195 174.459 99.8588 190.774 99.9351 204.24C99.9732 210.806 97.7527 215.485 94.1028 217.772C90.2718 220.183 84.878 219.955 78.8933 216.543C67.1907 209.872 57.6514 193.557 57.5751 180.091C57.537 173.525 59.7575 168.856 63.4074 166.559ZM78.8266 205.593C85.2687 209.262 90.4529 206.232 90.4148 198.817C90.3767 191.403 85.1162 182.407 78.6836 178.729C72.2415 175.06 67.0573 178.109 67.0954 185.523C67.1335 192.938 72.3844 201.924 78.8266 205.593Z" fill="#191A1A"/>
<path d="M67.0944 185.523C67.1039 186.495 67.2087 187.505 67.3803 188.515L74.6134 184.274C74.4132 183.159 74.2894 182.054 74.2798 180.987C74.2703 179.786 74.4418 178.442 74.7754 177.346C70.2583 176.736 67.0372 180.062 67.0944 185.523Z" fill="#85929C"/>
<path d="M67.3766 188.525C67.8627 191.308 68.9586 194.167 70.4738 196.797L77.7832 192.527C76.2584 189.926 75.1244 187.067 74.6098 184.284L67.3766 188.525Z" fill="#A2AFB8"/>
<path d="M75.0589 202.724C76.2406 203.877 77.5081 204.849 78.8137 205.602C79.2139 205.831 79.6333 206.04 80.024 206.212C80.043 206.212 87.543 201.819 87.543 201.819C87.0379 201.619 86.5233 201.371 85.9991 201.066C84.7603 200.361 83.569 199.455 82.4445 198.407L75.0589 202.724Z" fill="#BBC6CB"/>
<path d="M80.0446 206.212C84.7428 208.337 88.5833 206.784 89.8984 202.534C89.1361 202.41 88.3641 202.181 87.5446 201.829L80.0446 206.212Z" fill="#A2AFB8"/>
<path d="M73.211 200.742C73.8018 201.457 74.4117 202.114 75.0597 202.724L82.4453 198.407C81.7973 197.797 81.1588 197.14 80.5679 196.425L73.211 200.742Z" fill="#D3DBDC"/>
<path d="M70.4765 196.796C71.277 198.197 72.2015 199.521 73.2116 200.741L80.5781 196.424C79.5013 195.138 78.5197 193.775 77.7859 192.526L70.4765 196.796Z" fill="#BBC6CB"/>
<path d="M82.0376 178.519L82.171 203.096L83.4766 203.849L83.3432 179.71C83.0573 179.424 82.7523 179.138 82.4474 178.871C82.3139 178.748 82.1901 178.633 82.0376 178.519Z" fill="#A2AFB8"/>
<path d="M73.6555 193.577L74.5799 195.178L79.9928 192.004L82.0989 190.775L82.747 190.394C82.7565 190.394 83.0329 190.232 83.0329 190.232L83.4045 190.013L83.6713 189.851L84.3098 189.46L86.3968 188.24L87.1783 187.792L88.0646 187.268L88.7793 186.849C88.4743 186.305 88.1599 185.772 87.8263 185.267L87.1116 185.686L86.2253 186.21L85.4629 186.658L83.3759 187.878L82.7183 188.259L82.4515 188.421L82.0799 188.64L81.813 188.802L81.1745 189.193L79.078 190.413L73.6555 193.577Z" fill="#A2AFB8"/>
<path d="M70.4677 181.578L70.4772 183.084L78.2059 187.487L81.1792 189.193L82.1035 189.717L82.4752 189.917C82.4847 189.926 83.0375 190.241 83.0375 190.241L83.4091 190.451L84.3335 190.975L87.3068 192.681L89.756 194.072L90.9186 194.739L92.1289 195.425C92.1003 195.254 92.0526 195.082 92.0145 194.901C91.9097 194.482 91.8049 194.081 91.6905 193.681L90.4993 192.995L89.2032 192.261L87.2877 191.165L84.324 189.478L83.3996 188.954L83.0184 188.745L82.4752 188.43L82.1035 188.221L81.1792 187.696C81.1506 187.687 78.1868 185.991 78.1868 185.991L70.4677 181.578Z" fill="#A2AFB8"/>
<path d="M73.5452 174.651L75.1653 177.414L79.0439 184.076L81.1595 187.687C81.1691 187.687 81.8266 188.802 81.8266 188.802L82.103 189.269L82.4746 189.917C82.4841 189.927 82.751 190.403 82.751 190.403C82.7605 190.403 83.4181 191.537 83.4181 191.537L85.5337 195.159L89.8793 202.592L91.0324 204.565L91.9473 204.031L90.2414 201.096L86.4486 194.606L84.3329 190.985L83.6754 189.87L83.399 189.403L83.0083 188.745L82.7319 188.278L82.0744 187.163L79.9588 183.532L76.6138 177.824L74.6888 174.527C74.4506 174.47 74.2123 174.431 73.9836 174.403L73.5452 174.651Z" fill="#A2AFB8"/>
<path d="M78.1398 186.707C78.1588 189.632 80.2363 193.178 82.7713 194.626C85.3157 196.075 87.3646 194.874 87.3456 191.948C87.3265 189.023 85.2585 185.477 82.7141 184.029C80.1792 182.59 78.1303 183.781 78.1398 186.707Z" fill="#A2AFB8"/>
<path d="M70.4657 181.578L69.5795 182.102L73.0293 184.466L70.4657 181.578Z" fill="#A2AFB8"/>
<path d="M82.6001 204.373L83.4863 203.849L82.8192 201.438L81.933 201.447L82.6001 204.373Z" fill="#A2AFB8"/>
<path d="M81.155 177.793L81.2979 203.618L82.6035 204.371L82.4606 178.879C82.0317 178.488 81.6029 178.136 81.155 177.793Z" fill="#D3DBDC"/>
<path d="M72.7771 194.099L73.7015 195.7L81.2205 191.297L81.878 190.916L82.1448 190.754L82.5165 190.535L82.7833 190.372L83.4219 189.982L87.1861 187.799L88.7871 186.856C88.4822 186.313 88.1677 185.779 87.8341 185.274L86.2331 186.217L82.507 188.4L81.8494 188.781L81.5826 188.943L81.2109 189.162L80.9346 189.324L80.2961 189.715L72.7771 194.099Z" fill="#D3DBDC"/>
<path d="M69.5873 182.102L69.5968 183.608L80.2988 189.717L81.2232 190.241L81.6139 190.45L82.1571 190.765L82.5287 190.974L83.4532 191.499L90.0382 195.263L92.373 196.588C92.2873 196.016 92.1634 195.473 92.0204 194.901C92.0204 194.882 89.6189 193.519 89.6189 193.519L83.4436 189.993L82.5287 189.469L82.1381 189.259L81.5948 188.945L81.2232 188.735L80.2988 188.211L69.5873 182.102Z" fill="#D3DBDC"/>
<path d="M90.1496 205.068L91.0645 204.535L73.5868 174.64L72.672 175.173L90.1496 205.068Z" fill="#D3DBDC"/>
<path d="M77.2667 187.228C77.2858 190.154 79.3538 193.699 81.8982 195.147C84.4427 196.596 86.4916 195.395 86.4725 192.469C86.4535 189.544 84.3855 185.999 81.841 184.55C79.2966 183.111 77.2477 184.302 77.2667 187.228Z" fill="#D3DBDC"/>
<path d="M74.0056 174.391C74.2343 174.42 74.463 174.458 74.7108 174.515C75.9592 174.81 77.2838 175.334 78.6657 176.116C79.5138 176.602 80.3525 177.174 81.1625 177.793C81.4674 178.022 81.7628 178.26 82.0487 178.517C82.1917 178.632 82.3251 178.746 82.4681 178.87C82.773 179.137 83.0685 179.423 83.3639 179.709C85.0316 181.338 86.5468 183.235 87.8524 185.274C88.186 185.789 88.5004 186.313 88.8054 186.856C90.0443 189.038 91.0449 191.345 91.7025 193.67C91.8168 194.07 91.9216 194.47 92.0265 194.871C92.0741 195.071 92.1122 195.242 92.1408 195.414C92.2457 195.804 92.3219 196.186 92.3791 196.576C92.5983 197.777 92.7031 198.968 92.7126 200.121C92.7603 208.984 86.5564 212.605 78.8468 208.212C71.1467 203.819 64.8665 193.069 64.8189 184.207C64.7712 177.231 68.6117 173.505 74.0056 174.391ZM78.8277 205.601C83.564 208.298 87.6142 207.374 89.4058 203.781C89.6059 203.419 89.7584 203.019 89.8823 202.59C90.0538 202.085 90.1681 201.618 90.2444 201.093C90.3683 200.388 90.4255 199.626 90.4159 198.825C90.4064 197.663 90.273 196.472 90.0347 195.271C89.9585 194.871 89.8632 194.48 89.7584 194.08C89.7107 193.889 89.6726 193.708 89.6154 193.517C89.5011 193.098 89.3676 192.669 89.2056 192.259C88.7005 190.744 88.0144 189.238 87.2044 187.809C86.9185 187.266 86.5849 186.742 86.2514 186.227C85.4032 184.893 84.4312 183.654 83.3734 182.529C83.0875 182.215 82.7825 181.92 82.4776 181.615C82.3442 181.491 82.2012 181.357 82.0583 181.233C81.7724 180.967 81.4674 180.709 81.1625 180.461C80.3525 179.794 79.5138 179.223 78.6657 178.737C77.9605 178.336 77.2839 178.031 76.6263 177.812C76.1403 177.631 75.6733 177.507 75.2159 177.421C75.0253 177.393 74.9014 177.364 74.768 177.355C74.463 177.317 74.1772 177.288 73.8913 177.288C69.8316 177.183 67.0298 180.423 67.0775 185.531C67.1823 192.936 72.3951 201.913 78.8277 205.601Z" fill="#BBC6CB"/>
<path d="M89.486 160.566L78.5458 189.451C78.2504 190.233 78.3552 191.081 78.765 191.748C79.0604 192.224 79.5179 192.606 80.0801 192.815C81.5573 193.282 82.9677 192.587 83.4632 191.3L94.3843 162.425C94.8989 161.071 94.2223 159.566 92.8691 159.051C92.2878 158.841 91.6874 158.822 91.1347 159.013C90.4009 159.251 89.7814 159.795 89.486 160.566Z" fill="#5F676F"/>
<path d="M89.4858 160.565L78.5456 189.45C78.2502 190.231 78.355 191.079 78.7648 191.746C79.0602 192.223 79.5177 192.604 80.0799 192.814C80.9853 192.642 81.6142 192.08 81.9096 191.299L92.8308 162.442C93.3454 161.089 92.6592 159.574 91.3155 159.069C91.2488 159.04 91.1917 159.021 91.1249 159.012C90.4007 159.25 89.7812 159.793 89.4858 160.565Z" fill="#505155"/>
<path d="M78.6348 196.71L79.3876 197.167C80.4264 196.653 81.589 196.643 82.8184 197.177C81.2745 196.3 79.8832 196.253 78.6348 196.71Z" fill="#A2AFB8"/>
<path d="M79.3858 197.178L119.449 221.25C120.059 221.612 120.593 222.06 121.021 222.575C120.869 221.002 119.983 219.516 118.515 218.639L82.8166 197.187C81.5967 196.644 80.4246 196.663 79.3858 197.178Z" fill="#85929C"/>
<path d="M77.0312 197.961L77.8221 198.438C78.2891 197.875 78.8132 197.456 79.3945 197.18L78.6417 196.722C78.0413 196.98 77.4981 197.399 77.0312 197.961Z" fill="#BBC6CB"/>
<path d="M77.8131 198.437L118.41 222.833C119.373 223.415 120.125 224.196 120.669 225.092C121.012 224.282 121.116 223.415 121.021 222.576C120.583 222.062 120.049 221.614 119.449 221.252L79.3855 197.179C78.8137 197.446 78.2896 197.865 77.8131 198.437Z" fill="#A2AFB8"/>
<path d="M77.2812 206.096L113.123 227.624C113.313 227.738 113.533 227.843 113.742 227.938L78.1103 206.534C75.6135 205.038 75.6707 201.826 77.1669 199.339C77.367 199.015 77.5862 198.71 77.8244 198.434L77.0335 197.957C76.7762 198.234 76.5474 198.548 76.3378 198.901C74.8511 201.379 74.8034 204.6 77.2812 206.096Z" fill="#A2AFB8"/>
<path d="M78.1099 206.534L113.742 227.938C114.428 228.224 115.133 228.367 115.81 228.367C117.592 228.367 119.326 227.462 120.317 225.823C120.46 225.584 120.584 225.337 120.67 225.079C120.127 224.183 119.374 223.402 118.411 222.821L77.8144 198.424C77.5762 198.701 77.357 199.006 77.1569 199.33C75.6702 201.827 75.613 205.038 78.1099 206.534Z" fill="#85929C"/>
<path d="M50.104 137.979C51.1046 149.005 59.4051 155.371 70.4501 162.09C101.927 181.178 104.586 220.546 107.569 229.361C107.797 230.028 108.274 230.59 108.912 230.924L126.6 235.679C125.79 235.221 125.265 234.392 125.189 233.458C124.903 229.799 126.314 211.95 120.072 189.107C117.775 180.654 114.421 171.486 109.532 162.128C91.9112 128.373 62.0448 125.905 51.8479 119.711C51.8479 119.711 51.4953 120.168 50.9998 120.959C50.1612 123.647 49.4083 130.289 50.104 137.979Z" fill="#FF8726"/>
<path d="M50.0364 137.226C50.065 137.474 50.0745 137.722 50.1031 137.969C58.537 150.091 85.5444 158.049 108.33 175.002C114.267 179.424 116.354 185.761 120.061 189.106C118.46 183.179 164.775 170.79 161.954 164.338C160.763 161.584 110.989 164.929 109.521 162.118C91.9008 128.363 62.0439 125.895 51.847 119.701C51.847 119.701 51.4944 120.158 50.9894 120.949C50.6654 122.007 50.3509 123.675 50.1221 125.79C49.8172 128.868 49.6933 132.852 50.0364 137.226Z" fill="#FFB424"/>
<path d="M130.678 179.825C130.678 179.825 132.526 178.748 103.537 171.477C87.3169 167.408 107.777 223.986 125.455 234.669C125.455 234.678 125.56 211.064 130.678 179.825Z" fill="#4C4749"/>
<path d="M105.964 185.285C107.232 196.377 117.448 228.397 125.462 234.668C125.472 234.677 130.656 234.439 130.656 234.439C130.932 234.392 131.218 234.334 131.494 234.287C136.945 229.817 141.215 216.247 141.215 216.247L129.808 180.71C129.798 180.71 104.678 174.192 105.964 185.285Z" fill="#505155"/>
<path d="M125.457 234.668C125.466 234.678 130.65 234.44 130.65 234.44C130.927 234.392 131.213 234.335 131.489 234.287C145.202 231.59 157.562 224.243 166.492 213.493L166.635 213.322C161.393 197.121 165.444 156.248 165.444 156.248L150.358 154.637L124.151 163.386L129.802 180.711C129.802 180.711 120.215 218.449 125.457 234.668Z" fill="#5F676F"/>
<path d="M51.8477 119.721C51.8477 119.721 63.2168 102.091 85.8882 96.3065C94.2934 94.1623 137.387 125.801 142.638 133.339C147.879 140.877 151.453 163.206 151.453 163.206L141.323 173.612C141.323 173.612 99.6682 150.474 85.0019 139.705C68.4867 127.574 51.8477 119.721 51.8477 119.721Z" fill="#55575D"/>
<path d="M86.0311 48.29L47.7594 70.3896L51.0662 72.3146L85.7738 92.4891L124.064 70.3896L120.758 68.4741L86.0311 48.29Z" fill="#F3C895"/>
<path d="M109.445 73.3923L62.3015 73.4019L85.7924 87.0485L109.445 73.3923Z" fill="#DE9C6F"/>
<path d="M86.0136 53.732L57.1479 70.3996L58.0913 70.9428L85.7563 54.9709L111.106 69.7135L112.973 70.7999L113.459 71.0762L114.66 70.3805L113.231 69.561L111.372 68.4746L86.0136 53.732Z" fill="#9C6147"/>
<path d="M85.7539 54.9706L58.0889 70.9426L60.4428 72.3149L111.332 72.3054L113.457 71.076L112.971 70.7996L111.103 69.7132L85.7539 54.9706Z" fill="#DE9C6F"/>
<path d="M60.4449 72.3158L62.3032 73.4022L109.447 73.3927L111.334 72.3063L60.4449 72.3158Z" fill="#9C6147"/>
<path d="M51.0853 68.4664L47.7594 70.3914L48.7029 70.9346L51.0662 72.3164H60.4436L111.333 72.3069H120.739L124.064 70.3914L120.758 68.4759H111.371L60.5007 68.4664H51.0853Z" fill="#F3C895"/>
<path d="M124.064 70.3941L85.7738 92.4937V96.4104L85.6594 136.702L123.941 114.593L123.95 110.772L124.064 70.3941Z" fill="#DE9C6F"/>
<path d="M90.3762 127.459L113.076 114.346L90.4525 101.29L90.3762 127.459Z" fill="#DE9C6F"/>
<path d="M119.338 79.7146L118.137 80.4103L118.051 109.838L118.042 112.011V112.573L119.243 111.878V110.229L119.252 108.056L119.338 79.7146Z" fill="#9C6147"/>
<path d="M118.137 80.4091L90.4717 96.381L90.4622 99.116L115.916 113.801L118.041 112.572V112.01L118.051 109.837L118.137 80.4091Z" fill="#C48455"/>
<path d="M90.3763 127.459L113.076 114.346L114.029 113.802L90.4526 100.203V101.29L90.3763 127.459Z" fill="#C48455"/>
<path d="M89.1237 90.6446L85.7883 92.5696L85.7787 96.4101L120.62 116.518L123.946 114.593L123.955 110.772L89.1237 90.6446Z" fill="#9C6147"/>
<path d="M113.078 114.345L114.031 113.802L90.4544 100.203L90.4639 99.1163L115.918 113.802L114.031 114.888L90.3781 128.544V127.458L113.078 114.345Z" fill="#9C6147"/>
<path d="M89.1237 90.6446L85.7883 92.5696V93.656L85.7787 96.4101L90.4674 99.1166L115.921 113.802L120.62 116.518L123.946 114.593L123.955 110.772L119.257 108.056L93.8314 93.3606L89.1237 90.6446Z" fill="#DE9C6F"/>
<path d="M47.7663 70.4004V114.59L51.0827 116.515L85.9141 136.775V92.5667L82.6073 90.6417L47.7663 70.4004Z" fill="#C48455"/>
<path d="M57.6362 113.817L58.5701 114.36L81.2129 127.511V100.199L57.6362 113.817Z" fill="#9C6147"/>
<path d="M52.4628 79.9963V111.902L53.4062 112.436V80.5014L52.4628 79.9963Z" fill="#715245"/>
<path d="M53.4067 80.502V112.436L55.7701 113.818L81.2051 99.1136V96.6645L80.719 96.3786L78.8512 95.2827L53.4067 80.502Z" fill="#9C6147"/>
<path d="M47.7663 110.749V114.589L51.0827 116.514L85.9141 96.3967V92.5658L82.6073 90.6407L47.7663 110.749Z" fill="#9C6147"/>
<path d="M55.7683 113.808L57.6362 114.903L81.2129 128.598V127.511L58.5701 114.36L57.6362 113.817L81.2129 100.199V99.1125L55.7683 113.808Z" fill="#715245"/>
<path d="M47.7663 110.749V114.589L48.7098 115.132L51.0827 116.514L55.7713 113.817L81.2064 99.1127L85.9141 96.3967V92.5658L82.6073 90.6407L77.909 93.3567L52.4645 108.033L47.7663 110.749Z" fill="#C48455"/>
<path d="M77.1987 79.4518L85.7851 84.4073C85.9947 84.5216 86.2806 84.5693 86.557 84.5216C86.8333 84.474 87.043 84.3596 87.1192 84.1976L90.2641 77.4219C90.4165 77.0979 89.8447 76.7739 89.2825 76.8597L77.5513 78.6703C77.275 78.718 77.0653 78.8323 76.989 78.9943C76.9128 79.1754 76.9986 79.3374 77.1987 79.4518ZM89.5779 77.2695C89.6065 77.3362 86.4712 84.1119 86.4712 84.1119C86.271 84.1404 77.6847 79.1849 77.6847 79.1849C77.7419 79.0706 89.4731 77.2504 89.4731 77.2504C89.5207 77.2409 89.5588 77.26 89.5779 77.2695Z" fill="#C48455"/>
<path d="M85.4342 80.1016L88.0645 78.5863L87.3593 78.1766L84.729 79.6918L83.8713 80.2445L84.4717 80.5971L85.4342 80.1016ZM83.3663 81.3023L84.081 80.8926L83.3758 80.4828L82.661 80.8926L83.3663 81.3023Z" fill="#C48455"/>
<path d="M103.156 117.946L92.6544 124.017V116.202L103.156 110.132V117.946Z" fill="#ECEBE3"/>
<path d="M100.849 117.804L94.95 121.206C94.8357 121.273 94.7404 121.216 94.7404 121.082C94.7404 120.949 94.8357 120.787 94.95 120.72L100.849 117.308C100.963 117.242 101.059 117.299 101.059 117.432C101.059 117.566 100.963 117.728 100.849 117.804Z" fill="#744B44"/>
<path d="M100.849 116.344L94.95 119.746C94.8357 119.813 94.7404 119.756 94.7404 119.622C94.7404 119.489 94.8357 119.327 94.95 119.26L100.849 115.858C100.963 115.791 101.059 115.848 101.059 115.982C101.059 116.115 100.963 116.277 100.849 116.344Z" fill="#744B44"/>
<path d="M100.849 114.887L94.95 118.289C94.8357 118.356 94.7404 118.299 94.7404 118.165C94.7404 118.032 94.8357 117.87 94.95 117.803L100.849 114.401C100.963 114.334 101.059 114.391 101.059 114.525C101.059 114.658 100.963 114.82 100.849 114.887Z" fill="#744B44"/>
<path d="M100.849 113.428L94.95 116.83C94.8357 116.896 94.7404 116.839 94.7404 116.706C94.7404 116.573 94.8357 116.411 94.95 116.344L100.849 112.942C100.963 112.875 101.059 112.932 101.059 113.066C101.059 113.199 100.963 113.361 100.849 113.428Z" fill="#744B44"/>
<path opacity="0.3" d="M90.0096 140.41C90.0096 140.41 86.5027 144.002 89.8762 150.406C93.2593 156.81 117.846 182.646 137.497 182.074C157.147 181.502 145.254 160.708 145.254 160.708L90.0096 140.41Z" fill="#CC8C8C"/>
<path d="M134.154 181.227C139.338 182.942 144.618 181.865 149.602 179.569C149.935 179.416 150.278 179.245 150.621 179.064C164.239 171.735 166.307 152.942 155.167 142.212C147.629 134.95 139.529 127.145 135.526 123.257C129.389 117.282 120.345 120.341 112.207 121.932C110.234 122.304 97.5785 124.887 96.1205 126.354C91.7653 130.719 90.841 133.807 89.9452 141.049C88.8016 150.179 106.87 172.202 134.154 181.227Z" fill="#BBC6CB"/>
<path d="M137.585 177.7C140.787 178.996 146.867 180.292 149.592 179.567C153.156 177.938 157.207 174.498 160.866 170.867C167.27 164.501 167.241 154.132 160.771 147.833C152.07 139.361 140.558 128.154 135.517 123.256C129.38 117.281 120.793 114.832 112.645 116.423C107.194 119.025 101.181 122.227 96.1015 126.353C80.9301 138.675 110.997 166.921 137.585 177.7Z" fill="#E5EAE7"/>
<path d="M157.602 231.008C157.602 231.008 157.02 237.955 158.621 238.537C160.213 239.118 166.074 240.7 167.141 237.812C168.084 235.239 167.36 229.483 167.141 229.274V227.387C167.141 227.387 161.614 227.387 161.204 227.387C160.794 227.387 157.506 228.397 157.506 228.397L157.602 231.008Z" fill="#FFCEA0"/>
<path d="M182.233 255.891C185.235 255.224 186.054 251.316 183.615 249.449C181.385 247.733 177.802 245.675 175.543 244.474C170.912 242.015 167.319 236.517 167.319 236.517C167.319 236.517 164.288 239.957 158.904 237.775C158.027 237.422 157.484 236.545 157.494 235.602L157.503 234.63C157.503 234.63 153.472 243.607 157.494 245.923C161.506 248.238 174.104 254.9 174.104 254.9C174.104 254.9 178.84 256.644 182.233 255.891Z" fill="#242525"/>
<path d="M176.392 221.718C176.392 221.718 175.811 228.665 177.412 229.247C179.003 229.828 185.464 231.562 185.922 228.522C186.379 225.482 185.922 219.984 185.922 219.984V218.106C185.922 218.106 180.404 218.106 179.994 218.106C179.584 218.106 176.297 219.116 176.297 219.116L176.392 221.718Z" fill="#FFCEA0"/>
<path d="M201.028 246.59C204.03 245.923 204.849 242.016 202.41 240.148C200.18 238.433 196.597 236.365 194.338 235.173C189.707 232.715 186.123 227.216 186.123 227.216C186.123 227.216 183.179 230.551 177.956 228.569C176.965 228.198 176.298 227.264 176.298 226.206V225.329C176.298 225.329 172.277 234.306 176.289 236.622C180.301 238.938 192.889 245.599 192.889 245.599C192.889 245.599 197.635 247.352 201.028 246.59Z" fill="#242525"/>
<path d="M122.871 134.921C124.873 142.993 149.583 163.854 167.204 172.125C168.567 172.783 169.891 173.345 171.159 173.831C174.094 174.946 176.572 175.27 178.659 175.061C189.084 174.022 189.732 159.356 189.732 159.356C181.146 145.575 151.642 126.554 151.642 126.554L151.156 126.621L148.621 126.983C148.621 126.983 146.82 126.935 144.19 127.011C138.3 127.154 128.199 127.888 124.32 131.052C123.081 132.062 122.471 133.339 122.871 134.921Z" fill="#190F0C"/>
<path d="M169.5 196.654C170.301 200.762 171.101 222.404 171.406 228.103C171.483 229.713 172.559 231.076 174.084 231.581C175.457 232.029 176.743 232.315 177.925 232.477C183.157 233.172 186.511 231.352 188.15 230.104C188.894 229.522 189.36 228.674 189.399 227.74C189.599 222.575 190.352 195.072 190.352 182.331C190.352 170.4 189.894 161.708 189.77 159.774C189.761 159.507 189.742 159.364 189.742 159.364C189.742 159.364 177.706 158.659 171.597 162.061C170.768 162.519 170.063 163.043 169.5 163.662C168.061 165.225 167.404 168.37 167.204 172.134C166.746 180.882 168.786 193.014 169.5 196.654Z" fill="#190F0C"/>
<path opacity="0.3" d="M122.871 134.92C124.872 142.991 149.583 163.852 167.204 172.124C166.746 180.882 168.786 193.004 169.5 196.654C170.301 200.761 171.101 222.403 171.406 228.102C171.483 229.713 172.559 231.075 174.084 231.58C175.457 232.028 176.743 232.314 177.925 232.476C183.157 233.172 186.511 231.352 188.15 230.103C188.894 229.522 189.36 228.674 189.399 227.74C189.599 222.575 190.352 195.072 190.352 182.33C190.352 170.399 189.894 161.708 189.77 159.773C187.74 162.956 182.556 168.493 171.597 162.07C158.351 154.313 132.582 136.216 136.194 136.788C139.958 137.388 148.039 129.745 151.165 126.638C151.947 125.847 152.423 125.352 152.423 125.352L144.199 127.029L124.329 131.07C123.081 132.061 122.471 133.338 122.871 134.92Z" fill="#070707"/>
<path d="M99.9912 145.802C101.811 156.332 138.215 174.038 149.861 179.451C152.091 180.471 153.415 181.062 153.415 181.062C153.415 181.062 155.826 181.491 158.962 181.586C164.689 181.767 172.799 180.852 172.799 174.191C172.799 174.029 172.799 173.962 172.799 173.962C172.789 173.438 172.684 172.885 172.503 172.313C169.044 161.326 136.443 141.904 130.105 137.492C123.444 132.86 117.364 128.657 117.364 128.657H111.722L104.909 125.332C104.909 125.341 97.8279 133.26 99.9912 145.802Z" fill="#1A0F0C"/>
<path d="M151.958 206.403C152.796 210.72 153.635 232.305 153.902 237.384C153.902 237.451 153.911 237.518 153.93 237.565C154.035 238.538 154.702 239.376 155.636 239.719C157.313 240.339 158.867 240.72 160.268 240.91C165.947 241.701 169.426 239.548 170.941 238.29C171.494 237.842 171.818 237.194 171.846 236.498C172.027 231.829 172.818 205.078 172.818 192.07V174.202C172.818 174.04 172.818 173.973 172.818 173.973C172.818 173.973 172.294 173.773 171.389 173.506C167.51 172.286 156.723 169.361 152.434 172.982C152.282 173.096 152.12 173.249 151.977 173.401C150.862 174.621 150.204 176.784 149.88 179.453C148.794 188.211 151.186 202.41 151.958 206.403Z" fill="#190F0C"/>
<path opacity="0.3" d="M99.9917 145.804C101.812 156.335 138.216 174.041 149.861 179.454C148.794 188.212 151.186 202.411 151.958 206.404C152.796 210.721 153.635 232.306 153.902 237.385C153.902 237.452 153.911 237.519 153.93 237.567C154.111 238.472 155.303 238.786 155.636 239.72C157.313 240.34 158.867 240.721 160.268 240.911C165.947 241.702 169.426 239.549 170.941 238.291C171.494 237.843 171.818 237.195 171.846 236.499C172.027 231.83 172.818 205.079 172.818 192.071V174.203C172.818 174.041 172.818 173.974 172.818 173.974C172.809 173.45 172.704 172.897 172.523 172.326C172.17 172.469 171.789 172.859 171.389 173.507C171.313 173.612 171.246 173.717 171.179 173.831C167.92 179.454 159.315 175.613 159.315 175.613C158.019 175.394 155.579 174.432 152.434 172.974C138.568 166.55 111.313 150.417 108.921 146.719C105.824 141.935 106.205 136.417 109.579 137.265C119.204 139.677 130.115 137.504 130.115 137.504C123.454 132.872 117.374 128.67 117.374 128.67H111.732L104.919 125.344C104.909 125.344 97.8284 133.263 99.9917 145.804Z" fill="#3B1204"/>
<path d="M102.172 129.402C102.172 129.678 102.896 133.309 107.518 134.92C112.235 136.549 117.295 140.237 134.134 135.301C134.134 135.301 142.997 132.261 148.381 128.144C150.287 126.686 151.755 125.104 152.251 123.465C153.918 118.023 155.081 107.998 155.71 101.365C156.062 97.5248 156.244 94.8088 156.244 94.8088C156.244 94.8088 156.653 93.9797 157.292 92.5026C158.416 89.92 160.294 85.3552 162.038 79.8947C164.029 73.5383 165.831 65.943 166.05 58.7671C166.164 55.1077 165.811 49.933 163.315 46.7405C162.419 45.616 161.313 44.7774 159.884 44.3009C158.845 43.9578 157.654 43.8339 156.253 43.9292C156.253 43.9292 154.157 44.1484 151.155 44.4915C144.551 45.2538 133.553 46.6166 131.161 47.5982C127.75 48.9991 112.74 56.6991 107.842 62.8935C107.699 63.0746 107.565 63.2461 107.47 63.4081C107.47 63.4081 107.089 63.6749 106.765 64.809C106.698 64.99 106.651 65.2188 106.593 65.457C106.003 68.1349 105.783 74.1196 108.547 87.2803C113.016 108.703 102.172 128.811 102.172 129.402Z" fill="#FC2709"/>
<path d="M135.245 134.719L136.55 134.596C136.093 129.745 142.573 104.567 145.68 92.4643L145.975 91.3112C149.149 78.951 145.118 58.8622 144.946 58.0331L143.66 58.3C143.698 58.5001 147.796 78.9225 144.698 90.9872L144.403 92.1403C141.039 105.234 134.768 129.64 135.245 134.719Z" fill="#FFB424"/>
<path opacity="0.5" d="M155.053 54.1453C155.139 54.1167 155.225 54.069 155.311 54.0309C155.234 54.069 155.139 54.1071 155.053 54.1453Z" fill="#408784"/>
<path d="M128.123 38.6676C128.342 39.0488 128.209 47.9877 126.675 50.6942C125.207 53.2768 134.708 58.623 141.341 58.7659C143.409 58.8136 150.242 56.5264 150.328 53.8485C150.375 52.4095 147.202 51.3708 147.087 49.522C146.802 44.8905 141.589 39.0964 141.007 38.6676C140.426 38.2292 135.795 35.6276 134.785 35.0463C133.774 34.465 128.314 33.1594 128.076 33.7407C127.837 34.322 126.684 36.1994 126.684 36.1994L128.123 38.6676Z" fill="#FCC39E"/>
<path d="M150.125 48.333C150.125 48.333 150.249 53.7936 149.124 55.7948C148.286 57.291 140.795 55.2231 140.233 55.7948L136.44 48.333H150.125Z" fill="#FCC39E"/>
<path d="M145.455 57.2128C145.541 57.9371 145.789 58.223 146.904 57.8704C149.401 57.0699 152.098 53.9918 152.098 52.9244C152.098 51.4759 147.276 52.3336 147.276 52.3336L145.579 55.5261C145.312 56.0502 145.255 56.6601 145.455 57.2128Z" fill="#FF8726"/>
<path d="M135.977 46.3311C136.139 47.3889 136.444 48.4943 136.949 49.676C140.218 54.7078 148.328 54.6887 152.102 54.5648C152.13 54.5553 157.6 52.0871 159.821 39.4124C160.011 38.3165 159.144 36.1342 160.002 32.4557C156.266 35.1526 151.006 37.6971 144.945 37.0681C139.723 36.5249 135.234 41.1373 135.977 46.3311Z" fill="#FFCEA0"/>
<path opacity="0.3" d="M135.976 46.3312C136.138 47.389 136.442 48.4945 136.948 49.6762C137.481 50.8769 138.215 52.1349 139.216 53.4119C143.151 55.4227 147.831 56.6043 152.624 55.0891C153.491 54.8127 154.292 54.4982 155.035 54.1361C155.13 54.098 155.216 54.0504 155.311 54.0122C164.841 49.2474 164.355 38.2404 164.355 29.311C164.355 29.1109 164.355 28.9012 164.346 28.7011C163.316 29.7589 161.849 31.1217 160 32.4558C156.264 35.1528 151.004 37.6972 144.943 37.0683C139.721 36.5251 135.232 41.1375 135.976 46.3312Z" fill="#175D7E"/>
<path d="M135.976 46.3312C136.138 47.389 136.442 48.4945 136.948 49.6762C137.481 50.8769 138.215 52.1349 139.216 53.4119C143.151 55.4227 147.831 56.6043 152.624 55.0891C153.491 54.8127 154.292 54.4982 155.035 54.1361C155.13 54.098 155.216 54.0504 155.311 54.0122C164.841 49.2474 164.355 38.2404 164.355 29.311C164.355 29.1109 164.355 28.9012 164.346 28.7011C163.316 29.7589 161.849 31.1217 160 32.4558C156.264 35.1528 151.004 37.6972 144.943 37.0683C139.721 36.5251 135.232 41.1375 135.976 46.3312Z" fill="#4F4F4F"/>
<path d="M128.752 45.111C128.752 45.111 133.05 50.2857 139.216 53.421C138.225 52.1345 137.481 50.8766 136.967 49.6853C136.443 48.4941 136.138 47.3887 135.985 46.3309C135.242 41.1371 139.73 36.5247 144.953 37.0774C151.014 37.7064 156.265 35.1619 160.019 32.465C161.859 31.1308 163.317 29.7681 164.355 28.7198C164.117 19.0566 157.275 6.84894 143.247 7.00141C143.247 7.00141 129.924 7.354 124.397 15.683C122.901 17.9035 121.967 20.6957 122.015 24.1932C122.024 24.2599 120.328 34.0088 128.752 45.111Z" fill="#FFCE2B"/>
<path d="M124.388 15.6648C138.816 21.4684 143.191 29.3496 143.886 37.0496C144.239 37.021 144.591 37.0401 144.944 37.0782C151.005 37.7072 156.256 35.1627 160.011 32.4658C160.506 32.1132 160.964 31.7415 161.412 31.408C162.746 18.0853 154.178 9.94689 143.238 7.00219C143.238 6.99266 129.916 7.34525 124.388 15.6648Z" fill="#FFEE62"/>
<path d="M127.818 46.1788C127.818 46.1788 135.118 56.3471 142.389 55.7849C145.687 55.5276 142.685 59.4824 142.685 59.4824C135.9 60.8357 127.409 54.5555 124.388 51.4107C124.254 51.2678 124.388 50.6102 124.388 50.6102C124.388 50.6102 126.722 45.3021 127.818 46.1788Z" fill="#FF8726"/>
<path opacity="0.3" d="M102.177 129.402C102.177 129.678 102.901 133.309 107.523 134.92C112.24 136.549 117.301 140.237 134.14 135.301C134.14 135.301 143.002 132.261 148.387 128.144C134.216 134.767 122.561 135.139 120.14 134.072C112.069 130.498 113.47 122.293 114.68 109.123C115.823 96.5814 107.313 68.5924 106.599 65.4571C106.008 68.135 105.789 74.1197 108.552 87.2803C113.022 108.703 102.177 128.811 102.177 129.402Z" fill="#FF8675"/>
<path opacity="0.3" d="M155.711 101.365C156.064 97.5249 156.245 94.8089 156.245 94.8089C156.245 94.8089 156.654 93.9798 157.293 92.5027C157.293 92.5027 148.964 101.165 135.05 103.595C122.605 105.759 146.801 106.883 155.711 101.365Z" fill="#9F1C0A"/>
<path d="M108.902 230.923L189.514 277.591C189.705 277.696 189.905 277.772 190.115 277.829C190.553 277.934 190.991 277.934 191.411 277.829C191.668 277.781 191.935 277.677 192.183 277.524L235.734 251.069C236.325 250.726 236.773 250.183 236.982 249.526C237.373 248.258 238.107 245.885 239.022 242.75C242.519 230.771 248.675 207.671 248.752 193.271C248.761 190.803 248.599 188.602 248.218 186.753C245.359 172.992 235.543 154.752 231.855 148.224C231.093 146.871 229.377 146.432 228.043 147.214L186.627 171.715L185.998 172.096C184.845 172.792 184.349 174.221 184.845 175.489C187.361 181.845 194.803 200.742 199.826 214.179C200.102 214.923 200.359 215.647 200.626 216.343C204.114 225.758 194.584 255.92 190.972 268.07C190.096 271.006 186.722 270.825 184.054 269.328L125.436 234.669L108.902 230.923Z" fill="#FFB424"/>
<path opacity="0.3" d="M190.115 277.828C190.553 277.933 190.991 277.933 191.411 277.828C191.668 277.781 191.935 277.676 192.183 277.523L235.734 251.069C236.325 250.726 236.772 250.182 236.982 249.525C237.373 248.257 238.107 245.885 239.021 242.749L214.234 238.556C214.234 238.556 200.054 249.62 199.187 253.261C198.663 255.529 193.745 268.26 190.115 277.828Z" fill="#CC8C8C"/>
<path d="M181.004 150.102C181.052 148.796 181.376 147.481 181.852 146.252C183.186 142.869 205.076 128.136 213.691 127.211C215.969 126.963 221.344 129.756 221.344 129.756L207.068 144.622C207.068 144.622 200.454 149.092 193.955 152.198L201.36 155.944L203.494 168.084C203.494 168.084 200.216 182.656 188.495 171.239C180.68 163.644 180.356 155.019 181.004 150.102Z" fill="#4C4749"/>
<path d="M184.854 175.498C187.37 181.854 194.813 200.742 199.835 214.179C212.367 221.432 222.497 219.545 231.436 216.247C239.393 213.322 245.426 201.457 248.752 193.271C248.761 190.803 248.599 188.602 248.218 186.753C245.359 172.992 235.543 154.752 231.855 148.224C231.093 146.871 229.377 146.432 228.034 147.214L210.404 157.649C210.366 157.677 208.374 158.84 208.374 158.84L191.811 168.646L190.829 169.227L186.007 172.086C184.854 172.782 184.359 174.221 184.854 175.498Z" fill="#FFCE2B"/>
<path d="M190.846 169.228L192.79 170.896C192.79 170.896 218.416 204.088 229.89 197.522C230.576 197.141 231.157 196.636 231.662 196.017C239.629 186.43 227.412 151.265 227.126 150.426C227.116 150.397 210.42 157.659 210.42 157.659C210.382 157.688 208.39 158.85 208.39 158.85L191.828 168.657L190.846 169.228Z" fill="#FF8726"/>
<path d="M191.814 168.657L193.53 170.124C193.53 170.124 219.108 203.241 230.591 196.779C238.615 187.04 226.026 151.179 226.026 151.179L208.368 158.851L191.814 168.657Z" fill="#FFCE2B"/>
<path d="M226.039 151.179C226.039 151.179 238.628 187.03 230.604 196.779C231.014 196.54 231.338 196.302 231.652 196.016C239.619 186.429 227.402 151.264 227.116 150.426C227.107 150.416 210.41 157.659 210.41 157.659C210.372 157.687 208.381 158.85 208.381 158.85L226.039 151.179Z" fill="#FFEE62"/>
<path d="M49.8337 131.423C49.8051 133.234 49.8718 135.187 50.0338 137.227C50.1672 136.483 55.4468 135.073 57.6386 136.769C59.3445 138.094 62.251 136.312 61.5077 134.387C61.298 133.853 60.8025 133.301 59.9067 132.805C55.847 130.518 50.1291 125.801 50.1291 125.801C49.9576 127.44 49.8337 129.336 49.8337 131.423Z" fill="#E8593A"/>
<path d="M184.26 155.571C187.948 167.464 196.802 172.601 201.262 170.952C207.38 168.675 216.071 164.911 221.693 160.279C223.685 158.63 225.219 156.972 226.182 155.247C226.496 154.685 226.763 154.094 226.982 153.494C227.221 152.893 227.392 152.264 227.535 151.616C228.469 147.385 227.669 142.506 226.392 138.179C225.982 136.807 225.524 135.482 225.057 134.244C224.981 134.043 224.895 133.853 224.81 133.653C222.904 129.65 218.177 127.754 213.984 129.393C209.39 131.185 192.551 140.924 187.758 144.612C184.337 147.242 183.012 151.588 184.26 155.571Z" fill="#FFB424"/>
<path d="M206.532 165.49C207.123 165.519 207.723 165.519 208.352 165.5C213.841 163.441 218.235 162.641 221.694 160.268C223.476 159.019 224.934 157.475 226.183 155.236C226.497 154.674 226.764 154.083 226.983 153.482C227.202 152.882 227.393 152.253 227.536 151.605C228.451 147.374 227.669 142.495 226.392 138.168C225.982 136.796 225.525 135.471 225.058 134.232C224.982 134.032 224.896 133.842 224.81 133.641C223.238 130.335 219.721 128.467 216.186 128.838C219.054 129.153 221.665 130.906 222.961 133.641C223.057 133.842 223.133 134.032 223.209 134.232C223.686 135.462 224.143 136.786 224.543 138.168C225.811 142.495 226.602 147.374 225.687 151.605C225.544 152.244 225.353 152.873 225.134 153.482C224.915 154.083 224.648 154.674 224.334 155.236C223.085 157.475 221.637 159.019 219.969 160.172C216.386 162.65 212.012 163.441 206.532 165.49Z" fill="#FFEE62"/>
<path d="M206.535 165.491C212.015 163.442 216.389 162.642 219.848 160.278C221.63 159.03 223.088 157.486 224.327 155.247C224.642 154.684 224.908 154.094 225.128 153.493C225.347 152.893 225.537 152.264 225.68 151.616C226.595 147.385 225.814 142.505 224.537 138.179C224.127 136.807 223.67 135.482 223.203 134.243C223.126 134.043 223.05 133.852 222.955 133.652C221.659 130.927 219.048 129.164 216.179 128.849C215.445 128.925 214.702 129.116 213.978 129.392C209.384 131.184 192.545 140.923 187.752 144.611C187.752 144.611 185.512 164.872 206.535 165.491Z" fill="#FFCE2B"/>
<path d="M206.533 165.949C214.719 165.472 217.083 164.834 220.552 162.461C220.59 162.432 219.932 160.221 219.97 160.183C221.638 159.03 223.096 157.486 224.335 155.247C224.649 154.684 224.916 154.094 225.135 153.493C225.355 152.893 225.545 152.264 225.688 151.616C226.603 147.385 225.822 142.505 224.545 138.179C224.135 136.807 223.677 135.482 223.21 134.243C223.134 134.043 223.058 133.852 222.963 133.652C221.667 130.927 219.055 129.164 216.187 128.849C215.453 128.925 214.71 129.116 213.986 129.392C209.392 131.184 192.553 140.923 187.76 144.611C187.75 144.611 185.511 165.329 206.533 165.949Z" fill="#FFCE2B"/>
<path d="M49.8358 131.423C49.8453 132.862 49.912 134.396 50.0359 135.969C50.1693 135.226 55.4489 133.815 57.6407 135.511C58.9653 136.531 60.9952 135.712 61.5098 134.387C61.3001 133.853 60.8046 133.301 59.9088 132.805C55.8491 130.518 50.1312 125.801 50.1312 125.801C49.9597 127.44 49.8358 129.336 49.8358 131.423Z" fill="#F9642D"/>
<path opacity="0.3" d="M217.853 175.707C217.853 175.707 211.916 176.517 210.029 175.078C208.142 173.639 204.254 170.647 204.816 169.56C206.875 165.567 208.867 160.25 208.867 160.25L219.34 168.779L217.853 175.707Z" fill="#CC8C8C"/>
<path d="M208.639 167.923C208.782 168.733 211.279 172.85 216.072 175.289C216.949 175.737 217.854 175.432 218.769 174.651C219.77 173.774 220.761 172.306 221.705 170.543C221.99 170 222.286 169.438 222.553 168.857C224.43 164.949 226.002 160.308 226.803 157.783C227.156 156.639 227.365 155.944 227.365 155.944C227.365 155.944 222.896 151.76 218.331 151.932C217.673 151.941 217.006 152.065 216.368 152.303C214.376 153.009 211.593 154.857 209.888 158.088C209.516 158.784 209.192 159.527 208.944 160.346C208.315 162.443 208.106 164.94 208.639 167.923Z" fill="#FFCE2B"/>
<path d="M218.341 151.922C220.084 153.094 224.001 155.762 225.059 156.82C225.402 157.163 226.031 157.487 226.803 157.763C227.156 156.62 227.365 155.924 227.365 155.924C227.365 155.924 222.905 151.75 218.341 151.922Z" fill="#FFEE62"/>
<path d="M208.639 167.922C208.782 168.732 211.279 172.848 216.072 175.288C216.949 175.736 217.855 175.431 218.769 174.65C219.77 173.773 220.761 172.305 221.705 170.542C221.99 169.999 222.286 169.437 222.553 168.855C221.848 168.227 220.952 167.683 219.875 167.283C213.728 164.948 210.936 160.336 209.888 158.077C209.516 158.773 209.192 159.516 208.944 160.336C208.315 162.442 208.106 164.939 208.639 167.922Z" fill="#FFB424"/>
<path d="M218.178 175.793C219.332 175.793 220.599 175.412 221.838 174.697C226.222 172.162 229.652 166.225 229.652 161.174C229.652 157.038 227.432 155.399 225.297 155.247C225.116 155.218 224.973 155.218 224.897 155.218C223.744 155.218 222.476 155.599 221.238 156.314C216.854 158.849 213.423 164.786 213.423 169.837C213.423 171.628 213.871 173.134 214.729 174.182C215.596 175.231 216.787 175.793 218.178 175.793Z" fill="#E6F8E7"/>
<path d="M228.039 161.175C228.039 165.635 224.885 171.077 221.035 173.307C220.034 173.888 219.043 174.193 218.176 174.193C217.251 174.193 216.508 173.831 215.965 173.173C215.364 172.43 215.021 171.287 215.021 169.838C215.021 165.378 218.176 159.937 222.035 157.707C223.036 157.125 224.027 156.82 224.885 156.82C224.942 156.82 225.009 156.82 225.066 156.839C226.934 156.916 228.039 158.517 228.039 161.175Z" fill="#C7C7C7"/>
<path d="M210.543 263.038L214.298 260.808C214.336 259.045 214.565 257.435 214.927 255.967L212.897 252.593L223.037 246.494C226.867 244.074 232.261 244.303 238.246 247.714C249.958 254.385 259.497 270.7 259.574 284.166C259.612 290.732 257.382 295.401 253.742 297.707L243.602 303.806L241.591 300.481C241.362 300.738 241.219 300.909 241.219 300.909L241.372 300.423C239.533 299.976 237.598 299.213 235.568 298.06C234.053 297.193 232.585 296.173 231.165 295.001L231.604 296.135C231.604 296.135 229.012 297.326 228.364 297.155C227.725 296.974 223.075 293.857 222.35 293.486C221.626 293.114 216.575 286.462 216.051 285.471C215.508 284.49 213.049 279.305 212.411 278.276C211.772 277.266 209.409 269.814 209.409 269.547C209.409 269.299 210.543 263.038 210.543 263.038ZM228.326 291.637C233.557 294.62 237.97 293.181 239.409 288.568C241.4 288.892 243.154 288.464 244.469 287.377C244.917 284.108 245.346 280.792 245.174 280.659C244.841 280.392 240.447 267.946 240.447 267.946L230.784 258.721C230.775 258.721 227.944 259.112 227.944 259.112C226.229 259.779 224.942 261.237 224.285 263.391C219.758 262.771 216.537 266.097 216.604 271.567C216.68 278.981 221.893 287.958 228.326 291.637Z" fill="#242525"/>
<path d="M212.91 252.603C216.741 250.192 222.134 250.421 228.129 253.833C239.822 260.504 249.371 276.819 249.447 290.284C249.485 296.85 247.264 301.529 243.615 303.816C239.784 306.218 234.39 305.999 228.395 302.587C216.702 295.916 207.154 279.601 207.077 266.136C207.039 259.57 209.269 254.89 212.91 252.603ZM228.329 291.628C234.771 295.297 239.955 292.266 239.917 284.852C239.879 277.438 234.628 268.442 228.186 264.763C221.744 261.094 216.559 264.144 216.598 271.558C216.636 278.972 221.887 287.959 228.329 291.628Z" fill="#191A1A"/>
<path d="M216.594 271.568C216.594 272.54 216.709 273.551 216.88 274.561L224.113 270.32C223.904 269.205 223.789 268.1 223.78 267.032C223.77 265.832 223.932 264.488 224.275 263.392C219.758 262.772 216.537 266.108 216.594 271.568Z" fill="#85929C"/>
<path d="M216.892 274.561C217.378 277.343 218.474 280.202 219.989 282.832L227.289 278.563C225.774 275.961 224.64 273.102 224.116 270.32L216.892 274.561Z" fill="#A2AFB8"/>
<path d="M224.563 288.76C225.745 289.913 227.012 290.885 228.327 291.638C228.728 291.867 229.147 292.077 229.538 292.248C229.547 292.248 237.057 287.864 237.057 287.864C236.561 287.664 236.037 287.407 235.522 287.112C234.283 286.397 233.092 285.501 231.958 284.453L224.563 288.76Z" fill="#BBC6CB"/>
<path d="M229.549 292.248C234.256 294.373 238.087 292.82 239.412 288.569C238.65 288.446 237.878 288.217 237.058 287.864L229.549 292.248Z" fill="#A2AFB8"/>
<path d="M222.725 286.778C223.315 287.493 223.925 288.15 224.573 288.76L231.959 284.443C231.311 283.833 230.672 283.175 230.082 282.461L222.725 286.778Z" fill="#D3DBDC"/>
<path d="M219.99 282.831C220.791 284.232 221.715 285.557 222.725 286.777L230.092 282.46C229.005 281.173 228.033 279.81 227.3 278.562L219.99 282.831Z" fill="#BBC6CB"/>
<path d="M231.551 264.564L231.685 289.142L233 289.895L232.867 265.756C232.581 265.47 232.276 265.184 231.971 264.917C231.828 264.784 231.694 264.669 231.551 264.564Z" fill="#A2AFB8"/>
<path d="M223.179 279.619L224.104 281.22L229.526 278.046L231.632 276.817L232.271 276.445C232.28 276.445 232.557 276.283 232.557 276.283L232.928 276.064L233.195 275.902L233.833 275.511L235.921 274.291L236.712 273.844L237.598 273.319L238.312 272.9C238.008 272.357 237.693 271.823 237.36 271.318L236.645 271.737L235.759 272.262L234.996 272.709L232.909 273.929L232.252 274.31L231.985 274.472L231.613 274.692L231.346 274.854L230.698 275.244L228.602 276.464L223.179 279.619Z" fill="#A2AFB8"/>
<path d="M219.972 267.623L219.981 269.129L227.7 273.531L230.683 275.237L231.607 275.761L231.979 275.961C231.989 275.971 232.541 276.285 232.541 276.285L232.913 276.495L233.828 277.019L236.811 278.725L239.26 280.116L240.423 280.784L241.633 281.46C241.604 281.289 241.557 281.117 241.518 280.926C241.414 280.507 241.309 280.107 241.194 279.707L240.003 279.021L238.707 278.287L236.792 277.191L233.828 275.504L232.904 274.98L232.513 274.77L231.97 274.456L231.598 274.246L230.674 273.722C230.645 273.712 227.681 272.016 227.681 272.016L219.972 267.623Z" fill="#A2AFB8"/>
<path d="M223.051 260.692L224.671 263.456L228.55 270.117L230.666 273.739C230.675 273.739 231.333 274.854 231.333 274.854L231.609 275.321L231.99 275.969C232 275.978 232.267 276.455 232.267 276.455C232.276 276.455 232.934 277.589 232.934 277.589L235.049 281.21L239.395 288.643L240.548 290.616L241.463 290.082L239.757 287.157L235.964 280.667L233.849 277.046L233.201 275.931L232.924 275.454L232.533 274.797L232.257 274.33L231.609 273.215L229.493 269.584L226.148 263.875L224.224 260.569C223.976 260.511 223.747 260.473 223.518 260.445L223.051 260.692Z" fill="#A2AFB8"/>
<path d="M227.652 272.749C227.661 275.674 229.739 279.22 232.283 280.668C234.827 282.117 236.876 280.916 236.857 277.99C236.838 275.065 234.761 271.519 232.226 270.071C229.681 268.622 227.632 269.823 227.652 272.749Z" fill="#A2AFB8"/>
<path d="M219.97 267.622L219.093 268.137L222.533 270.51L219.97 267.622Z" fill="#A2AFB8"/>
<path d="M232.104 290.407L232.99 289.893L232.323 287.482L231.437 287.491L232.104 290.407Z" fill="#A2AFB8"/>
<path d="M230.653 263.828L230.796 289.654L232.102 290.406L231.959 264.914C231.53 264.524 231.101 264.171 230.653 263.828Z" fill="#D3DBDC"/>
<path d="M222.293 280.143L223.217 281.744L230.736 277.341L231.394 276.97L231.661 276.808L232.032 276.588L232.299 276.426L232.947 276.036L236.712 273.853L238.312 272.91C238.008 272.367 237.693 271.833 237.36 271.328L235.759 272.271L232.023 274.454L231.365 274.825L231.098 274.987L230.727 275.207L230.46 275.369L229.821 275.759L222.293 280.143Z" fill="#D3DBDC"/>
<path d="M219.097 268.136L219.106 269.642L229.808 275.75L230.733 276.274L231.123 276.484L231.667 276.799L232.038 277.008L232.953 277.532L239.548 281.297L241.873 282.621C241.787 282.049 241.673 281.506 241.52 280.934C241.52 280.925 239.119 279.553 239.119 279.553L232.944 276.027L232.019 275.502L231.629 275.293L231.085 274.978L230.714 274.769L229.789 274.245L219.097 268.136Z" fill="#D3DBDC"/>
<path d="M239.652 291.112L240.576 290.569L223.089 260.684L222.174 261.217L239.652 291.112Z" fill="#D3DBDC"/>
<path d="M226.767 273.272C226.776 276.198 228.854 279.743 231.398 281.191C233.943 282.64 235.982 281.439 235.973 278.513C235.954 275.588 233.876 272.043 231.341 270.594C228.797 269.146 226.748 270.346 226.767 273.272Z" fill="#D3DBDC"/>
<path d="M223.503 260.427C223.732 260.455 223.961 260.493 224.209 260.55C225.457 260.846 226.782 261.37 228.164 262.151C229.012 262.637 229.85 263.2 230.651 263.829C230.956 264.057 231.261 264.296 231.547 264.553C231.69 264.667 231.823 264.782 231.966 264.906C232.271 265.172 232.566 265.458 232.862 265.744C234.539 267.364 236.054 269.27 237.35 271.31C237.684 271.824 238.008 272.348 238.303 272.892C239.533 275.083 240.543 277.38 241.2 279.705C241.315 280.106 241.419 280.506 241.524 280.906C241.562 281.106 241.61 281.278 241.639 281.449C241.743 281.84 241.81 282.221 241.867 282.612C242.087 283.813 242.201 285.004 242.201 286.147C242.249 295.01 236.045 298.631 228.335 294.238C220.635 289.845 214.355 279.095 214.307 270.242C214.269 263.276 218.11 259.54 223.503 260.427ZM228.326 291.637C233.052 294.334 237.112 293.409 238.894 289.816C239.094 289.454 239.247 289.054 239.38 288.625C239.552 288.12 239.666 287.644 239.742 287.129C239.866 286.424 239.923 285.661 239.914 284.861C239.904 283.698 239.771 282.507 239.533 281.306C239.456 280.906 239.352 280.515 239.256 280.115C239.209 279.934 239.17 279.743 239.113 279.553C238.999 279.134 238.865 278.705 238.703 278.295C238.189 276.78 237.512 275.274 236.702 273.844C236.407 273.301 236.083 272.768 235.749 272.253C234.892 270.919 233.929 269.68 232.871 268.555C232.585 268.241 232.28 267.946 231.975 267.641C231.842 267.507 231.699 267.383 231.556 267.259C231.27 266.993 230.965 266.735 230.66 266.488C229.85 265.82 229.021 265.249 228.173 264.763C227.468 264.362 226.791 264.057 226.134 263.838C225.648 263.657 225.181 263.533 224.723 263.447C224.533 263.419 224.409 263.39 224.275 263.381C223.97 263.343 223.685 263.314 223.399 263.314C219.339 263.209 216.537 266.449 216.585 271.557C216.68 278.981 221.893 287.958 228.326 291.637Z" fill="#BBC6CB"/>
<path d="M215.552 250.317L228.246 278.478C228.589 279.24 229.265 279.764 230.028 279.945C230.58 280.079 231.171 280.021 231.714 279.774C233.077 279.059 233.592 277.563 233.029 276.314L220.336 248.163C219.745 246.839 218.201 246.257 216.876 246.848C216.314 247.105 215.876 247.525 215.619 248.049C215.256 248.735 215.218 249.564 215.552 250.317Z" fill="#5F676F"/>
<path d="M215.551 250.317L228.244 278.477C228.588 279.24 229.264 279.764 230.027 279.945C230.579 280.078 231.17 280.021 231.713 279.773C232.228 279.011 232.276 278.172 231.932 277.41L219.248 249.268C218.657 247.944 217.104 247.362 215.789 247.953C215.732 247.982 215.675 248.001 215.617 248.049C215.255 248.735 215.217 249.564 215.551 250.317Z" fill="#505155"/>
<path d="M214.234 237.604C214.234 237.604 206.657 249.535 208.964 252.842C215.301 261.895 234.141 253.271 248.236 273.112L250.98 255.358L240.107 240.605L226.241 237.604H214.234V237.604Z" fill="#FF8726"/>
<path d="M214.234 237.593C214.234 237.593 248.008 250.878 248.237 273.111C248.237 273.111 259.129 272.072 264.723 266.897C264.771 266.859 264.818 266.802 264.866 266.754C270.269 261.141 255.708 237.412 235.076 228.892H234.123C234.123 228.892 233.256 228.988 231.826 229.274C228.1 230.017 220.429 232.123 214.234 237.593Z" fill="#FFEE62"/>
<path d="M214.235 237.594C214.235 237.594 248.008 250.878 248.237 273.111C248.237 273.111 259.13 272.072 264.724 266.898C264.771 266.86 264.819 266.802 264.867 266.755C264.971 257.463 250.848 237.546 231.827 229.274C228.101 230.017 220.429 232.123 214.235 237.594Z" fill="#FFCE2B"/>
<path d="M108.913 230.924L189.526 277.591C190.117 277.896 190.793 277.982 191.432 277.83C193.919 270.92 197.121 261.343 200.542 249.583C207.975 224.024 203.487 216.076 203.487 216.076L186.638 171.725L186.009 172.106C184.856 172.802 184.361 174.231 184.856 175.499C187.372 181.855 194.815 200.743 199.837 214.18C200.113 214.923 200.371 215.648 200.637 216.343C204.125 225.759 194.596 255.921 190.984 268.071C190.107 271.006 186.733 270.825 184.065 269.329L125.447 234.669L108.913 230.924Z" fill="#FF8726"/>
<path d="M172.481 165.368C169.832 164.005 166.411 159.068 168.031 157.648C168.717 157.048 171.252 159.936 171.252 159.936L172.205 160.946L174.12 155.876C174.12 155.876 177.418 159.202 177.637 159.888C177.846 160.574 177.789 163.662 177.637 164.205C177.484 164.758 173.615 165.958 172.481 165.368Z" fill="#FFCEA0"/>
<path d="M164.366 167.767C164.89 167.767 165.424 167.643 165.919 167.377L183.073 158.094C184.664 157.237 185.255 155.245 184.398 153.654C183.54 152.062 181.548 151.471 179.957 152.329L162.803 161.611C161.212 162.469 160.621 164.46 161.478 166.052C162.069 167.148 163.203 167.767 164.366 167.767Z" fill="#4C4749"/>
<path d="M107.465 83.8137C109.209 89.1789 126.001 120.589 127.154 122.6C127.687 123.534 131.242 124.592 134.739 124.487C135.044 124.487 135.33 124.477 135.616 124.449C139.428 124.163 142.868 122.362 141.763 117.397C139.6 107.552 124.828 69.0235 120.197 66.012C120.197 66.012 114.66 61.0851 110.067 62.0572C109.676 62.1334 109.276 62.2668 108.895 62.4479C108.38 62.6671 107.894 63.0006 107.456 63.4199C102.691 67.8989 105.731 78.4675 107.465 83.8137Z" fill="#FD4B06"/>
<path d="M127.154 122.599C131.833 133.31 158.612 151.903 161.194 153.618C161.728 153.971 162.662 153.933 163.71 153.58C164.787 153.228 165.978 152.532 166.969 151.598C168.952 149.759 170.19 146.995 168.304 144.022C168.304 144.022 143.736 117.701 141.754 117.396C140.581 117.224 134.397 116.214 130.308 117.129C130.118 117.176 129.918 117.234 129.717 117.281C127.278 117.986 125.81 119.53 127.154 122.599Z" fill="#FD4B06"/>
<path opacity="0.3" d="M107.465 83.8131C109.209 89.1784 126 120.589 127.153 122.599C131.832 133.311 158.611 151.903 161.194 153.619C161.727 153.971 162.661 153.933 163.71 153.581C164.786 153.228 165.978 152.532 166.969 151.599C166.683 151.465 166.378 151.322 166.073 151.179C148.519 143.041 139.113 131.453 134.729 124.486C132.461 120.884 131.547 118.521 131.547 118.521C131.127 118.063 130.717 117.587 130.317 117.129C110.476 94.0195 108.894 62.4378 108.894 62.4378C108.38 62.657 107.894 62.9905 107.455 63.4098C102.69 67.8984 105.73 78.4669 107.465 83.8131Z" fill="#FF8151"/>
<path d="M183.606 153.487C183.606 153.487 179.489 150.409 174.629 149.713C170.503 149.123 168.844 146.731 168.025 146.273C165.614 144.93 161.163 150.857 162.936 152.21C165.881 154.469 166.805 154.802 168.015 155.489C169.407 156.279 173.095 159.806 173.59 161.159C174.076 162.502 186.922 159.3 183.606 153.487Z" fill="#FFCEA0"/>
<path d="M173.573 159.195C173.573 159.195 173.907 162.531 172.801 163.798C169.476 167.639 181.197 164.465 183.027 161.473C183.027 161.473 184.819 155.45 183.808 153.868C182.246 151.419 173.24 158.661 173.24 158.661L173.573 159.195Z" fill="#FFCEA0"/>
<path opacity="0.5" d="M65.0663 139.685C65.0663 139.685 74.2244 146.004 82.2676 149.615L76.2638 145.298L67.706 140.076L65.0663 139.685Z" fill="#9A6A4E"/>
<path opacity="0.5" d="M65.0663 142.362C64.8376 142.762 82.0389 152.692 82.2676 152.292L76.2638 147.975L67.706 142.762L65.0663 142.362Z" fill="#9A6A4E"/>
<path opacity="0.5" d="M65.0663 145.241C65.0663 145.241 74.2244 151.559 82.2676 155.171L76.2638 150.854L67.706 145.632L65.0663 145.241Z" fill="#9A6A4E"/>
<path d="M82.2676 149.633C82.2676 149.214 82.1628 148.795 81.9817 148.375C81.6863 147.68 81.1716 147.041 80.5903 146.708L66.734 138.712C65.8096 138.179 65.0568 138.607 65.0568 139.684C65.0568 139.703 65.5237 139.97 65.5237 139.97L82.2676 149.633Z" fill="#FFCE2B"/>
<path d="M82.2676 155.18C82.2676 154.761 82.1628 154.342 81.9817 153.922C81.6863 153.227 81.1716 152.588 80.5903 152.255L66.734 144.259C65.8096 143.726 65.0568 144.154 65.0568 145.231C65.0568 145.25 65.5237 145.517 65.5237 145.517L82.2676 155.18Z" fill="#FFCE2B"/>
<path d="M82.2676 152.291C82.2676 151.882 82.1628 151.453 81.9817 151.043C81.6863 150.347 81.1716 149.709 80.5903 149.375L66.734 141.38C65.8096 140.846 65.0568 141.275 65.0568 142.352C65.0568 142.371 65.5237 142.638 65.5237 142.638L82.2676 152.291Z" fill="#FFCE2B"/>
</svg>
