<svg id="Layer_1" enable-background="new 0 0 511.7 511.7" height="512" viewBox="0 0 511.7 511.7" width="512" xmlns="http://www.w3.org/2000/svg"><g><path d="m250.587 301.859c9.386 0 9.813-15 0-15h-25.427c-4.142 0-7.5 3.357-7.5 7.5v62.953c0 9.386 15 9.813 15 0v-24.572h15.907c9.386 0 9.813-15 0-15h-15.907v-15.881z"/><path d="m379.177 301.973c9.386 0 9.813-15 0-15h-26.386c-4.142 0-7.5 3.357-7.5 7.5v62.839c0 4.143 3.358 7.5 7.5 7.5h26.386c9.386 0 9.813-15 0-15h-18.886v-16.419h16.94c9.386 0 9.813-15 0-15h-16.94v-16.42z"/><path d="m439.582 301.973c9.386 0 9.813-15 0-15h-26.386c-4.142 0-7.5 3.357-7.5 7.5v62.839c0 4.143 3.358 7.5 7.5 7.5h26.386c9.386 0 9.813-15 0-15h-18.886v-16.419h16.94c9.386 0 9.813-15 0-15h-16.94v-16.42z"/><path d="m326.274 310.377c0-13.224-11.149-23.982-24.854-23.982h-16.793c-.003 0-.007 0-.01 0s-.007 0-.01 0c-4.142 0-7.5 3.357-7.5 7.5v63.418c0 9.386 15 9.813 15 0v-19.031l21.029 23.976c6.257 7.132 17.566-2.72 11.277-9.891l-16.523-18.838c10.576-2.755 18.384-12.088 18.384-23.152zm-24.854 8.981c-2.146 0-5.845.016-9.219.032-.017-3.315-.033-6.929-.033-9.014 0-1.77-.009-5.51-.019-8.982h9.271c5.341 0 9.854 4.113 9.854 8.982s-4.513 8.982-9.854 8.982z"/><path d="m504.2 59.551h-123.978-95.702-123.978c-4.142 0-7.5 3.357-7.5 7.5v377.598c0 4.143 3.358 7.5 7.5 7.5h219.158c9.386 0 9.813-15 0-15h-211.658v-362.598h108.978v27.299c0 9.386 15 9.813 15 0v-27.299h80.703v121.415h-80.703v-54.116c0-9.386-15-9.813-15 0v61.616c0 4.143 3.358 7.5 7.5 7.5h95.703c4.142 0 7.5-3.357 7.5-7.5v-128.915h108.977v362.598h-74c-9.386 0-9.813 15 0 15h81.5c4.142 0 7.5-3.357 7.5-7.5v-377.598c0-4.142-3.358-7.5-7.5-7.5z"/><path d="m437.861 250.715h-215.33c-4.142 0-7.5 3.357-7.5 7.5s3.358 7.5 7.5 7.5h215.33c9.386 0 9.813-15 0-15z"/><path d="m222.531 400.492h215.33c9.386 0 9.813-15 0-15h-215.33c-4.142 0-7.5 3.357-7.5 7.5s3.358 7.5 7.5 7.5z"/><path d="m121.391 175.753h-76.127c-9.386 0-9.813 15 0 15h76.127c9.385 0 9.813-15 0-15z"/><path d="m121.391 248.35h-114.191c-9.386 0-9.813 15 0 15h114.19c9.386 0 9.814-15 .001-15z"/><path d="m121.391 320.947h-76.127c-9.386 0-9.813 15 0 15h76.127c9.385 0 9.813-15 0-15z"/></g></svg>