<svg width="40" height="40" viewBox="0 0 40 40" fill="none" xmlns="http://www.w3.org/2000/svg">
<g clip-path="url(#clip0)">
<path d="M3.51268 19.7132H9.65213V22.4482C9.65213 22.7718 9.9144 23.0342 10.2381 23.0342C10.5617 23.0342 10.824 22.7718 10.824 22.4482V19.1272V14.1728C10.824 13.8492 10.5617 13.5869 10.2381 13.5869H4.62682C4.35276 13.5869 4.11526 13.7769 4.05518 14.0442L2.94104 18.9986C2.90198 19.1723 2.94401 19.3543 3.05518 19.4933C3.16635 19.6322 3.33471 19.7132 3.51268 19.7132ZM5.09565 14.7587H9.65213V18.5413H4.24502L5.09565 14.7587Z" fill="#FC510D"/>
<path d="M10.0506 27.9095C9.73652 27.9853 9.54277 28.3025 9.61934 28.6165C9.64121 28.7064 9.65215 28.7993 9.65215 28.8931C9.65051 29.5384 9.1248 30.0642 8.48027 30.0649C7.83496 30.0642 7.30918 29.5384 7.30762 28.8931C7.30918 28.2485 7.83496 27.7228 8.48027 27.722C8.80293 27.722 9.06543 27.4587 9.06543 27.136C9.06543 26.8126 8.80293 26.5501 8.48027 26.5501C7.18465 26.5501 6.1373 27.5964 6.13574 28.8931C6.1373 30.1896 7.18355 31.2368 8.48027 31.2368C9.77285 31.2368 10.8232 30.1922 10.8232 28.8931C10.8232 28.7064 10.8014 28.5212 10.7584 28.3415C10.6815 28.0244 10.3645 27.8337 10.0506 27.9095Z" fill="#FC510D"/>
<path d="M30.1071 27.8931C30.0609 27.8931 30.0148 27.8985 29.9688 27.9095C29.6547 27.9853 29.4617 28.3025 29.5375 28.6165C29.5586 28.7071 29.5703 28.8001 29.5703 28.8939C29.5687 29.5384 29.043 30.0642 28.3984 30.0657C27.753 30.0642 27.2273 29.5384 27.2266 28.8939C27.2273 28.2485 27.753 27.7228 28.3984 27.7212C28.7211 27.7212 28.9844 27.4587 28.9844 27.136C28.9844 26.8126 28.7211 26.5501 28.3984 26.5501C27.7718 26.5501 27.1836 26.7939 26.7405 27.236C26.2984 27.679 26.0547 28.2673 26.0547 28.8939C26.0547 29.5196 26.2984 30.1079 26.7405 30.5509C27.1836 30.9931 27.7718 31.2368 28.3984 31.2368C29.0242 31.2368 29.6125 30.9931 30.0555 30.5509C30.4977 30.1079 30.7413 29.5196 30.7413 28.8939C30.7413 28.7064 30.7195 28.5204 30.6766 28.3415C30.6126 28.0775 30.3782 27.8931 30.1071 27.8931Z" fill="#FC510D"/>
<path d="M39.4141 17.4156H36.875V15.3126H37.8515C38.1752 15.3126 38.4374 15.0503 38.4374 14.7267C38.4374 14.4031 38.1752 14.1408 37.8515 14.1408H36.875V12.0378H38.6327C38.9564 12.0378 39.2187 11.7754 39.2187 11.4519C39.2187 11.1283 38.9564 10.8659 38.6327 10.8659H36.875V8.76302H39.4141C39.7377 8.76302 40 8.50068 40 8.17709C40 7.85349 39.7377 7.59115 39.4141 7.59115H36.773C36.6868 7.34701 36.5482 7.12263 36.3602 6.93451C36.0281 6.60248 35.5867 6.41967 35.1172 6.41888H13.7539C13.2835 6.41967 12.8422 6.60248 12.5109 6.93451C12.1789 7.26576 11.9961 7.70717 11.9953 8.1767V11.2431H4.76641C3.38625 11.2431 2.21086 12.1836 1.90812 13.53L1.02109 17.4742C0.784219 18.5279 0.664062 19.6097 0.664062 20.6897V26.0812C0.271797 26.2709 0 26.6716 0 27.1358V28.3076C0 28.9538 0.525703 29.4795 1.17188 29.4795H3.83047C4.11992 31.7885 6.09391 33.5811 8.48008 33.5811C10.8663 33.5811 12.8402 31.7885 13.1297 29.4795H23.7486C24.038 31.7885 26.012 33.5811 28.3982 33.5811C30.787 33.5811 32.7627 31.7846 33.0487 29.472C33.9441 29.3917 34.6483 28.6376 34.6483 27.7217V23.0338H35.1173C35.5868 23.0338 36.0282 22.851 36.3602 22.5197C36.5483 22.3312 36.6868 22.1067 36.7731 21.8623H38.6328C38.9565 21.8623 39.2188 21.6 39.2188 21.2764C39.2188 20.9528 38.9565 20.6904 38.6328 20.6904H36.875V18.5875H39.4141C39.7377 18.5875 40 18.3251 40 18.0015C40 17.6779 39.7377 17.4156 39.4141 17.4156ZM2.16445 17.7313L3.05148 13.787C3.23312 12.9791 3.93836 12.4149 4.76641 12.4149H11.9953V22.4486C11.9953 22.4511 11.9956 22.4536 11.9957 22.4561V25.798C11.1361 24.8229 9.87914 24.2061 8.48008 24.2061C7.05695 24.2061 5.7132 24.8581 4.82531 25.9639H1.83594V20.6897C1.83594 19.6962 1.94648 18.7008 2.16445 17.7313ZM1.17188 27.1358H4.13523C3.98273 27.5108 3.88031 27.904 3.82969 28.3076H1.17188V27.1358ZM8.48008 32.4092C6.54156 32.4092 4.96445 30.8321 4.96445 28.8936C4.96445 26.9405 6.56289 25.3779 8.48008 25.3779C10.4186 25.3779 11.9957 26.9551 11.9957 28.8936C11.9957 30.8321 10.4186 32.4092 8.48008 32.4092ZM28.3981 32.4092C26.4596 32.4092 24.8825 30.8321 24.8825 28.8936C24.8825 26.9551 26.4596 25.3779 28.3981 25.3779C30.3366 25.3779 31.9137 26.9551 31.9137 28.8936C31.9137 30.8321 30.3367 32.4092 28.3981 32.4092ZM35.1172 21.8626H14.9258C14.6023 21.8626 14.3391 22.1251 14.3391 22.4486C14.3391 22.7712 14.6023 23.0337 14.925 23.0337H33.4763V27.7216C33.4763 27.9912 33.2932 28.2181 33.045 28.2862C32.7461 25.9876 30.777 24.206 28.3982 24.206C26.0121 24.206 24.038 25.9986 23.7486 28.3076H13.1676V22.4482H13.1672V8.1767C13.168 7.85482 13.4313 7.59154 13.7539 7.59076H35.1172C35.4391 7.59154 35.7011 7.85373 35.703 8.17467C35.703 8.17545 35.703 8.17623 35.703 8.17709C35.703 8.17865 35.7032 8.18006 35.7032 8.18162V11.4473C35.7032 11.4489 35.703 11.4504 35.703 11.4519C35.703 11.4533 35.7032 11.4548 35.7032 11.4564V14.7222C35.7032 14.7237 35.703 14.7252 35.703 14.7267C35.703 14.7282 35.7032 14.7297 35.7032 14.7312V17.997C35.7032 17.9986 35.703 18.0001 35.703 18.0015C35.703 18.003 35.7032 18.0045 35.7032 18.0061V21.2718C35.7032 21.2733 35.703 21.2748 35.703 21.2763C35.703 21.277 35.703 21.2776 35.703 21.2783C35.7009 21.5999 35.4391 21.8619 35.1172 21.8626Z" fill="#FC510D"/>
<path d="M19.5709 12.3832H17.7743C17.4507 12.3832 17.1885 12.6454 17.1885 12.969V16.4843C17.1885 16.8079 17.4507 17.0702 17.7743 17.0702C18.0978 17.0702 18.3601 16.808 18.3601 16.4843V15.3125H19.1022C19.4258 15.3125 19.688 15.0503 19.688 14.7266C19.688 14.403 19.4258 14.1407 19.1022 14.1407H18.3601V13.5548H19.5709C19.8945 13.5548 20.1567 13.2926 20.1567 12.9689C20.1567 12.6454 19.8945 12.3832 19.5709 12.3832Z" fill="#FC510D"/>
<path d="M24.3745 14.1409C24.3745 13.1719 23.5905 12.3834 22.6268 12.3834H21.4842C21.1607 12.3834 20.8984 12.6455 20.8984 12.9691V16.4844C20.8984 16.808 21.1607 17.0703 21.4842 17.0703C21.8077 17.0703 22.0701 16.8081 22.0701 16.4844V15.8986H22.3826L23.3726 16.897C23.4871 17.0125 23.6379 17.0703 23.7886 17.0703C23.9377 17.0703 24.0868 17.0137 24.2012 16.9005C24.4308 16.6727 24.4323 16.3016 24.2047 16.072L23.6797 15.5427C24.1015 15.2213 24.3745 14.7127 24.3745 14.1409ZM22.6268 14.7266H22.0701V13.5549H22.6268C22.9443 13.5549 23.2027 13.8177 23.2027 14.1409C23.2027 14.4639 22.9443 14.7266 22.6268 14.7266Z" fill="#FC510D"/>
<path d="M27.6949 13.5548C28.0185 13.5548 28.2807 13.2926 28.2807 12.9689C28.2807 12.6453 28.0185 12.3831 27.6949 12.3831H25.8983C25.5748 12.3831 25.3125 12.6453 25.3125 12.9689V16.4841C25.3125 16.8078 25.5748 17.0701 25.8983 17.0701H27.6949C28.0185 17.0701 28.2807 16.8079 28.2807 16.4841C28.2807 16.1605 28.0185 15.8983 27.6949 15.8983H26.4841V15.3124H27.2263C27.5498 15.3124 27.812 15.0502 27.812 14.7265C27.812 14.4029 27.5498 14.1406 27.2263 14.1406H26.4841V13.5547H27.6949V13.5548Z" fill="#FC510D"/>
<path d="M31.3678 13.5548C31.6914 13.5548 31.9536 13.2926 31.9536 12.9689C31.9536 12.6453 31.6914 12.3831 31.3678 12.3831H29.5711C29.2476 12.3831 28.9854 12.6453 28.9854 12.9689V16.4841C28.9854 16.8078 29.2476 17.0701 29.5711 17.0701H31.3678C31.6914 17.0701 31.9536 16.8079 31.9536 16.4841C31.9536 16.1605 31.6914 15.8983 31.3678 15.8983H30.157V15.3124H30.8991C31.2227 15.3124 31.4849 15.0502 31.4849 14.7265C31.4849 14.4029 31.2227 14.1406 30.8991 14.1406H30.157V13.5547H31.3678V13.5548Z" fill="#FC510D"/>
</g>
<defs>
<clipPath id="clip0">
<rect width="40" height="40" fill="white"/>
</clipPath>
</defs>
</svg>
