<svg  viewBox="0 0 215 215" fill="none" xmlns="http://www.w3.org/2000/svg">
<g clip-path="url(#clip0)">
<path d="M80.8985 7.86783C80.8985 7.86783 76.3103 30.7128 100.345 36.6355C123.927 42.4463 134.765 19.2401 131.554 7.23751L80.8985 7.86783Z" fill="#F89E11"/>
<path d="M94.8139 26.706C94.5574 25.5174 92.7091 25.9143 92.9662 27.1053C93.223 28.2939 95.0712 27.897 94.8139 26.706Z" fill="#F18314"/>
<path d="M94.7788 30.0422C94.522 28.8536 92.6741 29.2506 92.931 30.4416C93.1875 31.6302 95.0357 31.2332 94.7788 30.0422Z" fill="#F18314"/>
<path d="M92.2846 28.4349C92.0278 27.2463 90.1796 27.6432 90.4369 28.8342C90.6934 30.0228 92.5417 29.6259 92.2846 28.4349Z" fill="#F18314"/>
<path d="M101.319 20.026C100.744 19.7384 96.8849 21.1043 95.2074 21.8233C95.2074 20.7449 78.959 16.7909 80.1093 15.353C81.5472 13.5557 78.3131 6.00685 80.8294 5.64738C83.3457 5.28792 105.632 11.7584 107.789 11.3989C109.946 11.0395 130.435 6.00696 131.154 6.00696C131.73 6.00696 132.233 9.96107 132.592 12.4773L131.873 16.072L129.35 17.8693H125.762L117.854 16.7909L106.351 20.745C104.913 20.6251 101.894 20.3135 101.319 20.026Z" fill="#A6A5A5"/>
<path d="M81.8831 16.0902L80.8496 5.50043L91.5886 1.71163L105.967 0.63324L121.065 1.71163L126.816 3.14949L131.13 6.02521L132.208 12.855L126.816 17.1686L117.83 16.0902L109.562 18.247L104.17 20.0443L100.935 19.3254L95.5427 21.8417L81.8831 16.0902Z" fill="#CACACA"/>
<ellipse cx="96.2863" cy="12.8355" rx="12.2218" ry="2.51625" fill="#D5D3D3"/>
</g>
</svg>
