<svg viewBox="0 0 50 50" fill="none" xmlns="http://www.w3.org/2000/svg">
<g clip-path="url(#clip0)">
<path d="M3.43701 18.4019C3.43701 18.4019 -0.511706 38.0628 20.1732 43.16C40.4686 48.1609 49.7957 28.1891 47.0322 17.8594L3.43701 18.4019Z" fill="#F89E11"/>
<path d="M15.4168 34.6136C15.1961 33.5907 13.6054 33.9323 13.8266 34.9573C14.0476 35.9803 15.6383 35.6386 15.4168 34.6136Z" fill="#F18314"/>
<path d="M15.3778 37.4867C15.1568 36.4637 13.5664 36.8054 13.7876 37.8303C14.0083 38.8533 15.5989 38.5117 15.3778 37.4867Z" fill="#F18314"/>
<path d="M13.2391 36.1023C13.0181 35.0794 11.4275 35.421 11.649 36.446C11.8697 37.4689 13.4603 37.1273 13.2391 36.1023Z" fill="#F18314"/>
<path d="M21.0121 28.8646C20.5171 28.6171 17.1962 29.7927 15.7525 30.4114C15.7525 29.4834 1.76873 26.0805 2.7587 24.843C3.99615 23.2962 1.21288 16.7994 3.37843 16.4901C5.54398 16.1807 24.7245 21.7494 26.5807 21.44C28.4369 21.1306 46.0706 16.7995 46.6893 16.7995C47.1843 16.7995 47.6174 20.2025 47.9268 22.3681L47.3081 25.4617L42.0489 27.0085L35.2429 26.0805L25.3432 29.4835C24.1058 29.3803 21.5071 29.1121 21.0121 28.8646Z" fill="#A6A5A5"/>
<path d="M4.2781 25.4742L3.38867 16.3604L12.6309 13.0996L25.0055 12.1715L37.9988 13.0996L42.9486 14.3371L46.661 16.812L47.5891 22.6899L42.9486 26.4023L35.2145 25.4742L28.0992 27.3304L23.4587 28.8772L20.6744 28.2585L16.0339 30.424L4.2781 25.4742Z" fill="#CACACA"/>
<ellipse cx="16.6766" cy="22.678" rx="10.5184" ry="2.16555" fill="#D5D3D3"/>
</g>
</svg>
