<svg viewBox="0 0 45 45" fill="none" xmlns="http://www.w3.org/2000/svg">
<path d="M4.19073 5.64949L11.9479 25.7173C12.3998 26.9864 12.701 28.3348 12.701 29.6833V40.6294C12.701 42.1364 13.906 43.4055 15.337 43.4055H29.1945C30.6254 43.4055 31.8304 42.1364 31.8304 40.6294V29.6833C31.8304 28.3348 32.0563 26.9864 32.5835 25.7173L40.3407 5.64949C41.0185 3.90446 39.8135 2.00079 38.006 2.00079H6.60072C4.71791 2.00079 3.51291 3.90446 4.19073 5.64949Z" fill="#8D360B"/>
<path d="M9.18905 5.64949L14.8934 25.7173C15.2687 26.9864 15.4188 28.3348 15.4188 29.6833V40.6294C15.4188 42.1364 16.3195 43.4055 17.3703 43.4055H27.578C28.6288 43.4055 29.5295 42.1364 29.5295 40.6294V29.6833C29.5295 28.3348 29.6796 26.9864 30.0549 25.7173L35.7593 5.64949C36.2847 3.90446 35.384 2.00079 34.033 2.00079H10.9154C9.56432 2.00079 8.66365 3.90446 9.18905 5.64949Z" fill="#9E3D0C"/>
<path d="M18.1181 40.3895V29.5677C18.1181 28.2249 17.9675 26.8821 17.7416 25.6182L14.1271 5.63357C13.8259 3.89578 14.353 2 15.2566 2H12.5457C11.4162 2 10.5879 3.89578 11.0397 5.63357L16.0097 25.6182C16.3109 26.8821 16.4615 28.2249 16.4615 29.5677V40.4685C16.4615 41.9693 17.2145 43.2331 18.1181 43.2331H19.323C18.6452 43.1541 18.1181 41.9693 18.1181 40.3895Z" fill="#BD490E"/>
</svg>
