<svg viewBox="0 0 215 215" xmlns="http://www.w3.org/2000/svg">
<g id="Hookah">
<path id="Vector" d="M141.082 85.5296L140.539 85.9233L135.573 88.3456L132.891 85.8425L135.007 80.676L135.378 80.1588L141.082 85.5296Z" fill="#EEBA4C"/>
<path id="Vector_2" d="M144.106 83.1018C142.396 84.9275 139.569 85.0089 137.802 83.3016C135.976 81.5924 135.895 78.7648 137.602 76.9979C139.311 75.1723 142.139 75.0908 143.906 76.7981C145.673 78.5054 145.754 81.3329 144.106 83.1018Z" fill="#EEBA4C"/>
<path id="Vector_3" d="M143.051 81.1806C141.89 82.4362 139.947 82.4885 138.691 81.3281C137.435 80.1677 137.383 78.2239 138.543 76.9683C139.704 75.7126 141.648 75.6603 142.903 76.8207C144.159 77.9811 144.211 79.9249 143.051 81.1806Z" fill="#FFD275"/>
<path id="Vector_4" d="M141.728 78.5472C141.24 79.0604 140.356 79.0895 139.843 78.6014C139.33 78.1133 139.301 77.2296 139.789 76.7164C140.277 76.2032 141.161 76.1741 141.674 76.6621C142.187 77.1502 142.218 77.9751 141.728 78.5472Z" fill="#FFE194"/>
<path id="Vector_5" d="M142.916 84.8954L135.879 78.2973L134.712 79.5416L141.749 86.1397L142.916 84.8954Z" fill="#EEBA4C"/>
<path id="Vector_6" d="M135.062 87.9162L133.408 86.3304L136.465 81.1956L140.003 84.4926L135.062 87.9162Z" fill="#FFD275"/>
<path id="Vector_7" d="M141.584 83.6491L137.207 79.5454L136.04 80.7898L140.417 84.8934L141.584 83.6491Z" fill="#FFD275"/>
<path id="Vector_8" d="M138.588 80.888L137.602 79.9627L136.435 81.207L137.422 82.1324L138.588 80.888Z" fill="#FFE194"/>
<path id="Vector_9" d="M73.6689 78.6102L74.277 79.0246L85.6288 87.5722L88.416 84.723L80.0542 73.0672L79.6488 72.4974L73.6689 78.6102Z" fill="#EEBA4C"/>
<path id="Vector_10" d="M79.0402 70.5006L80.3457 71.8062L72.9116 79.2403L71.6061 77.9348L79.0402 70.5006Z" fill="#EEBA4C"/>
<path id="Vector_11" d="M86.3604 86.915L88.0879 85.1875L78.7391 73.8064L74.9793 77.5662L86.3604 86.915Z" fill="#FFD275"/>
<path id="Vector_12" d="M77.8353 74.1377L87.7617 85.2016L87.396 85.6077L76.9472 75.0005L77.8353 74.1377Z" fill="#FFE194"/>
<path id="Vector_13" d="M77.6593 71.8777L78.9648 73.1832L74.3231 77.825L73.0176 76.5195L77.6593 71.8777Z" fill="#FFD275"/>
<path id="Vector_14" d="M79.8021 75.1064L80.959 76.2633L80.0271 77.1952L78.8702 76.0383L79.8021 75.1064Z" fill="#FFE194"/>
<path id="Vector_15" d="M73.668 78.3286L74.261 78.7239L79.8945 73.041L79.4992 72.4974L73.668 78.3286Z" fill="#EEBA4C"/>
<path id="Vector_16" d="M137.248 33.9868C137.248 36.7662 123.624 39.0664 106.77 39.0664C89.9168 39.0664 76.293 36.7662 76.293 33.9868C76.293 31.2074 89.9168 28.9073 106.77 28.9073C123.624 28.9073 137.248 31.2074 137.248 33.9868Z" stroke="#A26B33" stroke-width="1.51432" stroke-miterlimit="10"/>
<path id="Vector_17" d="M135.934 36.1168L134.932 40.4068L134.755 41.2112C132.928 48.8082 125.089 53.8133 119.725 53.8133H92.6106C87.3056 53.8133 78.6409 48.7189 76.8136 41.2112L76.6368 40.4068L75.6348 36.1168H135.934Z" fill="#EEBA4C"/>
<path id="Vector_18" d="M131.02 36.1168H82.8457L83.7903 41.2112C85.2072 48.8082 89.0446 53.8133 93.2952 53.8133H120.511C124.762 53.8133 128.54 48.7189 130.016 41.2112L131.02 36.1168Z" fill="#FFD275"/>
<path id="Vector_19" d="M127.744 42.3413H85.7969L86.6287 45.6433C87.8764 50.5673 91.2037 53.8113 94.8875 53.8113H118.654C122.337 53.8113 125.665 50.5094 126.912 45.6433L127.744 42.3413Z" fill="#FFD275"/>
<path id="Vector_20" d="M90.7633 45.6431L90.1129 42.3413H85.7969L86.6246 45.6431C87.8662 50.5668 91.1771 53.8106 94.8428 53.8106H97.2669C94.3698 53.8685 91.7092 50.5668 90.7633 45.6431Z" fill="#FFE194"/>
<path id="Vector_21" d="M135.934 36.1168L134.932 40.5638C116.129 47.2342 95.0272 46.4931 76.6368 40.5638L75.6348 36.1168H135.934Z" fill="#FFD275"/>
<path id="Vector_22" d="M123.425 42.3413L122.775 45.6433C121.77 50.5673 119.169 53.8113 116.271 53.8113H118.696C122.361 53.8113 125.672 50.5094 126.914 45.6433L127.741 42.3413H123.425Z" fill="#EEBA4C"/>
<path id="Vector_23" d="M137.248 33.9868C137.248 36.7662 123.624 39.0664 106.77 39.0664C89.9168 39.0664 76.293 36.7662 76.293 33.9868C76.293 31.2074 89.9168 28.9073 106.77 28.9073C123.624 28.9073 137.248 31.2074 137.248 33.9868Z" fill="url(#paint0_linear)"/>
<path id="Vector_24" d="M112.013 33.8228H100.543V39.0662H112.013V33.8228Z" fill="#A26B33"/>
<path id="Vector_25" d="M111.033 33.8228H101.529V39.0662H111.033V33.8228Z" fill="#EEBA4C"/>
<path id="Vector_26" d="M106.771 33.8228H103.166V39.0662H106.771V33.8228Z" fill="#FFD275"/>
<path id="Vector_27" d="M106.769 28.9073C88.4526 28.9073 73.6699 31.488 73.6699 34.8061C73.6699 38.032 88.5115 40.705 106.769 40.705C125.085 40.705 139.868 38.1242 139.868 34.8061C139.868 31.5802 125.027 28.9073 106.769 28.9073ZM106.769 39.1381C89.8661 39.1381 76.2024 36.926 76.2024 34.2531C76.2024 31.5802 89.8661 29.3681 106.769 29.3681C123.672 29.3681 137.336 31.5802 137.336 34.2531C137.336 36.926 123.672 39.1381 106.769 39.1381Z" fill="#FFE194"/>
<path id="Vector_28" d="M92.8266 6.71463L98.8806 21.6451C99.2333 22.5893 99.4684 23.5925 99.4684 24.5958V32.7397C99.4684 33.8609 100.409 34.8051 101.526 34.8051H112.341C113.457 34.8051 114.398 33.8609 114.398 32.7397V24.5958C114.398 23.5925 114.574 22.5893 114.986 21.6451L121.04 6.71463C121.569 5.41633 120.628 4 119.218 4H94.7075C93.238 4 92.2976 5.41633 92.8266 6.71463Z" fill="#8D360B"/>
<path id="Vector_29" d="M96.726 6.71463L101.178 21.6451C101.471 22.5893 101.588 23.5925 101.588 24.5958V32.7397C101.588 33.8609 102.291 34.8051 103.111 34.8051H111.078C111.898 34.8051 112.601 33.8609 112.601 32.7397V24.5958C112.601 23.5925 112.718 22.5893 113.011 21.6451L117.463 6.71463C117.873 5.41633 117.17 4 116.115 4H98.0733C97.0189 4 96.316 5.41633 96.726 6.71463Z" fill="#9E3D0C"/>
<path id="Vector_30" d="M103.693 32.5618V24.5104C103.693 23.5113 103.575 22.5123 103.399 21.572L100.578 6.70338C100.343 5.41046 100.754 4 101.459 4H99.3437C98.4622 4 97.8157 5.41046 98.1683 6.70338L102.047 21.572C102.282 22.5123 102.4 23.5113 102.4 24.5104V32.6205C102.4 33.7372 102.987 34.6775 103.693 34.6775H104.633C104.104 34.6187 103.693 33.7372 103.693 32.5618Z" fill="#BD490E"/>
<path id="Vector_31" d="M112.343 40.3751H100.873V41.3583H112.343V40.3751Z" fill="#FFD275"/>
<path id="Vector_32" d="M113.808 73.4811C114.106 74.4262 113.867 75.4894 113.152 76.1983L111.72 77.7341H101.935L100.504 76.1983C99.8473 75.4894 99.6087 74.4262 99.8473 73.4811L101.398 68.2239C101.697 67.2197 101.518 66.0974 100.981 65.2113L100.921 65.1523C99.549 63.0849 99.0121 60.6039 99.3104 58.1821C99.37 57.9458 99.37 57.6505 99.4297 57.4142L100.205 53.8109H113.331L114.106 57.4142C114.166 57.6505 114.225 57.9458 114.225 58.1821C114.524 60.6039 113.987 63.0849 112.615 65.1523L112.555 65.2113C111.958 66.0974 111.779 67.2197 112.137 68.2239L113.808 73.4811Z" fill="#EEBA4C"/>
<path id="Vector_33" d="M110.583 77.7341H103.132L102.084 76.1983C101.56 75.4894 101.386 74.4262 101.619 73.4811L102.841 68.2239C103.074 67.2197 102.957 66.0974 102.492 65.2113V65.1523C101.328 62.8486 100.92 60.0723 101.386 57.4142L101.968 53.8109H111.922L112.504 57.4142C112.911 60.0723 112.562 62.8486 111.398 65.1523V65.2113C110.932 66.0974 110.816 67.2197 111.049 68.2239L112.271 73.4811C112.504 74.4262 112.329 75.4894 111.805 76.1983L110.583 77.7341Z" fill="#FFD275"/>
<path id="Vector_34" d="M103.856 73.4811L104.507 68.2239C104.626 67.2197 104.567 66.0974 104.33 65.2113V65.1523C103.679 62.8486 103.501 60.0723 103.738 57.4142L104.034 53.8109H102.791L102.318 57.4142C101.963 60.0723 102.318 62.8486 103.205 65.1523V65.2113C103.561 66.0974 103.679 67.2197 103.501 68.2239L102.554 73.4811C102.377 74.4262 102.554 75.4894 102.969 76.1983L103.856 77.7341H104.803L104.212 76.1983C103.856 75.4894 103.738 74.4262 103.856 73.4811Z" fill="#FFE194"/>
<path id="Vector_35" d="M110.019 68.2239C109.84 67.2197 109.9 66.0974 110.317 65.2113V65.1523C111.272 62.8486 111.57 60.0723 111.212 57.4142L110.735 53.8109H110.138L110.615 57.4142C110.973 60.0723 110.615 62.8486 109.721 65.1523V65.2113C109.363 66.0974 109.243 67.2197 109.422 68.2239L110.377 73.4811C110.556 74.4262 110.377 75.4894 109.959 76.1983L109.064 77.7341H109.661L110.556 76.1983C110.973 75.4894 111.152 74.4262 110.973 73.4811L110.019 68.2239Z" fill="#D18A42"/>
<path id="Vector_36" d="M43.5496 55.8513C47.0079 53.2134 51.0606 52.7827 55.5997 54.5593C59.4903 56.1205 63.7052 59.2429 68.4063 64.1418L65.2182 67.2104C56.9506 58.6507 50.5743 56.0128 46.2514 59.3505C32.6882 69.7406 42.0906 92.6203 51.1687 114.746C58.5177 132.673 65.4883 149.577 60.6791 160.613C55.0053 173.48 56.2481 185 59.2742 191.514C60.8953 195.013 63.2188 197.436 65.5964 198.136C68.0281 198.836 71.5945 199.805 75.7553 200.612C80.8347 201.635 86.9408 202.496 93.209 202.55C103.746 202.712 112.338 200.72 118.876 196.682C118.984 196.629 119.038 196.575 119.147 196.521C119.038 196.521 118.93 196.521 118.822 196.521C118.12 195.336 117.039 194.421 117.201 193.237C117.201 193.129 117.255 193.022 117.309 192.914C117.417 192.699 117.633 192.429 117.904 192.106C119.579 192.106 121.254 192.053 122.875 192.053C123.469 192.053 124.064 192.053 124.658 191.999C125.145 191.514 125.577 191.03 126.009 190.491C128.981 186.938 130.224 184.085 129.467 182.632C129.143 181.986 127.846 180.693 123.091 180.047C123.091 179.724 123.091 179.401 123.145 179.025C123.145 178.594 123.145 178.163 123.145 177.733C123.145 176.979 123.037 176.279 122.875 175.525C127.954 176.064 131.791 177.463 133.412 180.478C135.033 183.493 134.115 187.207 130.602 191.837C134.979 191.783 139.032 191.73 142.49 191.73V196.144C137.951 196.144 132.439 196.198 126.549 196.306C119.038 203.304 108.231 206.857 94.3978 206.857C94.0196 206.857 93.5873 206.857 93.155 206.857C81.1589 206.696 69.9734 203.896 64.3536 202.227C60.6791 201.151 57.4909 197.974 55.2755 193.237C53.2221 188.876 52.1954 183.547 52.3035 177.84C52.4115 171.542 53.8705 164.92 56.6264 158.729C60.7331 149.416 53.7624 132.619 47.0619 116.307C42.3608 104.895 37.4975 93.0509 35.7143 82.607C33.6069 70.3328 36.1466 61.5039 43.5496 55.8513ZM69.0547 195.606C65.2182 195.013 61.6518 194.098 61.5437 191.191C61.4896 190.007 61.976 188.876 62.9486 187.8C64.5697 186.023 74.7106 182.778 78.223 181.378C78.5472 183.047 78.9271 184.444 79.5215 185.629C76.0092 187.028 67.2715 189.845 66.461 190.545C67.5958 190.922 73.9018 191.351 79.5215 191.727C79.9538 192.158 79.7304 192.144 79.8926 192.467C84.1702 192.15 86.4737 194.869 82.1186 194.869C82.2267 195.892 80.595 195.325 79.8926 196.348C77.4069 196.186 70.8379 195.821 69.0547 195.606Z" fill="#613F2F"/>
<path id="Vector_37" d="M43.6966 57.234C46.8153 54.8678 50.4717 54.4913 54.6121 56.1047C58.2685 57.5567 62.4626 60.6758 66.9794 65.4083L65.3663 66.9141C61.0646 62.4505 57.1393 59.4927 53.7517 58.1482C50.3104 56.8038 47.4605 57.0727 44.9871 58.9549C30.7916 69.8719 40.309 93.1041 49.5576 115.583C56.8167 133.276 63.6456 149.948 59.0213 160.542C53.2678 173.718 54.5045 185.603 57.6232 192.325C59.3977 196.143 61.8711 198.725 64.6135 199.531C67.9473 200.499 73.3244 201.898 79.6155 202.919C83.5946 203.511 87.95 203.995 92.413 204.049C103.382 204.21 112.254 202.113 119.03 197.757C119.997 197.165 120.858 196.52 121.718 195.821C120.589 195.821 119.406 195.874 118.277 195.874C117.793 195.068 117.148 194.422 116.933 193.669C118.653 193.669 120.32 193.616 121.987 193.616C122.74 193.616 123.493 193.616 124.245 193.562C124.837 192.97 125.428 192.325 125.966 191.68C128.332 188.883 130.859 185.011 129.515 182.591C128.923 181.462 127.203 180.117 122.794 179.526C122.794 179.257 122.794 178.988 122.794 178.665C122.794 178.235 122.794 177.805 122.794 177.375C122.794 177.321 122.794 177.321 122.794 177.267C126.988 177.805 130.16 179.096 131.504 181.516C133.01 184.366 131.773 188.13 127.687 193.078C127.579 193.239 127.472 193.347 127.31 193.508C132.526 193.454 137.419 193.347 141.506 193.347V195.552C136.828 195.552 131.236 195.605 125.16 195.713C122.148 198.563 118.599 200.876 114.567 202.543C111.287 203.887 107.63 204.909 103.705 205.501C100.586 205.985 97.1986 206.2 93.6498 206.2C93.2734 206.2 92.8432 206.2 92.4668 206.2C80.691 206.038 69.6142 203.242 64.0758 201.629C60.742 200.661 57.7846 197.649 55.7413 193.239C53.8055 189.045 52.7839 183.882 52.8914 178.343C52.999 172.212 54.4508 165.759 57.0855 159.682C61.3334 150.002 54.6659 133.707 47.6219 116.444C42.9438 105.097 38.1582 93.373 36.3837 82.9938C34.2867 71.055 36.7064 62.6118 43.6966 57.234ZM70.0443 192.809C71.8725 193.024 76.2685 192.689 78.8495 192.851C78.8495 193.589 79.7026 194.313 79.2187 195.066C68.357 194.367 62.0862 193.454 62.0325 191.518C61.9787 190.658 62.3551 189.797 63.1617 188.937C64.721 187.216 74.193 184.279 77.7419 182.881C77.957 183.634 77.4731 184.636 77.7419 185.281C74.0317 186.679 65.9577 189.206 64.7748 190.443C64.4522 190.765 64.2908 191.088 64.2371 191.357C64.3984 191.518 65.3663 192.217 70.0443 192.809Z" fill="#875942"/>
<path id="Vector_38" d="M69.7181 72.4718C69.7181 71.6486 69.2221 70.8802 68.5057 70.4412C68.3404 70.3314 68.1199 70.2217 67.9546 70.057C67.679 69.7826 67.4586 69.3985 67.3483 69.0143L65.199 67.8069C64.7581 67.5874 64.703 66.9837 65.0337 66.6544L67.8444 63.8555C68.175 63.5263 68.7812 63.5811 69.0017 64.0202L70.2141 66.1605C70.5999 66.2703 70.9306 66.4898 71.2612 66.7642C71.4266 66.9288 71.5368 67.0935 71.647 67.313C72.0328 68.0265 72.8595 68.5204 73.6861 68.5204C74.2923 68.5204 74.8986 68.7948 75.3395 69.2338L77.9297 71.8132L72.9697 76.7524L70.3795 74.1731C69.9937 73.734 69.7732 73.1303 69.7181 72.4718Z" fill="#8D360B"/>
<path id="Vector_39" d="M70.5269 71.7284C70.3691 71.0277 69.8956 70.3269 69.2117 69.8957C69.0539 69.7879 68.896 69.6262 68.7382 69.4645C68.4752 69.195 68.2647 68.8716 68.1069 68.5481L66.2129 67.2006C65.8447 66.9311 65.6868 66.446 65.8973 66.2303L67.686 64.3977C67.8964 64.182 68.3699 64.3438 68.633 64.7211L69.9482 66.6616C70.2639 66.8233 70.5795 67.0389 70.8426 67.3084C71.0004 67.4701 71.1056 67.6318 71.2635 67.7935C71.6843 68.4403 72.4209 68.9794 73.0522 69.1411C73.5257 69.2489 74.0518 69.5723 74.4727 70.0035L76.9453 72.5369L73.7887 75.7711L71.3161 73.2377C70.9478 72.7525 70.6321 72.2135 70.5269 71.7284Z" fill="#9E3D0C"/>
<path id="Vector_40" d="M72.3717 69.949C71.7876 69.6234 71.1505 69.0806 70.6727 68.4836C70.5665 68.3207 70.4072 68.1579 70.2479 67.9951C69.9825 67.7237 69.6639 67.4523 69.3984 67.2352L67.9118 65.444C67.5933 65.0641 67.2216 64.847 67.1154 64.9555L67.3809 64.6842C67.5402 64.5213 67.9649 64.7384 68.2835 65.0641L69.6639 66.9638C69.9825 67.1266 70.2479 67.3437 70.5665 67.6694C70.7258 67.8322 70.832 67.9951 70.9912 68.1579C71.4691 68.8092 72.1593 69.352 72.7433 69.5691C73.2212 69.7319 73.699 70.0576 74.1237 70.4918L76.6191 73.0428L76.1944 73.4771L73.699 70.926C73.2212 70.5461 72.7433 70.1662 72.3717 69.949Z" fill="#BD490E"/>
<path id="Vector_41" d="M142.711 197.665L147.462 197.234C148.172 197.18 148.827 197.018 149.428 196.856L151.394 196.209C152.487 195.832 153.743 195.778 154.835 195.994L155.327 196.101C156.364 196.317 157.402 196.209 158.276 195.886H158.33C159.259 195.508 160.297 195.454 161.17 195.724H161.225C161.662 195.886 162.153 195.886 162.645 195.886L163.464 195.832C164.065 195.778 164.447 195.4 164.447 194.969V193.837C164.447 193.405 164.01 193.028 163.464 192.974L162.645 192.92C162.153 192.866 161.662 192.92 161.225 193.082H161.116C160.242 193.352 159.204 193.298 158.33 192.92H158.276C157.402 192.597 156.31 192.489 155.327 192.705L154.835 192.812C153.797 193.028 152.541 192.974 151.449 192.597L149.428 191.95C148.827 191.734 148.227 191.626 147.517 191.572L142.711 191.141C141.345 191.033 140.198 191.518 140.198 192.219V196.91C140.144 197.288 141.345 197.773 142.711 197.665Z" fill="#EEBA4C"/>
<path id="Vector_42" d="M142.711 196.857L147.462 196.484C148.172 196.431 148.827 196.324 149.428 196.11L151.394 195.523C152.487 195.203 153.743 195.15 154.835 195.31L155.327 195.417C156.364 195.63 157.402 195.523 158.276 195.203H158.33C159.259 194.883 160.297 194.83 161.17 195.097H161.225C161.662 195.203 162.153 195.257 162.645 195.257L163.464 195.203C164.065 195.15 164.447 194.83 164.447 194.403V194.67C164.447 195.097 164.01 195.47 163.464 195.523L162.645 195.577C162.153 195.63 161.662 195.577 161.225 195.417H161.17C160.297 195.15 159.259 195.203 158.33 195.577H158.276C157.402 195.897 156.31 196.004 155.327 195.79L154.835 195.684C153.797 195.47 152.541 195.523 151.394 195.897L149.428 196.537C148.827 196.751 148.172 196.857 147.462 196.911L142.711 197.338C141.345 197.444 140.198 196.964 140.198 196.27V195.684C140.144 196.537 141.345 196.964 142.711 196.857Z" fill="#D18A42"/>
<path id="Vector_43" d="M142.711 194.723L147.462 194.569C148.172 194.569 148.827 194.517 149.428 194.414L151.394 194.157C152.487 194.003 153.743 194.003 154.835 194.106L155.327 194.157C156.364 194.26 157.402 194.209 158.276 194.106H158.33C159.259 193.951 160.297 193.951 161.17 194.054H161.225C161.662 194.106 162.153 194.157 162.645 194.106H163.464C164.065 194.106 164.447 193.951 164.447 193.746V193.283C164.447 193.077 164.01 192.923 163.464 192.871L162.645 192.82C162.153 192.82 161.662 192.82 161.225 192.871H161.116C160.242 192.974 159.204 192.923 158.33 192.768H158.276C157.402 192.614 156.31 192.563 155.327 192.666L154.835 192.717C153.797 192.82 152.541 192.768 151.449 192.563L149.428 192.254C148.827 192.151 148.227 192.1 147.517 192.048L142.711 191.791C141.345 191.74 140.198 191.894 140.198 192.203V194.209C140.144 194.569 141.345 194.774 142.711 194.723Z" fill="#FFD275"/>
<path id="Vector_44" d="M113.653 51.5172H98.9062C98.9652 51.2692 98.9652 50.9592 99.0242 50.7112L99.7911 46.9292H112.769L113.535 50.7112C113.535 51.0212 113.594 51.2692 113.653 51.5172Z" fill="#FFD275"/>
<path id="Rectangle 503" d="M71.9356 134.845C71.2891 129.391 75.5489 124.597 81.0404 124.597H133.46C138.959 124.597 143.221 129.404 142.562 134.864L134.256 203.699C133.7 208.304 129.792 211.769 125.153 211.769H89.2011C84.555 211.769 80.6433 208.293 80.0963 203.68L71.9356 134.845Z" fill="#BD2524"/>
<path id="Rectangle 505" d="M76.4716 133.824C75.8518 128.384 80.1064 123.617 85.5812 123.617H128.919C134.402 123.617 138.659 128.396 138.027 133.842L130.955 194.812C130.419 199.436 126.503 202.924 121.848 202.924H92.5287C87.8667 202.924 83.9469 199.426 83.4191 194.794L76.4716 133.824Z" fill="#EB3A34"/>
<ellipse id="Ellipse 33" cx="116.927" cy="182.277" rx="11.47" ry="12.7809" fill="#EF5645"/>
<path id="Ellipse 32" d="M144.391 110.834C144.391 101.274 140.472 92.1046 133.497 85.3441C126.521 78.5837 117.06 74.7858 107.196 74.7858C97.3307 74.7858 87.8698 78.5837 80.8943 85.3441C73.9188 92.1046 70 101.274 70 110.834L107.196 110.834H144.391Z" fill="#D18A42"/>
<path id="Ellipse 34" d="M142.816 109.032C142.816 99.9493 139.087 91.2386 132.449 84.8162C125.812 78.3938 116.809 74.7858 107.422 74.7858C98.0356 74.7858 89.0332 78.3938 82.3957 84.8162C75.7582 91.2386 72.0293 99.9493 72.0293 109.032L107.422 109.032H142.816Z" fill="#EEBA4C"/>
<path id="Ellipse 35" d="M140.215 106.574C140.215 98.1433 136.78 90.0578 130.665 84.0963C124.549 78.1349 116.256 74.7858 107.608 74.7858C98.9595 74.7858 90.6656 78.1349 84.5505 84.0963C78.4354 90.0578 75 98.1433 75 106.574L107.608 106.574H140.215Z" fill="#FFD275"/>
<rect id="Rectangle 499" x="67.4414" y="110.837" width="79.6345" height="5.57114" rx="2.78557" fill="#FFD275"/>
<rect id="Rectangle 501" x="67.4414" y="123.288" width="79.6345" height="5.24343" rx="2.62171" fill="#FFD275"/>
<rect id="Rectangle 500" x="65.8047" y="116.406" width="82.9117" height="6.882" rx="3.441" fill="#FFD275"/>
</g>
<defs>
<linearGradient id="paint0_linear" x1="76.2645" y1="33.9807" x2="137.254" y2="33.9807" gradientUnits="userSpaceOnUse">
<stop stop-color="#A26B33"/>
<stop offset="0.2246" stop-color="#FCCB80"/>
<stop offset="0.4278" stop-color="#EEBA4C"/>
<stop offset="0.7647" stop-color="#FCCB80"/>
<stop offset="0.9947" stop-color="#A26B33"/>
</linearGradient>
</defs>
</svg>
