<svg width="215" height="215" viewBox="0 0 215 215" fill="none" xmlns="http://www.w3.org/2000/svg">
<g id="Hookah">
<path id="Vector" d="M149.082 85.5296L148.539 85.9233L143.573 88.3456L140.891 85.8425L143.007 80.676L143.378 80.1588L149.082 85.5296Z" fill="#EEBA4C"/>
<path id="Vector_2" d="M152.106 83.1018C150.396 84.9275 147.569 85.0089 145.802 83.3016C143.976 81.5924 143.895 78.7648 145.602 76.9979C147.311 75.1723 150.139 75.0908 151.906 76.7981C153.673 78.5054 153.754 81.3329 152.106 83.1018Z" fill="#EEBA4C"/>
<path id="Vector_3" d="M151.051 81.1806C149.89 82.4362 147.947 82.4885 146.691 81.3281C145.435 80.1677 145.383 78.2239 146.543 76.9683C147.704 75.7126 149.648 75.6603 150.903 76.8207C152.159 77.9811 152.211 79.9249 151.051 81.1806Z" fill="#FFD275"/>
<path id="Vector_4" d="M149.728 78.5472C149.24 79.0604 148.356 79.0895 147.843 78.6014C147.33 78.1133 147.301 77.2296 147.789 76.7164C148.277 76.2032 149.161 76.1741 149.674 76.6621C150.187 77.1502 150.218 77.9751 149.728 78.5472Z" fill="#FFE194"/>
<path id="Vector_5" d="M150.916 84.8954L143.879 78.2973L142.712 79.5416L149.749 86.1397L150.916 84.8954Z" fill="#EEBA4C"/>
<path id="Vector_6" d="M143.062 87.9162L141.408 86.3304L144.465 81.1956L148.003 84.4926L143.062 87.9162Z" fill="#FFD275"/>
<path id="Vector_7" d="M149.584 83.6491L145.207 79.5454L144.04 80.7898L148.417 84.8934L149.584 83.6491Z" fill="#FFD275"/>
<path id="Vector_8" d="M146.588 80.888L145.602 79.9627L144.435 81.207L145.422 82.1324L146.588 80.888Z" fill="#FFE194"/>
<path id="Vector_9" d="M81.6689 78.6102L82.277 79.0246L93.6288 87.5722L96.416 84.723L88.0542 73.0672L87.6488 72.4974L81.6689 78.6102Z" fill="#EEBA4C"/>
<path id="Vector_10" d="M87.0402 70.5006L88.3457 71.8062L80.9116 79.2403L79.6061 77.9348L87.0402 70.5006Z" fill="#EEBA4C"/>
<path id="Vector_11" d="M94.3604 86.915L96.0879 85.1875L86.7391 73.8064L82.9793 77.5662L94.3604 86.915Z" fill="#FFD275"/>
<path id="Vector_12" d="M85.8353 74.1377L95.7617 85.2016L95.396 85.6077L84.9472 75.0005L85.8353 74.1377Z" fill="#FFE194"/>
<path id="Vector_13" d="M85.6593 71.8777L86.9648 73.1832L82.3231 77.825L81.0176 76.5195L85.6593 71.8777Z" fill="#FFD275"/>
<path id="Vector_14" d="M87.8021 75.1064L88.959 76.2633L88.0271 77.1952L86.8702 76.0383L87.8021 75.1064Z" fill="#FFE194"/>
<path id="Vector_15" d="M81.668 78.3286L82.261 78.7239L87.8945 73.041L87.4992 72.4974L81.668 78.3286Z" fill="#EEBA4C"/>
<path id="Vector_16" d="M145.248 33.9868C145.248 36.7662 131.624 39.0664 114.77 39.0664C97.9168 39.0664 84.293 36.7662 84.293 33.9868C84.293 31.2074 97.9168 28.9073 114.77 28.9073C131.624 28.9073 145.248 31.2074 145.248 33.9868Z" stroke="#A26B33" stroke-width="1.51432" stroke-miterlimit="10"/>
<path id="Vector_17" d="M143.934 36.1168L142.932 40.4068L142.755 41.2112C140.928 48.8082 133.089 53.8133 127.725 53.8133H100.611C95.3056 53.8133 86.6409 48.7189 84.8136 41.2112L84.6368 40.4068L83.6348 36.1168H143.934Z" fill="#EEBA4C"/>
<path id="Vector_18" d="M139.02 36.1168H90.8457L91.7903 41.2112C93.2072 48.8082 97.0446 53.8133 101.295 53.8133H128.511C132.762 53.8133 136.54 48.7189 138.016 41.2112L139.02 36.1168Z" fill="#FFD275"/>
<path id="Vector_19" d="M135.744 42.3413H93.7969L94.6287 45.6433C95.8764 50.5673 99.2037 53.8113 102.887 53.8113H126.654C130.337 53.8113 133.665 50.5094 134.912 45.6433L135.744 42.3413Z" fill="#FFD275"/>
<path id="Vector_20" d="M98.7633 45.6431L98.1129 42.3413H93.7969L94.6246 45.6431C95.8662 50.5668 99.1771 53.8106 102.843 53.8106H105.267C102.37 53.8685 99.7092 50.5668 98.7633 45.6431Z" fill="#FFE194"/>
<path id="Vector_21" d="M143.934 36.1168L142.932 40.5638C124.129 47.2342 103.027 46.4931 84.6368 40.5638L83.6348 36.1168H143.934Z" fill="#FFD275"/>
<path id="Vector_22" d="M131.425 42.3413L130.775 45.6433C129.77 50.5673 127.169 53.8113 124.271 53.8113H126.696C130.361 53.8113 133.672 50.5094 134.914 45.6433L135.741 42.3413H131.425Z" fill="#EEBA4C"/>
<path id="Vector_23" d="M145.248 33.9868C145.248 36.7662 131.624 39.0664 114.77 39.0664C97.9168 39.0664 84.293 36.7662 84.293 33.9868C84.293 31.2074 97.9168 28.9073 114.77 28.9073C131.624 28.9073 145.248 31.2074 145.248 33.9868Z" fill="url(#paint0_linear)"/>
<path id="Vector_24" d="M120.013 33.8228H108.543V39.0662H120.013V33.8228Z" fill="#A26B33"/>
<path id="Vector_25" d="M119.033 33.8228H109.529V39.0662H119.033V33.8228Z" fill="#EEBA4C"/>
<path id="Vector_26" d="M114.771 33.8228H111.166V39.0662H114.771V33.8228Z" fill="#FFD275"/>
<path id="Vector_27" d="M114.769 28.9073C96.4526 28.9073 81.6699 31.488 81.6699 34.8061C81.6699 38.032 96.5115 40.705 114.769 40.705C133.085 40.705 147.868 38.1242 147.868 34.8061C147.868 31.5802 133.027 28.9073 114.769 28.9073ZM114.769 39.1381C97.8661 39.1381 84.2024 36.926 84.2024 34.2531C84.2024 31.5802 97.8661 29.3681 114.769 29.3681C131.672 29.3681 145.336 31.5802 145.336 34.2531C145.336 36.926 131.672 39.1381 114.769 39.1381Z" fill="#FFE194"/>
<path id="Vector_28" d="M100.827 6.71463L106.881 21.6451C107.233 22.5893 107.468 23.5925 107.468 24.5958V32.7397C107.468 33.8609 108.409 34.8051 109.526 34.8051H120.341C121.457 34.8051 122.398 33.8609 122.398 32.7397V24.5958C122.398 23.5925 122.574 22.5893 122.986 21.6451L129.04 6.71463C129.569 5.41633 128.628 4 127.218 4H102.707C101.238 4 100.298 5.41633 100.827 6.71463Z" fill="#8D360B"/>
<path id="Vector_29" d="M104.726 6.71463L109.178 21.6451C109.471 22.5893 109.588 23.5925 109.588 24.5958V32.7397C109.588 33.8609 110.291 34.8051 111.111 34.8051H119.078C119.898 34.8051 120.601 33.8609 120.601 32.7397V24.5958C120.601 23.5925 120.718 22.5893 121.011 21.6451L125.463 6.71463C125.873 5.41633 125.17 4 124.115 4H106.073C105.019 4 104.316 5.41633 104.726 6.71463Z" fill="#9E3D0C"/>
<path id="Vector_30" d="M111.693 32.5618V24.5104C111.693 23.5113 111.575 22.5123 111.399 21.572L108.578 6.70338C108.343 5.41046 108.754 4 109.459 4H107.344C106.462 4 105.816 5.41046 106.168 6.70338L110.047 21.572C110.282 22.5123 110.4 23.5113 110.4 24.5104V32.6205C110.4 33.7372 110.987 34.6775 111.693 34.6775H112.633C112.104 34.6187 111.693 33.7372 111.693 32.5618Z" fill="#BD490E"/>
<path id="Vector_31" d="M120.343 40.3751H108.873V41.3583H120.343V40.3751Z" fill="#FFD275"/>
<path id="Vector_32" d="M121.808 73.4811C122.106 74.4262 121.867 75.4894 121.152 76.1983L119.72 77.7341H109.935L108.504 76.1983C107.847 75.4894 107.609 74.4262 107.847 73.4811L109.398 68.2239C109.697 67.2197 109.518 66.0974 108.981 65.2113L108.921 65.1523C107.549 63.0849 107.012 60.6039 107.31 58.1821C107.37 57.9458 107.37 57.6505 107.43 57.4142L108.205 53.8109H121.331L122.106 57.4142C122.166 57.6505 122.225 57.9458 122.225 58.1821C122.524 60.6039 121.987 63.0849 120.615 65.1523L120.555 65.2113C119.958 66.0974 119.779 67.2197 120.137 68.2239L121.808 73.4811Z" fill="#EEBA4C"/>
<path id="Vector_33" d="M118.583 77.7341H111.132L110.084 76.1983C109.56 75.4894 109.386 74.4262 109.619 73.4811L110.841 68.2239C111.074 67.2197 110.957 66.0974 110.492 65.2113V65.1523C109.328 62.8486 108.92 60.0723 109.386 57.4142L109.968 53.8109H119.922L120.504 57.4142C120.911 60.0723 120.562 62.8486 119.398 65.1523V65.2113C118.932 66.0974 118.816 67.2197 119.049 68.2239L120.271 73.4811C120.504 74.4262 120.329 75.4894 119.805 76.1983L118.583 77.7341Z" fill="#FFD275"/>
<path id="Vector_34" d="M111.856 73.4811L112.507 68.2239C112.626 67.2197 112.567 66.0974 112.33 65.2113V65.1523C111.679 62.8486 111.501 60.0723 111.738 57.4142L112.034 53.8109H110.791L110.318 57.4142C109.963 60.0723 110.318 62.8486 111.205 65.1523V65.2113C111.561 66.0974 111.679 67.2197 111.501 68.2239L110.554 73.4811C110.377 74.4262 110.554 75.4894 110.969 76.1983L111.856 77.7341H112.803L112.212 76.1983C111.856 75.4894 111.738 74.4262 111.856 73.4811Z" fill="#FFE194"/>
<path id="Vector_35" d="M118.019 68.2239C117.84 67.2197 117.9 66.0974 118.317 65.2113V65.1523C119.272 62.8486 119.57 60.0723 119.212 57.4142L118.735 53.8109H118.138L118.615 57.4142C118.973 60.0723 118.615 62.8486 117.721 65.1523V65.2113C117.363 66.0974 117.243 67.2197 117.422 68.2239L118.377 73.4811C118.556 74.4262 118.377 75.4894 117.959 76.1983L117.064 77.7341H117.661L118.556 76.1983C118.973 75.4894 119.152 74.4262 118.973 73.4811L118.019 68.2239Z" fill="#D18A42"/>
<path id="Vector_36" d="M51.5496 55.8513C55.0079 53.2134 59.0606 52.7827 63.5997 54.5593C67.4903 56.1205 71.7052 59.2429 76.4063 64.1418L73.2182 67.2104C64.9506 58.6507 58.5743 56.0128 54.2514 59.3505C40.6882 69.7406 50.0906 92.6203 59.1687 114.746C66.5177 132.673 73.4883 149.577 68.6791 160.613C63.0053 173.48 64.2481 185 67.2742 191.514C68.8953 195.013 71.2188 197.436 73.5964 198.136C76.0281 198.836 79.5945 199.805 83.7553 200.612C88.8347 201.635 94.9408 202.496 101.209 202.55C111.746 202.712 120.338 200.72 126.876 196.682C126.984 196.629 127.038 196.575 127.147 196.521C127.038 196.521 126.93 196.521 126.822 196.521C126.12 195.336 125.039 194.421 125.201 193.237C125.201 193.129 125.255 193.022 125.309 192.914C125.417 192.699 125.633 192.429 125.904 192.106C127.579 192.106 129.254 192.053 130.875 192.053C131.469 192.053 132.064 192.053 132.658 191.999C133.145 191.514 133.577 191.03 134.009 190.491C136.981 186.938 138.224 184.085 137.467 182.632C137.143 181.986 135.846 180.693 131.091 180.047C131.091 179.724 131.091 179.401 131.145 179.025C131.145 178.594 131.145 178.163 131.145 177.733C131.145 176.979 131.037 176.279 130.875 175.525C135.954 176.064 139.791 177.463 141.412 180.478C143.033 183.493 142.115 187.207 138.602 191.837C142.979 191.783 147.032 191.73 150.49 191.73V196.144C145.951 196.144 140.439 196.198 134.549 196.306C127.038 203.304 116.231 206.857 102.398 206.857C102.02 206.857 101.587 206.857 101.155 206.857C89.1589 206.696 77.9734 203.896 72.3536 202.227C68.6791 201.151 65.4909 197.974 63.2755 193.237C61.2221 188.876 60.1954 183.547 60.3035 177.84C60.4115 171.542 61.8705 164.92 64.6264 158.729C68.7331 149.416 61.7624 132.619 55.0619 116.307C50.3608 104.895 45.4975 93.0509 43.7143 82.607C41.6069 70.3328 44.1466 61.5039 51.5496 55.8513ZM77.0547 195.606C73.2182 195.013 69.6518 194.098 69.5437 191.191C69.4896 190.007 69.976 188.876 70.9486 187.8C72.5697 186.023 82.7106 182.778 86.223 181.378C86.5472 183.047 86.9271 184.444 87.5215 185.629C84.0092 187.028 75.2715 189.845 74.461 190.545C75.5958 190.922 81.9018 191.351 87.5215 191.727C87.9538 192.158 87.7304 192.144 87.8926 192.467C92.1702 192.15 94.4737 194.869 90.1186 194.869C90.2267 195.892 88.595 195.325 87.8926 196.348C85.4069 196.186 78.8379 195.821 77.0547 195.606Z" fill="#613F2F"/>
<path id="Vector_37" d="M51.6966 57.234C54.8153 54.8678 58.4717 54.4913 62.6121 56.1047C66.2685 57.5567 70.4626 60.6758 74.9794 65.4083L73.3663 66.9141C69.0646 62.4505 65.1393 59.4927 61.7517 58.1482C58.3104 56.8038 55.4605 57.0727 52.9871 58.9549C38.7916 69.8719 48.309 93.1041 57.5576 115.583C64.8167 133.276 71.6456 149.948 67.0213 160.542C61.2678 173.718 62.5045 185.603 65.6232 192.325C67.3977 196.143 69.8711 198.725 72.6135 199.531C75.9473 200.499 81.3244 201.898 87.6155 202.919C91.5946 203.511 95.95 203.995 100.413 204.049C111.382 204.21 120.254 202.113 127.03 197.757C127.997 197.165 128.858 196.52 129.718 195.821C128.589 195.821 127.406 195.874 126.277 195.874C125.793 195.068 125.148 194.422 124.933 193.669C126.653 193.669 128.32 193.616 129.987 193.616C130.74 193.616 131.493 193.616 132.245 193.562C132.837 192.97 133.428 192.325 133.966 191.68C136.332 188.883 138.859 185.011 137.515 182.591C136.923 181.462 135.203 180.117 130.794 179.526C130.794 179.257 130.794 178.988 130.794 178.665C130.794 178.235 130.794 177.805 130.794 177.375C130.794 177.321 130.794 177.321 130.794 177.267C134.988 177.805 138.16 179.096 139.504 181.516C141.01 184.366 139.773 188.13 135.687 193.078C135.579 193.239 135.472 193.347 135.31 193.508C140.526 193.454 145.419 193.347 149.506 193.347V195.552C144.828 195.552 139.236 195.605 133.16 195.713C130.148 198.563 126.599 200.876 122.567 202.543C119.287 203.887 115.63 204.909 111.705 205.501C108.586 205.985 105.199 206.2 101.65 206.2C101.273 206.2 100.843 206.2 100.467 206.2C88.691 206.038 77.6142 203.242 72.0758 201.629C68.742 200.661 65.7846 197.649 63.7413 193.239C61.8055 189.045 60.7839 183.882 60.8914 178.343C60.999 172.212 62.4508 165.759 65.0855 159.682C69.3334 150.002 62.6659 133.707 55.6219 116.444C50.9438 105.097 46.1582 93.373 44.3837 82.9938C42.2867 71.055 44.7064 62.6118 51.6966 57.234ZM78.0443 192.809C79.8725 193.024 84.2685 192.689 86.8495 192.851C86.8495 193.589 87.7026 194.313 87.2187 195.066C76.357 194.367 70.0862 193.454 70.0325 191.518C69.9787 190.658 70.3551 189.797 71.1617 188.937C72.721 187.216 82.193 184.279 85.7419 182.881C85.957 183.634 85.4731 184.636 85.7419 185.281C82.0317 186.679 73.9577 189.206 72.7748 190.443C72.4522 190.765 72.2908 191.088 72.2371 191.357C72.3984 191.518 73.3663 192.217 78.0443 192.809Z" fill="#875942"/>
<path id="Vector_38" d="M77.7181 72.4718C77.7181 71.6486 77.2221 70.8802 76.5057 70.4412C76.3404 70.3314 76.1199 70.2217 75.9546 70.057C75.679 69.7826 75.4586 69.3985 75.3483 69.0143L73.199 67.8069C72.7581 67.5874 72.703 66.9837 73.0337 66.6544L75.8444 63.8555C76.175 63.5263 76.7812 63.5811 77.0017 64.0202L78.2141 66.1605C78.5999 66.2703 78.9306 66.4898 79.2612 66.7642C79.4266 66.9288 79.5368 67.0935 79.647 67.313C80.0328 68.0265 80.8595 68.5204 81.6861 68.5204C82.2923 68.5204 82.8986 68.7948 83.3395 69.2338L85.9297 71.8132L80.9697 76.7524L78.3795 74.1731C77.9937 73.734 77.7732 73.1303 77.7181 72.4718Z" fill="#8D360B"/>
<path id="Vector_39" d="M78.5269 71.7284C78.3691 71.0277 77.8956 70.3269 77.2117 69.8957C77.0539 69.7879 76.896 69.6262 76.7382 69.4645C76.4752 69.195 76.2647 68.8716 76.1069 68.5481L74.2129 67.2006C73.8447 66.9311 73.6868 66.446 73.8973 66.2303L75.686 64.3977C75.8964 64.182 76.3699 64.3438 76.633 64.7211L77.9482 66.6616C78.2639 66.8233 78.5795 67.0389 78.8426 67.3084C79.0004 67.4701 79.1056 67.6318 79.2635 67.7935C79.6843 68.4403 80.4209 68.9794 81.0522 69.1411C81.5257 69.2489 82.0518 69.5723 82.4727 70.0035L84.9453 72.5369L81.7887 75.7711L79.3161 73.2377C78.9478 72.7525 78.6321 72.2135 78.5269 71.7284Z" fill="#9E3D0C"/>
<path id="Vector_40" d="M80.3717 69.949C79.7876 69.6234 79.1505 69.0806 78.6727 68.4836C78.5665 68.3207 78.4072 68.1579 78.2479 67.9951C77.9825 67.7237 77.6639 67.4523 77.3984 67.2352L75.9118 65.444C75.5933 65.0641 75.2216 64.847 75.1154 64.9555L75.3809 64.6842C75.5402 64.5213 75.9649 64.7384 76.2835 65.0641L77.6639 66.9638C77.9825 67.1266 78.2479 67.3437 78.5665 67.6694C78.7258 67.8322 78.832 67.9951 78.9912 68.1579C79.4691 68.8092 80.1593 69.352 80.7433 69.5691C81.2212 69.7319 81.699 70.0576 82.1237 70.4918L84.6191 73.0428L84.1944 73.4771L81.699 70.926C81.2212 70.5461 80.7433 70.1662 80.3717 69.949Z" fill="#BD490E"/>
<path id="Vector_41" d="M150.711 197.665L155.462 197.234C156.172 197.18 156.827 197.018 157.428 196.856L159.394 196.209C160.487 195.832 161.743 195.778 162.835 195.994L163.327 196.101C164.364 196.317 165.402 196.209 166.276 195.886H166.33C167.259 195.508 168.297 195.454 169.17 195.724H169.225C169.662 195.886 170.153 195.886 170.645 195.886L171.464 195.832C172.065 195.778 172.447 195.4 172.447 194.969V193.837C172.447 193.405 172.01 193.028 171.464 192.974L170.645 192.92C170.153 192.866 169.662 192.92 169.225 193.082H169.116C168.242 193.352 167.204 193.298 166.33 192.92H166.276C165.402 192.597 164.31 192.489 163.327 192.705L162.835 192.812C161.797 193.028 160.541 192.974 159.449 192.597L157.428 191.95C156.827 191.734 156.227 191.626 155.517 191.572L150.711 191.141C149.345 191.033 148.198 191.518 148.198 192.219V196.91C148.144 197.288 149.345 197.773 150.711 197.665Z" fill="#EEBA4C"/>
<path id="Vector_42" d="M150.711 196.857L155.462 196.484C156.172 196.431 156.827 196.324 157.428 196.11L159.394 195.523C160.487 195.203 161.743 195.15 162.835 195.31L163.327 195.417C164.364 195.63 165.402 195.523 166.276 195.203H166.33C167.259 194.883 168.297 194.83 169.17 195.097H169.225C169.662 195.203 170.153 195.257 170.645 195.257L171.464 195.203C172.065 195.15 172.447 194.83 172.447 194.403V194.67C172.447 195.097 172.01 195.47 171.464 195.523L170.645 195.577C170.153 195.63 169.662 195.577 169.225 195.417H169.17C168.297 195.15 167.259 195.203 166.33 195.577H166.276C165.402 195.897 164.31 196.004 163.327 195.79L162.835 195.684C161.797 195.47 160.541 195.523 159.394 195.897L157.428 196.537C156.827 196.751 156.172 196.857 155.462 196.911L150.711 197.338C149.345 197.444 148.198 196.964 148.198 196.27V195.684C148.144 196.537 149.345 196.964 150.711 196.857Z" fill="#D18A42"/>
<path id="Vector_43" d="M150.711 194.723L155.462 194.569C156.172 194.569 156.827 194.517 157.428 194.414L159.394 194.157C160.487 194.003 161.743 194.003 162.835 194.106L163.327 194.157C164.364 194.26 165.402 194.209 166.276 194.106H166.33C167.259 193.951 168.297 193.951 169.17 194.054H169.225C169.662 194.106 170.153 194.157 170.645 194.106H171.464C172.065 194.106 172.447 193.951 172.447 193.746V193.283C172.447 193.077 172.01 192.923 171.464 192.871L170.645 192.82C170.153 192.82 169.662 192.82 169.225 192.871H169.116C168.242 192.974 167.204 192.923 166.33 192.768H166.276C165.402 192.614 164.31 192.563 163.327 192.666L162.835 192.717C161.797 192.82 160.541 192.768 159.449 192.563L157.428 192.254C156.827 192.151 156.227 192.1 155.517 192.048L150.711 191.791C149.345 191.74 148.198 191.894 148.198 192.203V194.209C148.144 194.569 149.345 194.774 150.711 194.723Z" fill="#FFD275"/>
<path id="Vector_44" d="M121.653 51.5172H106.906C106.965 51.2692 106.965 50.9592 107.024 50.7112L107.791 46.9292H120.769L121.535 50.7112C121.535 51.0212 121.594 51.2692 121.653 51.5172Z" fill="#FFD275"/>
<path id="Rectangle 503" d="M79.9356 134.845C79.2891 129.391 83.5489 124.597 89.0404 124.597H141.46C146.959 124.597 151.221 129.404 150.562 134.864L142.256 203.699C141.7 208.304 137.792 211.769 133.153 211.769H97.2011C92.555 211.769 88.6433 208.293 88.0963 203.68L79.9356 134.845Z" fill="#BD2524"/>
<path id="Rectangle 505" d="M84.4716 133.824C83.8518 128.384 88.1064 123.617 93.5812 123.617H136.919C142.402 123.617 146.659 128.396 146.027 133.842L138.955 194.812C138.419 199.436 134.503 202.924 129.848 202.924H100.529C95.8667 202.924 91.9469 199.426 91.4191 194.794L84.4716 133.824Z" fill="#EB3A34"/>
<ellipse id="Ellipse 33" cx="124.927" cy="182.277" rx="11.47" ry="12.7809" fill="#EF5645"/>
<path id="Ellipse 32" d="M152.391 110.834C152.391 101.274 148.472 92.1046 141.497 85.3441C134.521 78.5837 125.06 74.7858 115.196 74.7858C105.331 74.7858 95.8698 78.5837 88.8943 85.3441C81.9188 92.1046 78 101.274 78 110.834L115.196 110.834H152.391Z" fill="#D18A42"/>
<path id="Ellipse 34" d="M150.816 109.032C150.816 99.9493 147.087 91.2386 140.449 84.8162C133.812 78.3938 124.809 74.7858 115.422 74.7858C106.036 74.7858 97.0332 78.3938 90.3957 84.8162C83.7582 91.2386 80.0293 99.9493 80.0293 109.032L115.422 109.032H150.816Z" fill="#EEBA4C"/>
<path id="Ellipse 35" d="M148.215 106.574C148.215 98.1433 144.78 90.0578 138.665 84.0963C132.549 78.1349 124.256 74.7858 115.608 74.7858C106.96 74.7858 98.6656 78.1349 92.5505 84.0963C86.4354 90.0578 83 98.1433 83 106.574L115.608 106.574H148.215Z" fill="#FFD275"/>
<rect id="Rectangle 499" x="75.4414" y="110.837" width="79.6345" height="5.57114" rx="2.78557" fill="#FFD275"/>
<rect id="Rectangle 501" x="75.4414" y="123.288" width="79.6345" height="5.24343" rx="2.62171" fill="#FFD275"/>
<rect id="Rectangle 500" x="73.8047" y="116.406" width="82.9117" height="6.882" rx="3.441" fill="#FFD275"/>
</g>
<defs>
<linearGradient id="paint0_linear" x1="84.2645" y1="33.9807" x2="145.254" y2="33.9807" gradientUnits="userSpaceOnUse">
<stop stop-color="#A26B33"/>
<stop offset="0.2246" stop-color="#FCCB80"/>
<stop offset="0.4278" stop-color="#EEBA4C"/>
<stop offset="0.7647" stop-color="#FCCB80"/>
<stop offset="0.9947" stop-color="#A26B33"/>
</linearGradient>
</defs>
</svg>
