<svg width="46" height="46" viewBox="0 0 46 46" fill="none" xmlns="http://www.w3.org/2000/svg">
<g id="Instagram">
<g id="Mask Group">
<mask id="mask0" mask-type="alpha" maskUnits="userSpaceOnUse" x="0" y="-1" width="46" height="47">
<path id="back" fill-rule="evenodd" clip-rule="evenodd" d="M0 22.9998C0 10.2972 10.2975 -0.000244141 23 -0.000244141C35.7025 -0.000244141 46 10.2972 46 22.9998C46 35.7023 35.7025 45.9998 23 45.9998C10.2975 45.9998 0 35.7023 0 22.9998Z" fill="#55ACEE"/>
</mask>
<g mask="url(#mask0)">
<path id="Vector" d="M3.05937 3.25662C-0.615715 7.07395 0.136449 11.129 0.136449 23.4481C0.136449 33.6783 -1.64848 43.9339 7.69316 46.3482C10.6102 47.0984 36.4566 47.0984 39.3698 46.3443C43.2592 45.3408 46.4238 42.186 46.8563 36.685C46.9168 35.9173 46.9168 10.9926 46.8544 10.2093C46.3945 4.34979 42.7876 0.972847 38.035 0.288884C36.9457 0.131046 36.7275 0.0842797 31.1389 0.0745367C11.3156 0.0842797 6.97023 -0.798441 3.05937 3.25662Z" fill="url(#paint0_linear)"/>
</g>
</g>
<path id="Vector_2" d="M23.3838 9.97851C17.8884 9.97851 12.6699 9.49004 10.6766 14.6016C9.85329 16.7127 9.97285 19.4545 9.97285 23.3804C9.97285 26.8253 9.86237 30.0631 10.6766 32.1576C12.6653 37.2722 17.9262 36.7822 23.3808 36.7822C28.6431 36.7822 34.069 37.3296 36.0864 32.1576C36.9113 30.0253 36.7902 27.3244 36.7902 23.3804C36.7902 18.1448 37.0793 14.7649 34.5381 12.2273C31.9652 9.65639 28.4857 9.97851 23.3777 9.97851H23.3838ZM22.1821 12.3936C33.6452 12.3755 35.1042 11.1021 34.299 28.7913C34.013 35.0476 29.2455 34.361 23.3853 34.361C12.7001 34.361 12.3929 34.0556 12.3929 23.3743C12.3929 12.569 13.2405 12.3997 22.1821 12.3906V12.3936ZM30.5426 14.6182C29.6541 14.6182 28.9337 15.338 28.9337 16.2257C28.9337 17.1135 29.6541 17.8333 30.5426 17.8333C31.431 17.8333 32.1514 17.1135 32.1514 16.2257C32.1514 15.338 31.431 14.6182 30.5426 14.6182ZM23.3838 16.498C19.5804 16.498 16.4975 19.58 16.4975 23.3804C16.4975 27.1807 19.5804 30.2612 23.3838 30.2612C27.1872 30.2612 30.2686 27.1807 30.2686 23.3804C30.2686 19.58 27.1872 16.498 23.3838 16.498ZM23.3838 18.9131C29.2939 18.9131 29.3015 27.8476 23.3838 27.8476C17.4752 27.8476 17.4661 18.9131 23.3838 18.9131Z" fill="white"/>
</g>
<defs>
<linearGradient id="paint0_linear" x1="3.14904" y1="43.8542" x2="46.6137" y2="6.236" gradientUnits="userSpaceOnUse">
<stop stop-color="#FFDD55"/>
<stop offset="0.5" stop-color="#FF543E"/>
<stop offset="1" stop-color="#C837AB"/>
</linearGradient>
</defs>
</svg>
