<?xml version="1.0" encoding="iso-8859-1"?>
<!-- Generator: Adobe Illustrator 21.0.0, SVG Export Plug-In . SVG Version: 6.00 Build 0)  -->
<svg version="1.1" id="Capa_1" xmlns="http://www.w3.org/2000/svg" xmlns:xlink="http://www.w3.org/1999/xlink" x="0px" y="0px"
	 viewBox="0 0 512 512" style="enable-background:new 0 0 512 512;" xml:space="preserve">
<g>
	<g>
		<path d="M256,1.285L0,93.489v323.082l255.99,92.2l42.764-15.34c20.41,11.02,43.75,17.284,68.526,17.284
			c79.716,0,144.581-64.793,144.702-144.48L512,93.489L256,1.285z M256,33.172l196.831,70.893l-72.3,26.17L183.608,59.246
			L256,33.172z M139.356,75.184l197.033,71.029L256,175.311L59.169,104.065L139.356,75.184z M256.01,476.893L30,395.489V125.412
			l211,76.373v93.638c-11.725,20.894-18.425,44.971-18.425,70.587c0,41.926,17.929,79.737,46.516,106.189L256.01,476.893z
			 M367.28,480.715c-63.249,0-114.705-51.456-114.705-114.704c0-63.249,51.456-114.705,114.705-114.705
			s114.705,51.456,114.705,114.705C481.985,429.259,430.528,480.715,367.28,480.715z M482,277.922
			c-26.478-34.403-68.051-56.617-114.72-56.617c-36.939,0-70.682,13.919-96.28,36.779v-56.299l211-76.373V277.922z"/>
	</g>
</g>
<g>
	<g>
		<path d="M427.815,314.674c-16.676-16.677-43.766-16.751-60.535-0.218c-16.767-16.532-43.858-16.459-60.536,0.218
			c-16.75,16.75-16.75,44.005-0.038,60.717l60.357,60.791l60.752-60.753c8.114-8.113,12.583-18.902,12.583-30.377
			C440.398,333.576,435.929,322.787,427.815,314.674z M406.603,354.216L367.14,393.68l-39.182-39.464
			c-2.448-2.448-3.795-5.702-3.795-9.164c0-3.463,1.348-6.717,3.795-9.165c2.527-2.526,5.845-3.79,9.165-3.79
			c3.319,0,6.638,1.264,9.165,3.79l20.994,20.993l20.994-20.993c5.054-5.052,13.277-5.052,18.329,0
			c2.448,2.448,3.796,5.703,3.796,9.165C410.398,348.513,409.05,351.768,406.603,354.216z"/>
	</g>
</g>
<g>
</g>
<g>
</g>
<g>
</g>
<g>
</g>
<g>
</g>
<g>
</g>
<g>
</g>
<g>
</g>
<g>
</g>
<g>
</g>
<g>
</g>
<g>
</g>
<g>
</g>
<g>
</g>
<g>
</g>
</svg>
