<svg viewBox="0 0 24 24" fill="none" xmlns="http://www.w3.org/2000/svg">
<path d="M19.1022 4.87214C19.0168 4.7962 18.8952 4.77858 18.7921 4.82702L0.166073 13.5933C0.0657964 13.6405 0.00122252 13.7418 1.71416e-05 13.8538C-0.00118824 13.9658 0.0612619 14.0685 0.160562 14.1179L5.43169 16.7383C5.52835 16.7864 5.64361 16.7755 5.72993 16.7101L10.8549 12.83L6.83159 17.0221C6.77419 17.082 6.74492 17.1639 6.75124 17.247L7.15182 22.5315C7.16072 22.6486 7.23821 22.7488 7.34836 22.7855C7.3778 22.7952 7.40805 22.8 7.43796 22.8C7.51998 22.8 7.59977 22.7643 7.65527 22.6992L10.453 19.4152L13.9116 21.0891C13.9867 21.1255 14.0736 21.127 14.1499 21.0934C14.2261 21.0597 14.2842 20.9943 14.3091 20.9139L19.1868 5.17779C19.2209 5.0679 19.1877 4.94807 19.1022 4.87214Z"/>
</svg>
