<svg viewBox="0 0 28 28" xmlns="http://www.w3.org/2000/svg">
<g clip-path="url(#clip0)">
<path d="M28.0065 9.39011V13.7573C28.0065 14.3604 27.5177 14.8491 26.9147 14.8491H26.1967L25.7367 18.9427C25.674 19.5005 25.2015 19.9125 24.653 19.9127C24.6123 19.9127 24.5714 19.9104 24.5298 19.9057C23.9306 19.8385 23.4994 19.298 23.5668 18.699L24.1357 13.6355C24.1978 13.0832 24.6648 12.6655 25.2207 12.6655H25.8231V10.4819H2.24024V12.6655H20.8554C21.4585 12.6655 21.9472 13.1545 21.9472 13.7573C21.9472 14.3604 21.4585 14.8491 20.8554 14.8491H4.08393L5.16208 23.8434C5.29344 24.9401 6.22552 25.7671 7.33011 25.7671H20.8206C21.9333 25.7671 22.8663 24.9331 22.9906 23.8272C23.0578 23.228 23.5981 22.7971 24.1973 22.8642C24.7965 22.9316 25.2277 23.472 25.1605 24.0712C24.9119 26.2827 23.0462 27.9507 20.8206 27.9507H7.33011C5.12092 27.9507 3.25676 26.2966 2.99383 24.1032L1.88476 14.8491H1.14844C0.545391 14.8491 0.0566406 14.3604 0.0566406 13.7573V9.39011C0.0566406 8.78706 0.545391 8.29831 1.14844 8.29831H5.02091L10.7902 0.446105C11.1471 -0.0396595 11.8304 -0.144361 12.3163 0.212819C12.8023 0.569786 12.9068 1.25301 12.5498 1.73899L7.73058 8.29831H20.373L15.5536 1.73899C15.1966 1.25301 15.3011 0.569786 15.7871 0.212819C16.273 -0.144361 16.9563 -0.0398728 17.3135 0.446105L23.0825 8.29831H26.9147C27.5177 8.29831 28.0065 8.78728 28.0065 9.39011ZM12.9399 18.1245V22.4917C12.9399 23.0947 13.4286 23.5835 14.0317 23.5835C14.6345 23.5835 15.1235 23.0947 15.1235 22.4917V18.1245C15.1235 17.5215 14.6345 17.0327 14.0317 17.0327C13.4286 17.0327 12.9399 17.5215 12.9399 18.1245ZM17.3071 18.1245V22.4917C17.3071 23.0947 17.7958 23.5835 18.3989 23.5835C19.0017 23.5835 19.4907 23.0947 19.4907 22.4917V18.1245C19.4907 17.5215 19.0017 17.0327 18.3989 17.0327C17.7958 17.0327 17.3071 17.5215 17.3071 18.1245ZM8.57267 18.1245V22.4917C8.57267 23.0947 9.06142 23.5835 9.66447 23.5835C10.2673 23.5835 10.7563 23.0947 10.7563 22.4917V18.1245C10.7563 17.5215 10.2673 17.0327 9.66447 17.0327C9.06142 17.0327 8.57267 17.5215 8.57267 18.1245Z" fill="white"/>
</g>
<defs>
<clipPath id="clip0">
<rect width="27.95" height="27.95" transform="translate(0.00195312 -0.000213623)"/>
</clipPath>
</defs>
</svg>
