
<svg width="341" height="337" viewBox="0 0 341 337" fill="none" xmlns="http://www.w3.org/2000/svg">
<g id="Group 3050">
<g id="Group 2923">
<g id="Group 2922">
<path id="path70" d="M95.9614 104.138C95.5008 104.138 95.127 103.765 95.127 103.306V98.3163C95.127 97.8573 95.5008 97.4847 95.9614 97.4847C96.422 97.4847 96.7959 97.8573 96.7959 98.3163V103.306C96.7959 103.765 96.422 104.138 95.9614 104.138Z" fill="#252840"/>
<path id="path96" d="M85.9568 247.181H80.9501C80.4861 247.181 80.1123 246.805 80.1123 246.349C80.1123 245.89 80.4861 245.518 80.9501 245.518H85.9568C86.4174 245.518 86.7879 245.89 86.7879 246.349C86.7879 246.805 86.4174 247.181 85.9568 247.181Z" fill="#252840"/>
<path id="path1230" d="M186.918 337L175.384 267.104L172.071 219.757C169.093 194.551 161.711 174.401 144.233 166.605L149.421 337H186.918Z" fill="#FFA100"/>
<path id="path1232" d="M178.569 337H159.195C160.413 328.693 161.063 319.393 161.243 309.476C163.647 309.668 165.985 309.763 168.259 309.763C169.922 309.763 171.553 309.714 173.149 309.611C175.539 321.223 177.509 331.093 178.569 337ZM168.446 303.423C166.243 303.423 163.955 303.324 161.589 303.13C161.49 303.124 161.391 303.113 161.296 303.103C161.257 276.029 158.04 245.089 153.535 217.243V217.241C153.535 217.241 164.216 266.508 171.853 303.343C170.741 303.396 169.604 303.423 168.446 303.423Z" fill="#FD6C00"/>
<path id="path1234" d="M34.7852 231.927C36.6648 244.857 38.4018 257.25 39.9399 268.8C40.0393 269.339 40.0758 269.745 40.1785 270.249C41.9188 282.979 43.4536 294.597 44.9188 304.766C45.1575 306.516 45.3299 308.166 45.4327 309.818C45.8072 315.844 45.3962 321.265 44.9188 326.012C44.5277 330.282 44.1498 333.944 44.3918 337H159.916C166.456 289.808 155.537 210.526 144.684 167.305C137.378 163.634 122.61 157.814 106.98 154.035C106.334 154.071 105.992 154.104 105.992 154.104L95.9284 155.147L88.2511 157.235L66.3463 163.229L65.5971 163.667L60.7507 166.697L30.0449 190.708C31.6129 201.823 31.9875 212.495 33.6946 224.483C34.0692 227.009 34.4803 229.469 34.7852 231.927Z" fill="#FFA100"/>
<path id="path1236" d="M67.2987 162.765L58.9167 129.934L58.415 128.009C73.0647 126.415 98.1127 123.461 101.465 122.432C101.465 122.432 102.537 128.805 103.98 136.706C104.651 140.489 105.423 144.672 106.228 148.655C106.563 150.381 106.899 152.041 107.231 153.667C107.768 156.224 108.273 158.614 108.775 160.639C108.84 161.036 108.941 161.436 109.042 161.833C116.385 191.145 85.5382 182.047 67.2987 162.765Z" fill="#BD845E"/>
<path id="path1238" d="M146.86 337H46.493C46.4315 336.102 46.4186 335.153 46.438 334.151C46.4186 335.153 46.4348 336.102 46.5059 337H146.86ZM46.5383 331.854C46.6483 330.059 46.8262 328.118 47.0106 326.029C47.4699 321.312 47.9002 315.897 47.5055 309.883C47.4052 308.256 47.2402 306.595 47.0106 304.869C40.4568 306.496 34.1327 307.459 28.3682 307.557L31.0046 278.424L31.4316 273.406L33.8448 246.728H39.1693C40.2303 254.42 41.2331 261.862 42.1615 268.982C42.2586 269.52 42.2942 269.925 42.3944 270.427C44.0927 283.124 45.5905 294.71 47.0203 304.852C47.2532 306.597 47.4214 308.243 47.5217 309.891C47.8872 315.901 47.4861 321.308 47.0203 326.042C46.8327 328.124 46.6515 330.062 46.5383 331.854ZM38.9429 245.097H33.9936L35.0546 233.343L37.1314 232.215L37.1346 232.211C37.7525 236.57 38.3574 240.87 38.9429 245.097Z" fill="#D2D2D1"/>
<path id="path1240" d="M38.3846 247.181H31.709L31.8955 245.518H38.1007C38.194 246.073 38.2913 246.625 38.3846 247.181Z" fill="#232639"/>
<path id="path1242" d="M146.864 337H46.1232C46.0517 336.097 46.0355 335.143 46.055 334.135C46.0712 333.395 46.1069 332.624 46.1557 331.826C46.2693 330.025 46.4512 328.077 46.6395 325.984C47.1071 321.224 47.5098 315.789 47.1428 309.747C47.0422 308.09 46.8733 306.436 46.6395 304.682C45.2042 294.486 43.7007 282.838 41.9959 270.075C41.8952 269.57 41.8595 269.162 41.7621 268.622C40.8301 261.464 39.8234 253.982 38.7583 246.25C38.6836 245.702 38.6057 245.157 38.531 244.61C37.9433 240.361 37.3361 236.038 36.7158 231.655L57.638 220.567L58.0342 222.474C58.7843 236.065 64.3924 245.479 64.3924 254.504C90.3836 250.832 92.7249 245.321 102.587 241.752C101.691 242.605 100.889 243.54 100.265 244.612C98.9695 246.804 98.5278 249.392 97.992 251.882C97.0243 256.419 91.9521 257.435 87.1916 259.155C88.3671 264.311 91.4877 273.611 92.0755 275.346L92.1469 275.566L92.1696 275.638C92.1696 275.638 105.75 272.731 120.19 269.09C121.379 268.792 123.298 267.594 125.341 266.141C125.717 268.743 126.182 271.213 126.73 273.551C114.745 290.045 105.626 294.538 109.543 311.678C110.79 321.123 125.461 329.226 146.864 337ZM131.709 266.17C131.478 264.728 131.283 263.245 131.121 261.733C132.459 260.676 133.501 259.849 133.952 259.567C134.956 258.928 135.683 258.242 136.164 257.551L136.852 257.107C135.128 260.447 133.404 263.449 131.709 266.17Z" fill="#FD6C00"/>
<path id="path1244" d="M122.521 225.557C121.65 225.593 120.964 226.288 120.617 227.039C120.269 227.791 119.919 228.667 119.465 229.361C118.223 231.276 117.484 231.687 115.93 232.633C114.373 233.58 113.009 234.889 111.397 235.749C108.447 237.319 105.876 239.517 103.93 242.136C102.92 243.493 102.061 245.006 101.849 246.66C101.636 248.316 102.17 250.135 103.541 251.209C105.619 252.833 108.83 252.212 110.963 250.711C113.099 249.212 114.559 247.019 116.438 245.242C118.291 243.49 120.62 242.05 121.682 239.782C122.052 238.988 122.245 238.128 122.611 237.332C122.965 236.57 123.47 235.879 123.882 235.144C125.053 233.053 125.446 230.572 124.973 228.228C124.722 226.962 123.876 225.504 122.521 225.557Z" fill="#AD6F45"/>
<path id="Vector 52" d="M127.995 257.489C154.827 267.155 155.728 253.289 208.992 210.991C242.99 183.992 272.323 222.657 284.989 234.49" stroke="#613F2F" stroke-width="3" stroke-linecap="round"/>
<path id="path1246" d="M0.144667 286.611C5.06414 264.023 12.2122 232.471 18.2904 209.398C20.0388 202.755 24.768 195.78 30.0559 191.795C37.0133 186.551 44.8055 188.998 50.4023 195.79C56.0024 202.583 59.2822 211.527 58.2109 220.527C57.1428 229.524 39.5735 276.573 39.5735 276.573L39.7936 276.716L0.0240531 288.762C-0.0222858 288.032 -0.00683805 287.312 0.144667 286.611Z" fill="#FC8700"/>
<path id="path1248" d="M121.835 233.419L133.412 233.876L133.517 229.345L121.943 228.886L121.835 233.419Z" fill="#EEBA4C"/>
<path id="path1306" d="M116.315 155.699C113.644 154.778 110.89 153.91 108.104 153.124C110.979 153.933 113.711 154.775 116.324 155.686C116.321 155.689 116.318 155.696 116.315 155.699ZM107.133 147.971C106.422 143.894 105.739 139.612 105.146 135.739L115.318 137.03C115.941 138.592 116.445 140.087 116.828 141.48C115.762 142.738 114.486 143.996 113.005 145.221C110.928 146.34 108.971 147.258 107.133 147.971Z" fill="#E8E8E8"/>
<path id="path1308" d="M108.46 160.688C107.925 158.756 107.385 156.475 106.812 154.035C106.846 154.044 106.878 154.05 106.912 154.056C110.276 154.789 113.601 155.598 116.825 156.457C115.142 158.476 112.352 159.897 108.46 160.688Z" fill="#FD6C00"/>
<path id="path1310" d="M100.071 162.354C94.8326 162.354 90.7446 160.537 87.5108 157.565C82.9028 153.39 80.0504 146.873 78.2003 140.05C77.6487 138.081 77.1633 136.046 76.7725 134.077L102.173 136.996C102.823 140.865 103.57 145.142 104.348 149.215C104.673 150.979 104.997 152.678 105.319 154.34C105.839 156.955 106.327 159.399 106.813 161.47C104.376 162.073 102.135 162.354 100.071 162.354Z" fill="#AD6F45"/>
<path id="path1312" d="M117.408 143.24C116.185 144.497 114.72 145.755 113.021 146.979C110.638 148.099 108.394 149.016 106.285 149.729C93.4575 154.01 85.4654 150.479 78.8647 140.556C77.3674 138.384 75.9726 135.902 74.6108 133.116C71.2791 134.578 63.9976 132.845 58.2828 130.567C55.4237 129.412 52.9745 128.154 51.5466 127.068C45.6599 122.585 48.281 124.077 44.3015 117.792C39.4691 99.1421 48.8594 90.2395 59.7106 83.8192C72.74 76.8542 89.8514 78.3132 102.064 97.4091C102.577 99.7198 102.745 101.724 102.745 101.724C102.745 101.724 107.611 104.882 112.645 106.648C118.496 108.701 116.013 109.741 113.904 112.63L112.886 114.158C114.38 114.904 119.04 122.618 121.219 125.404C124.246 129.21 124.078 136.377 117.408 143.24Z" fill="#BD845E"/>
<path id="path1314" d="M61.605 147.379C71.1693 138.323 70.152 125.43 70.152 125.43C70.152 125.43 74.6041 119.924 77.283 118.006C72.9329 110.101 57.9247 93.3494 87.7466 83.0461C92.4315 78.9767 73.051 65.2216 51.1063 83.2671C35.3199 96.252 35.339 115.065 38.1232 123.525C40.7128 131.394 52.838 147.535 61.605 147.379Z" fill="#220C08"/>
<path id="path1316" d="M63.3869 129.109C65.9581 133.927 72.5599 137.064 75.3764 135.184C78.1898 133.305 76.2676 129.102 73.7399 124.253C72.0693 121.046 69.9018 116.541 66.2779 117.597C63.1012 118.521 59.6171 122.043 63.3869 129.109Z" fill="#B77A51"/>
<g id="path1318">
<path d="M244.22 7.53833C245.105 6.22992 244.918 4.4877 243.805 3.64435C242.691 2.80099 241.07 3.09597 240.185 4.31068C239.299 5.52192 239.487 7.27107 240.604 8.20813C241.717 9.14519 243.335 8.84674 244.22 7.53833ZM228.287 10.8111C230.684 8.65237 230.865 4.72367 228.825 2.22832C226.785 -0.267036 223.261 -0.71125 220.792 1.12122C218.327 2.9537 217.956 6.68107 220.043 9.50613C222.131 12.3312 225.897 12.9698 228.287 10.8111ZM263.255 15.2673C265.411 12.3833 265.073 7.79864 262.588 5.20264C260.098 2.60664 256.468 2.51984 254.405 4.91455C252.345 7.30926 252.6 11.6857 255.001 14.7745C257.398 17.8633 261.103 18.1549 263.255 15.2673ZM249.103 67.5414C247.938 68.6901 247.945 70.8627 249.175 72.3724C250.397 73.8821 252.423 74.1216 253.639 72.9208C254.858 71.7199 254.762 69.5786 253.482 68.1209C252.205 66.6633 250.268 66.3961 249.103 67.5414ZM268.877 28.6534C266.388 26.0852 262.938 26.3142 261.045 29.0456C259.152 31.7734 259.325 36.1672 261.515 38.9194C263.705 41.675 267.358 41.682 269.548 38.7598C271.741 35.841 271.363 31.2182 268.877 28.6534ZM250.778 58.261C248.262 60.8917 245.058 62.3216 241.836 62.5992C242.289 65.8304 241.155 69.4016 238.258 72.0843C236.613 73.6079 234.655 74.5728 232.649 75.0239C233.565 78.3488 232.234 82.2948 228.686 84.9706C225.444 87.4174 221.313 88.0178 217.973 86.9767C217.557 87.8617 216.808 88.6842 215.739 89.295C214.261 90.1418 212.535 90.3396 211.006 90.0689C210.58 93.779 207.59 97.3017 202.169 99.4985C198.1 101.147 193.575 101.643 189.699 101.23C189.226 103.507 186.754 105.794 182.93 107.099C181.132 107.717 179.324 107.991 177.669 108.019C176.865 111.042 173.307 114.137 168.533 115.821C164.426 117.268 160.663 117.011 158.062 115.453C157.078 116.452 155.729 117.258 154.091 117.615C151.221 118.243 148.418 117.306 146.876 115.515C138.128 117.695 129.805 119.35 119.995 121.995C126.819 118.035 133.04 114.408 139.36 110.896L139.17 110.497C138.724 108.421 140.426 106.488 142.909 106.183C143.389 106.124 143.852 106.179 144.308 106.238C144.155 102.983 146.886 100.144 150.812 99.6061C151.827 99.4708 152.831 99.4986 153.802 99.6478C152.382 93.5291 156.403 88.0213 163.088 86.1368C165.812 85.3698 168.747 85.2691 171.574 85.6162C169.323 80.2923 171.424 73.3234 177.209 70.0159C179.555 68.6728 182.262 68.1209 184.98 68.2737C184.227 63.3246 186.383 58.3235 191.075 55.7275L191.474 55.5539C188.882 49.6921 191.191 43.8095 196.806 40.7762C199.21 39.4747 201.945 38.7979 204.693 38.7251C203.525 33.6406 205.132 28.0703 209.031 24.3117C214.169 19.3592 221.892 18.5991 227.821 23.0658C228.253 21.8059 228.801 20.5878 229.567 19.5084C233.569 13.8652 240.941 12.6956 246.11 17.3566C251.054 21.8163 251.871 30.9926 247.99 36.9654C249.168 37.5381 250.305 38.2634 251.316 39.2699C256.428 44.3717 256.159 52.6352 250.778 58.261Z" fill="white"/>
<path d="M244.22 7.53833C245.105 6.22992 244.918 4.4877 243.805 3.64435C242.691 2.80099 241.07 3.09597 240.185 4.31068C239.299 5.52192 239.487 7.27107 240.604 8.20813C241.717 9.14519 243.335 8.84674 244.22 7.53833ZM228.287 10.8111C230.684 8.65237 230.865 4.72367 228.825 2.22832C226.785 -0.267036 223.261 -0.71125 220.792 1.12122C218.327 2.9537 217.956 6.68107 220.043 9.50613C222.131 12.3312 225.897 12.9698 228.287 10.8111ZM263.255 15.2673C265.411 12.3833 265.073 7.79864 262.588 5.20264C260.098 2.60664 256.468 2.51984 254.405 4.91455C252.345 7.30926 252.6 11.6857 255.001 14.7745C257.398 17.8633 261.103 18.1549 263.255 15.2673ZM249.103 67.5414C247.938 68.6901 247.945 70.8627 249.175 72.3724C250.397 73.8821 252.423 74.1216 253.639 72.9208C254.858 71.7199 254.762 69.5786 253.482 68.1209C252.205 66.6633 250.268 66.3961 249.103 67.5414ZM268.877 28.6534C266.388 26.0852 262.938 26.3142 261.045 29.0456C259.152 31.7734 259.325 36.1672 261.515 38.9194C263.705 41.675 267.358 41.682 269.548 38.7598C271.741 35.841 271.363 31.2182 268.877 28.6534ZM250.778 58.261C248.262 60.8917 245.058 62.3216 241.836 62.5992C242.289 65.8304 241.155 69.4016 238.258 72.0843C236.613 73.6079 234.655 74.5728 232.649 75.0239C233.565 78.3488 232.234 82.2948 228.686 84.9706C225.444 87.4174 221.313 88.0178 217.973 86.9767C217.557 87.8617 216.808 88.6842 215.739 89.295C214.261 90.1418 212.535 90.3396 211.006 90.0689C210.58 93.779 207.59 97.3017 202.169 99.4985C198.1 101.147 193.575 101.643 189.699 101.23C189.226 103.507 186.754 105.794 182.93 107.099C181.132 107.717 179.324 107.991 177.669 108.019C176.865 111.042 173.307 114.137 168.533 115.821C164.426 117.268 160.663 117.011 158.062 115.453C157.078 116.452 155.729 117.258 154.091 117.615C151.221 118.243 148.418 117.306 146.876 115.515C138.128 117.695 129.805 119.35 119.995 121.995C126.819 118.035 133.04 114.408 139.36 110.896L139.17 110.497C138.724 108.421 140.426 106.488 142.909 106.183C143.389 106.124 143.852 106.179 144.308 106.238C144.155 102.983 146.886 100.144 150.812 99.6061C151.827 99.4708 152.831 99.4986 153.802 99.6478C152.382 93.5291 156.403 88.0213 163.088 86.1368C165.812 85.3698 168.747 85.2691 171.574 85.6162C169.323 80.2923 171.424 73.3234 177.209 70.0159C179.555 68.6728 182.262 68.1209 184.98 68.2737C184.227 63.3246 186.383 58.3235 191.075 55.7275L191.474 55.5539C188.882 49.6921 191.191 43.8095 196.806 40.7762C199.21 39.4747 201.945 38.7979 204.693 38.7251C203.525 33.6406 205.132 28.0703 209.031 24.3117C214.169 19.3592 221.892 18.5991 227.821 23.0658C228.253 21.8059 228.801 20.5878 229.567 19.5084C233.569 13.8652 240.941 12.6956 246.11 17.3566C251.054 21.8163 251.871 30.9926 247.99 36.9654C249.168 37.5381 250.305 38.2634 251.316 39.2699C256.428 44.3717 256.159 52.6352 250.778 58.261Z" fill="white"/>
</g>
<path id="path1328" d="M97.9926 252.104C98.549 249.657 99.0076 247.112 100.353 244.958C101.894 242.456 104.467 240.704 106.955 239.031C110.26 236.81 112.374 235.091 115.679 232.872C115.679 232.872 133.014 231.859 134.811 232.343C136.612 232.824 138.285 234.233 137.593 235.89C136.666 238.109 135.294 238.357 133.382 238.78C132.583 238.953 131.793 239.044 131.028 239.099L131.578 239.166C133.756 239.447 136.096 238.945 138.042 239.921C139.991 240.896 141.373 244.481 135.53 245.739C136.508 245.742 137.442 245.742 138.214 245.964C138.989 246.203 139.59 246.657 139.94 247.544C140.834 249.863 139.148 252.005 136.626 252.517C137.829 252.697 138.905 254.322 138.345 256.228C138.2 256.697 138.038 257.08 137.772 257.47C137.28 258.221 136.484 258.967 135.334 259.66C133.689 260.637 124.456 268.211 121.044 269.021C106.048 272.6 91.9466 275.458 91.9466 275.458L91.8488 275.171C91.2385 273.465 87.998 264.323 86.7773 259.254C91.7207 257.563 96.9877 256.564 97.9926 252.104Z" fill="#BD845E"/>
<path id="path1330" d="M91.8139 275.458L91.791 275.381L91.8139 275.458C91.8139 275.458 105.469 272.403 119.99 268.578C121.185 268.264 123.115 267.005 125.169 265.478C123.115 267.005 121.185 268.264 119.99 268.578C105.469 272.403 91.8139 275.458 91.8139 275.458Z" fill="#5C516F"/>
<path id="path1334" d="M130.178 262.151C131.506 260.889 132.541 259.903 132.989 259.567C133.985 258.804 134.707 257.986 135.184 257.161C134.707 257.986 133.985 258.804 132.989 259.567C132.541 259.903 131.506 260.889 130.178 262.151Z" fill="#5C516F"/>
<path id="path1338" d="M91.8893 275.458L91.8656 275.383L91.791 275.159C99.6837 273.083 107.431 270.504 114.991 267.449C116.255 266.945 117.53 266.41 118.573 265.533C119.614 264.651 120.393 263.376 120.342 262.031C120.295 260.972 119.773 259.98 119.743 258.92C119.709 257.508 120.59 256.21 120.644 254.794C120.739 252.819 119.271 251.128 118.926 249.177C118.624 247.414 119.271 245.635 119.617 243.88C119.963 242.121 119.895 240.032 118.533 238.865C120.458 240.072 121.528 242.511 121.095 244.747C120.868 245.958 120.227 247.172 120.522 248.369C120.851 249.729 122.274 250.623 122.664 251.969C123.24 253.987 121.285 256.233 122.172 258.133C122.46 258.772 123.03 259.25 123.399 259.839C123.752 260.417 124.463 261.154 126.1 261.154C128.238 261.154 131.956 259.899 138.52 255.402C138.51 255.436 138.5 255.473 138.49 255.507C138.31 255.883 138.127 256.284 137.944 256.697C137.9 256.768 137.853 256.842 137.802 256.913C137.3 257.622 136.541 258.325 135.494 258.981C135.023 259.269 133.935 260.117 132.539 261.201C130.804 262.549 128.594 264.261 126.507 265.72C124.375 267.21 122.372 268.438 121.132 268.745C106.062 272.477 91.8893 275.458 91.8893 275.458Z" fill="#AD6F45"/>
<path id="path1340" d="M26.9814 308.719C32.795 308.64 39.1704 307.624 45.7908 305.908C68.0328 300.21 92.8256 286.88 106.811 276.894L104.43 272.74L103.793 271.632L94.4194 255.313L91.6629 250.505C82.3056 253.973 73.1278 257.254 65.0214 260.111C55.1154 263.587 46.8261 266.427 41.7866 268.132C41.4894 268.224 41.1954 268.318 40.9211 268.423C38.7328 269.155 37.299 269.647 36.7633 269.813L30.0842 273.05L0.000976562 287.571C2.03477 303.241 12.7576 308.855 26.9814 308.719Z" fill="#FFA100"/>
</g>
</g>
<g id="Group">
<g id="Group_2">
<g id="Group_3">
<path id="Vector" d="M122.023 224.332L122.834 215.514C122.935 214.197 123.239 212.98 123.543 211.865L124.76 208.217C125.469 206.189 125.57 203.858 125.165 201.831L124.962 200.919C124.557 198.993 124.76 197.067 125.368 195.446L125.368 195.344C126.077 193.621 126.179 191.695 125.672 190.074L125.672 189.972C125.368 189.161 125.368 188.249 125.368 187.337L125.469 185.817C125.57 184.702 126.28 183.992 127.091 183.992L129.219 183.992C130.03 183.992 130.74 184.803 130.841 185.817L130.942 187.337C131.044 188.249 130.942 189.161 130.638 189.972L130.638 190.175C130.132 191.797 130.233 193.722 130.942 195.344L130.942 195.446C131.551 197.067 131.753 199.094 131.348 200.919L131.145 201.831C130.74 203.757 130.841 206.088 131.551 208.115L132.767 211.865C133.172 212.98 133.375 214.095 133.476 215.413L134.287 224.332C134.49 226.866 133.578 228.995 132.26 228.995L123.442 228.995C122.732 229.096 121.82 226.866 122.023 224.332Z" fill="#EEBA4C"/>
<path id="Vector_2" d="M123.342 224.333L124.052 215.515C124.153 214.197 124.356 212.981 124.761 211.866L125.876 208.217C126.484 206.19 126.586 203.858 126.282 201.831L126.079 200.919C125.674 198.993 125.876 197.068 126.485 195.446L126.485 195.344C127.093 193.621 127.194 191.696 126.687 190.074L126.687 189.973C126.484 189.162 126.383 188.249 126.383 187.337L126.485 185.817C126.586 184.702 127.194 183.992 128.005 183.992L127.498 183.992C126.687 183.992 125.978 184.803 125.876 185.817L125.775 187.337C125.674 188.249 125.775 189.162 126.079 189.973L126.079 190.074C126.586 191.696 126.484 193.621 125.775 195.344L125.775 195.446C125.167 197.068 124.964 199.095 125.37 200.919L125.572 201.831C125.978 203.757 125.876 206.088 125.167 208.217L123.951 211.866C123.545 212.981 123.342 214.197 123.241 215.515L122.43 224.333C122.227 226.867 123.14 228.995 124.457 228.995L125.572 228.995C123.951 229.096 123.14 226.867 123.342 224.333Z" fill="#D18A42"/>
<path id="Vector_3" d="M126.888 224.333L127.192 215.515C127.192 214.197 127.293 212.981 127.496 211.866L128.003 208.217C128.307 206.19 128.307 203.858 128.104 201.831L128.003 200.919C127.8 198.993 127.902 197.068 128.104 195.446L128.104 195.344C128.408 193.621 128.408 191.696 128.206 190.074L128.206 189.973C128.104 189.162 128.003 188.249 128.104 187.337L128.104 185.817C128.104 184.702 128.408 183.992 128.814 183.992L129.726 183.992C130.131 183.992 130.435 184.803 130.537 185.817L130.638 187.337C130.638 188.249 130.638 189.162 130.537 189.973L130.537 190.175C130.334 191.797 130.435 193.723 130.74 195.344L130.74 195.446C131.044 197.068 131.145 199.095 130.942 200.919L130.841 201.831C130.638 203.757 130.74 206.088 131.145 208.115L131.753 211.866C131.956 212.981 132.057 214.096 132.159 215.413L132.665 224.333C132.767 226.867 132.463 228.995 131.854 228.995L127.902 228.995C127.192 229.096 126.787 226.867 126.888 224.333Z" fill="#FFD275"/>
</g>
</g>
</g>
<g id="Group 3044">
<g id="Group 2951">
<g id="Group 2950">
<g id="Group 2947">
<g id="Group 2948">
<path id="Vector_4" d="M335.338 247.79L334.965 248.06L331.556 249.723L329.715 248.004L331.168 244.458L331.422 244.103L335.338 247.79Z" fill="#EEBA4C"/>
<path id="Vector_5" d="M337.414 246.123C336.241 247.376 334.3 247.432 333.087 246.26C331.833 245.087 331.778 243.146 332.95 241.933C334.123 240.68 336.064 240.624 337.277 241.796C338.49 242.968 338.545 244.909 337.414 246.123Z" fill="#EEBA4C"/>
<path id="Vector_6" d="M336.69 244.804C335.893 245.666 334.559 245.702 333.697 244.905C332.835 244.109 332.799 242.775 333.596 241.913C334.392 241.051 335.727 241.015 336.589 241.811C337.451 242.608 337.486 243.942 336.69 244.804Z" fill="#FFD275"/>
<path id="Vector_7" d="M335.783 242.997C335.448 243.349 334.841 243.369 334.489 243.034C334.137 242.699 334.117 242.092 334.452 241.74C334.787 241.388 335.393 241.368 335.746 241.703C336.098 242.038 336.119 242.604 335.783 242.997Z" fill="#FFE194"/>
<path id="Vector_8" d="M336.598 247.354L331.768 242.825L330.967 243.679L335.797 248.208L336.598 247.354Z" fill="#EEBA4C"/>
<path id="Vector_9" d="M331.206 249.428L330.071 248.339L332.169 244.814L334.598 247.078L331.206 249.428Z" fill="#FFD275"/>
<path id="Vector_10" d="M335.682 246.499L332.678 243.682L331.877 244.536L334.881 247.353L335.682 246.499Z" fill="#FFD275"/>
<path id="Vector_11" d="M333.628 244.603L332.95 243.968L332.149 244.822L332.827 245.457L333.628 244.603Z" fill="#FFE194"/>
</g>
</g>
<g id="Group_4">
<g id="Group 2946">
<path id="Vector_12" d="M289.062 243.04L289.48 243.324L297.272 249.192L299.186 247.236L293.446 239.235L293.167 238.844L289.062 243.04Z" fill="#EEBA4C"/>
<path id="Vector_13" d="M292.748 237.473L293.645 238.369L288.541 243.472L287.645 242.576L292.748 237.473Z" fill="#EEBA4C"/>
<path id="Vector_14" d="M297.774 248.74L298.96 247.554L292.542 239.742L289.962 242.323L297.774 248.74Z" fill="#FFD275"/>
<path id="Vector_15" d="M291.923 239.969L298.737 247.564L298.486 247.843L291.314 240.561L291.923 239.969Z" fill="#FFE194"/>
<path id="Vector_16" d="M291.801 238.418L292.697 239.314L289.511 242.501L288.615 241.604L291.801 238.418Z" fill="#FFD275"/>
<path id="Vector_17" d="M293.272 240.634L294.066 241.428L293.427 242.068L292.633 241.274L293.272 240.634Z" fill="#FFE194"/>
<path id="Vector_18" d="M289.061 242.846L289.468 243.118L293.335 239.217L293.064 238.844L289.061 242.846Z" fill="#EEBA4C"/>
</g>
</g>
<path id="Vector_19" d="M332.706 212.408C332.706 214.316 323.354 215.895 311.785 215.895C300.215 215.895 290.863 214.316 290.863 212.408C290.863 210.5 300.215 208.921 311.785 208.921C323.354 208.921 332.706 210.5 332.706 212.408Z" stroke="#A26B33" stroke-width="1.03955" stroke-miterlimit="10"/>
<path id="Vector_20" d="M331.805 213.87L331.117 216.815L330.995 217.367C329.741 222.582 324.36 226.017 320.678 226.017H302.065C298.424 226.017 292.476 222.52 291.221 217.367L291.1 216.815L290.412 213.87H331.805Z" fill="#EEBA4C"/>
<path id="Vector_21" d="M328.431 213.87H295.362L296.011 217.367C296.983 222.582 299.618 226.017 302.535 226.017H321.218C324.136 226.017 326.729 222.52 327.742 217.367L328.431 213.87Z" fill="#FFD275"/>
<path id="Vector_22" d="M326.184 218.143H297.389L297.96 220.409C298.816 223.79 301.1 226.016 303.629 226.016H319.943C322.472 226.016 324.756 223.75 325.613 220.409L326.184 218.143Z" fill="#FFD275"/>
<path id="Vector_23" d="M300.798 220.409L300.351 218.143H297.389L297.957 220.409C298.809 223.789 301.082 226.016 303.598 226.016H305.262C303.274 226.056 301.447 223.789 300.798 220.409Z" fill="#FFE194"/>
<path id="Vector_24" d="M331.805 213.87L331.117 216.922C318.209 221.501 303.724 220.992 291.1 216.922L290.412 213.87H331.805Z" fill="#FFD275"/>
<path id="Vector_25" d="M323.218 218.143L322.772 220.409C322.082 223.79 320.296 226.016 318.308 226.016H319.972C322.488 226.016 324.761 223.75 325.613 220.409L326.181 218.143H323.218Z" fill="#EEBA4C"/>
<path id="Vector_26" d="M332.706 212.408C332.706 214.316 323.354 215.895 311.785 215.895C300.215 215.895 290.863 214.316 290.863 212.408C290.863 210.5 300.215 208.921 311.785 208.921C323.354 208.921 332.706 210.5 332.706 212.408Z" fill="url(#paint0_linear)"/>
<path id="Vector_27" d="M315.385 212.295H307.512V215.895H315.385V212.295Z" fill="#A26B33"/>
<path id="Vector_28" d="M314.711 212.295H308.188V215.895H314.711V212.295Z" fill="#EEBA4C"/>
<path id="Vector_29" d="M311.785 212.295H309.311V215.895H311.785V212.295Z" fill="#FFD275"/>
<path id="Vector_30" d="M311.784 208.921C299.211 208.921 289.063 210.692 289.063 212.97C289.063 215.185 299.252 217.019 311.784 217.019C324.358 217.019 334.505 215.248 334.505 212.97C334.505 210.756 324.317 208.921 311.784 208.921ZM311.784 215.944C300.181 215.944 290.802 214.425 290.802 212.591C290.802 210.756 300.181 209.237 311.784 209.237C323.387 209.237 332.767 210.756 332.767 212.591C332.767 214.425 323.387 215.944 311.784 215.944Z" fill="#FFE194"/>
<path id="Vector_31" d="M302.214 193.687L306.369 203.936C306.611 204.584 306.773 205.273 306.773 205.961V211.552C306.773 212.321 307.418 212.969 308.185 212.969H315.609C316.376 212.969 317.021 212.321 317.021 211.552V205.961C317.021 205.273 317.142 204.584 317.425 203.936L321.58 193.687C321.943 192.795 321.298 191.823 320.33 191.823H303.505C302.496 191.823 301.85 192.795 302.214 193.687Z" fill="#8D360B"/>
<path id="Vector_32" d="M304.891 193.687L307.947 203.936C308.148 204.584 308.228 205.273 308.228 205.961V211.552C308.228 212.321 308.711 212.969 309.274 212.969H314.743C315.306 212.969 315.788 212.321 315.788 211.552V205.961C315.788 205.273 315.869 204.584 316.07 203.936L319.126 193.687C319.407 192.795 318.925 191.823 318.201 191.823H305.816C305.092 191.823 304.609 192.795 304.891 193.687Z" fill="#9E3D0C"/>
<g id="Group_5">
<path id="Vector_33" d="M309.673 211.43V205.903C309.673 205.217 309.592 204.531 309.471 203.886L307.535 193.679C307.373 192.791 307.656 191.823 308.14 191.823H306.688C306.082 191.823 305.639 192.791 305.881 193.679L308.543 203.886C308.705 204.531 308.785 205.217 308.785 205.903V211.47C308.785 212.236 309.189 212.882 309.673 212.882H310.318C309.955 212.841 309.673 212.236 309.673 211.43Z" fill="#BD490E"/>
</g>
<path id="Vector_34" d="M315.612 216.793H307.738V217.468H315.612V216.793Z" fill="#FFD275"/>
<path id="Vector_35" d="M316.618 239.519C316.823 240.167 316.659 240.897 316.167 241.384L315.185 242.438H308.468L307.485 241.384C307.035 240.897 306.871 240.167 307.035 239.519L308.1 235.91C308.304 235.221 308.181 234.45 307.813 233.842L307.772 233.801C306.83 232.382 306.461 230.679 306.666 229.017C306.707 228.854 306.707 228.652 306.748 228.49L307.28 226.016H316.29L316.823 228.49C316.864 228.652 316.905 228.854 316.905 229.017C317.109 230.679 316.741 232.382 315.799 233.801L315.758 233.842C315.348 234.45 315.226 235.221 315.471 235.91L316.618 239.519Z" fill="#EEBA4C"/>
<path id="Vector_36" d="M314.403 242.438H309.288L308.569 241.384C308.209 240.897 308.089 240.167 308.249 239.519L309.088 235.91C309.248 235.221 309.168 234.45 308.849 233.842V233.801C308.049 232.22 307.77 230.314 308.089 228.49L308.489 226.016H315.322L315.721 228.49C316.001 230.314 315.761 232.22 314.962 233.801V233.842C314.642 234.45 314.563 235.221 314.722 235.91L315.562 239.519C315.721 240.167 315.601 240.897 315.242 241.384L314.403 242.438Z" fill="#FFD275"/>
<path id="Vector_37" d="M309.786 239.519L310.233 235.91C310.315 235.221 310.274 234.45 310.111 233.842V233.801C309.665 232.22 309.543 230.314 309.705 228.49L309.908 226.016H309.055L308.73 228.49C308.486 230.314 308.73 232.22 309.34 233.801V233.842C309.583 234.45 309.665 235.221 309.543 235.91L308.893 239.519C308.771 240.167 308.893 240.897 309.177 241.384L309.786 242.438H310.436L310.03 241.384C309.786 240.897 309.705 240.167 309.786 239.519Z" fill="#FFE194"/>
<path id="Vector_38" d="M314.016 235.91C313.893 235.221 313.934 234.45 314.22 233.842V233.801C314.876 232.22 315.08 230.314 314.835 228.49L314.507 226.016H314.097L314.425 228.49C314.671 230.314 314.425 232.22 313.811 233.801V233.842C313.565 234.45 313.483 235.221 313.606 235.91L314.261 239.519C314.384 240.167 314.261 240.897 313.975 241.384L313.36 242.438H313.77L314.384 241.384C314.671 240.897 314.794 240.167 314.671 239.519L314.016 235.91Z" fill="#D18A42"/>
<g id="Group_6">
<g id="Group 2949">
<path id="Vector_39" d="M286.35 238.826C286.35 238.261 286.01 237.733 285.518 237.432C285.405 237.357 285.253 237.281 285.14 237.168C284.951 236.98 284.799 236.716 284.724 236.452L283.248 235.624C282.946 235.473 282.908 235.059 283.135 234.832L285.064 232.911C285.291 232.685 285.707 232.723 285.859 233.024L286.691 234.493C286.956 234.569 287.183 234.719 287.41 234.908C287.523 235.021 287.599 235.134 287.675 235.285C287.939 235.774 288.507 236.113 289.074 236.113C289.49 236.113 289.907 236.302 290.209 236.603L291.987 238.374L288.583 241.764L286.804 239.994C286.54 239.692 286.388 239.278 286.35 238.826Z" fill="#8D360B"/>
<path id="Vector_40" d="M288.173 237.094C287.772 236.87 287.335 236.498 287.007 236.088C286.934 235.976 286.825 235.864 286.715 235.753C286.533 235.566 286.314 235.38 286.132 235.231L285.112 234.002C284.893 233.741 284.638 233.592 284.565 233.666L284.747 233.48C284.857 233.368 285.148 233.517 285.367 233.741L286.314 235.045C286.533 235.157 286.715 235.306 286.934 235.529C287.043 235.641 287.116 235.753 287.226 235.864C287.554 236.312 288.027 236.684 288.428 236.833C288.756 236.945 289.084 237.169 289.376 237.467L291.089 239.218L290.797 239.516L289.084 237.765C288.756 237.504 288.428 237.243 288.173 237.094Z" fill="#BD490E"/>
</g>
</g>
<path id="Vector_41" d="M316.51 224.441H306.387C306.427 224.271 306.427 224.058 306.468 223.888L306.994 221.292H315.903L316.429 223.888C316.429 224.101 316.469 224.271 316.51 224.441Z" fill="#FFD275"/>
<path id="Rectangle 503" d="M287.873 281.642C287.429 277.898 290.354 274.607 294.123 274.607H330.106C333.881 274.607 336.807 277.907 336.355 281.655L330.653 328.906C330.271 332.068 327.589 334.446 324.404 334.446H299.725C296.536 334.446 293.85 332.061 293.475 328.893L287.873 281.642Z" fill="#BD2524"/>
<path id="Rectangle 505" d="M290.987 280.941C290.561 277.207 293.482 273.935 297.24 273.935H326.989C330.753 273.935 333.675 277.215 333.242 280.954L328.387 322.806C328.019 325.98 325.331 328.375 322.135 328.375H302.009C298.809 328.375 296.118 325.973 295.756 322.793L290.987 280.941Z" fill="#EB3A34"/>
<ellipse id="Ellipse 33" cx="318.757" cy="314.201" rx="7.87359" ry="8.77343" fill="#EF5645"/>
<path id="Ellipse 32" d="M337.88 265.16C337.88 258.597 335.19 252.303 330.402 247.662C325.614 243.021 319.119 240.414 312.347 240.414C305.576 240.414 299.081 243.021 294.293 247.662C289.505 252.303 286.814 258.597 286.814 265.16L312.347 265.16H337.88Z" fill="#D18A42"/>
<path id="Ellipse 34" d="M336.529 263.923C336.529 257.688 333.969 251.708 329.413 247.3C324.856 242.891 318.677 240.414 312.233 240.414C305.79 240.414 299.61 242.891 295.054 247.3C290.497 251.708 287.938 257.688 287.938 263.923L312.233 263.923H336.529Z" fill="#EEBA4C"/>
<path id="Ellipse 35" d="M334.731 262.235C334.731 256.448 332.373 250.898 328.175 246.806C323.977 242.713 318.284 240.414 312.347 240.414C306.411 240.414 300.718 242.713 296.52 246.806C292.322 250.898 289.964 256.448 289.964 262.235L312.347 262.235H334.731Z" fill="#FFD275"/>
<rect id="Rectangle 499" x="284.789" y="265.161" width="54.6652" height="3.82432" rx="1.91216" fill="#FFD275"/>
<rect id="Rectangle 501" x="284.789" y="273.708" width="54.6652" height="3.59936" rx="1.79968" fill="#FFD275"/>
<rect id="Rectangle 500" x="283.666" y="268.984" width="56.9148" height="4.72416" rx="2.36208" fill="#FFD275"/>
</g>
<path id="path96_2" d="M292.917 196.063C292.917 196.063 289.768 211.745 306.266 215.811C322.454 219.799 329.894 203.87 327.69 195.63L292.917 196.063Z" fill="#F89E11"/>
<g id="Group 2955">
<path id="path120" d="M302.467 208.995C302.291 208.179 301.023 208.451 301.199 209.269C301.375 210.085 302.644 209.812 302.467 208.995Z" fill="#F18314"/>
<path id="path122" d="M302.444 211.285C302.268 210.469 300.999 210.741 301.176 211.559C301.352 212.375 302.62 212.102 302.444 211.285Z" fill="#F18314"/>
<path id="path124" d="M300.733 210.181C300.557 209.365 299.288 209.638 299.465 210.456C299.641 211.271 300.91 210.999 300.733 210.181Z" fill="#F18314"/>
</g>
<path id="Vector 50" d="M306.934 204.409C306.54 204.212 303.891 205.149 302.739 205.643C302.739 204.902 291.586 202.188 292.375 201.201C293.362 199.967 291.142 194.785 292.869 194.539C294.597 194.292 309.895 198.734 311.376 198.487C312.857 198.24 326.922 194.786 327.415 194.786C327.81 194.786 328.155 197.5 328.402 199.227L327.909 201.695L326.176 202.928H323.714L318.285 202.188L310.389 204.903C309.402 204.82 307.329 204.606 306.934 204.409Z" fill="#A6A5A5"/>
<path id="Vector 45" d="M293.593 201.707L292.884 194.438L300.256 191.837L310.126 191.097L320.49 191.837L324.438 192.824L327.399 194.798L328.139 199.486L324.438 202.447L318.269 201.707L312.593 203.188L308.892 204.421L306.671 203.928L302.97 205.655L293.593 201.707Z" fill="#CACACA"/>
<ellipse id="Ellipse 36" cx="303.48" cy="199.473" rx="8.38968" ry="1.72729" fill="#D5D3D3"/>
</g>
</g>
</g>
<defs>
<linearGradient id="paint0_linear" x1="290.844" y1="212.404" x2="332.71" y2="212.404" gradientUnits="userSpaceOnUse">
<stop stop-color="#A26B33"/>
<stop offset="0.2246" stop-color="#FCCB80"/>
<stop offset="0.4278" stop-color="#EEBA4C"/>
<stop offset="0.7647" stop-color="#FCCB80"/>
<stop offset="0.9947" stop-color="#A26B33"/>
</linearGradient>
</defs>
</svg>
