<svg viewBox="0 0 42 42" fill="none" xmlns="http://www.w3.org/2000/svg">
<g clip-path="url(#clip0)">
<path d="M35.3195 12.8222C35.3263 12.8155 35.3345 12.8112 35.3413 12.8045L36.6985 11.4472C37.4908 10.6537 37.487 9.35868 36.6884 8.56139C35.891 7.76279 34.5953 7.75889 33.8024 8.55123L32.4979 9.8559C29.6451 7.46019 26.0472 5.92686 22.1014 5.64799V2.99648H24.7016C25.4168 2.99648 26.0017 2.41142 26.0017 1.69636C26.0017 0.981293 25.4168 0.39624 24.7016 0.39624H16.9009C16.1858 0.39624 15.6008 0.981293 15.6008 1.69636C15.6008 2.41142 16.1858 2.99648 16.9009 2.99648H19.5011V5.64799C15.6148 5.92255 12.0639 7.41208 9.23192 9.74628L8.03751 8.55123C7.24396 7.75889 5.94896 7.76279 5.15101 8.56139C4.35306 9.35877 4.34924 10.6537 5.1415 11.4472L6.3858 12.6916C4.01398 15.7653 2.59961 19.6156 2.59961 23.7984C2.59961 33.8509 10.7488 42 20.8013 42C30.8537 42 39.0029 33.8509 39.0029 23.7984C39.0029 19.6754 37.6302 15.8739 35.3195 12.8222ZM20.8013 39.3998C12.1848 39.3998 5.19985 32.4148 5.19985 23.7984C5.19985 15.1819 12.1848 8.19695 20.8013 8.19695C29.4177 8.19695 36.4027 15.1819 36.4027 23.7984C36.4027 32.4148 29.4177 39.3998 20.8013 39.3998Z" fill="#FF8726"/>
<path d="M20.8026 39.3998C29.419 39.3998 36.404 32.4148 36.404 23.7984C36.404 15.182 29.419 8.19696 20.8026 8.19696C12.1862 8.19696 5.20117 15.182 5.20117 23.7984C5.20117 32.4148 12.1862 39.3998 20.8026 39.3998Z" fill="white"/>
<path d="M31.2013 24.4484C30.842 24.4484 30.5513 24.1576 30.5513 23.7983C30.5513 23.4391 30.842 23.1482 31.2013 23.1482H33.7687C33.4387 16.4872 28.1097 11.16 21.4504 10.83V13.3974C21.4504 13.7567 21.1597 14.0474 20.8004 14.0474C20.4411 14.0474 20.1503 13.7567 20.1503 13.3974V10.83C13.491 11.16 8.16202 16.4872 7.83203 23.1482H10.3994C10.7588 23.1482 11.0495 23.4391 11.0495 23.7983C11.0495 24.1576 10.7588 24.4484 10.3994 24.4484H7.83203C8.16202 31.1094 13.491 36.4366 20.1503 36.7667V34.1993C20.1503 33.84 20.4411 33.5492 20.8004 33.5492C21.1597 33.5492 21.4504 33.84 21.4504 34.1993V36.7667C28.1097 36.4366 33.4387 31.1094 33.7687 24.4484H31.2013Z" fill="#FC510D"/>
<path d="M29.5217 15.0785C29.0145 14.5705 28.1905 14.5705 27.6833 15.0785L20.9033 21.8584C20.8689 21.8566 20.8365 21.8482 20.8017 21.8482C19.7251 21.8482 18.8516 22.7217 18.8516 23.7984C18.8516 24.8763 19.7251 25.7485 20.8017 25.7485C21.8784 25.7485 22.7519 24.8763 22.7519 23.7984C22.7519 23.7636 22.7435 23.7312 22.7418 23.6969L29.5217 16.9169C30.0296 16.4091 30.0296 15.5863 29.5217 15.0785Z" fill="#F6A90D"/>
</g>
<defs>
<clipPath id="clip0">
<rect width="41.6038" height="41.6038" fill="white" transform="translate(0 0.39624)"/>
</clipPath>
</defs>
</svg>
