<svg width="46" height="46" viewBox="0 0 46 46" fill="none" xmlns="http://www.w3.org/2000/svg">
<g id="Twitter">
<path id="back" fill-rule="evenodd" clip-rule="evenodd" d="M0 22.9998C0 10.2972 10.2975 -0.000244141 23 -0.000244141C35.7025 -0.000244141 46 10.2972 46 22.9998C46 35.7023 35.7025 45.9998 23 45.9998C10.2975 45.9998 0 35.7023 0 22.9998Z" fill="#55ACEE"/>
<path id="Shape" fill-rule="evenodd" clip-rule="evenodd" d="M22.3112 18.6945L22.3594 19.4903L21.555 19.3929C18.627 19.0193 16.069 17.7525 13.8971 15.6248L12.8353 14.5691L12.5618 15.3487C11.9826 17.0865 12.3527 18.9219 13.5593 20.1563C14.2028 20.8384 14.058 20.9359 12.9479 20.5298C12.5618 20.3999 12.224 20.3024 12.1918 20.3512C12.0792 20.4649 12.4653 21.9429 12.771 22.5276C13.1892 23.3397 14.0419 24.1355 14.975 24.6065L15.7633 24.9801L14.8302 24.9963C13.9293 24.9963 13.8971 25.0126 13.9936 25.3537C14.3154 26.4094 15.5864 27.5301 17.0021 28.0173L17.9996 28.3584L17.1308 28.8781C15.8438 29.6253 14.3315 30.0476 12.8192 30.08C12.0953 30.0963 11.5 30.1613 11.5 30.21C11.5 30.3724 13.4627 31.2819 14.605 31.6393C18.0317 32.695 22.102 32.2402 25.1587 30.4374C27.3306 29.1543 29.5025 26.6043 30.516 24.1355C31.063 22.8199 31.61 20.4161 31.61 19.263C31.61 18.5158 31.6583 18.4184 32.5592 17.5251C33.0901 17.0053 33.5889 16.4369 33.6854 16.2745C33.8463 15.9659 33.8302 15.9659 33.0097 16.242C31.6422 16.7292 31.4492 16.6643 32.1248 15.9334C32.6236 15.4136 33.2188 14.4716 33.2188 14.1955C33.2188 14.1468 32.9775 14.228 32.704 14.3742C32.4144 14.5366 31.7709 14.7802 31.2883 14.9264L30.4195 15.2025L29.6312 14.6665C29.1968 14.3742 28.5855 14.0493 28.2637 13.9519C27.4432 13.7245 26.1884 13.757 25.4483 14.0168C23.4373 14.7477 22.1664 16.6318 22.3112 18.6945Z" fill="white"/>
</g>
</svg>
