<svg width="46" height="46" viewBox="0 0 46 46" fill="none" xmlns="http://www.w3.org/2000/svg">
<g id="Youtube">
<path id="back" fill-rule="evenodd" clip-rule="evenodd" d="M0 22.9998C0 10.2972 10.2975 -0.000244141 23 -0.000244141C35.7025 -0.000244141 46 10.2972 46 22.9998C46 35.7023 35.7025 45.9998 23 45.9998C10.2975 45.9998 0 35.7023 0 22.9998Z" fill="#FF0000"/>
<path id="Fill 1" fill-rule="evenodd" clip-rule="evenodd" d="M34.755 17.3192C34.4729 16.2353 33.6415 15.3818 32.5859 15.0921C30.6729 14.5657 23.001 14.5657 23.001 14.5657C23.001 14.5657 15.3292 14.5657 13.416 15.0921C12.3604 15.3818 11.5291 16.2353 11.2469 17.3192C10.7344 19.2836 10.7344 23.3823 10.7344 23.3823C10.7344 23.3823 10.7344 27.481 11.2469 29.4455C11.5291 30.5294 12.3604 31.3829 13.416 31.6727C15.3292 32.199 23.001 32.199 23.001 32.199C23.001 32.199 30.6729 32.199 32.5859 31.6727C33.6415 31.3829 34.4729 30.5294 34.755 29.4455C35.2677 27.481 35.2677 23.3823 35.2677 23.3823C35.2677 23.3823 35.2677 19.2836 34.755 17.3192Z" fill="white"/>
<path id="Fill 2" fill-rule="evenodd" clip-rule="evenodd" d="M20.7012 27.5993V19.9326L26.8345 23.7661L20.7012 27.5993Z" fill="#FF0000"/>
</g>
</svg>
