<?xml version="1.0" encoding="iso-8859-1"?>
<!-- Generator: Adobe Illustrator 19.0.0, SVG Export Plug-In . SVG Version: 6.00 Build 0)  -->
<svg version="1.1" id="Capa_1" xmlns="http://www.w3.org/2000/svg" xmlns:xlink="http://www.w3.org/1999/xlink" x="0px" y="0px"
	 viewBox="0 0 39.121 39.121" style="enable-background:new 0 0 39.121 39.121;" xml:space="preserve">
<g>
	<g>
		<path d="M39.035,29.145l0.002-12.254c0-0.207-0.168-0.375-0.375-0.375h-1.844c-0.207,0-0.375,0.168-0.375,0.375v5.064
			c-0.685-0.597-1.644-0.935-2.728-0.935c-1.241,0-2.409,0.486-3.289,1.373c-1.064,1.068-1.643,2.648-1.631,4.448
			c0,3.205,1.982,5.53,4.712,5.53c1.261,0,2.402-0.485,3.175-1.311l0.034,0.723c0.011,0.199,0.175,0.357,0.375,0.357h1.654
			c0.106,0,0.206-0.045,0.276-0.123c0.072-0.078,0.107-0.183,0.099-0.287C39.047,30.937,39.035,29.77,39.035,29.145z M36.441,27.508
			c0,0.293-0.02,0.504-0.071,0.709c-0.277,1.142-1.218,1.913-2.339,1.913c-1.932,0-2.62-1.743-2.62-3.375
			c0-2.151,1.045-3.543,2.661-3.543c1.289,0,2.082,0.926,2.3,1.861c0.049,0.191,0.069,0.473,0.069,0.676V27.508z"/>
	</g>
</g>
<g>
	<g>
		<path d="M20.656,29.33v-0.003h-0.001v-3.792c0-2.916-1.501-4.523-4.23-4.523c-1.306,0-2.595,0.352-3.535,0.961
			c-0.144,0.096-0.206,0.276-0.15,0.438l0.419,1.215c0.037,0.109,0.123,0.195,0.232,0.232c0.107,0.037,0.23,0.023,0.326-0.039
			c0.671-0.435,1.582-0.695,2.436-0.695c1.244,0,1.875,0.594,1.926,1.809c-5.293,0.09-6.094,2.625-6.094,4.147
			c0,1.633,1.194,3.287,3.476,3.287c1.102,0,2.131-0.391,2.879-1.074l0.059,0.511c0.022,0.19,0.183,0.334,0.373,0.334h1.677
			c0.11,0,0.217-0.05,0.287-0.136c0.071-0.086,0.102-0.201,0.081-0.31C20.709,31.097,20.656,30.322,20.656,29.33z M18.124,28.35
			c0,0.135-0.03,0.301-0.084,0.465c-0.227,0.666-0.913,1.443-2.096,1.443c-0.32,0-1.364-0.101-1.364-1.386
			c0-1.256,1.192-1.897,3.545-1.912L18.124,28.35z"/>
	</g>
</g>
<g>
	<g>
		<path d="M20.785,12.889h-3.712c-0.207,0-0.375,0.168-0.375,0.375v1.171c0,0.207,0.168,0.375,0.375,0.375h1.917v2.732
			c-0.256,0.08-0.741,0.181-1.566,0.181c-2.489,0-3.974-1.561-3.974-4.176c0-2.565,1.593-4.159,4.159-4.159
			c1.172,0,1.866,0.242,2.34,0.453c0.098,0.044,0.212,0.042,0.31-0.002c0.097-0.045,0.172-0.13,0.201-0.234l0.353-1.188
			c0.052-0.176-0.03-0.364-0.196-0.444c-0.556-0.269-1.628-0.556-2.973-0.556c-3.859,0-6.464,2.489-6.482,6.198
			c0,1.805,0.614,3.434,1.688,4.472c1.122,1.07,2.586,1.591,4.476,1.591c1.492,0,2.776-0.348,3.589-0.64
			c0.147-0.054,0.248-0.195,0.248-0.353v-5.421C21.162,13.058,20.994,12.89,20.785,12.889z"/>
	</g>
</g>
<g>
	<g>
		<path d="M10.862,29.519c-0.102-0.051-0.221-0.047-0.32,0.002c-0.698,0.338-1.775,0.549-2.811,0.549
			c-3.163,0-5.053-1.981-5.053-5.304c-0.001-3.413,1.92-5.451,5.135-5.451c1.002,0,1.956,0.195,2.686,0.549
			c0.097,0.047,0.213,0.049,0.315,0.006c0.101-0.044,0.177-0.131,0.208-0.237l0.44-1.488c0.051-0.172-0.027-0.356-0.187-0.439
			c-0.302-0.158-1.45-0.671-3.525-0.671c-4.564,0-7.75,3.204-7.75,7.793c0,4.569,2.885,7.521,7.352,7.521
			c1.828,0,3.212-0.367,3.898-0.709c0.158-0.08,0.24-0.26,0.195-0.432l-0.377-1.443C11.04,29.656,10.964,29.566,10.862,29.519z"/>
	</g>
</g>
<g>
	<g>
		<path d="M23.704,7.52c-0.738,0-1.295,0.557-1.295,1.295c-0.001,0.716,0.553,1.278,1.26,1.278c0.387,0,0.73-0.138,0.975-0.388
			c0.229-0.238,0.349-0.559,0.336-0.89C24.98,8.065,24.443,7.52,23.704,7.52z"/>
	</g>
</g>
<g>
	<g>
		<path d="M35.837,12.587c0.207,0,0.375-0.168,0.375-0.375v-1.121c0-0.207-0.168-0.375-0.375-0.375h-1.731v-1.95
			c0-0.117-0.053-0.227-0.146-0.297c-0.094-0.072-0.215-0.095-0.325-0.065l-1.439,0.385c-0.163,0.044-0.276,0.192-0.276,0.362v1.565
			h-0.881c-0.123,0-0.226,0.063-0.293,0.153c-0.067-0.091-0.172-0.153-0.295-0.153h-1.582v-0.061c0-1.967,0.871-1.967,1.198-1.967
			c0.302,0,0.562,0.05,0.777,0.15c0.104,0.048,0.229,0.046,0.33-0.008c0.104-0.054,0.178-0.152,0.197-0.267l0.201-1.138
			c0.029-0.173-0.062-0.345-0.227-0.412c-0.191-0.079-0.711-0.263-1.396-0.263c-0.871,0-1.664,0.305-2.232,0.856
			c-0.699,0.665-1.055,1.708-1.055,3.099l-0.764,0.01c-0.207,0-0.375,0.168-0.375,0.375v1.121c0,0.207,0.168,0.375,0.375,0.375
			h0.763v6.602c0,0.207,0.168,0.375,0.375,0.375h1.455c0.207,0,0.375-0.168,0.375-0.375v-6.602h1.582
			c0.122,0,0.227-0.063,0.295-0.153c0.067,0.091,0.172,0.153,0.293,0.153h0.881v4.042c0,1.138,0.213,1.89,0.66,2.354
			c0.428,0.49,1.075,0.749,1.871,0.749c0.573,0,1.088-0.082,1.448-0.229c0.146-0.061,0.242-0.209,0.23-0.37l-0.066-1.104
			c-0.006-0.112-0.063-0.215-0.153-0.281c-0.093-0.065-0.209-0.088-0.316-0.058c-0.149,0.04-0.403,0.087-0.756,0.087
			c-0.369,0-0.729-0.092-0.729-1.197v-3.992H35.837z"/>
	</g>
</g>
<g>
	<g>
		<path d="M28.358,21.091c-1.147-0.289-2.399,0.231-3.17,1.247l-0.022-0.729c-0.008-0.202-0.172-0.362-0.375-0.362h-1.612
			c-0.104,0-0.203,0.043-0.273,0.119c-0.07,0.075-0.107,0.178-0.1,0.28c0.057,0.857,0.082,1.826,0.082,3.14v6.979
			c0,0.207,0.168,0.375,0.375,0.375h1.821c0.207,0,0.375-0.168,0.375-0.375V26.36c0-0.285,0.041-0.562,0.078-0.793
			c0.229-1.271,1.037-2.059,2.104-2.059c0.213,0,0.377,0.016,0.547,0.055c0.11,0.022,0.229-0.004,0.315-0.074
			c0.088-0.07,0.14-0.18,0.14-0.291v-1.74C28.643,21.282,28.525,21.132,28.358,21.091z"/>
	</g>
</g>
<g>
	<g>
		<path d="M24.439,10.714h-1.471c-0.207,0-0.375,0.168-0.375,0.375v8.098c0,0.207,0.168,0.375,0.375,0.375h1.471
			c0.207,0,0.375-0.168,0.375-0.375v-8.098C24.814,10.882,24.646,10.714,24.439,10.714z"/>
	</g>
</g>
<g>
</g>
<g>
</g>
<g>
</g>
<g>
</g>
<g>
</g>
<g>
</g>
<g>
</g>
<g>
</g>
<g>
</g>
<g>
</g>
<g>
</g>
<g>
</g>
<g>
</g>
<g>
</g>
<g>
</g>
</svg>
