<?xml version="1.0" encoding="iso-8859-1"?>
<!-- Generator: Adobe Illustrator 19.0.0, SVG Export Plug-In . SVG Version: 6.00 Build 0)  -->
<svg version="1.1" id="Capa_1" xmlns="http://www.w3.org/2000/svg" xmlns:xlink="http://www.w3.org/1999/xlink" x="0px" y="0px"
	 viewBox="0 0 34.07 34.07" style="enable-background:new 0 0 34.07 34.07;" xml:space="preserve">
<g>
	<g>
		<path d="M22.237,4.277h-0.041h-0.043h-0.041h-0.041H22.03h-0.041h-0.041h-0.041h-0.041h-0.039h-0.041h-0.043h-0.041h-0.041h-0.04
			H21.58h-0.041h-0.041h-0.041h-0.041h-0.039h-0.041h-0.041h-0.041h-0.041h-0.041h-0.041H21.09h-0.041h-0.042h-0.041h-0.041h-0.041
			h-0.041h-0.041h-0.041h-0.043h-0.041h-0.041h-0.041h-0.039h-0.041h-0.041h-0.039h-0.043h-0.041H20.31h-0.041h-0.041h-0.041h-0.039
			h-0.041h-0.041h-0.041h-0.041h-0.041H19.9h-0.041h-0.041h-0.041h-0.041h-0.041h-0.041h-0.041h-0.042H19.53h-0.043h-0.041h-0.041
			h-0.041h-0.041h-0.041h-0.041H19.2h-0.041h-0.041h-0.043h-0.041h-0.041h-0.041h-0.041h-0.035h-0.041h-0.041h-0.041h-0.041h-0.041
			h-0.04H18.59h-0.041h-0.042h-0.041h-0.041h-0.041h-0.041h-0.041h-0.041H18.22h-0.041h-0.041h-0.041h-0.041h-0.041h-0.041h-0.04
			h-0.041h-0.042H17.81h-0.042h-0.041h-0.041h-0.041h-0.038h-0.041h-0.041h-0.041h-0.042h-0.041H17.36h-0.042h-0.041h-0.04h-0.04
			h-0.041h-0.041h-0.041h-0.041h-0.041h-0.041H16.91h-0.041h-0.041h-0.041h-0.041h-0.041h-0.041h-0.042h-0.041H16.54h-0.041h-0.042
			h-0.041h-0.039h-0.04h-0.041h-0.041h-0.042h-0.041h-0.041H16.09h-0.041h-0.022h-0.018c-0.014,0-0.027,0-0.041,0
			c-0.014,0-0.027,0-0.041,0C15.913,4.28,15.9,4.28,15.886,4.281l-0.042,0.001c-0.013,0-0.027,0.001-0.041,0.002
			c-0.014,0-0.027,0.002-0.041,0.002c-0.013,0.001-0.027,0.002-0.041,0.003C15.707,4.29,15.694,4.29,15.68,4.29l-0.042,0.004
			c-0.013,0.001-0.027,0.002-0.041,0.003c-0.014,0.001-0.028,0.003-0.041,0.005l-0.041,0.004l-0.041,0.005
			c-0.014,0.002-0.027,0.004-0.041,0.006c-0.014,0.002-0.027,0.004-0.041,0.005c-0.014,0.002-0.027,0.004-0.041,0.007L15.31,4.337
			l-0.041,0.007c-0.014,0.003-0.027,0.005-0.042,0.008c-0.013,0.003-0.027,0.005-0.041,0.008c-0.014,0.002-0.027,0.005-0.041,0.008
			l-0.041,0.009c-0.014,0.003-0.027,0.006-0.041,0.009c-0.014,0.003-0.027,0.007-0.041,0.01c-0.014,0.003-0.027,0.006-0.041,0.01
			c-0.014,0.003-0.027,0.007-0.041,0.01l-0.041,0.012c-0.014,0.004-0.027,0.007-0.041,0.011c-0.014,0.004-0.027,0.008-0.041,0.012
			c-0.014,0.004-0.027,0.008-0.041,0.013c-0.013,0.003-0.027,0.008-0.041,0.012l-0.042,0.014c-0.014,0.004-0.027,0.009-0.041,0.014
			c-0.014,0.005-0.027,0.009-0.042,0.015c-0.013,0.005-0.027,0.009-0.041,0.015c-0.014,0.004-0.027,0.01-0.041,0.015
			c-0.013,0.004-0.028,0.011-0.041,0.016c-0.015,0.005-0.028,0.011-0.042,0.016l-0.041,0.017c-0.014,0.006-0.027,0.011-0.041,0.017
			c-0.013,0.006-0.027,0.012-0.041,0.018c-0.013,0.006-0.027,0.012-0.041,0.018s-0.027,0.013-0.041,0.019
			c-0.014,0.006-0.028,0.012-0.042,0.02c-0.014,0.006-0.027,0.013-0.041,0.02l-0.041,0.02l-0.041,0.02
			c-0.014,0.007-0.028,0.014-0.041,0.021c-0.014,0.007-0.027,0.014-0.042,0.021c-0.013,0.008-0.027,0.016-0.041,0.023
			c-0.014,0.007-0.027,0.015-0.041,0.021c-0.013,0.008-0.027,0.016-0.041,0.024c-0.014,0.008-0.028,0.016-0.042,0.024
			C13.813,4.894,13.8,4.902,13.786,4.91c-0.014,0.008-0.027,0.017-0.041,0.026c-0.013,0.008-0.027,0.018-0.041,0.026
			C13.69,4.97,13.676,4.98,13.663,4.988c-0.014,0.009-0.027,0.019-0.041,0.028c-0.014,0.009-0.027,0.019-0.042,0.028
			c-0.013,0.009-0.027,0.021-0.041,0.029c-0.013,0.01-0.027,0.021-0.041,0.03c-0.014,0.01-0.027,0.021-0.041,0.031
			c-0.014,0.01-0.027,0.021-0.041,0.031c-0.015,0.013-0.028,0.023-0.042,0.035c-0.014,0.01-0.027,0.021-0.041,0.033
			c-0.014,0.012-0.027,0.021-0.041,0.034c-0.013,0.011-0.027,0.023-0.041,0.035c-0.014,0.012-0.027,0.023-0.041,0.036
			c-0.014,0.013-0.028,0.024-0.041,0.037c-0.014,0.012-0.027,0.025-0.042,0.038c-0.013,0.013-0.027,0.025-0.041,0.038
			c-0.014,0.014-0.027,0.027-0.041,0.041c-0.014,0.013-0.027,0.026-0.041,0.041c-0.014,0.013-0.027,0.028-0.041,0.042
			c-0.014,0.014-0.027,0.029-0.041,0.043c-0.014,0.015-0.028,0.029-0.041,0.044c-0.014,0.015-0.027,0.03-0.041,0.045
			c-0.014,0.016-0.027,0.031-0.041,0.047c-0.014,0.016-0.027,0.032-0.042,0.048c-0.014,0.016-0.027,0.033-0.041,0.05
			c-0.014,0.017-0.028,0.034-0.042,0.051c-0.013,0.018-0.027,0.035-0.041,0.054c-0.014,0.018-0.027,0.037-0.041,0.055
			c-0.014,0.019-0.028,0.037-0.041,0.056c-0.014,0.02-0.027,0.04-0.041,0.059c-0.014,0.021-0.028,0.041-0.041,0.062
			c-0.014,0.021-0.027,0.042-0.041,0.063c-0.014,0.022-0.028,0.044-0.041,0.066c-0.014,0.022-0.027,0.046-0.041,0.069
			c-0.014,0.024-0.027,0.048-0.041,0.072c-0.014,0.025-0.027,0.05-0.041,0.075c-0.014,0.026-0.028,0.052-0.042,0.079
			c-0.014,0.027-0.027,0.055-0.041,0.083c-0.014,0.029-0.028,0.058-0.042,0.088c-0.014,0.031-0.027,0.062-0.041,0.094
			c-0.014,0.033-0.028,0.066-0.041,0.101c-0.014,0.036-0.028,0.072-0.041,0.109c-0.015,0.04-0.028,0.08-0.041,0.119
			c-0.015,0.044-0.028,0.088-0.041,0.132c-0.014,0.05-0.028,0.1-0.041,0.151c-0.015,0.059-0.029,0.118-0.041,0.178
			c-0.058,0.279-0.088,0.568-0.088,0.864V14.1c0.029-0.024,0.058-0.049,0.088-0.073c0.013-0.011,0.027-0.022,0.041-0.033
			c0.014-0.01,0.027-0.021,0.041-0.032c0.014-0.011,0.027-0.021,0.041-0.031c0.014-0.011,0.027-0.021,0.041-0.031
			c0.013-0.01,0.027-0.02,0.041-0.029c0.013-0.009,0.027-0.019,0.041-0.029l0.041-0.028c0.014-0.009,0.027-0.019,0.042-0.027
			l0.041-0.027c0.014-0.009,0.027-0.018,0.042-0.026c0.013-0.009,0.027-0.017,0.041-0.025c0.014-0.009,0.027-0.017,0.041-0.025
			c0.014-0.008,0.027-0.016,0.041-0.024c0.014-0.008,0.027-0.017,0.041-0.024c0.014-0.008,0.027-0.016,0.041-0.023l0.041-0.022
			l0.041-0.022c0.014-0.007,0.027-0.015,0.041-0.022c0.014-0.007,0.027-0.014,0.041-0.021l0.041-0.021l0.042-0.021l0.041-0.021
			c0.014-0.006,0.027-0.013,0.042-0.019l0.041-0.019l0.041-0.019l0.041-0.018l0.041-0.018l0.041-0.017l0.041-0.017l0.041-0.017
			l0.041-0.016l0.042-0.016c0.013-0.005,0.027-0.011,0.041-0.016l0.041-0.016c0.013-0.005,0.027-0.01,0.041-0.015
			s0.027-0.01,0.041-0.015l0.041-0.014l0.042-0.015c0.013-0.004,0.027-0.009,0.041-0.014l0.041-0.014
			c0.013-0.004,0.027-0.009,0.041-0.013l0.041-0.013l0.042-0.013l0.041-0.012l0.041-0.012l0.041-0.012l0.041-0.012l0.041-0.012
			l0.042-0.011l0.041-0.011l0.05-0.012l0.041-0.009l0.042-0.01l0.041-0.01l0.041-0.01l0.041-0.01l0.041-0.009l0.042-0.009
			l0.041-0.009l0.041-0.009l0.041-0.009l0.041-0.008l0.041-0.008l0.042-0.008l0.041-0.008l0.041-0.008l0.041-0.007l0.042-0.007
			l0.041-0.007l0.042-0.007l0.041-0.007l0.041-0.007l0.041-0.005l0.041-0.007l0.041-0.006l0.041-0.005l0.041-0.006l0.041-0.005
			l0.041-0.005l0.041-0.006l0.041-0.005l0.041-0.005l0.042-0.005l0.041-0.004l0.041-0.005l0.041-0.004l0.041-0.005l0.041-0.003
			l0.041-0.004l0.041-0.004l0.041-0.004l0.041-0.003l0.042-0.003l0.041-0.003l0.041-0.002l0.041-0.003l0.041-0.003l0.042-0.002
			l0.041-0.003l0.041-0.002l0.041-0.002l0.041-0.002l0.041-0.002l0.041-0.002l0.041-0.002l0.041-0.001l0.042-0.002l0.041-0.001
			l0.041-0.001l0.041-0.001l0.041-0.001h0.041l0.042-0.001l0.041-0.001l0.041-0.001h0.041l0.042-0.001h0.041h0.041H16.8h0.041h0.041
			h0.041h0.041h0.041h0.041h0.041h0.041l0.041,0.001h0.041l0.041,0.001l0.042,0.001h0.041l0.042,0.001h0.041l0.041,0.001
			l0.042,0.001l0.041,0.001l0.041,0.001l0.041,0.001l0.041,0.001l0.041,0.002l0.041,0.002h0.021l0.02,0.001l0.043,0.002l0.041,0.001
			l0.041,0.002l0.041,0.003l0.041,0.002l0.041,0.002l0.041,0.003l0.041,0.003l0.041,0.003l0.041,0.003l0.041,0.003l0.041,0.004
			l0.041,0.004l0.041,0.003l0.041,0.004l0.042,0.003l0.041,0.004l0.042,0.004l0.041,0.004l0.041,0.004l0.041,0.005l0.042,0.004
			l0.041,0.005l0.041,0.004l0.041,0.005l0.041,0.005l0.041,0.005l0.042,0.005l0.041,0.005l0.041,0.005l0.041,0.005l0.041,0.006
			l0.043,0.005l0.041,0.006l0.041,0.006l0.041,0.006l0.041,0.007l0.041,0.005l0.041,0.006l0.041,0.006l0.041,0.007l0.041,0.006
			l0.043,0.006l0.041,0.006l0.04,0.007l0.041,0.007l0.04,0.007l0.043,0.007l0.041,0.007l0.041,0.008l0.041,0.007l0.041,0.007
			l0.041,0.008l0.041,0.007l0.041,0.007l0.041,0.008l0.041,0.007l0.041,0.008l0.041,0.009l0.041,0.008l0.041,0.008l0.041,0.008
			l0.043,0.008l0.041,0.008l0.041,0.009l0.041,0.008l0.041,0.008l0.041,0.009l0.043,0.008l0.041,0.009l0.041,0.009l0.041,0.009
			l0.041,0.009l0.041,0.009l0.041,0.009l0.041,0.009l0.041,0.01l0.043,0.01l0.041,0.009l0.041,0.01l0.041,0.01v1.8l-0.041-0.021
			l-0.041-0.02l-0.041-0.021l-0.043-0.02l-0.041-0.02l-0.041-0.021l-0.041-0.019l-0.041-0.02l-0.041-0.019l-0.041-0.019
			l-0.041-0.019l-0.041-0.019l-0.043-0.018l-0.041-0.018l-0.041-0.018l-0.041-0.018l-0.041-0.018l-0.041-0.017l-0.043-0.017
			l-0.041-0.017l-0.041-0.017l-0.041-0.017l-0.041-0.016l-0.041-0.016l-0.041-0.016l-0.041-0.015l-0.041-0.015l-0.041-0.015
			l-0.041-0.014l-0.041-0.015l-0.041-0.014l-0.041-0.013l-0.041-0.014l-0.043-0.013l-0.04-0.013l-0.041-0.013l-0.04-0.013
			l-0.041-0.013l-0.043-0.012l-0.041-0.012l-0.041-0.012l-0.041-0.012l-0.041-0.011l-0.041-0.011l-0.041-0.011l-0.041-0.01
			l-0.041-0.01l-0.041-0.01l-0.043-0.01l-0.041-0.01l-0.041-0.009l-0.041-0.009l-0.041-0.009l-0.042-0.008l-0.041-0.008
			l-0.041-0.008l-0.041-0.008l-0.041-0.007l-0.041-0.008l-0.042-0.007l-0.041-0.007l-0.041-0.008l-0.041-0.006l-0.042-0.006
			l-0.041-0.006l-0.042-0.006l-0.041-0.006l-0.041-0.005l-0.041-0.006l-0.041-0.004l-0.041-0.005l-0.041-0.004l-0.041-0.005
			l-0.061,0.01l-0.041-0.004l-0.041-0.003l-0.04-0.004l-0.041-0.003L17.868,14.1h-0.016l-0.041-0.003l-0.042-0.002l-0.041-0.002
			l-0.041-0.002l-0.041-0.002l-0.041-0.001l-0.041-0.001l-0.041-0.001h-0.041l-0.042-0.001c-0.014,0-0.027,0-0.041,0h-0.041
			l-0.042,0.001h-0.041l-0.042,0.001c-0.013,0-0.027,0-0.041,0.001c-0.014,0.001-0.027,0.001-0.041,0.002l-0.041,0.002l-0.041,0.002
			l-0.041,0.003L16.987,14.1c-0.013,0.001-0.027,0.002-0.041,0.003c-0.014,0.001-0.027,0.002-0.041,0.004l-0.041,0.004l-0.041,0.005
			l-0.041,0.004l-0.041,0.006L16.7,14.133l-0.041,0.006c-0.014,0.002-0.027,0.004-0.042,0.007c-0.013,0.002-0.027,0.004-0.041,0.006
			c-0.014,0.003-0.027,0.005-0.041,0.008c-0.014,0.003-0.028,0.004-0.041,0.008c-0.015,0.002-0.027,0.005-0.042,0.008
			c-0.014,0.003-0.027,0.005-0.041,0.008c-0.014,0.004-0.027,0.007-0.041,0.01l-0.041,0.01c-0.014,0.003-0.027,0.007-0.041,0.01
			c-0.014,0.003-0.028,0.007-0.041,0.01c-0.014,0.004-0.027,0.008-0.042,0.012l-0.041,0.012c-0.013,0.003-0.027,0.008-0.041,0.012
			c-0.014,0.005-0.027,0.008-0.041,0.013c-0.014,0.004-0.027,0.009-0.041,0.013C16.027,14.29,16.014,14.295,16,14.3
			s-0.027,0.01-0.041,0.016c-0.014,0.004-0.027,0.009-0.041,0.015c-0.014,0.006-0.027,0.011-0.041,0.016
			c-0.014,0.005-0.027,0.011-0.042,0.016c-0.014,0.006-0.027,0.012-0.041,0.018c-0.014,0.006-0.027,0.012-0.041,0.018
			c-0.013,0.006-0.027,0.013-0.041,0.019c-0.014,0.006-0.027,0.013-0.041,0.02c-0.014,0.007-0.027,0.013-0.042,0.02
			c-0.014,0.007-0.027,0.014-0.041,0.021c-0.014,0.007-0.028,0.014-0.041,0.021c-0.014,0.007-0.028,0.015-0.041,0.023
			c-0.014,0.008-0.027,0.016-0.041,0.023c-0.014,0.008-0.027,0.017-0.041,0.025c-0.014,0.008-0.027,0.017-0.041,0.026
			c-0.014,0.009-0.028,0.018-0.041,0.026c-0.014,0.009-0.027,0.019-0.041,0.028c-0.014,0.01-0.027,0.019-0.041,0.029
			c-0.014,0.01-0.028,0.02-0.042,0.03c-0.014,0.01-0.027,0.021-0.041,0.032c-0.014,0.011-0.028,0.021-0.041,0.033
			c-0.014,0.012-0.028,0.022-0.041,0.034c-0.014,0.012-0.027,0.023-0.041,0.036c-0.014,0.012-0.027,0.025-0.041,0.037
			c-0.014,0.013-0.027,0.026-0.041,0.04c-0.014,0.013-0.028,0.027-0.041,0.04c-0.014,0.015-0.027,0.029-0.041,0.044
			c-0.014,0.015-0.027,0.03-0.041,0.045c-0.014,0.015-0.027,0.031-0.041,0.048c-0.014,0.016-0.027,0.033-0.041,0.05
			c-0.014,0.018-0.027,0.035-0.041,0.053c-0.014,0.019-0.028,0.038-0.042,0.056c-0.014,0.021-0.027,0.04-0.041,0.061
			c-0.014,0.021-0.028,0.042-0.042,0.063c-0.014,0.021-0.027,0.045-0.041,0.069c-0.014,0.024-0.028,0.049-0.041,0.074
			c-0.014,0.027-0.028,0.053-0.041,0.081c-0.015,0.028-0.028,0.058-0.042,0.088c-0.014,0.032-0.028,0.063-0.041,0.096
			c-0.015,0.036-0.028,0.073-0.041,0.11c-0.014,0.041-0.028,0.083-0.041,0.125c-0.014,0.049-0.029,0.099-0.041,0.15
			c-0.016,0.064-0.029,0.128-0.041,0.194c-0.018,0.098-0.032,0.197-0.042,0.301c-0.011,0.119-0.017,0.242-0.017,0.369
			c0,0.125,0.006,0.25,0.017,0.367c0.01,0.104,0.023,0.203,0.042,0.301c0.012,0.064,0.025,0.131,0.041,0.193
			c0.012,0.053,0.026,0.102,0.041,0.15c0.013,0.043,0.027,0.084,0.041,0.125c0.013,0.037,0.026,0.074,0.041,0.109
			c0.013,0.033,0.027,0.063,0.041,0.098c0.013,0.027,0.027,0.059,0.042,0.088c0.012,0.025,0.026,0.053,0.041,0.08
			c0.013,0.023,0.027,0.049,0.041,0.072c0.013,0.022,0.027,0.047,0.041,0.07c0.014,0.02,0.027,0.043,0.042,0.062
			c0.013,0.021,0.027,0.039,0.041,0.06c0.014,0.019,0.027,0.037,0.042,0.058c0.013,0.018,0.027,0.035,0.041,0.053
			c0.014,0.018,0.027,0.033,0.041,0.051c0.014,0.016,0.027,0.031,0.041,0.047c0.014,0.018,0.027,0.031,0.041,0.045
			c0.014,0.016,0.027,0.029,0.041,0.045c0.013,0.014,0.027,0.025,0.041,0.041c0.014,0.014,0.027,0.025,0.041,0.039
			c0.014,0.012,0.027,0.025,0.041,0.037c0.014,0.012,0.027,0.023,0.041,0.035c0.013,0.014,0.027,0.021,0.041,0.035
			c0.013,0.01,0.027,0.021,0.041,0.031c0.013,0.012,0.027,0.021,0.041,0.031c0.014,0.01,0.027,0.021,0.042,0.03
			c0.013,0.011,0.027,0.021,0.041,0.028c0.014,0.009,0.027,0.019,0.041,0.027c0.013,0.01,0.027,0.019,0.041,0.025
			s0.027,0.018,0.041,0.025c0.014,0.006,0.027,0.018,0.041,0.024c0.014,0.006,0.027,0.017,0.041,0.022
			c0.013,0.009,0.027,0.017,0.041,0.023c0.013,0.006,0.027,0.014,0.041,0.02c0.014,0.009,0.027,0.017,0.041,0.021
			c0.014,0.008,0.028,0.014,0.042,0.02c0.014,0.009,0.027,0.015,0.041,0.021c0.013,0.006,0.027,0.014,0.041,0.02
			s0.027,0.012,0.041,0.018c0.014,0.008,0.027,0.014,0.041,0.02c0.014,0.004,0.027,0.011,0.042,0.017
			c0.013,0.004,0.027,0.011,0.041,0.017c0.014,0.004,0.027,0.01,0.041,0.016c0.014,0.004,0.027,0.01,0.041,0.014
			c0.014,0.004,0.027,0.01,0.041,0.016c0.014,0.004,0.027,0.008,0.041,0.013c0.014,0.006,0.027,0.01,0.041,0.014
			c0.013,0.005,0.027,0.009,0.041,0.013c0.014,0.004,0.028,0.008,0.041,0.012c0.014,0.004,0.027,0.008,0.042,0.012
			c0.013,0.002,0.027,0.006,0.041,0.01c0.014,0.002,0.027,0.008,0.041,0.01l0.041,0.01c0.014,0.005,0.027,0.007,0.041,0.011
			c0.014,0.004,0.027,0.006,0.041,0.008c0.014,0.005,0.027,0.007,0.042,0.009c0.013,0.004,0.027,0.006,0.041,0.008
			c0.014,0.004,0.027,0.006,0.041,0.008c0.014,0.002,0.027,0.006,0.041,0.008c0.014,0.002,0.027,0.004,0.042,0.006
			c0.013,0.002,0.027,0.004,0.041,0.006l0.041,0.006l0.041,0.008l0.041,0.004l0.041,0.004l0.041,0.005
			c0.014,0.002,0.027,0.004,0.041,0.004c0.014,0.002,0.028,0.002,0.041,0.004l0.041,0.002l0.041,0.004l0.041,0.002l0.041,0.003
			c0.014,0,0.027,0,0.041,0.002c0.014,0,0.027,0,0.041,0l0.042,0.002h0.041h0.042h0.041c0.014,0,0.027,0,0.041,0h0.042h0.041
			l0.041-0.002h0.041l0.041-0.002l0.041-0.003l0.041-0.002l0.041-0.002l0.042-0.002l0.041-0.002l0.016-0.002l0.025-0.002
			l0.041-0.002l0.04-0.005l0.041-0.004l0.041-0.004l0.041-0.004l0.041-0.006l0.041-0.004l0.041-0.004l0.041-0.006l0.041-0.006
			l0.041-0.006l0.041-0.006l0.043-0.008l0.041-0.008l0.041-0.006l0.041-0.006l0.041-0.006l0.041-0.008l0.043-0.008l0.041-0.006
			l0.041-0.009l0.041-0.008l0.041-0.011l0.041-0.008l0.041-0.01l0.041-0.008l0.041-0.01l0.041-0.01l0.041-0.008l0.043-0.011
			l0.041-0.01l0.041-0.011l0.041-0.012l0.041-0.012l0.041-0.01l0.041-0.012l0.041-0.012l0.041-0.013l0.041-0.013l0.043-0.012
			l0.041-0.012l0.041-0.014l0.041-0.014l0.041-0.013l0.041-0.015l0.041-0.014l0.041-0.014l0.041-0.014l0.041-0.016l0.041-0.015
			l0.041-0.015l0.041-0.016l0.041-0.016l0.041-0.016l0.041-0.017l0.041-0.016l0.041-0.017l0.041-0.018l0.041-0.016l0.043-0.019
			l0.041-0.019l0.041-0.016l0.041-0.02l0.041-0.018l0.041-0.019l0.043-0.019l0.041-0.02l0.041-0.02l0.041-0.02l0.041-0.02
			l0.041-0.02l0.041-0.02l0.041-0.021l0.041-0.02l0.043-0.02l0.041-0.021l0.041-0.021l0.041-0.021v1.799L21.063,20.8l-0.041,0.01
			l-0.041,0.01l-0.043,0.01l-0.041,0.01l-0.041,0.01l-0.041,0.01l-0.041,0.009l-0.041,0.01l-0.041,0.009l-0.055,0.033l-0.041,0.01
			l-0.041,0.008l-0.041,0.008l-0.041,0.011l-0.041,0.008l-0.043,0.009l-0.041,0.008l-0.041,0.01l-0.041,0.008l-0.041,0.008
			l-0.041,0.006l-0.041,0.008l-0.041,0.008l-0.041,0.009l-0.041,0.008l-0.041,0.009l-0.041,0.006l-0.041,0.008l-0.041,0.008
			l-0.041,0.006l-0.041,0.008L19.733,21.1l-0.043,0.008l-0.041,0.006l-0.041,0.009l-0.041,0.006l-0.041,0.003l-0.041,0.008
			l-0.041,0.006l-0.041,0.006l-0.041,0.008l-0.041,0.007l-0.043,0.006l-0.041,0.006l-0.041,0.007l-0.041,0.016l-0.041,0.006
			l-0.041,0.006l-0.041,0.006l-0.042,0.006l-0.041,0.004l-0.041,0.006l-0.042,0.006l-0.041,0.004l-0.041,0.006l-0.041,0.004
			l-0.041,0.005l-0.041,0.006l-0.042,0.004l-0.041,0.004l-0.04,0.005l-0.041,0.004l-0.043,0.004l-0.041,0.004l-0.041,0.004
			l-0.041,0.004l-0.04,0.002l-0.041,0.002l-0.041,0.004l-0.041,0.004l-0.041-0.002l-0.041,0.004l-0.041,0.002l-0.041,0.004
			l-0.041,0.002l-0.041,0.004l-0.041,0.002l-0.043,0.002l-0.041,0.002l-0.041,0.002h-0.021h-0.02l-0.041,0.002h-0.041l-0.041,0.002
			l-0.041,0.002l-0.042,0.003h-0.041l-0.042,0.002h-0.041l-0.041,0.002h-0.042l-0.041,0.002h-0.042h-0.041h-0.041h-0.041
			l-0.041,0.002h-0.041h-0.041h-0.041h-0.041H16.85h-0.041h-0.022h-0.041h-0.041h-0.041h-0.042l-0.041-0.002H16.54h-0.041
			l-0.042-0.002h-0.041l-0.041-0.002h-0.041l-0.041-0.002l-0.041-0.003l-0.042-0.002h-0.041l-0.041-0.002l-0.041-0.002l-0.041-0.002
			l-0.038,0.006l-0.041-0.002l-0.041-0.002l-0.041-0.002l-0.042-0.004l-0.041-0.002l-0.041-0.004l-0.041-0.002l-0.041-0.004
			l-0.042-0.002l-0.041-0.004l-0.041-0.004l-0.041-0.002l-0.041-0.004l-0.041-0.004l-0.041-0.006l-0.041-0.004l-0.041-0.004
			l-0.041-0.004l-0.042-0.007l-0.041-0.004l-0.041-0.006l-0.041-0.004l-0.041-0.007l-0.041-0.006l-0.041-0.006l-0.041-0.002
			l-0.041-0.008l-0.041-0.006l-0.041-0.006l-0.041-0.008l-0.041-0.006l-0.042-0.008l-0.041-0.007l-0.042-0.008l-0.041-0.006
			l-0.041-0.007l-0.041-0.008l-0.042-0.008l-0.041-0.008l-0.041-0.008l-0.041-0.008l-0.041-0.01l-0.041-0.01l-0.042-0.004
			l-0.041-0.01l-0.041-0.009l-0.041-0.01l-0.041-0.012l-0.042-0.01L13.95,21.04l-0.041-0.01l-0.041-0.013l-0.042-0.01l-0.041-0.013
			l-0.041-0.012l-0.041-0.012l-0.041-0.012l-0.041-0.014l-0.042-0.01l-0.041-0.012c-0.013-0.006-0.027-0.01-0.041-0.014
			c-0.014-0.006-0.027-0.01-0.041-0.015l-0.029-0.021l-0.042-0.014c-0.014-0.006-0.027-0.01-0.041-0.016
			c-0.014-0.004-0.027-0.01-0.041-0.016l-0.041-0.014c-0.014-0.007-0.027-0.013-0.041-0.017l-0.041-0.017l-0.042-0.018l-0.041-0.016
			l-0.041-0.019l-0.041-0.019l-0.041-0.018l-0.041-0.018l-0.041-0.02l-0.041-0.019L12.81,20.61c-0.014-0.006-0.027-0.013-0.042-0.02
			l-0.041-0.02l-0.042-0.021l-0.041-0.02c-0.014-0.008-0.027-0.016-0.041-0.021c-0.014-0.008-0.027-0.016-0.041-0.021l-0.041-0.022
			l-0.041-0.021l-0.041-0.018c-0.014-0.008-0.027-0.016-0.041-0.023c-0.014-0.008-0.027-0.018-0.041-0.022l-0.041-0.024
			c-0.014-0.009-0.027-0.019-0.041-0.025c-0.014-0.01-0.028-0.018-0.042-0.025l-0.041-0.027c-0.014-0.008-0.027-0.02-0.042-0.026
			l-0.041-0.026c-0.014-0.011-0.028-0.021-0.041-0.029c-0.014-0.01-0.028-0.021-0.041-0.029c-0.014-0.01-0.027-0.02-0.041-0.029
			c-0.014-0.009-0.027-0.021-0.041-0.031c-0.014-0.01-0.027-0.021-0.041-0.031c-0.014-0.012-0.028-0.021-0.041-0.032
			c-0.03-0.024-0.06-0.05-0.088-0.074v9.82h0.088h0.041h0.041h0.041h0.041h0.041h0.041h0.041h0.042h0.041h0.042h0.041h0.041h0.041
			h0.041h0.041h0.041h0.041h0.041h0.041h0.041h0.042h0.041h0.042h0.041h0.041h0.041h0.041h0.041h0.041h0.041h0.041h0.042h0.041
			h0.041h0.041h0.041h0.041h0.042h0.041h0.041h0.041h0.041h0.042h0.041h0.041h0.041h0.041h0.041h0.042h0.041h0.041h0.041h0.042
			h0.041h0.041h0.041h0.041h0.042h0.041h0.041h0.041h0.041h0.041h0.042h0.041h0.041h0.041h0.042h0.041h0.042h0.041h0.041h0.041
			h0.041h0.041h0.041h0.041h0.041h0.041h0.041h0.041h0.041h0.042h0.041h0.041h0.041h0.041h0.041h0.041h0.041h0.041h0.041h0.042
			h0.041h0.041h0.041h0.041h0.042h0.041h0.041h0.041h0.041h0.041h0.041h0.041h0.041h0.042h0.041h0.041h0.041h0.041h0.041h0.042
			h0.041h0.041h0.041h0.042h0.041h0.041h0.041h0.041h0.041h0.041h0.041h0.041h0.041h0.041h0.041h0.041h0.041h0.041h0.042h0.041
			h0.042h0.041h0.041h0.042h0.041h0.041h0.041h0.041h0.041h0.041h0.041h0.043h0.041h0.041h0.041h0.041h0.041h0.004
			c0.012,0,0.024,0,0.037,0h0.041c0.014,0,0.027,0,0.041-0.002c0.014,0,0.027,0,0.041,0c0.014,0,0.027-0.002,0.041-0.002
			l0.041-0.002l0.041-0.002c0.014-0.002,0.027-0.002,0.041-0.002c0.014-0.002,0.027-0.002,0.041-0.004l0.042-0.004
			c0.013-0.002,0.027-0.002,0.041-0.004c0.015-0.002,0.027-0.004,0.042-0.006c0.014-0.002,0.027-0.002,0.041-0.004
			s0.027-0.004,0.041-0.006l0.041-0.006c0.014-0.002,0.027-0.004,0.042-0.006c0.015-0.002,0.026-0.004,0.041-0.006
			c0.015-0.002,0.026-0.004,0.041-0.008l0.041-0.007l0.041-0.008c0.015-0.004,0.028-0.007,0.041-0.009
			c0.015-0.002,0.026-0.006,0.042-0.01l0.041-0.01l0.041-0.01c0.015-0.002,0.027-0.006,0.041-0.01
			c0.015-0.004,0.027-0.006,0.041-0.01c0.015-0.004,0.027-0.008,0.043-0.012c0.013-0.005,0.025-0.007,0.041-0.011l0.041-0.013
			l0.041-0.012c0.015-0.004,0.027-0.008,0.041-0.014c0.014-0.004,0.025-0.008,0.041-0.012c0.014-0.006,0.027-0.01,0.041-0.014
			l0.041-0.017l0.041-0.015c0.014-0.004,0.027-0.01,0.041-0.014c0.014-0.006,0.027-0.012,0.043-0.018
			c0.014-0.004,0.025-0.01,0.041-0.016c0.012-0.004,0.025-0.01,0.041-0.017l0.041-0.019l0.041-0.016l0.041-0.02
			c0.014-0.006,0.027-0.012,0.041-0.02c0.014-0.006,0.027-0.012,0.041-0.019c0.014-0.008,0.027-0.015,0.041-0.021
			c0.014-0.006,0.027-0.014,0.041-0.021c0.014-0.006,0.027-0.014,0.041-0.021c0.014-0.006,0.027-0.015,0.041-0.021l0.041-0.021
			l0.041-0.021l0.041-0.021c0.016-0.009,0.027-0.018,0.041-0.022c0.016-0.009,0.027-0.019,0.041-0.024
			c0.016-0.009,0.029-0.017,0.041-0.023c0.016-0.01,0.027-0.018,0.041-0.025c0.016-0.008,0.027-0.018,0.041-0.025
			c0.016-0.01,0.027-0.02,0.043-0.026c0.014-0.009,0.027-0.019,0.041-0.026c0.014-0.007,0.025-0.019,0.041-0.029
			c0.014-0.008,0.027-0.019,0.041-0.027c0.016-0.01,0.027-0.02,0.041-0.029c0.016-0.01,0.027-0.02,0.041-0.029
			c0.016-0.01,0.027-0.021,0.043-0.031c0.014-0.01,0.025-0.02,0.041-0.03c0.014-0.011,0.025-0.021,0.041-0.032
			c0.014-0.011,0.025-0.021,0.041-0.033c0.014-0.013,0.027-0.021,0.041-0.035c0.016-0.012,0.027-0.021,0.041-0.033
			c0.016-0.014,0.027-0.025,0.041-0.037c0.016-0.014,0.027-0.023,0.041-0.037c0.016-0.012,0.027-0.023,0.041-0.037
			c0.016-0.014,0.027-0.025,0.043-0.039c0.014-0.014,0.025-0.025,0.041-0.041c0.014-0.014,0.027-0.025,0.041-0.041
			c0.014-0.014,0.027-0.027,0.041-0.041c0.016-0.016,0.027-0.029,0.041-0.043c0.016-0.016,0.027-0.029,0.041-0.045
			c0.014-0.014,0.027-0.029,0.041-0.045c0.014-0.016,0.027-0.031,0.041-0.047c0.014-0.018,0.027-0.033,0.041-0.049
			c0.014-0.018,0.027-0.035,0.041-0.053c0.014-0.017,0.027-0.033,0.041-0.051c0.014-0.019,0.027-0.035,0.041-0.054
			c0.014-0.019,0.027-0.037,0.041-0.056c0.014-0.02,0.027-0.039,0.041-0.057c0.014-0.021,0.027-0.041,0.043-0.061
			c0.014-0.021,0.025-0.041,0.041-0.062c0.012-0.021,0.025-0.041,0.041-0.062c0.014-0.021,0.027-0.043,0.041-0.066
			c0.014-0.023,0.027-0.045,0.039-0.068c0.016-0.024,0.029-0.049,0.041-0.073c0.016-0.024,0.029-0.05,0.043-0.076
			c0.014-0.024,0.027-0.054,0.041-0.08c0.014-0.026,0.027-0.056,0.041-0.084s0.027-0.06,0.041-0.088
			c0.014-0.033,0.027-0.063,0.041-0.097c0.016-0.034,0.027-0.067,0.041-0.104c0.016-0.037,0.027-0.074,0.041-0.111
			c0.016-0.041,0.029-0.082,0.041-0.123c0.016-0.045,0.029-0.09,0.041-0.137c0.016-0.053,0.029-0.105,0.041-0.158
			c0.018-0.062,0.029-0.127,0.043-0.19c0.016-0.084,0.029-0.168,0.041-0.255c0.022-0.18,0.035-0.36,0.035-0.545V4.277H22.237z"/>
	</g>
</g>
<g>
	<g>
		<path d="M10.491,4.277H10.43h-0.041h-0.041h-0.041h-0.041h-0.041h-0.042h-0.041h-0.041H10.06h-0.041H9.978H9.937h-0.04h-0.04
			H9.815H9.774H9.733H9.692H9.651H9.61H9.569H9.528H9.487H9.446H9.405H9.363H9.322H9.28H9.239H9.198H9.157H9.116H9.075H9.037H8.996
			H8.955H8.914H8.872H8.831H8.789h-0.04H8.708H8.667H8.625H8.583H8.542h-0.04H8.461H8.419H8.378H8.336H8.295H8.254H8.216H8.175
			H8.133H8.092H8.051H8.01H7.968H7.927H7.886H7.845H7.804H7.762H7.721H7.679H7.638H7.597H7.556H7.515H7.474H7.432H7.391H7.356H7.315
			H7.274H7.233H7.192H7.15H7.109H7.068H7.027H6.985H6.946H6.905H6.864H6.823H6.782H6.74H6.699H6.658H6.617H6.576h-0.04H6.495H6.454
			H6.413H6.372H6.33H6.289H6.248H6.207H6.166h-0.04h-0.04H6.045H6.004H5.963H5.921H5.88H5.839H5.798H5.757H5.716h-0.04H5.635H5.594
			H5.553H5.511H5.47H5.428H5.387H5.346H5.304H5.266H5.225H5.184H5.143H5.102H5.061H5.02H4.978H4.937H4.896H4.855H4.816H4.775H4.733
			H4.692H4.651H4.61H4.569H4.527H4.486h-0.04h-0.04H4.365H4.324H4.282H4.26H4.241c-0.014,0-0.027,0-0.041,0
			c-0.014,0-0.027,0-0.041,0S4.132,4.28,4.118,4.281L4.077,4.282c-0.014,0-0.027,0.001-0.041,0.002
			c-0.014,0-0.027,0.002-0.041,0.002s-0.027,0-0.041,0.003C3.94,4.29,3.927,4.29,3.912,4.29L3.871,4.295
			C3.857,4.296,3.843,4.297,3.829,4.298c-0.013,0-0.027,0.003-0.041,0.004L3.747,4.308L3.706,4.311
			C3.692,4.314,3.679,4.315,3.665,4.319C3.652,4.319,3.637,4.323,3.624,4.324C3.61,4.324,3.597,4.328,3.583,4.329L3.542,4.337
			C3.528,4.337,3.514,4.342,3.5,4.345S3.473,4.35,3.459,4.353C3.446,4.355,3.432,4.355,3.418,4.361
			C3.404,4.363,3.39,4.367,3.376,4.368L3.335,4.376C3.321,4.381,3.308,4.384,3.293,4.388C3.28,4.389,3.266,4.395,3.252,4.397
			c-0.014,0.003-0.027,0.005-0.041,0.01C3.197,4.41,3.183,4.415,3.17,4.418L3.128,4.428C3.114,4.433,3.101,4.436,3.087,4.44
			C3.073,4.444,3.06,4.449,3.046,4.453C3.033,4.457,3.019,4.46,3.005,4.466C2.991,4.47,2.978,4.475,2.964,4.479L2.923,4.493
			L2.881,4.506C2.867,4.512,2.854,4.514,2.84,4.522C2.827,4.526,2.813,4.531,2.799,4.535C2.785,4.54,2.772,4.546,2.758,4.551
			L2.726,4.566L2.684,4.582L2.643,4.6C2.629,4.605,2.616,4.611,2.602,4.617C2.589,4.621,2.575,4.629,2.561,4.634
			C2.547,4.642,2.533,4.647,2.519,4.652C2.505,4.66,2.492,4.665,2.478,4.672c-0.014,0.007-0.027,0.014-0.041,0.02
			C2.424,4.699,2.41,4.704,2.396,4.712L2.355,4.733C2.341,4.741,2.327,4.746,2.314,4.755C2.3,4.763,2.287,4.77,2.272,4.777
			C2.259,4.784,2.245,4.79,2.231,4.798C2.217,4.806,2.203,4.814,2.19,4.822C2.176,4.829,2.163,4.836,2.149,4.842
			C2.135,4.85,2.122,4.861,2.108,4.868C2.094,4.876,2.08,4.884,2.066,4.892C2.052,4.9,2.039,4.909,2.025,4.915
			C2.011,4.923,1.998,4.934,1.984,4.941C1.971,4.949,1.957,4.96,1.943,4.967S1.916,4.986,1.902,4.993
			c-0.014,0.01-0.028,0.02-0.041,0.029C1.847,5.032,1.834,5.04,1.819,5.052C1.806,5.061,1.792,5.069,1.778,5.079L1.737,5.111
			c-0.014,0.01-0.027,0.02-0.041,0.031c-0.014,0.011-0.028,0.021-0.042,0.03C1.64,5.184,1.627,5.194,1.613,5.204
			C1.599,5.217,1.586,5.225,1.572,5.238C1.559,5.25,1.545,5.262,1.531,5.272C1.517,5.285,1.504,5.295,1.49,5.309
			C1.476,5.319,1.463,5.332,1.448,5.342C1.435,5.355,1.421,5.368,1.407,5.379C1.393,5.393,1.38,5.405,1.365,5.418
			C1.352,5.431,1.338,5.441,1.324,5.454C1.31,5.47,1.297,5.48,1.283,5.496C1.269,5.509,1.256,5.522,1.242,5.538
			C1.228,5.552,1.215,5.565,1.201,5.579C1.187,5.592,1.173,5.608,1.16,5.621c-0.014,0.016-0.028,0.03-0.042,0.044
			C1.104,5.682,1.091,5.697,1.077,5.711C1.063,5.728,1.05,5.743,1.035,5.759C1.021,5.772,1.008,5.79,0.994,5.807
			C0.98,5.823,0.967,5.837,0.953,5.855S0.925,5.889,0.912,5.908C0.898,5.923,0.884,5.941,0.871,5.96
			C0.857,5.979,0.844,5.996,0.829,6.014c-0.013,0.02-0.027,0.038-0.041,0.057c-0.014,0.02-0.027,0.04-0.041,0.058
			C0.733,6.151,0.719,6.171,0.706,6.191c-0.015,0.02-0.028,0.042-0.042,0.062C0.65,6.276,0.637,6.298,0.623,6.319
			C0.609,6.342,0.596,6.366,0.582,6.389C0.568,6.413,0.554,6.436,0.541,6.46C0.527,6.486,0.513,6.509,0.5,6.535
			C0.486,6.561,0.472,6.587,0.459,6.613C0.445,6.642,0.431,6.669,0.417,6.698C0.403,6.725,0.39,6.755,0.376,6.785
			C0.362,6.816,0.349,6.848,0.335,6.876C0.321,6.913,0.307,6.944,0.294,6.98C0.279,7.014,0.267,7.052,0.253,7.087
			c-0.014,0.04-0.028,0.08-0.042,0.12C0.197,7.251,0.184,7.296,0.17,7.341c-0.014,0.05-0.029,0.1-0.041,0.151
			C0.114,7.551,0.1,7.608,0.088,7.669C0.03,7.949,0,8.238,0,8.535v10.502c0.03,0.016,0.059,0.028,0.088,0.043l0.041,0.02l0.041,0.02
			l0.041,0.021l0.042,0.019l0.041,0.02l0.041,0.02l0.041,0.018l0.041,0.021l0.042,0.016l0.041,0.02l0.041,0.018l0.041,0.019
			l0.041,0.019l0.041,0.017l0.042,0.017l0.041,0.018l0.041,0.018l0.041,0.017l0.042,0.017l0.041,0.017l0.041,0.016l0.041,0.017
			l0.041,0.015l0.042,0.017l0.041,0.015l0.042,0.014l0.041,0.017l0.041,0.015l0.041,0.014l0.041,0.016l0.041,0.014l0.042,0.012
			l0.041,0.016l0.042,0.014l0.041,0.014l0.041,0.012l0.041,0.012l0.041,0.012l0.042,0.014l0.041,0.011l0.041,0.013l0.041,0.012
			l0.042,0.011l0.041,0.01l0.041,0.011l0.041,0.01l0.041,0.013l0.041,0.01l0.042,0.011l0.041,0.01l0.041,0.01l0.041,0.009
			l0.041,0.009l0.042,0.008l0.041,0.008l0.041,0.01l0.041,0.008l0.041,0.01l0.041,0.006l0.042,0.008l0.041,0.006l0.041,0.008
			l0.041,0.007l0.042,0.007l0.041,0.006l0.041,0.004l0.041,0.006l0.041,0.007l0.042,0.005l0.041,0.004l0.041,0.005l0.041,0.005
			l0.041,0.004l0.041,0.004l0.042,0.002l0.041,0.004l0.041,0.002l0.041,0.004h0.042l0.041,0.002l0.042,0.003l0.041,0.002
			l0.041,0.001l0.042,0.001h0.041l0.041,0.001h0.041h0.025h0.016c0.014,0,0.027,0,0.041,0l0.041-0.001c0.013,0,0.028,0,0.041-0.001
			c0.014,0,0.028-0.001,0.042-0.002c0.014-0.001,0.027-0.001,0.041-0.002c0.014-0.002,0.027-0.002,0.042-0.004
			c0.013,0,0.027,0,0.041-0.002c0.014-0.002,0.027-0.002,0.041-0.004l0.041-0.004c0.014-0.002,0.027-0.004,0.041-0.006
			c0.014,0,0.027-0.002,0.041-0.006l0.041-0.006c0.014-0.002,0.027-0.005,0.041-0.007c0.014-0.003,0.027-0.007,0.041-0.009
			c0.014-0.002,0.028-0.006,0.042-0.008c0.014-0.002,0.027-0.006,0.041-0.008c0.014-0.004,0.027-0.007,0.041-0.01
			c0.013-0.004,0.027-0.007,0.041-0.011c0.014-0.005,0.027-0.007,0.041-0.011c0.014-0.004,0.028-0.008,0.041-0.012
			c0.014-0.005,0.027-0.009,0.042-0.014c0.013-0.004,0.027-0.01,0.041-0.014c0.014-0.006,0.027-0.01,0.041-0.014
			c0.014-0.006,0.027-0.011,0.041-0.016s0.027-0.01,0.041-0.016c0.014-0.006,0.028-0.012,0.042-0.019
			c0.014-0.006,0.027-0.012,0.041-0.019c0.014-0.006,0.027-0.014,0.041-0.02c0.013-0.006,0.027-0.013,0.041-0.02
			c0.014-0.008,0.028-0.014,0.041-0.021c0.014-0.008,0.028-0.015,0.041-0.023c0.014-0.006,0.027-0.014,0.042-0.021
			c0.013-0.008,0.027-0.016,0.041-0.023c0.014-0.008,0.027-0.019,0.041-0.025c0.014-0.01,0.027-0.02,0.041-0.027
			c0.014-0.01,0.027-0.02,0.041-0.029c0.014-0.01,0.027-0.021,0.041-0.03c0.014-0.011,0.027-0.021,0.041-0.032
			s0.027-0.021,0.041-0.033c0.015-0.014,0.028-0.025,0.042-0.037c0.014-0.014,0.027-0.025,0.041-0.039
			c0.014-0.015,0.027-0.027,0.041-0.043c0.014-0.015,0.028-0.029,0.042-0.043c0.014-0.017,0.027-0.031,0.041-0.047
			c0.014-0.019,0.028-0.033,0.042-0.053c0.014-0.02,0.027-0.036,0.041-0.057c0.014-0.018,0.028-0.037,0.041-0.059
			c0.014-0.021,0.028-0.043,0.041-0.064c0.014-0.022,0.028-0.047,0.041-0.07c0.014-0.025,0.028-0.055,0.041-0.08
			c0.014-0.027,0.028-0.061,0.041-0.09c0.015-0.052,0.028-0.085,0.041-0.122c0.015-0.041,0.029-0.082,0.041-0.125
			c0.016-0.055,0.03-0.107,0.041-0.164c0.019-0.09,0.033-0.184,0.042-0.277c0.006-0.074,0.009-0.15,0.009-0.229v-4.935H6.02h0.041
			h0.041h0.024h0.042h0.041H6.25h0.041h0.041h0.042h0.041h0.041h0.041h0.041h0.041H6.62h0.041h0.041h0.041h0.042h0.041h0.041h0.041
			h0.041H6.99h0.042h0.041h0.041h0.041h0.042h0.041h0.041H7.32h0.041h0.042h0.041h0.042h0.041h0.041h0.041H7.65h0.041h0.042h0.041
			h0.042h0.041h0.041h0.041H7.98h0.042h0.041h0.041h0.041h0.042h0.041h0.041H8.31h0.041h0.041h0.042h0.041h0.041h0.041h0.041H8.64
			h0.041h0.041h0.041h0.041h0.041h0.042h0.041H8.97h0.041h0.041h0.041h0.041h0.041h0.041h0.041h0.041H9.34h0.041h0.042h0.041h0.041
			h0.041h0.041h0.041h0.02v4.936c0,0.144-0.006,0.285-0.02,0.424c-0.01,0.099-0.024,0.197-0.041,0.293
			c-0.012,0.063-0.025,0.129-0.041,0.191c-0.012,0.053-0.026,0.104-0.041,0.152c-0.013,0.043-0.026,0.085-0.041,0.127
			c-0.013,0.037-0.026,0.072-0.041,0.109c-0.013,0.033-0.027,0.065-0.042,0.099c-0.013,0.03-0.027,0.062-0.041,0.09
			c-0.013,0.026-0.027,0.056-0.042,0.082c-0.013,0.024-0.027,0.052-0.041,0.075c-0.014,0.023-0.027,0.047-0.041,0.068
			c-0.014,0.022-0.027,0.045-0.041,0.066c-0.013,0.02-0.027,0.041-0.041,0.061c-0.014,0.021-0.027,0.041-0.041,0.061
			c-0.014,0.02-0.027,0.037-0.041,0.057c-0.014,0.018-0.027,0.033-0.041,0.051c-0.013,0.017-0.027,0.033-0.041,0.049
			c-0.013,0.017-0.027,0.033-0.041,0.049c-0.013,0.016-0.027,0.031-0.041,0.045c-0.014,0.016-0.027,0.029-0.042,0.043
			c-0.013,0.014-0.027,0.027-0.041,0.041c-0.013,0.014-0.026,0.027-0.041,0.041c-0.013,0.014-0.027,0.025-0.041,0.038
			c-0.014,0.013-0.027,0.024-0.041,0.038c-0.014,0.012-0.027,0.023-0.041,0.035c-0.014,0.011-0.027,0.021-0.042,0.033
			c-0.013,0.012-0.026,0.021-0.041,0.032c-0.013,0.013-0.027,0.021-0.041,0.031c-0.013,0.013-0.027,0.021-0.041,0.03
			c-0.014,0.011-0.027,0.021-0.041,0.029c-0.014,0.01-0.027,0.021-0.042,0.028c-0.013,0.011-0.027,0.019-0.041,0.026
			c-0.014,0.01-0.027,0.02-0.041,0.027c-0.013,0.01-0.027,0.019-0.041,0.025c-0.014,0.008-0.027,0.018-0.041,0.023
			c-0.014,0.01-0.027,0.019-0.041,0.024c-0.014,0.009-0.027,0.017-0.042,0.024c-0.013,0.008-0.027,0.016-0.041,0.023
			c-0.013,0.006-0.027,0.014-0.041,0.02c-0.014,0.008-0.027,0.016-0.041,0.021c-0.014,0.008-0.027,0.014-0.042,0.021
			c-0.013,0.007-0.027,0.014-0.041,0.021c-0.013,0.006-0.027,0.012-0.041,0.018c-0.013,0.008-0.027,0.015-0.041,0.021l-0.041,0.02
			L7.775,20.81c-0.013,0.007-0.027,0.013-0.041,0.021c-0.014,0.004-0.028,0.011-0.042,0.017L7.65,20.867l-0.041,0.019
			c-0.014,0.005-0.027,0.01-0.041,0.017c-0.014,0.006-0.027,0.012-0.041,0.016c-0.013,0.006-0.028,0.011-0.041,0.016l-0.042,0.016
			c-0.014,0.004-0.027,0.01-0.041,0.014c-0.014,0.007-0.027,0.011-0.042,0.016L7.32,20.993l-0.041,0.014
			c-0.014,0.004-0.028,0.009-0.041,0.013l-0.041,0.012l-0.042,0.012c-0.013,0.004-0.027,0.01-0.041,0.014l-0.041,0.014
			c-0.013,0.004-0.027,0.006-0.041,0.01c-0.014,0.004-0.028,0.008-0.042,0.012l-0.041,0.011c-0.014,0.004-0.027,0.009-0.041,0.011
			c-0.013,0.004-0.027,0.008-0.041,0.012l-0.041,0.011c-0.014,0.003-0.027,0.007-0.041,0.01c-0.014,0.003-0.027,0.007-0.042,0.011
			l-0.041,0.008c-0.014,0.004-0.027,0.006-0.041,0.01L6.62,21.184l-0.041,0.008c-0.014,0.004-0.027,0.006-0.041,0.01L6.497,21.21
			l-0.041,0.009l-0.041,0.008C6.4,21.229,6.388,21.23,6.374,21.233c-0.014,0.002-0.028,0.004-0.042,0.008l-0.041,0.006
			c-0.013,0.004-0.027,0.006-0.041,0.008l-0.041,0.006l-0.041,0.007l-0.042-0.021C6.113,21.25,6.1,21.251,6.085,21.254l-0.041,0.007
			l-0.041,0.002l-0.041,0.006L5.92,21.272l-0.041,0.005l-0.041,0.006l-0.041,0.004l-0.041,0.004l-0.041,0.006l-0.041,0.004
			l-0.041,0.004l-0.041,0.005l-0.041,0.002l-0.042,0.004l-0.041,0.004l-0.042,0.002l-0.041,0.002l-0.041,0.002l-0.042,0.004
			l-0.041,0.002l-0.036,0.006l-0.041,0.002l-0.041,0.002l-0.041,0.002H5.061L5.02,21.345l-0.042,0.002L4.937,21.35l-0.041,0.002
			H4.855l-0.041,0.002H4.773l-0.042,0.002H4.69l-0.041,0.002H4.608H4.567H4.525H4.484H4.446H4.405H4.38H4.364H4.323H4.281H4.24
			H4.199H4.158H4.117H4.076l-0.041-0.002H3.994H3.953H3.911L3.87,21.355H3.828l-0.041-0.002H3.746L3.705,21.35H3.664l-0.041-0.002
			l-0.041-0.002l-0.041-0.002l-0.042-0.002l-0.036-0.005l-0.041-0.002L3.38,21.332l-0.041-0.002l-0.042-0.002l-0.041-0.004
			l-0.041-0.002l-0.041-0.002l-0.042-0.004l-0.041-0.002L3.05,21.311l-0.041-0.001l-0.041-0.004l-0.041-0.002l-0.042-0.004
			l-0.041-0.002l-0.041-0.004L2.762,21.29l-0.036-0.006l-0.042-0.004l-0.041-0.004l-0.041-0.004l-0.041-0.004l-0.042-0.004
			l-0.041-0.006l-0.041-0.004l-0.041-0.004l-0.041-0.004l-0.041-0.004l-0.042-0.006l-0.041-0.004L2.19,21.228l-0.041-0.004
			l-0.041-0.006l-0.042-0.005l-0.041-0.006l-0.041-0.004l-0.041-0.006l-0.041-0.006l-0.041-0.006l-0.042-0.004l-0.041-0.006
			l-0.041-0.008l-0.041-0.004l-0.042-0.006L1.613,21.15l-0.041-0.006l-0.041-0.006L1.49,21.131l-0.042-0.006l-0.041-0.006
			l-0.042-0.006l-0.041-0.008l-0.041-0.006l-0.041-0.008l-0.041-0.006L1.16,21.078l-0.042-0.008l-0.041-0.007l-0.042-0.008
			l-0.041-0.009L0.953,21.04l-0.041-0.007l-0.041-0.008l-0.042-0.008l-0.041-0.008l-0.041-0.008l-0.041-0.01l-0.042-0.008
			l-0.041-0.01l-0.041-0.009l-0.041-0.008L0.5,20.949l-0.041-0.01l-0.042-0.01l-0.041-0.008l-0.041-0.01l-0.041-0.01l-0.041-0.011
			l-0.042-0.011l-0.041-0.01l-0.041-0.01l-0.041-0.01C0.03,20.836,0,20.828,0,20.828v8.964h0.088h0.041H0.17h0.056h0.042h0.041H0.35
			h0.041h0.041h0.042h0.041h0.041h0.041h0.041h0.041h0.042h0.041h0.041h0.041h0.042h0.041h0.041h0.041H1.05h0.042h0.041h0.042h0.041
			h0.041h0.041h0.041H1.38h0.042h0.041h0.042h0.041h0.041h0.041h0.041h0.042h0.041h0.041h0.041h0.042h0.041h0.041h0.041H2.04h0.041
			h0.042h0.041h0.041h0.041h0.041h0.042H2.37h0.041h0.041h0.041h0.041h0.042h0.041h0.041h0.041h0.027h0.041h0.041h0.041H2.89h0.042
			h0.041h0.041h0.041h0.041h0.041h0.042H3.22h0.041h0.041h0.042h0.041h0.042h0.041h0.041h0.042h0.041h0.041h0.041h0.041h0.041h0.041
			h0.041H3.88h0.041h0.042h0.041h0.041h0.041h0.041h0.041h0.041H4.25h0.041h0.042h0.041h0.041h0.041h0.041h0.041H4.58h0.041h0.041
			h0.041h0.041h0.042h0.041h0.041h0.041H4.95h0.041h0.042h0.041h0.041h0.041h0.041h0.041h0.041H5.32h0.042h0.041h0.041h0.042h0.041
			h0.042H5.61h0.041h0.041h0.041h0.041h0.041h0.041h0.041h0.041H5.98h0.041h0.041h0.041h0.023h0.042h0.041H6.25h0.003
			c0.013,0,0.025,0,0.038,0h0.041c0.014,0,0.028,0,0.042-0.002c0.014,0,0.027,0,0.041,0c0.013,0,0.027-0.002,0.041-0.002
			l0.041-0.002l0.041-0.002c0.014-0.002,0.027-0.002,0.041-0.002c0.014-0.002,0.027-0.002,0.041-0.004l0.041-0.004
			c0.014-0.001,0.027-0.002,0.041-0.004c0.014-0.002,0.027-0.004,0.041-0.006c0.014-0.002,0.027-0.002,0.042-0.004
			c0.014-0.002,0.027-0.004,0.041-0.006l0.041-0.004c0.013-0.002,0.027-0.004,0.041-0.008c0.014-0.002,0.027-0.004,0.041-0.006
			c0.014-0.003,0.027-0.005,0.041-0.008l0.042-0.007c0.013-0.002,0.027-0.007,0.041-0.009c0.014-0.004,0.027-0.006,0.041-0.008
			c0.014-0.002,0.027-0.006,0.041-0.01l0.042-0.009l0.041-0.011c0.014-0.002,0.027-0.006,0.041-0.01
			c0.013-0.002,0.027-0.006,0.041-0.01c0.014-0.004,0.027-0.008,0.041-0.012c0.014-0.005,0.027-0.007,0.042-0.011l0.041-0.013
			l0.042-0.012c0.013-0.004,0.027-0.008,0.041-0.014c0.014-0.004,0.027-0.008,0.041-0.012c0.014-0.006,0.027-0.01,0.041-0.014
			l0.041-0.017l0.041-0.015c0.014-0.004,0.028-0.01,0.042-0.015c0.014-0.005,0.027-0.011,0.041-0.017
			c0.014-0.004,0.027-0.008,0.042-0.014c0.014-0.006,0.027-0.013,0.041-0.019c0.013-0.005,0.027-0.013,0.041-0.019l0.041-0.018
			l0.041-0.018c0.014-0.006,0.027-0.012,0.042-0.02c0.013-0.006,0.027-0.013,0.041-0.019c0.014-0.009,0.027-0.015,0.041-0.021
			c0.014-0.007,0.027-0.014,0.041-0.021c0.015-0.007,0.028-0.013,0.042-0.021c0.014-0.008,0.027-0.016,0.041-0.021l0.041-0.021
			c0.013-0.008,0.027-0.016,0.041-0.023c0.014-0.008,0.027-0.016,0.041-0.02c0.014-0.01,0.028-0.018,0.041-0.023
			c0.014-0.008,0.027-0.016,0.042-0.024c0.013-0.008,0.027-0.017,0.041-0.024c0.014-0.008,0.028-0.018,0.041-0.025
			c0.014-0.01,0.027-0.018,0.041-0.023c0.014-0.011,0.027-0.02,0.041-0.027c0.014-0.008,0.028-0.018,0.042-0.026
			c0.013-0.009,0.027-0.019,0.041-0.028c0.014-0.01,0.027-0.019,0.041-0.027c0.013-0.01,0.027-0.02,0.041-0.029
			c0.014-0.012,0.028-0.021,0.041-0.029c0.014-0.011,0.027-0.021,0.041-0.031c0.014-0.012,0.027-0.021,0.042-0.031
			c0.013-0.01,0.027-0.021,0.041-0.032c0.014-0.011,0.027-0.022,0.041-0.034c0.014-0.011,0.027-0.021,0.041-0.033
			c0.014-0.013,0.027-0.022,0.041-0.035c0.014-0.012,0.027-0.023,0.041-0.037c0.014-0.012,0.027-0.022,0.041-0.036
			c0.014-0.013,0.027-0.024,0.041-0.039c0.014-0.013,0.027-0.024,0.041-0.038c0.014-0.016,0.027-0.025,0.041-0.04
			c0.014-0.015,0.027-0.028,0.041-0.041c0.014-0.017,0.028-0.026,0.042-0.042c0.014-0.016,0.027-0.029,0.041-0.043
			c0.014-0.016,0.027-0.029,0.042-0.044c0.014-0.017,0.027-0.031,0.041-0.047c0.014-0.017,0.027-0.031,0.041-0.048
			c0.014-0.016,0.028-0.032,0.041-0.049c0.014-0.018,0.027-0.033,0.041-0.051s0.027-0.033,0.041-0.052
			c0.014-0.019,0.027-0.036,0.041-0.054c0.014-0.018,0.027-0.037,0.041-0.055c0.014-0.021,0.027-0.039,0.041-0.059
			c0.014-0.021,0.028-0.04,0.041-0.061c0.014-0.021,0.028-0.041,0.041-0.062c0.014-0.021,0.028-0.043,0.042-0.063
			c0.014-0.021,0.027-0.045,0.041-0.065c0.014-0.021,0.028-0.045,0.041-0.067c0.014-0.025,0.028-0.05,0.041-0.074
			c0.014-0.024,0.027-0.049,0.041-0.076c0.014-0.025,0.028-0.053,0.041-0.08c0.014-0.027,0.027-0.055,0.041-0.084
			c0.014-0.028,0.028-0.059,0.041-0.088c0.014-0.032,0.028-0.064,0.041-0.096c0.015-0.035,0.028-0.068,0.042-0.104
			c0.014-0.037,0.027-0.074,0.041-0.11c0.014-0.041,0.028-0.082,0.041-0.123c0.014-0.045,0.028-0.092,0.041-0.138
			c0.015-0.054,0.029-0.104,0.041-0.157c0.015-0.062,0.029-0.128,0.041-0.191c0.016-0.084,0.03-0.17,0.042-0.256
			c0.022-0.18,0.035-0.361,0.035-0.545V4.277H10.491z"/>
	</g>
</g>
<g>
	<g>
		<path d="M34.052,4.272H33.98v0.005h-0.04h-0.041h-0.041h-0.041h-0.041h-0.041h-0.041h-0.042h-0.041H33.57h-0.043h-0.039h-0.041
			h-0.041h-0.041h-0.041h-0.041h-0.041h-0.043h-0.041h-0.041h-0.039h-0.043h-0.041h-0.041h-0.041h-0.041h-0.04H32.79h-0.041h-0.041
			h-0.041h-0.041h-0.041h-0.041h-0.041h-0.041h-0.043h-0.041h-0.041h-0.039h-0.041h-0.041h-0.041h-0.041h-0.041h-0.041h-0.041
			h-0.043h-0.04h-0.043h-0.041h-0.041h-0.041h-0.041H31.68h-0.041h-0.041h-0.043h-0.037h-0.041h-0.041h-0.041h-0.041h-0.041h-0.041
			h-0.041H31.19h-0.041h-0.041h-0.041h-0.043h-0.042h-0.041H30.9h-0.041h-0.041h-0.041h-0.039h-0.043h-0.041h-0.041h-0.041h-0.041
			h-0.043h-0.041h-0.041h-0.041h-0.037h-0.043h-0.041h-0.041h-0.041h-0.04h-0.041H30.04h-0.041h-0.041h-0.041h-0.041h-0.041h-0.041
			h-0.041H29.71h-0.041h-0.041h-0.041h-0.039h-0.041h-0.041h-0.041h-0.041h-0.041h-0.041h-0.041h-0.043h-0.04h-0.041h-0.041h-0.041
			h-0.041h-0.043H28.93h-0.041h-0.041h-0.041h-0.039h-0.043h-0.039h-0.041h-0.043h-0.041H28.52h-0.041h-0.041h-0.039h-0.041h-0.041
			h-0.041h-0.041h-0.041h-0.042h-0.041H28.07h-0.041h-0.041h-0.043h-0.041h-0.041h-0.041h-0.03h-0.011c-0.014,0-0.026,0-0.041,0
			c-0.016,0-0.026,0-0.041,0c-0.014,0-0.026,0.001-0.041,0.002l-0.041,0.001c-0.014,0-0.026,0-0.041,0.001
			c-0.016,0-0.028,0.002-0.043,0.002c-0.012,0.001-0.026,0.002-0.041,0.003l-0.041,0.002L27.41,4.294
			c-0.014,0.001-0.026,0.002-0.041,0.004c-0.014,0.001-0.028,0.003-0.043,0.004l-0.041,0.004c-0.012,0.001-0.026,0.003-0.041,0.005
			c-0.014,0.002-0.026,0.003-0.041,0.005c-0.014,0.002-0.026,0.004-0.041,0.006c-0.014,0.001-0.026,0.004-0.043,0.006l-0.041,0.007
			c-0.014,0.002-0.026,0.004-0.041,0.006c-0.014,0.003-0.026,0.006-0.04,0.008c-0.015,0.002-0.027,0.005-0.041,0.008l-0.041,0.008
			l-0.041,0.009c-0.015,0.003-0.027,0.007-0.041,0.009c-0.015,0.003-0.027,0.006-0.041,0.01c-0.015,0.004-0.029,0.007-0.041,0.01
			L26.71,4.414c-0.015,0.003-0.029,0.007-0.043,0.011c-0.015,0.004-0.027,0.007-0.041,0.012c-0.013,0.004-0.027,0.008-0.041,0.012
			c-0.015,0.004-0.027,0.008-0.041,0.012c-0.015,0.004-0.027,0.008-0.041,0.013L26.46,4.487c-0.013,0.005-0.027,0.009-0.041,0.014
			c-0.015,0.005-0.027,0.009-0.041,0.015c-0.015,0.004-0.027,0.01-0.041,0.014c-0.015,0.005-0.026,0.01-0.041,0.015l-0.041,0.016
			l-0.043,0.016c-0.013,0.005-0.026,0.011-0.041,0.017c-0.015,0.005-0.026,0.011-0.041,0.017c-0.015,0.006-0.026,0.012-0.041,0.018
			s-0.026,0.012-0.041,0.018c-0.015,0.006-0.026,0.013-0.041,0.019c-0.015,0.006-0.026,0.013-0.041,0.02l-0.041,0.02
			c-0.015,0.007-0.026,0.014-0.041,0.021c-0.015,0.007-0.026,0.014-0.041,0.021c-0.015,0.007-0.026,0.014-0.043,0.021
			c-0.013,0.007-0.026,0.015-0.041,0.022c-0.015,0.007-0.026,0.015-0.041,0.022c-0.015,0.007-0.026,0.016-0.041,0.023
			c-0.015,0.008-0.026,0.016-0.041,0.024s-0.026,0.016-0.041,0.024c-0.015,0.008-0.026,0.017-0.041,0.025l-0.041,0.026
			c-0.014,0.009-0.028,0.018-0.043,0.027l-0.042,0.026l-0.041,0.028c-0.014,0.009-0.027,0.019-0.041,0.029l-0.041,0.029
			c-0.014,0.01-0.027,0.02-0.041,0.03c-0.014,0.01-0.027,0.02-0.041,0.03l-0.041,0.032l-0.041,0.032
			C25.127,5.207,25.114,5.22,25.1,5.23c-0.014,0.011-0.028,0.021-0.041,0.034S25.032,5.288,25.018,5.3
			c-0.014,0.012-0.027,0.024-0.043,0.036c-0.014,0.012-0.025,0.024-0.041,0.036c-0.014,0.013-0.027,0.025-0.039,0.038
			c-0.016,0.013-0.029,0.025-0.043,0.038c-0.014,0.013-0.027,0.026-0.041,0.04c-0.014,0.013-0.027,0.027-0.041,0.04
			c-0.016,0.014-0.027,0.028-0.041,0.042c-0.016,0.015-0.027,0.029-0.041,0.043c-0.014,0.015-0.027,0.029-0.041,0.044
			c-0.016,0.015-0.029,0.031-0.041,0.046c-0.016,0.015-0.029,0.03-0.043,0.046c-0.014,0.016-0.027,0.032-0.041,0.049
			c-0.014,0.017-0.027,0.033-0.041,0.049c-0.014,0.017-0.027,0.034-0.041,0.051c-0.014,0.018-0.027,0.036-0.041,0.054
			c-0.014,0.018-0.027,0.036-0.041,0.054c-0.014,0.02-0.027,0.038-0.041,0.057c-0.014,0.019-0.026,0.039-0.041,0.059
			c-0.014,0.02-0.026,0.041-0.041,0.061c-0.016,0.021-0.028,0.042-0.041,0.063c-0.016,0.022-0.028,0.044-0.041,0.066
			c-0.016,0.023-0.028,0.046-0.043,0.068c-0.014,0.024-0.026,0.048-0.041,0.072c-0.014,0.024-0.027,0.049-0.042,0.075
			C24.012,6.553,24,6.579,23.985,6.605c-0.016,0.028-0.026,0.055-0.041,0.083c-0.016,0.029-0.028,0.058-0.041,0.088
			c-0.016,0.031-0.026,0.063-0.041,0.094c-0.016,0.033-0.028,0.067-0.041,0.101c-0.016,0.036-0.028,0.073-0.041,0.109
			c-0.016,0.04-0.028,0.08-0.041,0.12c-0.016,0.043-0.028,0.088-0.043,0.132c-0.014,0.049-0.026,0.1-0.041,0.15
			c-0.016,0.059-0.028,0.119-0.041,0.179c-0.059,0.28-0.088,0.57-0.088,0.867v4.416h0.088h0.041h0.041h0.043h0.041h0.041h0.041
			h0.041h0.041h0.041h0.041h0.041h0.041h0.043h0.041h0.041h0.041h0.041h0.041h0.041h0.041h0.041h0.041h0.041h0.043h0.041h0.041
			h0.041h0.041h0.041h0.041h0.043h0.039h0.041h0.043h0.041h0.041h0.041h0.041h0.041h0.041h0.041h0.041h0.041h0.041h0.041h0.043
			h0.041h0.041h0.041h0.041h0.041h0.041h0.041h0.043h0.041h0.041h0.041h0.041h0.041h0.041h0.041h0.041h0.041h0.043h0.041h0.041
			h0.041h0.051h0.041h0.041h0.041h0.043h0.041h0.041h0.041h0.041h0.041h0.041h0.041h0.043h0.041h0.041h0.041h0.041h0.041h0.041
			h0.041h0.043h0.041h0.041h0.041h0.041h0.041h0.044h0.041h0.041h0.041h0.041h0.041h0.041h0.043h0.041h0.041h0.041h0.041h0.041
			h0.041h0.041h0.041h0.041H28.2h0.041h0.041h0.041h0.041h0.041h0.041h0.041h0.041h0.041h0.041h0.041h0.041h0.041h0.043h0.041h0.041
			H28.9h0.041h0.041h0.043h0.041h0.041h0.041h0.041h0.041h0.041h0.041h0.041h0.041h0.041h0.043h0.041h0.041h0.02h0.022h0.041
			l0.04,0.001l0.041,0.001l0.042,0.001l0.04,0.002l0.041,0.002l0.041,0.002l0.043,0.002l0.041,0.002l0.025,0.002l0.016,0.001
			l0.041,0.002l0.041,0.003l0.041,0.003l0.041,0.003l0.041,0.005l0.041,0.004l0.041,0.005l0.043,0.005l0.041,0.005l0.041,0.005
			c0.013,0.002,0.026,0.004,0.041,0.007l0.041,0.007c0.015,0.002,0.026,0.005,0.041,0.008c0.015,0.002,0.026,0.006,0.041,0.008
			l0.041,0.008c0.015,0.003,0.028,0.007,0.043,0.009c0.015,0.003,0.026,0.007,0.041,0.01l0.041,0.011
			c0.015,0.003,0.026,0.007,0.041,0.01c0.015,0.004,0.026,0.008,0.041,0.012c0.015,0.004,0.028,0.008,0.041,0.013
			c0.015,0.004,0.026,0.008,0.041,0.012c0.015,0.005,0.026,0.009,0.041,0.014c0.015,0.004,0.026,0.009,0.043,0.014
			c0.013,0.004,0.026,0.01,0.041,0.015s0.026,0.01,0.041,0.015c0.014,0.006,0.026,0.011,0.041,0.017
			c0.015,0.006,0.028,0.011,0.041,0.018c0.014,0.006,0.026,0.011,0.043,0.017c0.014,0.007,0.026,0.013,0.041,0.019
			c0.014,0.006,0.026,0.014,0.041,0.02c0.012,0.006,0.026,0.013,0.041,0.021c0.014,0.007,0.026,0.014,0.041,0.021
			c0.014,0.007,0.026,0.015,0.041,0.022c0.014,0.008,0.026,0.016,0.041,0.024c0.014,0.008,0.028,0.017,0.041,0.025
			c0.014,0.009,0.026,0.017,0.041,0.026c0.014,0.009,0.028,0.018,0.041,0.027c0.014,0.009,0.026,0.019,0.043,0.029
			c0.012,0.01,0.026,0.02,0.041,0.03c0.014,0.011,0.026,0.021,0.041,0.033c0.014,0.01,0.026,0.022,0.04,0.034
			c0.015,0.011,0.027,0.023,0.041,0.036c0.015,0.012,0.027,0.025,0.041,0.038c0.015,0.013,0.027,0.026,0.041,0.04
			c0.015,0.015,0.027,0.029,0.041,0.043c0.015,0.016,0.029,0.03,0.043,0.046c0.015,0.016,0.027,0.033,0.041,0.049
			c0.015,0.018,0.027,0.035,0.041,0.053c0.015,0.02,0.029,0.038,0.041,0.058c0.015,0.021,0.027,0.042,0.041,0.063
			c0.015,0.023,0.029,0.046,0.041,0.07c0.015,0.026,0.029,0.053,0.041,0.08c0.017,0.03,0.029,0.061,0.041,0.093
			c0.017,0.037,0.029,0.074,0.043,0.112c0.015,0.047,0.029,0.096,0.041,0.146c0.019,0.08,0.033,0.163,0.041,0.248
			c0.006,0.066,0.011,0.135,0.011,0.206c0,0.066-0.005,0.132-0.011,0.198c-0.008,0.083-0.021,0.164-0.041,0.243
			c-0.012,0.049-0.024,0.098-0.041,0.146c-0.014,0.038-0.026,0.075-0.043,0.112c-0.012,0.031-0.024,0.063-0.041,0.094
			c-0.012,0.028-0.026,0.055-0.041,0.082c-0.012,0.024-0.026,0.048-0.041,0.072c-0.014,0.022-0.026,0.043-0.041,0.065
			c-0.012,0.021-0.026,0.041-0.041,0.06c-0.014,0.019-0.026,0.037-0.041,0.055c-0.014,0.017-0.026,0.034-0.041,0.051
			c-0.014,0.016-0.026,0.032-0.043,0.047c-0.012,0.015-0.026,0.03-0.041,0.045c-0.014,0.014-0.026,0.028-0.041,0.042
			c-0.014,0.013-0.026,0.026-0.041,0.04c-0.014,0.013-0.026,0.025-0.041,0.037c-0.014,0.012-0.026,0.024-0.04,0.037
			c-0.015,0.01-0.027,0.021-0.041,0.032c-0.015,0.011-0.027,0.021-0.041,0.032c-0.015,0.01-0.027,0.02-0.043,0.029
			c-0.013,0.011-0.027,0.02-0.041,0.029c-0.015,0.008-0.027,0.018-0.041,0.026c-0.013,0.009-0.027,0.017-0.041,0.026
			c-0.015,0.008-0.027,0.016-0.041,0.023c-0.015,0.008-0.027,0.016-0.041,0.023c-0.015,0.008-0.027,0.015-0.041,0.021
			c-0.015,0.007-0.027,0.015-0.041,0.021c-0.015,0.008-0.027,0.015-0.041,0.021c-0.015,0.008-0.027,0.014-0.041,0.021
			c-0.015,0.006-0.026,0.012-0.043,0.018c-0.013,0.006-0.026,0.012-0.041,0.018c-0.015,0.006-0.026,0.012-0.041,0.018
			c-0.015,0.005-0.026,0.012-0.041,0.016c-0.015,0.006-0.026,0.01-0.041,0.016c-0.015,0.005-0.028,0.009-0.043,0.014
			c-0.015,0.004-0.026,0.01-0.041,0.014s-0.026,0.008-0.041,0.014c-0.013,0.004-0.026,0.008-0.041,0.012
			c-0.015,0.004-0.026,0.008-0.041,0.012c-0.015,0.004-0.026,0.008-0.041,0.012c-0.015,0.002-0.026,0.006-0.041,0.01
			c-0.015,0.003-0.026,0.006-0.041,0.009l-0.043,0.01c-0.013,0.004-0.026,0.006-0.041,0.01l-0.041,0.008
			c-0.015,0.002-0.026,0.004-0.041,0.007l-0.041,0.007l-0.038,0.006v0.049l0.039,0.004l0.041,0.002l0.041,0.004l0.041,0.004
			l0.041,0.004l0.043,0.006l0.041,0.005c0.016,0.002,0.027,0.004,0.041,0.006l0.041,0.007c0.016,0.002,0.027,0.004,0.041,0.008
			l0.041,0.006l0.041,0.009c0.016,0.003,0.027,0.005,0.041,0.008c0.016,0.003,0.027,0.005,0.043,0.009
			c0.013,0.004,0.025,0.006,0.041,0.01c0.014,0.002,0.027,0.006,0.041,0.01c0.014,0.002,0.027,0.006,0.041,0.01
			c0.015,0.004,0.027,0.008,0.041,0.011c0.014,0.005,0.027,0.007,0.043,0.013l0.041,0.012c0.012,0.004,0.025,0.008,0.041,0.013
			c0.012,0.004,0.025,0.009,0.041,0.013c0.014,0.006,0.027,0.01,0.041,0.014c0.014,0.005,0.027,0.011,0.041,0.015
			c0.014,0.005,0.027,0.011,0.041,0.015c0.014,0.006,0.027,0.01,0.041,0.017c0.014,0.006,0.027,0.011,0.041,0.017
			c0.014,0.006,0.027,0.012,0.041,0.018c0.014,0.006,0.027,0.012,0.043,0.018c0.012,0.006,0.025,0.012,0.041,0.02
			c0.014,0.006,0.025,0.013,0.041,0.02c0.014,0.007,0.027,0.014,0.041,0.021c0.014,0.006,0.025,0.014,0.041,0.021
			c0.014,0.007,0.027,0.015,0.039,0.022c0.016,0.008,0.027,0.015,0.043,0.022c0.014,0.009,0.027,0.017,0.041,0.024
			c0.014,0.007,0.027,0.017,0.041,0.025c0.016,0.008,0.027,0.018,0.041,0.025c0.016,0.009,0.029,0.02,0.043,0.027
			c0.014,0.01,0.027,0.02,0.041,0.029c0.014,0.009,0.027,0.02,0.041,0.03c0.014,0.01,0.027,0.021,0.041,0.03
			c0.014,0.013,0.027,0.021,0.041,0.035c0.014,0.01,0.027,0.021,0.041,0.035c0.014,0.012,0.027,0.023,0.041,0.035
			c0.014,0.014,0.027,0.027,0.041,0.039c0.016,0.016,0.029,0.027,0.043,0.041c0.014,0.016,0.027,0.029,0.041,0.045
			c0.016,0.016,0.027,0.031,0.041,0.047s0.027,0.033,0.041,0.049c0.016,0.019,0.027,0.037,0.041,0.056
			c0.016,0.019,0.028,0.036,0.041,0.057c0.016,0.021,0.028,0.044,0.041,0.063c0.016,0.021,0.028,0.046,0.041,0.068
			c0.016,0.025,0.028,0.053,0.043,0.078c0.014,0.031,0.026,0.061,0.041,0.092c0.016,0.033,0.028,0.068,0.041,0.105
			c0.016,0.043,0.028,0.088,0.041,0.135c0.018,0.066,0.03,0.137,0.041,0.207c0.012,0.086,0.018,0.176,0.018,0.266
			c0,0.095-0.006,0.187-0.018,0.273c-0.011,0.074-0.023,0.146-0.041,0.215c-0.013,0.047-0.025,0.094-0.041,0.141
			c-0.013,0.037-0.025,0.074-0.041,0.109c-0.015,0.031-0.025,0.062-0.041,0.094c-0.014,0.027-0.027,0.054-0.043,0.08
			c-0.013,0.025-0.025,0.049-0.041,0.072c-0.013,0.021-0.025,0.045-0.041,0.066c-0.013,0.02-0.025,0.039-0.041,0.059
			c-0.014,0.02-0.025,0.037-0.041,0.057c-0.014,0.019-0.025,0.035-0.041,0.054c-0.014,0.016-0.027,0.03-0.041,0.047
			c-0.014,0.017-0.027,0.03-0.041,0.045c-0.014,0.017-0.027,0.028-0.043,0.043c-0.014,0.015-0.025,0.026-0.041,0.041
			c-0.014,0.013-0.025,0.024-0.041,0.037c-0.014,0.012-0.027,0.024-0.041,0.037c-0.014,0.012-0.027,0.022-0.041,0.032
			c-0.014,0.013-0.027,0.021-0.041,0.033c-0.014,0.012-0.027,0.021-0.041,0.031c-0.014,0.012-0.027,0.021-0.041,0.031
			c-0.014,0.01-0.027,0.02-0.043,0.027c-0.012,0.01-0.025,0.02-0.041,0.026c-0.014,0.009-0.025,0.019-0.041,0.024
			c-0.014,0.009-0.027,0.019-0.041,0.025c-0.014,0.008-0.027,0.016-0.043,0.023c-0.012,0.008-0.025,0.016-0.039,0.021
			c-0.016,0.008-0.027,0.016-0.041,0.022c-0.014,0.006-0.027,0.015-0.041,0.021c-0.016,0.008-0.027,0.016-0.041,0.021
			c-0.016,0.006-0.027,0.014-0.041,0.02c-0.016,0.006-0.027,0.012-0.043,0.019c-0.014,0.006-0.027,0.012-0.041,0.019
			c-0.014,0.006-0.027,0.012-0.041,0.018c-0.014,0.006-0.027,0.012-0.041,0.018c-0.014,0.006-0.027,0.01-0.041,0.016
			c-0.014,0.004-0.027,0.011-0.041,0.015c-0.014,0.006-0.027,0.01-0.041,0.015c-0.014,0.004-0.027,0.01-0.041,0.014l-0.041,0.006
			c-0.016,0.004-0.027,0.008-0.041,0.012c-0.016,0.004-0.027,0.01-0.043,0.012c-0.014,0.004-0.026,0.008-0.041,0.013
			c-0.014,0.004-0.025,0.006-0.041,0.01c-0.014,0.004-0.027,0.006-0.041,0.011c-0.016,0.004-0.027,0.006-0.041,0.01l-0.043,0.008
			c-0.014,0.002-0.025,0.008-0.041,0.01c-0.014,0.002-0.025,0.004-0.041,0.008l-0.041,0.006l-0.041,0.008
			c-0.014,0.002-0.025,0.004-0.041,0.006c-0.014,0.002-0.025,0.004-0.041,0.006c-0.014,0.002-0.027,0.005-0.041,0.007l-0.043,0.004
			c-0.014,0.002-0.025,0.004-0.041,0.004c-0.014,0.002-0.025,0.004-0.041,0.004l-0.041-0.001l-0.041,0.004l-0.041,0.002
			l-0.041,0.002l-0.057,0.006c-0.014,0.002-0.026,0.002-0.043,0.002c-0.014,0-0.026,0-0.041,0.002h-0.041h-0.041h-0.02h-0.02h-0.041
			H30.04h-0.041h-0.041h-0.041h-0.041h-0.041h-0.041h-0.041H29.71h-0.041h-0.041h-0.041h-0.039h-0.041h-0.041h-0.041h-0.041h-0.041
			h-0.041h-0.041h-0.043h-0.04h-0.041h-0.041h-0.041h-0.041h-0.043H28.93h-0.041h-0.041h-0.041h-0.039h-0.043h-0.039h-0.041h-0.043
			h-0.041H28.52h-0.041h-0.041h-0.039h-0.041h-0.041h-0.041h-0.041h-0.041h-0.042h-0.041H28.07h-0.041h-0.041h-0.043h-0.041h-0.041
			h-0.041h-0.041H27.74h-0.041h-0.041h-0.041h-0.041h-0.041h-0.041h-0.043H27.41h-0.041h-0.041h-0.041h-0.041h-0.038h-0.041h-0.041
			h-0.041h-0.041h-0.041h-0.041h-0.041h-0.043h-0.041h-0.039h-0.041h-0.041h-0.041h-0.041h-0.041H26.55h-0.042h-0.041h-0.039h-0.043
			h-0.041h-0.041h-0.041h-0.041H26.18h-0.041h-0.041h-0.041h-0.041h-0.041h-0.039h-0.041h-0.041H25.81h-0.04h-0.041h-0.041h-0.039
			h-0.043h-0.041h-0.041h-0.042H25.44h-0.043h-0.041h-0.041h-0.039h-0.041h-0.041h-0.041h-0.041h-0.041H25.03h-0.041h-0.041h-0.041
			h-0.041h-0.041h-0.041h-0.041h-0.041h-0.041H24.62h-0.043h-0.041h-0.04h-0.039h-0.041h-0.041h-0.041h-0.041h-0.041h-0.041H24.17
			h-0.043h-0.039h-0.041h-0.041h-0.043h-0.041h-0.041H23.84h-0.041h-0.042h-0.041h-0.039h-0.043h-0.087v8.67h0.088h0.043h0.041
			h0.041h0.041h0.041h0.041h0.041h0.041h0.043h0.041h0.041h0.041h0.041h0.041h0.041h0.041h0.043h0.041h0.041h0.041h0.041h0.041
			h0.041h0.041h0.041h0.041h0.041h0.041h0.043h0.041h0.041h0.041h0.041h0.043h0.041h0.04h0.041h0.041h0.041h0.041h0.041h0.041h0.041
			h0.041h0.041h0.043h0.041h0.041h0.041h0.041h0.041h0.041h0.041h0.043h0.041h0.041h0.041h0.041h0.041h0.041h0.041h0.041h0.041
			h0.043h0.041h0.041h0.041h0.029h0.041h0.041h0.041h0.043h0.041h0.041h0.041h0.041h0.041h0.041h0.041h0.043h0.041h0.041h0.041
			h0.041h0.041h0.041h0.041h0.043h0.041h0.041h0.041h0.041h0.041h0.044h0.041h0.041h0.041h0.041h0.041h0.041h0.043h0.041h0.041
			h0.041h0.041h0.041h0.041h0.041h0.041h0.041H28.2h0.041h0.041h0.041h0.041h0.041h0.041h0.041h0.041h0.041h0.041h0.041h0.041h0.041
			h0.043h0.041h0.041H28.9h0.041h0.041h0.043h0.041h0.041h0.041h0.041h0.041h0.041h0.041h0.041h0.041h0.041h0.043h0.041h0.041h0.042
			h0.041h0.041h0.04h0.042h0.032h0.008h0.041c0.015,0,0.027,0,0.041,0l0.041-0.002h0.041c0.015,0,0.029,0,0.043-0.002
			c0.013,0,0.027,0,0.041-0.002l0.041-0.002c0.015,0,0.027-0.002,0.041-0.002c0.015-0.002,0.027-0.002,0.041-0.004
			c0.015-0.002,0.029-0.002,0.041-0.006c0.015,0,0.026-0.002,0.041-0.002c0.015-0.002,0.026-0.004,0.041-0.006
			c0.015,0,0.026-0.002,0.043-0.004c0.013-0.002,0.026-0.004,0.041-0.004l0.041-0.008l0.041-0.006l0.041-0.006
			c0.015-0.002,0.026-0.004,0.041-0.007c0.015-0.002,0.026-0.004,0.041-0.008l0.041-0.008l0.043-0.009
			c0.015-0.004,0.026-0.006,0.041-0.01c0.015-0.002,0.026-0.006,0.041-0.01l0.041-0.01l0.041-0.01l0.041-0.012
			c0.015-0.002,0.026-0.006,0.041-0.011c0.015-0.004,0.026-0.008,0.041-0.012c0.015-0.005,0.026-0.007,0.043-0.013l0.041-0.012
			c0.015-0.004,0.026-0.008,0.041-0.012l0.041-0.014c0.015-0.006,0.026-0.01,0.041-0.014c0.014-0.005,0.026-0.011,0.043-0.015
			c0.015-0.006,0.026-0.011,0.041-0.017l0.041-0.014c0.012-0.006,0.026-0.012,0.041-0.018c0.014-0.004,0.026-0.01,0.041-0.016
			c0.014-0.006,0.026-0.012,0.041-0.019c0.014-0.004,0.026-0.011,0.041-0.017c0.014-0.006,0.026-0.012,0.041-0.019
			c0.014-0.007,0.026-0.013,0.041-0.019l0.041-0.02l0.043-0.021c0.012-0.006,0.026-0.012,0.041-0.018
			c0.014-0.008,0.026-0.016,0.041-0.021c0.014-0.008,0.026-0.014,0.041-0.021c0.014-0.007,0.026-0.016,0.04-0.021
			c0.015-0.009,0.027-0.015,0.041-0.021c0.015-0.009,0.027-0.017,0.041-0.021c0.015-0.008,0.027-0.016,0.041-0.023
			c0.015-0.007,0.029-0.016,0.043-0.023l0.041-0.022c0.015-0.008,0.027-0.019,0.041-0.024c0.015-0.008,0.027-0.018,0.041-0.025
			c0.015-0.008,0.027-0.018,0.041-0.025c0.015-0.01,0.027-0.018,0.041-0.027c0.015-0.008,0.027-0.018,0.041-0.026
			c0.015-0.008,0.027-0.019,0.041-0.028c0.015-0.009,0.027-0.019,0.043-0.027c0.013-0.01,0.027-0.021,0.041-0.029
			c0.015-0.01,0.027-0.021,0.041-0.029c0.015-0.012,0.027-0.021,0.041-0.033c0.015-0.01,0.027-0.021,0.041-0.031
			c0.015-0.012,0.029-0.021,0.043-0.032c0.015-0.013,0.026-0.022,0.041-0.033c0.013-0.012,0.026-0.022,0.041-0.034
			c0.015-0.013,0.027-0.023,0.041-0.035c0.015-0.013,0.027-0.023,0.041-0.037c0.015-0.012,0.025-0.023,0.041-0.037
			c0.015-0.014,0.027-0.025,0.041-0.039c0.015-0.014,0.027-0.025,0.041-0.039c0.015-0.014,0.027-0.027,0.041-0.039
			c0.015-0.016,0.027-0.029,0.041-0.043c0.015-0.014,0.027-0.027,0.041-0.041c0.015-0.016,0.027-0.029,0.043-0.043
			c0.013-0.018,0.025-0.031,0.041-0.045c0.015-0.018,0.027-0.031,0.041-0.049c0.015-0.016,0.027-0.031,0.041-0.047
			c0.015-0.017,0.027-0.033,0.041-0.049c0.015-0.019,0.027-0.035,0.041-0.052c0.014-0.019,0.027-0.034,0.041-0.053
			c0.014-0.019,0.027-0.037,0.041-0.056c0.014-0.02,0.027-0.037,0.043-0.057c0.014-0.02,0.025-0.039,0.041-0.059
			c0.014-0.02,0.025-0.039,0.041-0.061c0.014-0.021,0.025-0.041,0.041-0.062c0.014-0.021,0.027-0.043,0.041-0.064
			c0.014-0.023,0.027-0.045,0.041-0.068c0.014-0.022,0.025-0.047,0.041-0.069c0.014-0.024,0.025-0.05,0.041-0.074
			c0.014-0.024,0.027-0.051,0.041-0.077c0.014-0.027,0.027-0.056,0.041-0.082c0.014-0.029,0.027-0.058,0.041-0.086
			c0.016-0.031,0.027-0.062,0.041-0.093c0.014-0.032,0.027-0.065,0.043-0.101c0.014-0.035,0.025-0.069,0.04-0.104
			c0.015-0.039,0.028-0.077,0.04-0.116c0.016-0.041,0.029-0.086,0.041-0.13c0.016-0.047,0.029-0.096,0.041-0.146
			c0.016-0.057,0.029-0.112,0.041-0.17c0.018-0.069,0.029-0.143,0.043-0.213c0.018-0.106,0.031-0.215,0.041-0.324
			c0.012-0.125,0.018-0.25,0.018-0.377V4.272H34.052z"/>
	</g>
</g>
<g>
	<g>
		<path d="M29.228,18.413c-0.012-0.049-0.022-0.094-0.041-0.141c-0.012-0.031-0.025-0.064-0.041-0.096
			c-0.014-0.025-0.024-0.053-0.041-0.078c-0.014-0.021-0.024-0.043-0.041-0.064c-0.014-0.02-0.027-0.039-0.041-0.057
			c-0.014-0.016-0.024-0.033-0.041-0.049c-0.014-0.016-0.026-0.031-0.041-0.045c-0.014-0.014-0.026-0.027-0.043-0.039
			c-0.014-0.014-0.026-0.023-0.041-0.037c-0.014-0.01-0.026-0.021-0.041-0.031c-0.014-0.01-0.026-0.02-0.041-0.029
			c-0.014-0.008-0.026-0.02-0.041-0.026c-0.014-0.009-0.026-0.017-0.041-0.022c-0.016-0.009-0.026-0.017-0.041-0.021
			c-0.016-0.006-0.026-0.014-0.043-0.02c-0.014-0.006-0.026-0.013-0.041-0.019c-0.014-0.006-0.026-0.013-0.041-0.017
			c-0.014-0.006-0.026-0.01-0.041-0.016c-0.014-0.002-0.026-0.008-0.041-0.012c-0.014-0.004-0.026-0.006-0.041-0.01l-0.018-0.004
			c-0.008-0.002-0.016-0.004-0.023-0.004c-0.012-0.002-0.026-0.004-0.041-0.006c-0.014-0.002-0.026-0.004-0.041-0.007
			c-0.016,0-0.026-0.002-0.041-0.002c-0.014-0.002-0.026-0.004-0.041-0.004c-0.014-0.002-0.028-0.002-0.041-0.004
			c-0.016,0-0.028,0-0.041-0.002h-0.008h-0.033h-0.041h-0.047h-0.043h-0.041h-0.041h-0.041h-0.041H27.74h-0.041h-0.041h-0.041
			h-0.039h-0.043h-0.041h-0.041h-0.041h-0.04h-0.041H27.29h-0.041h-0.041h-0.041h-0.041h-0.041h-0.041h-0.041h-0.041h-0.043h-0.041
			h-0.041h-0.039h-0.041h-0.041h-0.041h-0.041h-0.041h-0.041h-0.041h-0.043h-0.04h-0.041h-0.041h-0.041h-0.043h-0.041H26.18h-0.041
			h-0.041h-0.041h-0.039h-0.041h-0.041h-0.041h-0.041H25.81h-0.04h-0.041h-0.041h-0.039h-0.021V19.8h0.021h0.043h0.041h0.041h0.041
			h0.041h0.041h0.043h0.041h0.041h0.041h0.041h0.041h0.043h0.041h0.041h0.041h0.041h0.041h0.035h0.041h0.041h0.041h0.041h0.041
			h0.041h0.041h0.043h0.041h0.041h0.041h0.041h0.041h0.041h0.041h0.041h0.042h0.043h0.041h0.041h0.041h0.041h0.041h0.041h0.041
			h0.041h0.041h0.043h0.041h0.041h0.041h0.04h0.041h0.041h0.041h0.041h0.041h0.043h0.041h0.041h0.019h0.022
			c0.013,0,0.025-0.003,0.041-0.003c0.013-0.002,0.027-0.002,0.041-0.004c0.015,0,0.027-0.002,0.041-0.002
			c0.015-0.002,0.025-0.002,0.041-0.004c0.015-0.002,0.027-0.004,0.041-0.006c0.015-0.002,0.029-0.004,0.041-0.006
			c0.009-0.002,0.017-0.004,0.023-0.006l0.018-0.004c0.015-0.002,0.025-0.006,0.041-0.01c0.015-0.004,0.027-0.008,0.041-0.012
			c0.015-0.004,0.027-0.011,0.041-0.015c0.015-0.006,0.027-0.01,0.041-0.017c0.015-0.006,0.027-0.012,0.041-0.018
			c0.015-0.008,0.027-0.014,0.043-0.021c0.015-0.008,0.025-0.014,0.041-0.021c0.013-0.008,0.027-0.016,0.041-0.023
			c0.015-0.008,0.027-0.018,0.041-0.026c0.015-0.008,0.027-0.019,0.041-0.028c0.015-0.011,0.027-0.021,0.041-0.031
			c0.015-0.012,0.027-0.023,0.041-0.035c0.014-0.014,0.027-0.027,0.043-0.041c0.015-0.016,0.027-0.029,0.041-0.043
			c0.015-0.018,0.027-0.033,0.041-0.051c0.014-0.019,0.027-0.037,0.041-0.058c0.017-0.021,0.027-0.043,0.041-0.063
			c0.017-0.025,0.027-0.051,0.041-0.076c0.016-0.033,0.029-0.064,0.041-0.1c0.019-0.045,0.029-0.09,0.041-0.14
			c0.021-0.082,0.029-0.17,0.029-0.262C29.257,18.582,29.247,18.493,29.228,18.413z"/>
	</g>
</g>
<g>
	<g>
		<path d="M28.945,15.017c-0.01-0.048-0.022-0.095-0.041-0.139c-0.014-0.033-0.024-0.064-0.041-0.095
			c-0.012-0.025-0.026-0.05-0.041-0.074c-0.014-0.021-0.026-0.042-0.041-0.062c-0.014-0.018-0.026-0.035-0.041-0.053
			c-0.014-0.016-0.026-0.031-0.041-0.046c-0.014-0.015-0.026-0.028-0.041-0.041c-0.014-0.013-0.026-0.025-0.041-0.037
			c-0.014-0.012-0.026-0.023-0.043-0.033c-0.012-0.01-0.026-0.021-0.041-0.03c-0.014-0.01-0.026-0.019-0.041-0.027
			c-0.014-0.008-0.026-0.016-0.041-0.024c-0.014-0.007-0.026-0.015-0.041-0.021c-0.014-0.008-0.026-0.014-0.041-0.02
			c-0.014-0.006-0.026-0.013-0.041-0.018c-0.014-0.005-0.028-0.01-0.041-0.015c-0.014-0.005-0.026-0.01-0.041-0.014
			c-0.016-0.004-0.028-0.008-0.043-0.011c-0.014-0.004-0.026-0.008-0.041-0.01c-0.012-0.004-0.026-0.007-0.04-0.009l-0.011-0.002
			c-0.008-0.001-0.016-0.003-0.03-0.004c-0.013-0.001-0.025-0.003-0.041-0.004c-0.015-0.002-0.027-0.003-0.041-0.004
			c-0.015-0.001-0.027-0.002-0.041-0.003c-0.015-0.001-0.027-0.002-0.041-0.002h-0.025h-0.016h-0.041h-0.041h-0.043H27.71h-0.041
			h-0.041h-0.042h-0.043h-0.041h-0.041H27.42h-0.041h-0.043h-0.041h-0.041h-0.041h-0.041h-0.041h-0.043h-0.041h-0.041h-0.041h-0.041
			h-0.041H26.84h-0.041h-0.041h-0.041h-0.041h-0.041h-0.043h-0.041H26.51h-0.041h-0.041h-0.037H26.35h-0.041h-0.043h-0.041h-0.039
			h-0.041h-0.043H26.06h-0.041h-0.041h-0.041h-0.041h-0.041h-0.043h-0.041H25.73h-0.041h-0.041h-0.021v2.07h0.021h0.001v0.003h0.041
			h0.041h0.041h0.041h0.041h0.041h0.041h0.041h0.041h0.039h0.041h0.041h0.041h0.041h0.041h0.043h0.041h0.041h0.041h0.039h0.041
			h0.042h0.041h0.043h0.041h0.041h0.041h0.041h0.035h0.043h0.041h0.041h0.041h0.041h0.041h0.043h0.041h0.041h0.041h0.04h0.041h0.043
			h0.041h0.041h0.041h0.041h0.043h0.05h0.041h0.041h0.041h0.043h0.041h0.034h0.007c0.012,0,0.026,0,0.041,0
			c0.014,0,0.026-0.002,0.041-0.002c0.014-0.002,0.026-0.002,0.041-0.004c0.014,0,0.026-0.002,0.041-0.004
			c0.016,0,0.028-0.002,0.041-0.004c0.01-0.002,0.022-0.003,0.03-0.004l0.011-0.002c0.014-0.003,0.028-0.005,0.04-0.008
			c0.015-0.003,0.027-0.006,0.041-0.01c0.015-0.004,0.029-0.008,0.043-0.012c0.015-0.004,0.027-0.009,0.041-0.013
			c0.015-0.005,0.027-0.011,0.041-0.016c0.015-0.006,0.027-0.011,0.041-0.017c0.015-0.006,0.027-0.014,0.041-0.02
			c0.015-0.006,0.027-0.014,0.041-0.021c0.015-0.007,0.027-0.016,0.041-0.024c0.015-0.008,0.027-0.017,0.041-0.026
			c0.015-0.009,0.029-0.02,0.041-0.03c0.017-0.011,0.029-0.021,0.043-0.033c0.015-0.013,0.027-0.024,0.041-0.037
			c0.015-0.013,0.027-0.027,0.041-0.041c0.015-0.014,0.027-0.03,0.041-0.046c0.015-0.017,0.027-0.035,0.041-0.053
			c0.015-0.02,0.027-0.041,0.041-0.062c0.015-0.024,0.029-0.049,0.041-0.074c0.017-0.03,0.029-0.062,0.041-0.094
			c0.019-0.045,0.031-0.092,0.041-0.14c0.015-0.075,0.025-0.156,0.025-0.239C28.97,15.172,28.964,15.092,28.945,15.017z"/>
	</g>
</g>
<g>
</g>
<g>
</g>
<g>
</g>
<g>
</g>
<g>
</g>
<g>
</g>
<g>
</g>
<g>
</g>
<g>
</g>
<g>
</g>
<g>
</g>
<g>
</g>
<g>
</g>
<g>
</g>
<g>
</g>
</svg>
